G04*
G04 #@! TF.GenerationSoftware,Altium Limited,Altium Designer,23.3.1 (30)*
G04*
G04 Layer_Color=8388736*
%FSLAX25Y25*%
%MOIN*%
G70*
G04*
G04 #@! TF.SameCoordinates,1807A7FA-BBD2-43EF-8C31-EE1E2BFEB24F*
G04*
G04*
G04 #@! TF.FilePolarity,Negative*
G04*
G01*
G75*
%ADD60C,0.11811*%
%ADD61R,0.05918X0.06706*%
%ADD62R,0.04737X0.10642*%
%ADD63R,0.07887X0.04737*%
%ADD64R,0.06115X0.06706*%
%ADD65R,0.07099X0.05721*%
%ADD66R,0.05131X0.03162*%
%ADD67R,0.10249X0.06706*%
%ADD68R,0.06902X0.12611*%
%ADD69R,0.05524X0.01981*%
%ADD70R,0.01981X0.05524*%
%ADD71R,0.04343X0.04540*%
%ADD72R,0.07099X0.07887*%
%ADD73R,0.04343X0.03950*%
%ADD74R,0.10642X0.07493*%
%ADD75C,0.08800*%
%ADD76R,0.08800X0.08800*%
%ADD77R,0.07887X0.07887*%
%ADD78C,0.07887*%
%ADD79C,0.12611*%
%ADD80C,0.09461*%
%ADD81C,0.09461*%
%ADD82C,0.10249*%
%ADD83R,0.10249X0.10249*%
%ADD84O,0.07887X0.25603*%
%ADD85O,0.07887X0.22060*%
%ADD86O,0.22060X0.07887*%
%ADD87C,0.07200*%
D60*
X435433Y13780D02*
D03*
Y147638D02*
D03*
X407480Y120079D02*
D03*
Y253937D02*
D03*
D61*
X670965Y98425D02*
D03*
X663484D02*
D03*
X468701Y19685D02*
D03*
X461221D02*
D03*
X539075Y45276D02*
D03*
X531595D02*
D03*
X539075Y35433D02*
D03*
X531595D02*
D03*
X696457Y71850D02*
D03*
X703937D02*
D03*
X696949Y83662D02*
D03*
X704429D02*
D03*
X585532Y63484D02*
D03*
X593012D02*
D03*
X713681Y121063D02*
D03*
X721162D02*
D03*
X812992Y77756D02*
D03*
X805512D02*
D03*
X619095Y103347D02*
D03*
X611614D02*
D03*
X688189Y36417D02*
D03*
X680709D02*
D03*
X688189Y45768D02*
D03*
X680709D02*
D03*
X643110Y29035D02*
D03*
X650591D02*
D03*
X661122Y112205D02*
D03*
X653642D02*
D03*
X715354Y64961D02*
D03*
X722835D02*
D03*
X681201Y112205D02*
D03*
X688681D02*
D03*
X754331Y69882D02*
D03*
X746850D02*
D03*
X801378Y108268D02*
D03*
X793898D02*
D03*
X643110Y20177D02*
D03*
X650591D02*
D03*
X723819Y10335D02*
D03*
X716339D02*
D03*
X586024Y24360D02*
D03*
X593504D02*
D03*
X593012Y72534D02*
D03*
X585532D02*
D03*
X593012Y90633D02*
D03*
X585532D02*
D03*
X593012Y81583D02*
D03*
X585532D02*
D03*
X670965Y232283D02*
D03*
X663484D02*
D03*
X468701Y153543D02*
D03*
X461221D02*
D03*
X539075Y179134D02*
D03*
X531595D02*
D03*
X539075Y169291D02*
D03*
X531595D02*
D03*
X696457Y205709D02*
D03*
X703937D02*
D03*
X696949Y217520D02*
D03*
X704429D02*
D03*
X585532Y197343D02*
D03*
X593012D02*
D03*
X713681Y254921D02*
D03*
X721162D02*
D03*
X812992Y211614D02*
D03*
X805512D02*
D03*
X619095Y237205D02*
D03*
X611614D02*
D03*
X688189Y170276D02*
D03*
X680709D02*
D03*
X688189Y179626D02*
D03*
X680709D02*
D03*
X643110Y162894D02*
D03*
X650591D02*
D03*
X661122Y246063D02*
D03*
X653642D02*
D03*
X715354Y198819D02*
D03*
X722835D02*
D03*
X681201Y246063D02*
D03*
X688681D02*
D03*
X754331Y203740D02*
D03*
X746850D02*
D03*
X801378Y242126D02*
D03*
X793898D02*
D03*
X643110Y154035D02*
D03*
X650591D02*
D03*
X723819Y144193D02*
D03*
X716339D02*
D03*
X586024Y158219D02*
D03*
X593504D02*
D03*
X593012Y206392D02*
D03*
X585532D02*
D03*
X593012Y224491D02*
D03*
X585532D02*
D03*
X593012Y215442D02*
D03*
X585532D02*
D03*
X171949Y35433D02*
D03*
X179429D02*
D03*
X374213Y114173D02*
D03*
X381693D02*
D03*
X303839Y88583D02*
D03*
X311319D02*
D03*
X303839Y98425D02*
D03*
X311319D02*
D03*
X146457Y62008D02*
D03*
X138977D02*
D03*
X145965Y50197D02*
D03*
X138484D02*
D03*
X257382Y70374D02*
D03*
X249902D02*
D03*
X129232Y12795D02*
D03*
X121752D02*
D03*
X29921Y56102D02*
D03*
X37402D02*
D03*
X223819Y30512D02*
D03*
X231299D02*
D03*
X154724Y97441D02*
D03*
X162205D02*
D03*
X154724Y88090D02*
D03*
X162205D02*
D03*
X199803Y104823D02*
D03*
X192323D02*
D03*
X181791Y21654D02*
D03*
X189272D02*
D03*
X127559Y68898D02*
D03*
X120079D02*
D03*
X161713Y21654D02*
D03*
X154232D02*
D03*
X88583Y63976D02*
D03*
X96063D02*
D03*
X41536Y25591D02*
D03*
X49016D02*
D03*
X199803Y113681D02*
D03*
X192323D02*
D03*
X119095Y123524D02*
D03*
X126575D02*
D03*
X256890Y109498D02*
D03*
X249409D02*
D03*
X249902Y61324D02*
D03*
X257382D02*
D03*
X249902Y43225D02*
D03*
X257382D02*
D03*
X249902Y52275D02*
D03*
X257382D02*
D03*
X171949Y169291D02*
D03*
X179429D02*
D03*
X374213Y248031D02*
D03*
X381693D02*
D03*
X303839Y222441D02*
D03*
X311319D02*
D03*
X303839Y232283D02*
D03*
X311319D02*
D03*
X146457Y195866D02*
D03*
X138977D02*
D03*
X145965Y184055D02*
D03*
X138484D02*
D03*
X257382Y204232D02*
D03*
X249902D02*
D03*
X129232Y146653D02*
D03*
X121752D02*
D03*
X29921Y189961D02*
D03*
X37402D02*
D03*
X223819Y164370D02*
D03*
X231299D02*
D03*
X154724Y231299D02*
D03*
X162205D02*
D03*
X154724Y221949D02*
D03*
X162205D02*
D03*
X199803Y238681D02*
D03*
X192323D02*
D03*
X181791Y155512D02*
D03*
X189272D02*
D03*
X127559Y202756D02*
D03*
X120079D02*
D03*
X161713Y155512D02*
D03*
X154232D02*
D03*
X88583Y197835D02*
D03*
X96063D02*
D03*
X41536Y159449D02*
D03*
X49016D02*
D03*
X199803Y247539D02*
D03*
X192323D02*
D03*
X119095Y257382D02*
D03*
X126575D02*
D03*
X256890Y243356D02*
D03*
X249409D02*
D03*
X249902Y195183D02*
D03*
X257382D02*
D03*
X249902Y177083D02*
D03*
X257382D02*
D03*
X249902Y186133D02*
D03*
X257382D02*
D03*
D62*
X468406Y45472D02*
D03*
X476280D02*
D03*
X484154D02*
D03*
X492028D02*
D03*
X499902D02*
D03*
X507776D02*
D03*
X515650D02*
D03*
Y105315D02*
D03*
X507776D02*
D03*
X499902D02*
D03*
X492028D02*
D03*
X484154D02*
D03*
X476280D02*
D03*
X468406D02*
D03*
X460532D02*
D03*
Y45472D02*
D03*
X468406Y179331D02*
D03*
X476280D02*
D03*
X484154D02*
D03*
X492028D02*
D03*
X499902D02*
D03*
X507776D02*
D03*
X515650D02*
D03*
Y239173D02*
D03*
X507776D02*
D03*
X499902D02*
D03*
X492028D02*
D03*
X484154D02*
D03*
X476280D02*
D03*
X468406D02*
D03*
X460532D02*
D03*
Y179331D02*
D03*
X374508Y88386D02*
D03*
X366634D02*
D03*
X358760D02*
D03*
X350886D02*
D03*
X343012D02*
D03*
X335138D02*
D03*
X327264D02*
D03*
Y28543D02*
D03*
X335138D02*
D03*
X343012D02*
D03*
X350886D02*
D03*
X358760D02*
D03*
X366634D02*
D03*
X374508D02*
D03*
X382382D02*
D03*
Y88386D02*
D03*
X374508Y222244D02*
D03*
X366634D02*
D03*
X358760D02*
D03*
X350886D02*
D03*
X343012D02*
D03*
X335138D02*
D03*
X327264D02*
D03*
Y162402D02*
D03*
X335138D02*
D03*
X343012D02*
D03*
X350886D02*
D03*
X358760D02*
D03*
X366634D02*
D03*
X374508D02*
D03*
X382382D02*
D03*
Y222244D02*
D03*
D63*
X521555Y95079D02*
D03*
D03*
Y87205D02*
D03*
Y79331D02*
D03*
Y71457D02*
D03*
Y63583D02*
D03*
Y55709D02*
D03*
Y228937D02*
D03*
D03*
Y221063D02*
D03*
Y213189D02*
D03*
Y205315D02*
D03*
Y197441D02*
D03*
Y189567D02*
D03*
X321358Y38780D02*
D03*
D03*
Y46654D02*
D03*
Y54528D02*
D03*
Y62402D02*
D03*
Y70276D02*
D03*
Y78150D02*
D03*
Y172638D02*
D03*
D03*
Y180512D02*
D03*
Y188386D02*
D03*
Y196260D02*
D03*
Y204134D02*
D03*
Y212008D02*
D03*
D64*
X461221Y29528D02*
D03*
X468701D02*
D03*
X494291Y34941D02*
D03*
X486811D02*
D03*
X504035Y117618D02*
D03*
X511516D02*
D03*
X504528Y125984D02*
D03*
X512008D02*
D03*
X697047Y98425D02*
D03*
X689567D02*
D03*
X746949Y101870D02*
D03*
X754429D02*
D03*
Y92520D02*
D03*
X746949D02*
D03*
X608071Y34449D02*
D03*
X615551D02*
D03*
X715847Y37402D02*
D03*
X723327D02*
D03*
X715846Y46752D02*
D03*
X723327D02*
D03*
X593405Y33793D02*
D03*
X585925D02*
D03*
Y52658D02*
D03*
X593405D02*
D03*
X585925Y43225D02*
D03*
X593405D02*
D03*
X461221Y163386D02*
D03*
X468701D02*
D03*
X494291Y168799D02*
D03*
X486811D02*
D03*
X504035Y251476D02*
D03*
X511516D02*
D03*
X504528Y259842D02*
D03*
X512008D02*
D03*
X697047Y232283D02*
D03*
X689567D02*
D03*
X746949Y235728D02*
D03*
X754429D02*
D03*
Y226378D02*
D03*
X746949D02*
D03*
X608071Y168307D02*
D03*
X615551D02*
D03*
X715847Y171260D02*
D03*
X723327D02*
D03*
X715846Y180610D02*
D03*
X723327D02*
D03*
X593405Y167651D02*
D03*
X585925D02*
D03*
Y186516D02*
D03*
X593405D02*
D03*
X585925Y177083D02*
D03*
X593405D02*
D03*
X381693Y104331D02*
D03*
X374213D02*
D03*
X348622Y98917D02*
D03*
X356102D02*
D03*
X338878Y16240D02*
D03*
X331398D02*
D03*
X338386Y7874D02*
D03*
X330905D02*
D03*
X145866Y35433D02*
D03*
X153346D02*
D03*
X95965Y31988D02*
D03*
X88484D02*
D03*
Y41339D02*
D03*
X95965D02*
D03*
X234843Y99409D02*
D03*
X227362D02*
D03*
X127067Y96457D02*
D03*
X119587D02*
D03*
X127067Y87106D02*
D03*
X119587D02*
D03*
X249508Y100066D02*
D03*
X256988D02*
D03*
Y81201D02*
D03*
X249508D02*
D03*
X256988Y90633D02*
D03*
X249508D02*
D03*
X381693Y238189D02*
D03*
X374213D02*
D03*
X348622Y232776D02*
D03*
X356102D02*
D03*
X338878Y150099D02*
D03*
X331398D02*
D03*
X338386Y141732D02*
D03*
X330905D02*
D03*
X145866Y169291D02*
D03*
X153346D02*
D03*
X95965Y165847D02*
D03*
X88484D02*
D03*
Y175197D02*
D03*
X95965D02*
D03*
X234843Y233268D02*
D03*
X227362D02*
D03*
X127067Y230315D02*
D03*
X119587D02*
D03*
X127067Y220965D02*
D03*
X119587D02*
D03*
X249508Y233924D02*
D03*
X256988D02*
D03*
Y215059D02*
D03*
X249508D02*
D03*
X256988Y224492D02*
D03*
X249508D02*
D03*
D65*
X677461Y72244D02*
D03*
X662894Y63583D02*
D03*
Y72244D02*
D03*
X677461Y63583D02*
D03*
Y206102D02*
D03*
X662894Y197441D02*
D03*
Y206102D02*
D03*
X677461Y197441D02*
D03*
X165453Y61614D02*
D03*
X180020Y70276D02*
D03*
Y61614D02*
D03*
X165453Y70276D02*
D03*
Y195472D02*
D03*
X180020Y204134D02*
D03*
Y195472D02*
D03*
X165453Y204134D02*
D03*
D66*
X669587Y53346D02*
D03*
Y56890D02*
D03*
X754331Y77756D02*
D03*
Y81496D02*
D03*
Y85236D02*
D03*
X743307D02*
D03*
Y81496D02*
D03*
Y77756D02*
D03*
X669587Y187205D02*
D03*
Y190748D02*
D03*
X754331Y211614D02*
D03*
Y215354D02*
D03*
Y219095D02*
D03*
X743307D02*
D03*
Y215354D02*
D03*
Y211614D02*
D03*
X173327Y80512D02*
D03*
Y76968D02*
D03*
X88583Y56102D02*
D03*
Y52362D02*
D03*
Y48622D02*
D03*
X99606D02*
D03*
Y52362D02*
D03*
Y56102D02*
D03*
X173327Y214370D02*
D03*
Y210827D02*
D03*
X88583Y189961D02*
D03*
Y186220D02*
D03*
Y182480D02*
D03*
X99606D02*
D03*
Y186220D02*
D03*
Y189961D02*
D03*
D67*
X691437Y55118D02*
D03*
Y188977D02*
D03*
X151476Y78740D02*
D03*
Y212598D02*
D03*
D68*
X726181Y89567D02*
D03*
X714961D02*
D03*
X726181Y223425D02*
D03*
X714961D02*
D03*
X116732Y44291D02*
D03*
X127953D02*
D03*
X116732Y178150D02*
D03*
X127953D02*
D03*
D69*
X652953Y52165D02*
D03*
Y54134D02*
D03*
Y56102D02*
D03*
Y58071D02*
D03*
Y60039D02*
D03*
Y62008D02*
D03*
Y63976D02*
D03*
Y65945D02*
D03*
Y67914D02*
D03*
Y69882D02*
D03*
Y71851D02*
D03*
Y73819D02*
D03*
Y75788D02*
D03*
Y77756D02*
D03*
Y79725D02*
D03*
Y81693D02*
D03*
X607677D02*
D03*
Y79725D02*
D03*
Y77756D02*
D03*
Y75788D02*
D03*
Y73819D02*
D03*
Y71851D02*
D03*
Y69882D02*
D03*
Y67914D02*
D03*
Y65945D02*
D03*
Y63976D02*
D03*
Y62008D02*
D03*
Y60039D02*
D03*
Y58071D02*
D03*
Y56102D02*
D03*
Y54134D02*
D03*
Y52165D02*
D03*
X652953Y186024D02*
D03*
Y187992D02*
D03*
Y189961D02*
D03*
Y191929D02*
D03*
Y193898D02*
D03*
Y195866D02*
D03*
Y197835D02*
D03*
Y199803D02*
D03*
Y201772D02*
D03*
Y203740D02*
D03*
Y205709D02*
D03*
Y207677D02*
D03*
Y209646D02*
D03*
Y211614D02*
D03*
Y213583D02*
D03*
Y215551D02*
D03*
X607677D02*
D03*
Y213583D02*
D03*
Y211614D02*
D03*
Y209646D02*
D03*
Y207677D02*
D03*
Y205709D02*
D03*
Y203740D02*
D03*
Y201772D02*
D03*
Y199803D02*
D03*
Y197835D02*
D03*
Y195866D02*
D03*
Y193898D02*
D03*
Y191929D02*
D03*
Y189961D02*
D03*
Y187992D02*
D03*
Y186024D02*
D03*
X189961Y81693D02*
D03*
Y79724D02*
D03*
Y77756D02*
D03*
Y75787D02*
D03*
Y73819D02*
D03*
Y71850D02*
D03*
Y69882D02*
D03*
Y67913D02*
D03*
Y65945D02*
D03*
Y63976D02*
D03*
Y62008D02*
D03*
Y60039D02*
D03*
Y58071D02*
D03*
Y56102D02*
D03*
Y54134D02*
D03*
Y52165D02*
D03*
X235236D02*
D03*
Y54134D02*
D03*
Y56102D02*
D03*
Y58071D02*
D03*
Y60039D02*
D03*
Y62008D02*
D03*
Y63976D02*
D03*
Y65945D02*
D03*
Y67913D02*
D03*
Y69882D02*
D03*
Y71850D02*
D03*
Y73819D02*
D03*
Y75787D02*
D03*
Y77756D02*
D03*
Y79724D02*
D03*
Y81693D02*
D03*
X189961Y215551D02*
D03*
Y213583D02*
D03*
Y211614D02*
D03*
Y209646D02*
D03*
Y207677D02*
D03*
Y205709D02*
D03*
Y203740D02*
D03*
Y201772D02*
D03*
Y199803D02*
D03*
Y197835D02*
D03*
Y195866D02*
D03*
Y193898D02*
D03*
Y191929D02*
D03*
Y189961D02*
D03*
Y187992D02*
D03*
Y186024D02*
D03*
X235236D02*
D03*
Y187992D02*
D03*
Y189961D02*
D03*
Y191929D02*
D03*
Y193898D02*
D03*
Y195866D02*
D03*
Y197835D02*
D03*
Y199803D02*
D03*
Y201772D02*
D03*
Y203740D02*
D03*
Y205709D02*
D03*
Y207677D02*
D03*
Y209646D02*
D03*
Y211614D02*
D03*
Y213583D02*
D03*
Y215551D02*
D03*
D70*
X645079Y89567D02*
D03*
X643110D02*
D03*
X641142D02*
D03*
X639173D02*
D03*
X637205D02*
D03*
X635236D02*
D03*
X633268D02*
D03*
X631299D02*
D03*
X629331D02*
D03*
X627362D02*
D03*
X625394D02*
D03*
X623425D02*
D03*
X621457D02*
D03*
X619488D02*
D03*
X617520D02*
D03*
X615551D02*
D03*
Y44291D02*
D03*
X617520D02*
D03*
X619488D02*
D03*
X621457D02*
D03*
X623425D02*
D03*
X625394D02*
D03*
X627362D02*
D03*
X629331D02*
D03*
X631299D02*
D03*
X633268D02*
D03*
X635236D02*
D03*
X637205D02*
D03*
X639173D02*
D03*
X641142D02*
D03*
X643110D02*
D03*
X645079D02*
D03*
Y223425D02*
D03*
X643110D02*
D03*
X641142D02*
D03*
X639173D02*
D03*
X637205D02*
D03*
X635236D02*
D03*
X633268D02*
D03*
X631299D02*
D03*
X629331D02*
D03*
X627362D02*
D03*
X625394D02*
D03*
X623425D02*
D03*
X621457D02*
D03*
X619488D02*
D03*
X617520D02*
D03*
X615551D02*
D03*
Y178150D02*
D03*
X617520D02*
D03*
X619488D02*
D03*
X621457D02*
D03*
X623425D02*
D03*
X625394D02*
D03*
X627362D02*
D03*
X629331D02*
D03*
X631299D02*
D03*
X633268D02*
D03*
X635236D02*
D03*
X637205D02*
D03*
X639173D02*
D03*
X641142D02*
D03*
X643110D02*
D03*
X645079D02*
D03*
X197835Y44291D02*
D03*
X199803D02*
D03*
X201772D02*
D03*
X203740D02*
D03*
X205709D02*
D03*
X207677D02*
D03*
X209646D02*
D03*
X211614D02*
D03*
X213583D02*
D03*
X215551D02*
D03*
X217520D02*
D03*
X219488D02*
D03*
X221457D02*
D03*
X223425D02*
D03*
X225394D02*
D03*
X227362D02*
D03*
Y89567D02*
D03*
X225394D02*
D03*
X223425D02*
D03*
X221457D02*
D03*
X219488D02*
D03*
X217520D02*
D03*
X215551D02*
D03*
X213583D02*
D03*
X211614D02*
D03*
X209646D02*
D03*
X207677D02*
D03*
X205709D02*
D03*
X203740D02*
D03*
X201772D02*
D03*
X199803D02*
D03*
X197835D02*
D03*
Y178150D02*
D03*
X199803D02*
D03*
X201772D02*
D03*
X203740D02*
D03*
X205709D02*
D03*
X207677D02*
D03*
X209646D02*
D03*
X211614D02*
D03*
X213583D02*
D03*
X215551D02*
D03*
X217520D02*
D03*
X219488D02*
D03*
X221457D02*
D03*
X223425D02*
D03*
X225394D02*
D03*
X227362D02*
D03*
Y223425D02*
D03*
X225394D02*
D03*
X223425D02*
D03*
X221457D02*
D03*
X219488D02*
D03*
X217520D02*
D03*
X215551D02*
D03*
X213583D02*
D03*
X211614D02*
D03*
X209646D02*
D03*
X207677D02*
D03*
X205709D02*
D03*
X203740D02*
D03*
X201772D02*
D03*
X199803D02*
D03*
X197835D02*
D03*
D71*
X713681Y104823D02*
D03*
X726083D02*
D03*
X713681Y238681D02*
D03*
X726083D02*
D03*
X129232Y29035D02*
D03*
X116831D02*
D03*
X129232Y162894D02*
D03*
X116831D02*
D03*
D72*
X773524Y107776D02*
D03*
X784547D02*
D03*
X773524Y241634D02*
D03*
X784547D02*
D03*
X69390Y26083D02*
D03*
X58366D02*
D03*
X69390Y159941D02*
D03*
X58366D02*
D03*
D73*
X715945Y18602D02*
D03*
X723819Y22343D02*
D03*
X715945Y26083D02*
D03*
Y152461D02*
D03*
X723819Y156201D02*
D03*
X715945Y159941D02*
D03*
X126969Y115256D02*
D03*
X119095Y111516D02*
D03*
X126969Y107776D02*
D03*
Y249114D02*
D03*
X119095Y245374D02*
D03*
X126969Y241634D02*
D03*
D74*
X787795Y124016D02*
D03*
X772047D02*
D03*
X787795Y257874D02*
D03*
X772047D02*
D03*
X55118Y9843D02*
D03*
X70866D02*
D03*
X55118Y143701D02*
D03*
X70866D02*
D03*
D75*
X789484Y86614D02*
D03*
Y220472D02*
D03*
X53429Y47244D02*
D03*
Y181102D02*
D03*
D76*
X775984Y86614D02*
D03*
Y220472D02*
D03*
X66929Y47244D02*
D03*
Y181102D02*
D03*
D77*
X644744Y9350D02*
D03*
Y143209D02*
D03*
X198169Y124508D02*
D03*
Y258366D02*
D03*
D78*
X604744Y9350D02*
D03*
X614744D02*
D03*
X624744D02*
D03*
X634744D02*
D03*
X604744Y143209D02*
D03*
X614744D02*
D03*
X624744D02*
D03*
X634744D02*
D03*
X238169Y124508D02*
D03*
X228169D02*
D03*
X218169D02*
D03*
X208169D02*
D03*
X238169Y258366D02*
D03*
X228169D02*
D03*
X218169D02*
D03*
X208169D02*
D03*
D79*
X733858Y33465D02*
D03*
X789764Y9843D02*
D03*
Y57087D02*
D03*
X733858Y167323D02*
D03*
X789764Y143701D02*
D03*
Y190945D02*
D03*
X109055Y100393D02*
D03*
X53150Y124016D02*
D03*
Y76771D02*
D03*
X109055Y234252D02*
D03*
X53150Y257874D02*
D03*
Y210630D02*
D03*
D80*
X741732Y9843D02*
D03*
Y143701D02*
D03*
X101181Y124016D02*
D03*
Y257874D02*
D03*
D81*
X741732Y57087D02*
D03*
Y190945D02*
D03*
X101181Y76771D02*
D03*
Y210630D02*
D03*
D82*
X825197Y55118D02*
D03*
Y35433D02*
D03*
Y188977D02*
D03*
Y169291D02*
D03*
X17717Y78740D02*
D03*
Y98425D02*
D03*
Y212598D02*
D03*
Y232283D02*
D03*
D83*
X825197Y15748D02*
D03*
Y149606D02*
D03*
X17717Y118110D02*
D03*
Y251969D02*
D03*
D84*
X811417Y108268D02*
D03*
Y242126D02*
D03*
X31496Y25591D02*
D03*
Y159449D02*
D03*
D85*
X835039Y108268D02*
D03*
Y242126D02*
D03*
X7874Y25591D02*
D03*
Y159449D02*
D03*
D86*
X823228Y126772D02*
D03*
Y260630D02*
D03*
X19685Y7086D02*
D03*
Y140945D02*
D03*
D87*
X805512Y86614D02*
D03*
Y220472D02*
D03*
X37402Y47244D02*
D03*
Y181102D02*
D03*
M02*
