G04*
G04 #@! TF.GenerationSoftware,Altium Limited,Altium Designer,23.3.1 (30)*
G04*
G04 Layer_Color=65535*
%FSLAX25Y25*%
%MOIN*%
G70*
G04*
G04 #@! TF.SameCoordinates,1807A7FA-BBD2-43EF-8C31-EE1E2BFEB24F*
G04*
G04*
G04 #@! TF.FilePolarity,Positive*
G04*
G01*
G75*
%ADD51C,0.00500*%
%ADD52C,0.00787*%
%ADD53C,0.00400*%
%ADD54C,0.01000*%
%ADD55C,0.01200*%
%ADD56R,0.02000X0.01500*%
%ADD57R,0.03937X0.03937*%
%ADD58R,0.22146X0.13287*%
%ADD59R,0.04000X0.02000*%
D51*
X766986Y86614D02*
G03*
X766986Y86614I15748J0D01*
G01*
X644095Y52165D02*
G03*
X644095Y52165I984J0D01*
G01*
X749803Y75787D02*
G03*
X747835Y75787I-984J-222D01*
G01*
X809449Y55118D02*
G03*
X809449Y55118I1969J0D01*
G01*
Y15748D02*
G03*
X809449Y15748I1969J0D01*
G01*
Y35433D02*
G03*
X809449Y35433I1969J0D01*
G01*
X671224Y94675D02*
X663224D01*
X671224Y102175D02*
X663224D01*
X661693Y94051D02*
X661319Y94425D01*
X661693Y94051D02*
X660850D01*
X661224Y94425D02*
X660850Y94051D01*
X661319Y94425D02*
X661224D01*
X521555Y43898D02*
X519587D01*
X521555Y51772D02*
Y43898D01*
Y106890D02*
Y99016D01*
Y106890D02*
X519587D01*
X427067D02*
Y43898D01*
X456595D02*
X427067D01*
X451476Y106890D02*
Y43898D01*
X456595Y106890D02*
X427067D01*
X468961Y15935D02*
X460961D01*
X468961Y23435D02*
X460961D01*
X468961Y33277D02*
X460961D01*
X468961Y25778D02*
X460961D01*
X494551Y31191D02*
X486551D01*
X494551Y38691D02*
X486551D01*
X539335Y41526D02*
X531335D01*
X539335Y49026D02*
X531335D01*
X539335Y31683D02*
X531335D01*
X539335Y39183D02*
X531335D01*
X704197Y75600D02*
X696197D01*
X704197Y68100D02*
X696197D01*
X704689Y87411D02*
X696689D01*
X704689Y79912D02*
X696689D01*
X685612Y57972D02*
X674412D01*
X685612Y52264D02*
X674412D01*
X599744Y14350D02*
Y4350D01*
X649744D02*
X599744D01*
X649744Y14350D02*
X599744D01*
X649744D02*
Y4350D01*
X655994Y11850D02*
X653494Y9350D01*
X655994Y11850D02*
Y6850D01*
X653494Y9350D01*
X593272Y67234D02*
X585272D01*
X593272Y59734D02*
X585272D01*
X728445Y81693D02*
X712697D01*
X728445Y97441D02*
X712697D01*
X728445D02*
Y96457D01*
X712697Y97441D02*
Y96457D01*
X728445Y82677D02*
Y81693D01*
X712697Y82677D02*
Y81693D01*
X721421Y124813D02*
X713421D01*
X721421Y117313D02*
X713421D01*
X652953Y50197D02*
X651968Y49213D01*
X653937D02*
X651968D01*
X653937D02*
X652953Y50197D01*
X649016Y51181D02*
X646063Y48228D01*
X649016Y85630D02*
Y51181D01*
Y85630D02*
X611614D01*
Y48228D01*
X646063D02*
X611614D01*
X813252Y74006D02*
X805252D01*
X813252Y81506D02*
X805252D01*
X511776Y121368D02*
X503776D01*
X511776Y113868D02*
X503776D01*
X512268Y129734D02*
X504268D01*
X512268Y122234D02*
X504268D01*
X619354Y99597D02*
X611354D01*
X619354Y107097D02*
X611354D01*
X688449Y32667D02*
X680449D01*
X688449Y40167D02*
X680449D01*
X688449Y42018D02*
X680449D01*
X688449Y49518D02*
X680449D01*
X650850Y32785D02*
X642850D01*
X650850Y25285D02*
X642850D01*
X661382Y108455D02*
X653382D01*
X661382Y115955D02*
X653382D01*
X723095Y68711D02*
X715095D01*
X723095Y61211D02*
X715095D01*
X725000Y68961D02*
X724626Y69335D01*
X725468D02*
X724626D01*
X725468D02*
X725095Y68961D01*
X725000D01*
X725492Y108169D02*
X714272D01*
X725492Y101476D02*
X714272D01*
X721882Y107823D02*
Y101823D01*
X727382Y107823D02*
X726882Y108323D01*
X727882D02*
X726882D01*
X727882D02*
X727382Y107823D01*
X697307Y94675D02*
X689307D01*
X697307Y102175D02*
X689307D01*
X688941Y115955D02*
X680941D01*
X688941Y108455D02*
X680941D01*
X785035Y112276D02*
X773035D01*
X785035Y103276D02*
X773035D01*
X754689Y105620D02*
X746689D01*
X754689Y98120D02*
X746689D01*
X754689Y88770D02*
X746689D01*
X754689Y96270D02*
X746689D01*
X751378Y87205D02*
Y75788D01*
X746260Y87205D02*
Y75788D01*
X751378Y87205D02*
X746260D01*
X751378Y75788D02*
X749803D01*
X747834D02*
X746260D01*
X754591Y66132D02*
X746591D01*
X754591Y73632D02*
X746591D01*
X801638Y104518D02*
X793638D01*
X801638Y112018D02*
X793638D01*
X792106Y103894D02*
X791732Y104268D01*
X792106Y103894D02*
X791264D01*
X791638Y104268D02*
X791264Y103894D01*
X791732Y104268D02*
X791638D01*
X650850Y23927D02*
X642850D01*
X650850Y16427D02*
X642850D01*
X615811Y38199D02*
X607811D01*
X615811Y30699D02*
X607811D01*
X723587Y41152D02*
X715587D01*
X723587Y33652D02*
X715587D01*
X723587Y50502D02*
X715587D01*
X723587Y43002D02*
X715587D01*
X803543Y64173D02*
X728347D01*
X803543D02*
Y2756D01*
X728347D01*
Y26378D02*
Y2756D01*
Y64173D02*
Y40551D01*
X721382Y28343D02*
X718382D01*
X721382D02*
Y16343D01*
X718382D01*
Y28343D02*
Y16343D01*
X724079Y6585D02*
X716079D01*
X724079Y14085D02*
X716079D01*
X714547Y5961D02*
X714173Y6335D01*
X714547Y5961D02*
X713705D01*
X714079Y6335D02*
X713705Y5961D01*
X714173Y6335D02*
X714079D01*
X832087Y64933D02*
X809055Y64961D01*
Y5906D01*
X832087Y5933D02*
X809055Y5906D01*
X813386Y64961D02*
Y5906D01*
X788976Y118268D02*
X770866D01*
X788976Y129764D02*
X770866D01*
X788976Y119516D02*
Y118268D01*
Y129764D02*
Y128516D01*
X770866Y129764D02*
Y128516D01*
Y119516D02*
Y118268D01*
X769421Y118016D02*
X767421D01*
X768421Y119516D02*
X767421Y118016D01*
X769421D02*
X768421Y119516D01*
X839764Y90551D02*
X808662D01*
X839764Y125984D02*
X837008D01*
X811417D02*
X808662D01*
Y94488D02*
Y90551D01*
Y125984D02*
Y122047D01*
X593665Y30043D02*
X585665D01*
X593665Y37543D02*
X585665D01*
X593666Y56407D02*
X585666D01*
X593666Y48908D02*
X585666D01*
X593665Y46975D02*
X585665D01*
X593665Y39475D02*
X585665D01*
X593764Y28110D02*
X585764D01*
X593764Y20610D02*
X585764D01*
X593272Y68784D02*
X585272D01*
X593272Y76284D02*
X585272D01*
X593272Y86883D02*
X585272D01*
X593272Y94383D02*
X585272D01*
X593272Y77833D02*
X585272D01*
X593272Y85334D02*
X585272D01*
X766986Y220473D02*
G03*
X766986Y220473I15748J0D01*
G01*
X644095Y186024D02*
G03*
X644095Y186024I984J0D01*
G01*
X749803Y209646D02*
G03*
X747835Y209646I-984J-222D01*
G01*
X809449Y188977D02*
G03*
X809449Y188977I1969J0D01*
G01*
Y149606D02*
G03*
X809449Y149606I1969J0D01*
G01*
Y169291D02*
G03*
X809449Y169291I1969J0D01*
G01*
X671224Y228533D02*
X663224D01*
X671224Y236033D02*
X663224D01*
X661693Y227909D02*
X661319Y228283D01*
X661693Y227909D02*
X660850D01*
X661224Y228283D02*
X660850Y227909D01*
X661319Y228283D02*
X661224D01*
X521555Y177756D02*
X519587D01*
X521555Y185630D02*
Y177756D01*
Y240748D02*
Y232874D01*
Y240748D02*
X519587D01*
X427067D02*
Y177756D01*
X456595D02*
X427067D01*
X451476Y240748D02*
Y177756D01*
X456595Y240748D02*
X427067D01*
X468961Y149793D02*
X460961D01*
X468961Y157293D02*
X460961D01*
X468961Y167136D02*
X460961D01*
X468961Y159636D02*
X460961D01*
X494551Y165049D02*
X486551D01*
X494551Y172549D02*
X486551D01*
X539335Y175384D02*
X531335D01*
X539335Y182884D02*
X531335D01*
X539335Y165541D02*
X531335D01*
X539335Y173041D02*
X531335D01*
X704197Y209459D02*
X696197D01*
X704197Y201959D02*
X696197D01*
X704689Y221270D02*
X696689D01*
X704689Y213770D02*
X696689D01*
X685612Y191831D02*
X674412D01*
X685612Y186122D02*
X674412D01*
X599744Y148209D02*
Y138209D01*
X649744D02*
X599744D01*
X649744Y148209D02*
X599744D01*
X649744D02*
Y138209D01*
X655994Y145709D02*
X653494Y143209D01*
X655994Y145709D02*
Y140709D01*
X653494Y143209D01*
X593272Y201093D02*
X585272D01*
X593272Y193593D02*
X585272D01*
X728445Y215551D02*
X712697D01*
X728445Y231299D02*
X712697D01*
X728445D02*
Y230315D01*
X712697Y231299D02*
Y230315D01*
X728445Y216536D02*
Y215551D01*
X712697Y216536D02*
Y215551D01*
X721421Y258671D02*
X713421D01*
X721421Y251171D02*
X713421D01*
X652953Y184055D02*
X651968Y183071D01*
X653937D02*
X651968D01*
X653937D02*
X652953Y184055D01*
X649016Y185039D02*
X646063Y182087D01*
X649016Y219488D02*
Y185039D01*
Y219488D02*
X611614D01*
Y182087D01*
X646063D02*
X611614D01*
X813252Y207864D02*
X805252D01*
X813252Y215364D02*
X805252D01*
X511776Y255226D02*
X503776D01*
X511776Y247726D02*
X503776D01*
X512268Y263593D02*
X504268D01*
X512268Y256093D02*
X504268D01*
X619354Y233455D02*
X611354D01*
X619354Y240955D02*
X611354D01*
X688449Y166526D02*
X680449D01*
X688449Y174026D02*
X680449D01*
X688449Y175876D02*
X680449D01*
X688449Y183376D02*
X680449D01*
X650850Y166644D02*
X642850D01*
X650850Y159144D02*
X642850D01*
X661382Y242313D02*
X653382D01*
X661382Y249813D02*
X653382D01*
X723095Y202569D02*
X715095D01*
X723095Y195069D02*
X715095D01*
X725000Y202819D02*
X724626Y203193D01*
X725468D02*
X724626D01*
X725468D02*
X725095Y202819D01*
X725000D01*
X725492Y242028D02*
X714272D01*
X725492Y235335D02*
X714272D01*
X721882Y241681D02*
Y235681D01*
X727382Y241681D02*
X726882Y242181D01*
X727882D02*
X726882D01*
X727882D02*
X727382Y241681D01*
X697307Y228534D02*
X689307D01*
X697307Y236034D02*
X689307D01*
X688941Y249813D02*
X680941D01*
X688941Y242313D02*
X680941D01*
X785035Y246134D02*
X773035D01*
X785035Y237134D02*
X773035D01*
X754689Y239478D02*
X746689D01*
X754689Y231978D02*
X746689D01*
X754689Y222628D02*
X746689D01*
X754689Y230128D02*
X746689D01*
X751378Y221063D02*
Y209646D01*
X746260Y221063D02*
Y209646D01*
X751378Y221063D02*
X746260D01*
X751378Y209646D02*
X749803D01*
X747834D02*
X746260D01*
X754591Y199990D02*
X746591D01*
X754591Y207490D02*
X746591D01*
X801638Y238376D02*
X793638D01*
X801638Y245876D02*
X793638D01*
X792106Y237752D02*
X791732Y238126D01*
X792106Y237752D02*
X791264D01*
X791638Y238126D02*
X791264Y237752D01*
X791732Y238126D02*
X791638D01*
X650850Y157785D02*
X642850D01*
X650850Y150285D02*
X642850D01*
X615811Y172057D02*
X607811D01*
X615811Y164557D02*
X607811D01*
X723587Y175010D02*
X715587D01*
X723587Y167510D02*
X715587D01*
X723587Y184360D02*
X715587D01*
X723587Y176860D02*
X715587D01*
X803543Y198032D02*
X728347D01*
X803543D02*
Y136614D01*
X728347D01*
Y160236D02*
Y136614D01*
Y198032D02*
Y174410D01*
X721382Y162201D02*
X718382D01*
X721382D02*
Y150201D01*
X718382D01*
Y162201D02*
Y150201D01*
X724079Y140443D02*
X716079D01*
X724079Y147943D02*
X716079D01*
X714547Y139819D02*
X714173Y140193D01*
X714547Y139819D02*
X713705D01*
X714079Y140193D02*
X713705Y139819D01*
X714173Y140193D02*
X714079D01*
X832087Y198792D02*
X809055Y198819D01*
Y139764D01*
X832087Y139792D02*
X809055Y139764D01*
X813386Y198819D02*
Y139764D01*
X788976Y252126D02*
X770866D01*
X788976Y263622D02*
X770866D01*
X788976Y253374D02*
Y252126D01*
Y263622D02*
Y262374D01*
X770866Y263622D02*
Y262374D01*
Y253374D02*
Y252126D01*
X769421Y251874D02*
X767421D01*
X768421Y253374D02*
X767421Y251874D01*
X769421D02*
X768421Y253374D01*
X839764Y224409D02*
X808662D01*
X839764Y259843D02*
X837008D01*
X811417D02*
X808662D01*
Y228346D02*
Y224409D01*
Y259843D02*
Y255906D01*
X593665Y163901D02*
X585665D01*
X593665Y171401D02*
X585665D01*
X593666Y190266D02*
X585666D01*
X593666Y182766D02*
X585666D01*
X593665Y180833D02*
X585665D01*
X593665Y173333D02*
X585665D01*
X593764Y161969D02*
X585764D01*
X593764Y154469D02*
X585764D01*
X593272Y202642D02*
X585272D01*
X593272Y210142D02*
X585272D01*
X593272Y220741D02*
X585272D01*
X593272Y228241D02*
X585272D01*
X593272Y211692D02*
X585272D01*
X593272Y219192D02*
X585272D01*
X75927Y47244D02*
G03*
X75927Y47244I-15748J0D01*
G01*
X198819Y81693D02*
G03*
X198819Y81693I-984J0D01*
G01*
X93110Y58071D02*
G03*
X95079Y58071I984J222D01*
G01*
X33465Y78740D02*
G03*
X33465Y78740I-1969J0D01*
G01*
Y118110D02*
G03*
X33465Y118110I-1969J0D01*
G01*
Y98425D02*
G03*
X33465Y98425I-1969J0D01*
G01*
X171689Y39183D02*
X179689D01*
X171689Y31683D02*
X179689D01*
X181220Y39807D02*
X181594Y39433D01*
X181220Y39807D02*
X182063D01*
X181689Y39433D02*
X182063Y39807D01*
X181594Y39433D02*
X181689D01*
X321358Y89961D02*
X323327D01*
X321358Y82087D02*
Y89961D01*
Y26969D02*
Y34843D01*
Y26969D02*
X323327D01*
X415846D02*
Y89961D01*
X386319D02*
X415846D01*
X391437Y26969D02*
Y89961D01*
X386319Y26969D02*
X415846D01*
X373953Y117923D02*
X381953D01*
X373953Y110423D02*
X381953D01*
X373953Y100581D02*
X381953D01*
X373953Y108081D02*
X381953D01*
X348362Y102667D02*
X356362D01*
X348362Y95167D02*
X356362D01*
X303579Y92333D02*
X311579D01*
X303579Y84833D02*
X311579D01*
X303579Y102175D02*
X311579D01*
X303579Y94675D02*
X311579D01*
X138716Y58258D02*
X146716D01*
X138716Y65758D02*
X146716D01*
X138224Y46447D02*
X146224D01*
X138224Y53947D02*
X146224D01*
X157301Y75886D02*
X168501D01*
X157301Y81595D02*
X168501D01*
X243169Y119508D02*
Y129508D01*
X193169D02*
X243169D01*
X193169Y119508D02*
X243169D01*
X193169D02*
Y129508D01*
X186919Y122008D02*
X189419Y124508D01*
X186919Y122008D02*
Y127008D01*
X189419Y124508D01*
X249642Y66624D02*
X257642D01*
X249642Y74124D02*
X257642D01*
X114468Y52165D02*
X130216D01*
X114468Y36417D02*
X130216D01*
X114468D02*
Y37402D01*
X130216Y36417D02*
Y37402D01*
X114468Y51181D02*
Y52165D01*
X130216Y51181D02*
Y52165D01*
X121492Y9045D02*
X129492D01*
X121492Y16545D02*
X129492D01*
X189961Y83661D02*
X190945Y84646D01*
X188976D02*
X190945D01*
X188976D02*
X189961Y83661D01*
X193898Y82677D02*
X196850Y85630D01*
X193898Y48228D02*
Y82677D01*
Y48228D02*
X231299D01*
Y85630D01*
X196850D02*
X231299D01*
X29661Y59852D02*
X37661D01*
X29661Y52352D02*
X37661D01*
X331138Y12490D02*
X339138D01*
X331138Y19990D02*
X339138D01*
X330646Y4124D02*
X338646D01*
X330646Y11624D02*
X338646D01*
X223559Y34262D02*
X231559D01*
X223559Y26762D02*
X231559D01*
X154464Y101191D02*
X162464D01*
X154464Y93691D02*
X162464D01*
X154464Y91840D02*
X162464D01*
X154464Y84341D02*
X162464D01*
X192063Y101073D02*
X200063D01*
X192063Y108573D02*
X200063D01*
X181532Y25403D02*
X189532D01*
X181532Y17903D02*
X189532D01*
X119819Y65148D02*
X127819D01*
X119819Y72648D02*
X127819D01*
X117913Y64898D02*
X118288Y64524D01*
X117445D02*
X118288D01*
X117445D02*
X117819Y64898D01*
X117913D01*
X117421Y25689D02*
X128642D01*
X117421Y32382D02*
X128642D01*
X121031Y26035D02*
Y32035D01*
X115532Y26035D02*
X116032Y25535D01*
X115032D02*
X116032D01*
X115032D02*
X115532Y26035D01*
X145606Y39183D02*
X153606D01*
X145606Y31683D02*
X153606D01*
X153972Y17903D02*
X161972D01*
X153972Y25403D02*
X161972D01*
X57878Y21583D02*
X69878D01*
X57878Y30583D02*
X69878D01*
X88225Y28238D02*
X96225D01*
X88225Y35738D02*
X96225D01*
X88224Y45089D02*
X96224D01*
X88224Y37589D02*
X96224D01*
X91536Y46654D02*
Y58071D01*
X96654Y46654D02*
Y58071D01*
X91536Y46654D02*
X96654D01*
X91536Y58071D02*
X93110D01*
X95079D02*
X96654D01*
X88323Y67726D02*
X96323D01*
X88323Y60226D02*
X96323D01*
X41276Y29340D02*
X49276D01*
X41276Y21840D02*
X49276D01*
X50807Y29965D02*
X51181Y29590D01*
X50807Y29965D02*
X51650D01*
X51276Y29590D02*
X51650Y29965D01*
X51181Y29590D02*
X51276D01*
X192063Y109931D02*
X200063D01*
X192063Y117431D02*
X200063D01*
X227102Y95659D02*
X235102D01*
X227102Y103159D02*
X235102D01*
X119327Y92707D02*
X127327D01*
X119327Y100207D02*
X127327D01*
X119327Y83356D02*
X127327D01*
X119327Y90856D02*
X127327D01*
X39370Y69685D02*
X114567D01*
X39370D02*
Y131102D01*
X114567D01*
Y107480D02*
Y131102D01*
Y69685D02*
Y93307D01*
X121531Y105516D02*
X124531D01*
X121531D02*
Y117516D01*
X124531D01*
Y105516D02*
Y117516D01*
X118834Y127274D02*
X126834D01*
X118834Y119774D02*
X126834D01*
X128366Y127898D02*
X128740Y127524D01*
X128366Y127898D02*
X129209D01*
X128834Y127524D02*
X129209Y127898D01*
X128740Y127524D02*
X128834D01*
X10827Y68925D02*
X33858Y68898D01*
Y127953D01*
X10827Y127925D02*
X33858Y127953D01*
X29528Y68898D02*
Y127953D01*
X53937Y15590D02*
X72047D01*
X53937Y4094D02*
X72047D01*
X53937Y14343D02*
Y15590D01*
Y4094D02*
Y5342D01*
X72047Y4094D02*
Y5342D01*
Y14343D02*
Y15590D01*
X73492Y15843D02*
X75492D01*
X74492Y14343D02*
X75492Y15843D01*
X73492D02*
X74492Y14343D01*
X3150Y43307D02*
X34252D01*
X3150Y7874D02*
X5905D01*
X31496D02*
X34252D01*
Y39370D02*
Y43307D01*
Y7874D02*
Y11811D01*
X249248Y103816D02*
X257248D01*
X249248Y96316D02*
X257248D01*
X249248Y77451D02*
X257248D01*
X249248Y84951D02*
X257248D01*
X249248Y86883D02*
X257248D01*
X249248Y94383D02*
X257248D01*
X249150Y105748D02*
X257150D01*
X249150Y113248D02*
X257150D01*
X249642Y65074D02*
X257642D01*
X249642Y57574D02*
X257642D01*
X249642Y46975D02*
X257642D01*
X249642Y39475D02*
X257642D01*
X249642Y56025D02*
X257642D01*
X249642Y48525D02*
X257642D01*
X75927Y181102D02*
G03*
X75927Y181102I-15748J0D01*
G01*
X198819Y215551D02*
G03*
X198819Y215551I-984J0D01*
G01*
X93110Y191929D02*
G03*
X95079Y191929I984J222D01*
G01*
X33465Y212598D02*
G03*
X33465Y212598I-1969J0D01*
G01*
Y251968D02*
G03*
X33465Y251968I-1969J0D01*
G01*
Y232283D02*
G03*
X33465Y232283I-1969J0D01*
G01*
X171689Y173041D02*
X179689D01*
X171689Y165541D02*
X179689D01*
X181220Y173665D02*
X181594Y173291D01*
X181220Y173665D02*
X182063D01*
X181689Y173291D02*
X182063Y173665D01*
X181594Y173291D02*
X181689D01*
X321358Y223819D02*
X323327D01*
X321358Y215945D02*
Y223819D01*
Y160827D02*
Y168701D01*
Y160827D02*
X323327D01*
X415846D02*
Y223819D01*
X386319D02*
X415846D01*
X391437Y160827D02*
Y223819D01*
X386319Y160827D02*
X415846D01*
X373953Y251782D02*
X381953D01*
X373953Y244282D02*
X381953D01*
X373953Y234439D02*
X381953D01*
X373953Y241939D02*
X381953D01*
X348362Y236526D02*
X356362D01*
X348362Y229026D02*
X356362D01*
X303579Y226191D02*
X311579D01*
X303579Y218691D02*
X311579D01*
X303579Y236034D02*
X311579D01*
X303579Y228534D02*
X311579D01*
X138716Y192116D02*
X146716D01*
X138716Y199616D02*
X146716D01*
X138224Y180305D02*
X146224D01*
X138224Y187805D02*
X146224D01*
X157301Y209744D02*
X168501D01*
X157301Y215453D02*
X168501D01*
X243169Y253366D02*
Y263366D01*
X193169D02*
X243169D01*
X193169Y253366D02*
X243169D01*
X193169D02*
Y263366D01*
X186919Y255866D02*
X189419Y258366D01*
X186919Y255866D02*
Y260866D01*
X189419Y258366D01*
X249642Y200482D02*
X257642D01*
X249642Y207982D02*
X257642D01*
X114468Y186024D02*
X130216D01*
X114468Y170276D02*
X130216D01*
X114468D02*
Y171260D01*
X130216Y170276D02*
Y171260D01*
X114468Y185039D02*
Y186024D01*
X130216Y185039D02*
Y186024D01*
X121492Y142903D02*
X129492D01*
X121492Y150403D02*
X129492D01*
X189961Y217520D02*
X190945Y218504D01*
X188976D02*
X190945D01*
X188976D02*
X189961Y217520D01*
X193898Y216535D02*
X196850Y219488D01*
X193898Y182087D02*
Y216535D01*
Y182087D02*
X231299D01*
Y219488D01*
X196850D02*
X231299D01*
X29661Y193711D02*
X37661D01*
X29661Y186211D02*
X37661D01*
X331138Y146349D02*
X339138D01*
X331138Y153849D02*
X339138D01*
X330646Y137982D02*
X338646D01*
X330646Y145482D02*
X338646D01*
X223559Y168120D02*
X231559D01*
X223559Y160620D02*
X231559D01*
X154464Y235049D02*
X162464D01*
X154464Y227549D02*
X162464D01*
X154464Y225699D02*
X162464D01*
X154464Y218199D02*
X162464D01*
X192063Y234931D02*
X200063D01*
X192063Y242431D02*
X200063D01*
X181532Y159262D02*
X189532D01*
X181532Y151762D02*
X189532D01*
X119819Y199006D02*
X127819D01*
X119819Y206506D02*
X127819D01*
X117913Y198756D02*
X118288Y198382D01*
X117445D02*
X118288D01*
X117445D02*
X117819Y198756D01*
X117913D01*
X117421Y159547D02*
X128642D01*
X117421Y166240D02*
X128642D01*
X121031Y159894D02*
Y165894D01*
X115532Y159894D02*
X116032Y159394D01*
X115032D02*
X116032D01*
X115032D02*
X115532Y159894D01*
X145606Y173041D02*
X153606D01*
X145606Y165541D02*
X153606D01*
X153972Y151762D02*
X161972D01*
X153972Y159262D02*
X161972D01*
X57878Y155441D02*
X69878D01*
X57878Y164441D02*
X69878D01*
X88225Y162097D02*
X96225D01*
X88225Y169597D02*
X96225D01*
X88224Y178947D02*
X96224D01*
X88224Y171447D02*
X96224D01*
X91536Y180512D02*
Y191929D01*
X96654Y180512D02*
Y191929D01*
X91536Y180512D02*
X96654D01*
X91536Y191929D02*
X93110D01*
X95079D02*
X96654D01*
X88323Y201585D02*
X96323D01*
X88323Y194085D02*
X96323D01*
X41276Y163199D02*
X49276D01*
X41276Y155699D02*
X49276D01*
X50807Y163823D02*
X51181Y163449D01*
X50807Y163823D02*
X51650D01*
X51276Y163449D02*
X51650Y163823D01*
X51181Y163449D02*
X51276D01*
X192063Y243789D02*
X200063D01*
X192063Y251289D02*
X200063D01*
X227102Y229518D02*
X235102D01*
X227102Y237018D02*
X235102D01*
X119327Y226565D02*
X127327D01*
X119327Y234065D02*
X127327D01*
X119327Y217214D02*
X127327D01*
X119327Y224714D02*
X127327D01*
X39370Y203543D02*
X114567D01*
X39370D02*
Y264961D01*
X114567D01*
Y241338D02*
Y264961D01*
Y203543D02*
Y227165D01*
X121531Y239374D02*
X124531D01*
X121531D02*
Y251374D01*
X124531D01*
Y239374D02*
Y251374D01*
X118834Y261132D02*
X126834D01*
X118834Y253632D02*
X126834D01*
X128366Y261756D02*
X128740Y261382D01*
X128366Y261756D02*
X129209D01*
X128834Y261382D02*
X129209Y261756D01*
X128740Y261382D02*
X128834D01*
X10827Y202783D02*
X33858Y202756D01*
Y261811D01*
X10827Y261783D02*
X33858Y261811D01*
X29528Y202756D02*
Y261811D01*
X53937Y149449D02*
X72047D01*
X53937Y137953D02*
X72047D01*
X53937Y148201D02*
Y149449D01*
Y137953D02*
Y139201D01*
X72047Y137953D02*
Y139201D01*
Y148201D02*
Y149449D01*
X73492Y149701D02*
X75492D01*
X74492Y148201D02*
X75492Y149701D01*
X73492D02*
X74492Y148201D01*
X3150Y177165D02*
X34252D01*
X3150Y141732D02*
X5905D01*
X31496D02*
X34252D01*
Y173228D02*
Y177165D01*
Y141732D02*
Y145669D01*
X249248Y237674D02*
X257248D01*
X249248Y230174D02*
X257248D01*
X249248Y211309D02*
X257248D01*
X249248Y218809D02*
X257248D01*
X249248Y220742D02*
X257248D01*
X249248Y228241D02*
X257248D01*
X249150Y239606D02*
X257150D01*
X249150Y247106D02*
X257150D01*
X249642Y198933D02*
X257642D01*
X249642Y191433D02*
X257642D01*
X249642Y180833D02*
X257642D01*
X249642Y173333D02*
X257642D01*
X249642Y189883D02*
X257642D01*
X249642Y182383D02*
X257642D01*
D52*
X758268Y77559D02*
G03*
X758268Y77559I394J0D01*
G01*
Y211417D02*
G03*
X758268Y211417I394J0D01*
G01*
X84646Y56299D02*
G03*
X84646Y56299I-394J0D01*
G01*
Y190157D02*
G03*
X84646Y190157I-394J0D01*
G01*
D53*
X803403Y86614D02*
X800451D01*
X680020Y69095D02*
Y66732D01*
X660335Y69095D02*
Y66732D01*
X673721Y73819D02*
X666634D01*
X673721Y62008D02*
X666634D01*
X803403Y220472D02*
X800451D01*
X680020Y202953D02*
Y200591D01*
X660335Y202953D02*
Y200591D01*
X673721Y207677D02*
X666634D01*
X673721Y195866D02*
X666634D01*
X39510Y47244D02*
X42463D01*
X162894Y64764D02*
Y67126D01*
X182579Y64764D02*
Y67126D01*
X169193Y60039D02*
X176279D01*
X169193Y71850D02*
X176279D01*
X39510Y181102D02*
X42463D01*
X162894Y198622D02*
Y200984D01*
X182579Y198622D02*
Y200984D01*
X169193Y193898D02*
X176279D01*
X169193Y205709D02*
X176279D01*
D54*
X503823Y7766D02*
Y12764D01*
X502823Y13764D01*
X500824D01*
X499824Y12764D01*
Y7766D01*
X497825D02*
X493826D01*
X495825D01*
Y13764D01*
X491827D02*
Y7766D01*
X487828Y13764D01*
Y7766D01*
X485829Y13764D02*
Y12764D01*
X484829D01*
Y13764D01*
X485829D01*
X476832Y7766D02*
X480830D01*
Y10765D01*
X478831D01*
X480830D01*
Y13764D01*
X474832D02*
Y7766D01*
X471833D01*
X470833Y8765D01*
Y10765D01*
X471833Y11764D01*
X474832D01*
X472833D02*
X470833Y13764D01*
X468834Y7766D02*
Y13764D01*
X465835D01*
X464836Y12764D01*
Y11764D01*
X465835Y10765D01*
X468834D01*
X465835D01*
X464836Y9765D01*
Y8765D01*
X465835Y7766D01*
X468834D01*
X462836Y13764D02*
Y9765D01*
X460837Y7766D01*
X458837Y9765D01*
Y13764D01*
Y10765D01*
X462836D01*
X698213Y15701D02*
X695547D01*
X696880Y14368D02*
Y17034D01*
X694214Y14368D02*
X693547Y13702D01*
X692214D01*
X691548Y14368D01*
Y15035D01*
X692214Y15701D01*
X692881D01*
X692214D01*
X691548Y16368D01*
Y17034D01*
X692214Y17701D01*
X693547D01*
X694214Y17034D01*
X690215Y17701D02*
Y17034D01*
X689549D01*
Y17701D01*
X690215D01*
X686883Y14368D02*
X686216Y13702D01*
X684884D01*
X684217Y14368D01*
Y15035D01*
X684884Y15701D01*
X685550D01*
X684884D01*
X684217Y16368D01*
Y17034D01*
X684884Y17701D01*
X686216D01*
X686883Y17034D01*
X682884Y13702D02*
Y16368D01*
X681551Y17701D01*
X680218Y16368D01*
Y13702D01*
X692594Y27164D02*
X693260Y26497D01*
X694593D01*
X695260Y27164D01*
Y29830D01*
X694593Y30496D01*
X693260D01*
X692594Y29830D01*
Y28497D01*
X693927D01*
X691261Y30496D02*
Y26497D01*
X688595Y30496D01*
Y26497D01*
X687262D02*
Y30496D01*
X685263D01*
X684597Y29830D01*
Y27164D01*
X685263Y26497D01*
X687262D01*
X673192Y75249D02*
X669193Y81247D01*
Y75249D02*
X673192Y81247D01*
X667194D02*
X665194D01*
X666194D01*
Y75249D01*
X667194Y76249D01*
X722404Y74265D02*
Y80263D01*
X718405D01*
X716406D02*
X714407D01*
X715407D01*
Y74265D01*
X716406Y75264D01*
X739644Y96011D02*
Y90013D01*
X736645D01*
X735645Y91013D01*
Y93012D01*
X736645Y94011D01*
X739644D01*
X737645D02*
X735645Y96011D01*
X733646Y90013D02*
X729647D01*
Y91013D01*
X733646Y95011D01*
Y96011D01*
X437463Y35387D02*
Y40385D01*
X436464Y41385D01*
X434464D01*
X433465Y40385D01*
Y35387D01*
X431465Y41385D02*
X429466D01*
X430466D01*
Y35387D01*
X431465Y36386D01*
X766649Y97410D02*
X767649Y96410D01*
X769648D01*
X770648Y97410D01*
Y101409D01*
X769648Y102409D01*
X767649D01*
X766649Y101409D01*
X760651Y96410D02*
X762651Y97410D01*
X764650Y99410D01*
Y101409D01*
X763650Y102409D01*
X761651D01*
X760651Y101409D01*
Y100409D01*
X761651Y99410D01*
X764650D01*
X616651Y29082D02*
Y23084D01*
X613652D01*
X612652Y24083D01*
Y26083D01*
X613652Y27082D01*
X616651D01*
X614652D02*
X612652Y29082D01*
X610653D02*
X608654D01*
X609653D01*
Y23084D01*
X610653Y24083D01*
X601656Y29082D02*
X605655D01*
X601656Y25083D01*
Y24083D01*
X602656Y23084D01*
X604655D01*
X605655Y24083D01*
X710116Y39908D02*
Y33910D01*
X707118D01*
X706118Y34910D01*
Y36909D01*
X707118Y37909D01*
X710116D01*
X708117D02*
X706118Y39908D01*
X700120Y33910D02*
X702119Y34910D01*
X704118Y36909D01*
Y38909D01*
X703119Y39908D01*
X701119D01*
X700120Y38909D01*
Y37909D01*
X701119Y36909D01*
X704118D01*
X711101Y101824D02*
Y107822D01*
X708102D01*
X707102Y106822D01*
Y102823D01*
X708102Y101824D01*
X711101D01*
X701104D02*
X705103D01*
Y104823D01*
X703103Y103823D01*
X702104D01*
X701104Y104823D01*
Y106822D01*
X702104Y107822D01*
X704103D01*
X705103Y106822D01*
X666809Y52119D02*
X662811Y58117D01*
Y52119D02*
X666809Y58117D01*
X656813D02*
X660811D01*
X656813Y54118D01*
Y53119D01*
X657812Y52119D01*
X659812D01*
X660811Y53119D01*
X612676Y40308D02*
Y45306D01*
X611676Y46306D01*
X609677D01*
X608677Y45306D01*
Y40308D01*
X606677Y41308D02*
X605678Y40308D01*
X603679D01*
X602679Y41308D01*
Y42307D01*
X603679Y43307D01*
X604678D01*
X603679D01*
X602679Y44307D01*
Y45306D01*
X603679Y46306D01*
X605678D01*
X606677Y45306D01*
X741120Y75249D02*
Y80247D01*
X740121Y81247D01*
X738121D01*
X737122Y80247D01*
Y75249D01*
X731124Y81247D02*
X735122D01*
X731124Y77248D01*
Y76249D01*
X732123Y75249D01*
X734123D01*
X735122Y76249D01*
X776584Y71404D02*
Y65407D01*
X773585D01*
X772586Y66406D01*
Y68405D01*
X773585Y69405D01*
X776584D01*
X774585D02*
X772586Y71404D01*
X770586Y65407D02*
Y71404D01*
X766588D01*
X764588D02*
X762589D01*
X763589D01*
Y65407D01*
X764588Y66406D01*
X579913Y36758D02*
Y30760D01*
X576914D01*
X575915Y31760D01*
Y33759D01*
X576914Y34759D01*
X579913D01*
X577914D02*
X575915Y36758D01*
X573915D02*
X571916D01*
X572916D01*
Y30760D01*
X573915Y31760D01*
X568917D02*
X567917Y30760D01*
X565918D01*
X564918Y31760D01*
Y32760D01*
X565918Y33759D01*
X566918D01*
X565918D01*
X564918Y34759D01*
Y35759D01*
X565918Y36758D01*
X567917D01*
X568917Y35759D01*
X579913Y55658D02*
Y49660D01*
X576914D01*
X575915Y50660D01*
Y52659D01*
X576914Y53659D01*
X579913D01*
X577914D02*
X575915Y55658D01*
X573915D02*
X571916D01*
X572916D01*
Y49660D01*
X573915Y50660D01*
X568917Y55658D02*
X566918D01*
X567917D01*
Y49660D01*
X568917Y50660D01*
X579913Y46258D02*
Y40260D01*
X576914D01*
X575915Y41260D01*
Y43259D01*
X576914Y44259D01*
X579913D01*
X577914D02*
X575915Y46258D01*
X573915D02*
X571916D01*
X572916D01*
Y40260D01*
X573915Y41260D01*
X568917D02*
X567917Y40260D01*
X565918D01*
X564918Y41260D01*
Y45259D01*
X565918Y46258D01*
X567917D01*
X568917Y45259D01*
Y41260D01*
X739644Y104377D02*
Y98379D01*
X736645D01*
X735645Y99379D01*
Y101378D01*
X736645Y102378D01*
X739644D01*
X737645D02*
X735645Y104377D01*
X733646Y103377D02*
X732646Y104377D01*
X730647D01*
X729647Y103377D01*
Y99379D01*
X730647Y98379D01*
X732646D01*
X733646Y99379D01*
Y100378D01*
X732646Y101378D01*
X729647D01*
X685018Y101424D02*
Y95426D01*
X682019D01*
X681019Y96426D01*
Y98425D01*
X682019Y99425D01*
X685018D01*
X683019D02*
X681019Y101424D01*
X679020Y96426D02*
X678020Y95426D01*
X676021D01*
X675021Y96426D01*
Y97426D01*
X676021Y98425D01*
X675021Y99425D01*
Y100425D01*
X676021Y101424D01*
X678020D01*
X679020Y100425D01*
Y99425D01*
X678020Y98425D01*
X679020Y97426D01*
Y96426D01*
X678020Y98425D02*
X676021D01*
X710116Y49259D02*
Y43261D01*
X707118D01*
X706118Y44260D01*
Y46260D01*
X707118Y47260D01*
X710116D01*
X708117D02*
X706118Y49259D01*
X700120Y43261D02*
X704118D01*
Y46260D01*
X702119Y45260D01*
X701119D01*
X700120Y46260D01*
Y48259D01*
X701119Y49259D01*
X703119D01*
X704118Y48259D01*
X453719Y32527D02*
Y26528D01*
X450720D01*
X449720Y27528D01*
Y29528D01*
X450720Y30527D01*
X453719D01*
X451720D02*
X449720Y32527D01*
X444722D02*
Y26528D01*
X447721Y29528D01*
X443722D01*
X509329Y37940D02*
Y31942D01*
X506330D01*
X505330Y32942D01*
Y34941D01*
X506330Y35941D01*
X509329D01*
X507330D02*
X505330Y37940D01*
X503331Y32942D02*
X502331Y31942D01*
X500332D01*
X499332Y32942D01*
Y33941D01*
X500332Y34941D01*
X501332D01*
X500332D01*
X499332Y35941D01*
Y36940D01*
X500332Y37940D01*
X502331D01*
X503331Y36940D01*
X498502Y128983D02*
Y122985D01*
X495503D01*
X494504Y123985D01*
Y125984D01*
X495503Y126984D01*
X498502D01*
X496503D02*
X494504Y128983D01*
X488506D02*
X492504D01*
X488506Y124985D01*
Y123985D01*
X489505Y122985D01*
X491505D01*
X492504Y123985D01*
X497995Y120125D02*
Y114127D01*
X494996D01*
X493996Y115127D01*
Y117126D01*
X494996Y118126D01*
X497995D01*
X495995D02*
X493996Y120125D01*
X491997D02*
X489997D01*
X490997D01*
Y114127D01*
X491997Y115127D01*
X705118Y24145D02*
Y20146D01*
X706118Y19147D01*
X708117D01*
X709117Y20146D01*
Y24145D01*
X708117Y25145D01*
X706118D01*
X707118Y23145D02*
X705118Y25145D01*
X706118D02*
X705118Y24145D01*
X703119Y25145D02*
X701119D01*
X702119D01*
Y19147D01*
X703119Y20146D01*
X769156Y111267D02*
Y105269D01*
X766157D01*
X765158Y106268D01*
Y108268D01*
X766157Y109267D01*
X769156D01*
X763158Y111267D02*
X761159D01*
X762158D01*
Y105269D01*
X763158Y106268D01*
X659920Y95426D02*
Y101424D01*
X656921D01*
X655921Y100425D01*
Y96426D01*
X656921Y95426D01*
X659920D01*
X649923D02*
X651922Y96426D01*
X653922Y98425D01*
Y100425D01*
X652922Y101424D01*
X650923D01*
X649923Y100425D01*
Y99425D01*
X650923Y98425D01*
X653922D01*
X783443Y111174D02*
Y117172D01*
X780444D01*
X779445Y116173D01*
Y112174D01*
X780444Y111174D01*
X783443D01*
X774446Y117172D02*
Y111174D01*
X777445Y114173D01*
X773447D01*
X724880Y52611D02*
Y58609D01*
X721881D01*
X720882Y57610D01*
Y53611D01*
X721881Y52611D01*
X724880D01*
X718882Y53611D02*
X717882Y52611D01*
X715883D01*
X714884Y53611D01*
Y54611D01*
X715883Y55610D01*
X716883D01*
X715883D01*
X714884Y56610D01*
Y57610D01*
X715883Y58609D01*
X717882D01*
X718882Y57610D01*
X802833Y114619D02*
Y120617D01*
X799834D01*
X798834Y119617D01*
Y115619D01*
X799834Y114619D01*
X802833D01*
X792836Y120617D02*
X796835D01*
X792836Y116618D01*
Y115619D01*
X793836Y114619D01*
X795835D01*
X796835Y115619D01*
X708625Y7336D02*
Y13334D01*
X705626D01*
X704626Y12334D01*
Y8335D01*
X705626Y7336D01*
X708625D01*
X702627Y13334D02*
X700627D01*
X701627D01*
Y7336D01*
X702627Y8335D01*
X592515Y7360D02*
X593514Y6360D01*
X595514D01*
X596513Y7360D01*
Y11359D01*
X595514Y12358D01*
X593514D01*
X592515Y11359D01*
X590515Y12358D02*
Y6360D01*
X586517Y12358D01*
Y6360D01*
X584517Y7360D02*
X583518Y6360D01*
X581518D01*
X580519Y7360D01*
Y8360D01*
X581518Y9359D01*
X582518D01*
X581518D01*
X580519Y10359D01*
Y11359D01*
X581518Y12358D01*
X583518D01*
X584517Y11359D01*
X832640Y83139D02*
X833640Y82139D01*
X835639D01*
X836639Y83139D01*
Y87137D01*
X835639Y88137D01*
X833640D01*
X832640Y87137D01*
X830641Y88137D02*
Y82139D01*
X826642Y88137D01*
Y82139D01*
X820644Y88137D02*
X824643D01*
X820644Y84138D01*
Y83139D01*
X821644Y82139D01*
X823643D01*
X824643Y83139D01*
X832625Y68375D02*
X833625Y67375D01*
X835624D01*
X836624Y68375D01*
Y72373D01*
X835624Y73373D01*
X833625D01*
X832625Y72373D01*
X830626Y73373D02*
Y67375D01*
X826627Y73373D01*
Y67375D01*
X824628Y73373D02*
X822628D01*
X823628D01*
Y67375D01*
X824628Y68375D01*
X667960Y44753D02*
X668959Y43753D01*
X670959D01*
X671958Y44753D01*
Y48751D01*
X670959Y49751D01*
X668959D01*
X667960Y48751D01*
X661962Y49751D02*
X665960D01*
X661962Y45752D01*
Y44753D01*
X662961Y43753D01*
X664961D01*
X665960Y44753D01*
X659962Y49751D02*
X657963D01*
X658963D01*
Y43753D01*
X659962Y44753D01*
X617581Y110205D02*
X618581Y109206D01*
X620580D01*
X621580Y110205D01*
Y114204D01*
X620580Y115204D01*
X618581D01*
X617581Y114204D01*
X611583Y115204D02*
X615582D01*
X611583Y111205D01*
Y110205D01*
X612583Y109206D01*
X614582D01*
X615582Y110205D01*
X609584D02*
X608584Y109206D01*
X606585D01*
X605585Y110205D01*
Y114204D01*
X606585Y115204D01*
X608584D01*
X609584Y114204D01*
Y110205D01*
X668460Y36879D02*
X669459Y35879D01*
X671458D01*
X672458Y36879D01*
Y40877D01*
X671458Y41877D01*
X669459D01*
X668460Y40877D01*
X666460Y41877D02*
X664461D01*
X665460D01*
Y35879D01*
X666460Y36879D01*
X661462Y40877D02*
X660462Y41877D01*
X658463D01*
X657463Y40877D01*
Y36879D01*
X658463Y35879D01*
X660462D01*
X661462Y36879D01*
Y37878D01*
X660462Y38878D01*
X657463D01*
X575615Y88660D02*
X576614Y87660D01*
X578614D01*
X579613Y88660D01*
Y92659D01*
X578614Y93658D01*
X576614D01*
X575615Y92659D01*
X573615Y93658D02*
X571616D01*
X572616D01*
Y87660D01*
X573615Y88660D01*
X568617D02*
X567617Y87660D01*
X565618D01*
X564618Y88660D01*
Y89660D01*
X565618Y90659D01*
X564618Y91659D01*
Y92659D01*
X565618Y93658D01*
X567617D01*
X568617Y92659D01*
Y91659D01*
X567617Y90659D01*
X568617Y89660D01*
Y88660D01*
X567617Y90659D02*
X565618D01*
X688735Y82154D02*
X689735Y81155D01*
X691734D01*
X692734Y82154D01*
Y86153D01*
X691734Y87153D01*
X689735D01*
X688735Y86153D01*
X686736Y87153D02*
X684736D01*
X685736D01*
Y81155D01*
X686736Y82154D01*
X681737Y81155D02*
X677739D01*
Y82154D01*
X681737Y86153D01*
Y87153D01*
X688932Y69851D02*
X689932Y68851D01*
X691931D01*
X692931Y69851D01*
Y73850D01*
X691931Y74849D01*
X689932D01*
X688932Y73850D01*
X686933Y74849D02*
X684933D01*
X685933D01*
Y68851D01*
X686933Y69851D01*
X677936Y68851D02*
X679935Y69851D01*
X681934Y71850D01*
Y73850D01*
X680934Y74849D01*
X678935D01*
X677936Y73850D01*
Y72850D01*
X678935Y71850D01*
X681934D01*
X575615Y79560D02*
X576614Y78560D01*
X578614D01*
X579613Y79560D01*
Y83559D01*
X578614Y84558D01*
X576614D01*
X575615Y83559D01*
X573615Y84558D02*
X571616D01*
X572616D01*
Y78560D01*
X573615Y79560D01*
X564618Y78560D02*
X568617D01*
Y81559D01*
X566618Y80560D01*
X565618D01*
X564618Y81559D01*
Y83559D01*
X565618Y84558D01*
X567617D01*
X568617Y83559D01*
X666294Y26544D02*
X667294Y25544D01*
X669293D01*
X670293Y26544D01*
Y30543D01*
X669293Y31542D01*
X667294D01*
X666294Y30543D01*
X664295Y31542D02*
X662295D01*
X663295D01*
Y25544D01*
X664295Y26544D01*
X656297Y31542D02*
Y25544D01*
X659296Y28543D01*
X655298D01*
X666294Y17686D02*
X667294Y16686D01*
X669293D01*
X670293Y17686D01*
Y21684D01*
X669293Y22684D01*
X667294D01*
X666294Y21684D01*
X664295Y22684D02*
X662295D01*
X663295D01*
Y16686D01*
X664295Y17686D01*
X659296D02*
X658297Y16686D01*
X656297D01*
X655298Y17686D01*
Y18685D01*
X656297Y19685D01*
X657297D01*
X656297D01*
X655298Y20685D01*
Y21684D01*
X656297Y22684D01*
X658297D01*
X659296Y21684D01*
X575615Y70560D02*
X576614Y69560D01*
X578614D01*
X579613Y70560D01*
Y74559D01*
X578614Y75558D01*
X576614D01*
X575615Y74559D01*
X573615Y75558D02*
X571616D01*
X572616D01*
Y69560D01*
X573615Y70560D01*
X564618Y75558D02*
X568617D01*
X564618Y71560D01*
Y70560D01*
X565618Y69560D01*
X567617D01*
X568617Y70560D01*
X576115Y22360D02*
X577114Y21360D01*
X579114D01*
X580113Y22360D01*
Y26359D01*
X579114Y27358D01*
X577114D01*
X576115Y26359D01*
X574115Y27358D02*
X572116D01*
X573116D01*
Y21360D01*
X574115Y22360D01*
X569117Y27358D02*
X567118D01*
X568117D01*
Y21360D01*
X569117Y22360D01*
X576235Y61485D02*
X577235Y60485D01*
X579234D01*
X580234Y61485D01*
Y65484D01*
X579234Y66483D01*
X577235D01*
X576235Y65484D01*
X574236Y66483D02*
X572236D01*
X573236D01*
Y60485D01*
X574236Y61485D01*
X569237D02*
X568238Y60485D01*
X566238D01*
X565239Y61485D01*
Y65484D01*
X566238Y66483D01*
X568238D01*
X569237Y65484D01*
Y61485D01*
X673342Y110698D02*
X674342Y109698D01*
X676341D01*
X677341Y110698D01*
Y114696D01*
X676341Y115696D01*
X674342D01*
X673342Y114696D01*
X671343D02*
X670343Y115696D01*
X668344D01*
X667344Y114696D01*
Y110698D01*
X668344Y109698D01*
X670343D01*
X671343Y110698D01*
Y111697D01*
X670343Y112697D01*
X667344D01*
X645094Y110205D02*
X646094Y109206D01*
X648093D01*
X649093Y110205D01*
Y114204D01*
X648093Y115204D01*
X646094D01*
X645094Y114204D01*
X643095Y110205D02*
X642095Y109206D01*
X640096D01*
X639096Y110205D01*
Y111205D01*
X640096Y112205D01*
X639096Y113204D01*
Y114204D01*
X640096Y115204D01*
X642095D01*
X643095Y114204D01*
Y113204D01*
X642095Y112205D01*
X643095Y111205D01*
Y110205D01*
X642095Y112205D02*
X640096D01*
X809956Y67390D02*
X810956Y66391D01*
X812955D01*
X813955Y67390D01*
Y71389D01*
X812955Y72389D01*
X810956D01*
X809956Y71389D01*
X807957Y66391D02*
X803958D01*
Y67390D01*
X807957Y71389D01*
Y72389D01*
X701689Y119064D02*
X702688Y118064D01*
X704688D01*
X705687Y119064D01*
Y123062D01*
X704688Y124062D01*
X702688D01*
X701689Y123062D01*
X695691Y118064D02*
X699689D01*
Y121063D01*
X697690Y120063D01*
X696690D01*
X695691Y121063D01*
Y123062D01*
X696690Y124062D01*
X698690D01*
X699689Y123062D01*
X737614Y67883D02*
X738614Y66883D01*
X740613D01*
X741613Y67883D01*
Y71881D01*
X740613Y72881D01*
X738614D01*
X737614Y71881D01*
X732616Y72881D02*
Y66883D01*
X735614Y69882D01*
X731616D01*
X549130Y32942D02*
X550129Y31942D01*
X552129D01*
X553128Y32942D01*
Y36940D01*
X552129Y37940D01*
X550129D01*
X549130Y36940D01*
X547130Y32942D02*
X546131Y31942D01*
X544131D01*
X543131Y32942D01*
Y33941D01*
X544131Y34941D01*
X545131D01*
X544131D01*
X543131Y35941D01*
Y36940D01*
X544131Y37940D01*
X546131D01*
X547130Y36940D01*
X549425Y43276D02*
X550424Y42277D01*
X552424D01*
X553424Y43276D01*
Y47275D01*
X552424Y48275D01*
X550424D01*
X549425Y47275D01*
X543427Y48275D02*
X547426D01*
X543427Y44276D01*
Y43276D01*
X544426Y42277D01*
X546426D01*
X547426Y43276D01*
X449705Y17686D02*
X450704Y16686D01*
X452704D01*
X453703Y17686D01*
Y21684D01*
X452704Y22684D01*
X450704D01*
X449705Y21684D01*
X447705Y22684D02*
X445706D01*
X446706D01*
Y16686D01*
X447705Y17686D01*
X503823Y141624D02*
Y146622D01*
X502823Y147622D01*
X500824D01*
X499824Y146622D01*
Y141624D01*
X497825D02*
X493826D01*
X495825D01*
Y147622D01*
X491827D02*
Y141624D01*
X487828Y147622D01*
Y141624D01*
X485829Y147622D02*
Y146622D01*
X484829D01*
Y147622D01*
X485829D01*
X476832Y141624D02*
X480830D01*
Y144623D01*
X478831D01*
X480830D01*
Y147622D01*
X474832D02*
Y141624D01*
X471833D01*
X470833Y142624D01*
Y144623D01*
X471833Y145623D01*
X474832D01*
X472833D02*
X470833Y147622D01*
X468834Y141624D02*
Y147622D01*
X465835D01*
X464836Y146622D01*
Y145623D01*
X465835Y144623D01*
X468834D01*
X465835D01*
X464836Y143623D01*
Y142624D01*
X465835Y141624D01*
X468834D01*
X462836Y147622D02*
Y143623D01*
X460837Y141624D01*
X458837Y143623D01*
Y147622D01*
Y144623D01*
X462836D01*
X698213Y149560D02*
X695547D01*
X696880Y148227D02*
Y150893D01*
X694214Y148227D02*
X693547Y147560D01*
X692214D01*
X691548Y148227D01*
Y148893D01*
X692214Y149560D01*
X692881D01*
X692214D01*
X691548Y150226D01*
Y150893D01*
X692214Y151559D01*
X693547D01*
X694214Y150893D01*
X690215Y151559D02*
Y150893D01*
X689549D01*
Y151559D01*
X690215D01*
X686883Y148227D02*
X686216Y147560D01*
X684884D01*
X684217Y148227D01*
Y148893D01*
X684884Y149560D01*
X685550D01*
X684884D01*
X684217Y150226D01*
Y150893D01*
X684884Y151559D01*
X686216D01*
X686883Y150893D01*
X682884Y147560D02*
Y150226D01*
X681551Y151559D01*
X680218Y150226D01*
Y147560D01*
X692594Y161022D02*
X693260Y160356D01*
X694593D01*
X695260Y161022D01*
Y163688D01*
X694593Y164354D01*
X693260D01*
X692594Y163688D01*
Y162355D01*
X693927D01*
X691261Y164354D02*
Y160356D01*
X688595Y164354D01*
Y160356D01*
X687262D02*
Y164354D01*
X685263D01*
X684597Y163688D01*
Y161022D01*
X685263Y160356D01*
X687262D01*
X673192Y209107D02*
X669193Y215105D01*
Y209107D02*
X673192Y215105D01*
X667194D02*
X665194D01*
X666194D01*
Y209107D01*
X667194Y210107D01*
X722404Y208123D02*
Y214121D01*
X718405D01*
X716406D02*
X714407D01*
X715407D01*
Y208123D01*
X716406Y209123D01*
X739644Y229869D02*
Y223871D01*
X736645D01*
X735645Y224871D01*
Y226870D01*
X736645Y227870D01*
X739644D01*
X737645D02*
X735645Y229869D01*
X733646Y223871D02*
X729647D01*
Y224871D01*
X733646Y228869D01*
Y229869D01*
X437463Y169245D02*
Y174243D01*
X436464Y175243D01*
X434464D01*
X433465Y174243D01*
Y169245D01*
X431465Y175243D02*
X429466D01*
X430466D01*
Y169245D01*
X431465Y170245D01*
X766649Y231268D02*
X767649Y230269D01*
X769648D01*
X770648Y231268D01*
Y235267D01*
X769648Y236267D01*
X767649D01*
X766649Y235267D01*
X760651Y230269D02*
X762651Y231268D01*
X764650Y233268D01*
Y235267D01*
X763650Y236267D01*
X761651D01*
X760651Y235267D01*
Y234267D01*
X761651Y233268D01*
X764650D01*
X616651Y162940D02*
Y156942D01*
X613652D01*
X612652Y157942D01*
Y159941D01*
X613652Y160941D01*
X616651D01*
X614652D02*
X612652Y162940D01*
X610653D02*
X608654D01*
X609653D01*
Y156942D01*
X610653Y157942D01*
X601656Y162940D02*
X605655D01*
X601656Y158941D01*
Y157942D01*
X602656Y156942D01*
X604655D01*
X605655Y157942D01*
X710116Y173767D02*
Y167769D01*
X707118D01*
X706118Y168768D01*
Y170768D01*
X707118Y171767D01*
X710116D01*
X708117D02*
X706118Y173767D01*
X700120Y167769D02*
X702119Y168768D01*
X704118Y170768D01*
Y172767D01*
X703119Y173767D01*
X701119D01*
X700120Y172767D01*
Y171767D01*
X701119Y170768D01*
X704118D01*
X711101Y235682D02*
Y241680D01*
X708102D01*
X707102Y240681D01*
Y236682D01*
X708102Y235682D01*
X711101D01*
X701104D02*
X705103D01*
Y238681D01*
X703103Y237681D01*
X702104D01*
X701104Y238681D01*
Y240681D01*
X702104Y241680D01*
X704103D01*
X705103Y240681D01*
X666809Y185977D02*
X662811Y191975D01*
Y185977D02*
X666809Y191975D01*
X656813D02*
X660811D01*
X656813Y187977D01*
Y186977D01*
X657812Y185977D01*
X659812D01*
X660811Y186977D01*
X612676Y174166D02*
Y179165D01*
X611676Y180164D01*
X609677D01*
X608677Y179165D01*
Y174166D01*
X606677Y175166D02*
X605678Y174166D01*
X603679D01*
X602679Y175166D01*
Y176166D01*
X603679Y177165D01*
X604678D01*
X603679D01*
X602679Y178165D01*
Y179165D01*
X603679Y180164D01*
X605678D01*
X606677Y179165D01*
X741120Y209107D02*
Y214106D01*
X740121Y215105D01*
X738121D01*
X737122Y214106D01*
Y209107D01*
X731124Y215105D02*
X735122D01*
X731124Y211107D01*
Y210107D01*
X732123Y209107D01*
X734123D01*
X735122Y210107D01*
X776584Y205263D02*
Y199265D01*
X773585D01*
X772586Y200264D01*
Y202264D01*
X773585Y203263D01*
X776584D01*
X774585D02*
X772586Y205263D01*
X770586Y199265D02*
Y205263D01*
X766588D01*
X764588D02*
X762589D01*
X763589D01*
Y199265D01*
X764588Y200264D01*
X579913Y170616D02*
Y164619D01*
X576914D01*
X575915Y165618D01*
Y167617D01*
X576914Y168617D01*
X579913D01*
X577914D02*
X575915Y170616D01*
X573915D02*
X571916D01*
X572916D01*
Y164619D01*
X573915Y165618D01*
X568917D02*
X567917Y164619D01*
X565918D01*
X564918Y165618D01*
Y166618D01*
X565918Y167617D01*
X566918D01*
X565918D01*
X564918Y168617D01*
Y169617D01*
X565918Y170616D01*
X567917D01*
X568917Y169617D01*
X579913Y189516D02*
Y183519D01*
X576914D01*
X575915Y184518D01*
Y186518D01*
X576914Y187517D01*
X579913D01*
X577914D02*
X575915Y189516D01*
X573915D02*
X571916D01*
X572916D01*
Y183519D01*
X573915Y184518D01*
X568917Y189516D02*
X566918D01*
X567917D01*
Y183519D01*
X568917Y184518D01*
X579913Y180116D02*
Y174118D01*
X576914D01*
X575915Y175118D01*
Y177118D01*
X576914Y178117D01*
X579913D01*
X577914D02*
X575915Y180116D01*
X573915D02*
X571916D01*
X572916D01*
Y174118D01*
X573915Y175118D01*
X568917D02*
X567917Y174118D01*
X565918D01*
X564918Y175118D01*
Y179117D01*
X565918Y180116D01*
X567917D01*
X568917Y179117D01*
Y175118D01*
X739644Y238235D02*
Y232237D01*
X736645D01*
X735645Y233237D01*
Y235236D01*
X736645Y236236D01*
X739644D01*
X737645D02*
X735645Y238235D01*
X733646Y237236D02*
X732646Y238235D01*
X730647D01*
X729647Y237236D01*
Y233237D01*
X730647Y232237D01*
X732646D01*
X733646Y233237D01*
Y234237D01*
X732646Y235236D01*
X729647D01*
X685018Y235282D02*
Y229284D01*
X682019D01*
X681019Y230284D01*
Y232283D01*
X682019Y233283D01*
X685018D01*
X683019D02*
X681019Y235282D01*
X679020Y230284D02*
X678020Y229284D01*
X676021D01*
X675021Y230284D01*
Y231284D01*
X676021Y232283D01*
X675021Y233283D01*
Y234283D01*
X676021Y235282D01*
X678020D01*
X679020Y234283D01*
Y233283D01*
X678020Y232283D01*
X679020Y231284D01*
Y230284D01*
X678020Y232283D02*
X676021D01*
X710116Y183117D02*
Y177119D01*
X707118D01*
X706118Y178119D01*
Y180118D01*
X707118Y181118D01*
X710116D01*
X708117D02*
X706118Y183117D01*
X700120Y177119D02*
X704118D01*
Y180118D01*
X702119Y179118D01*
X701119D01*
X700120Y180118D01*
Y182117D01*
X701119Y183117D01*
X703119D01*
X704118Y182117D01*
X453719Y166385D02*
Y160387D01*
X450720D01*
X449720Y161387D01*
Y163386D01*
X450720Y164385D01*
X453719D01*
X451720D02*
X449720Y166385D01*
X444722D02*
Y160387D01*
X447721Y163386D01*
X443722D01*
X509329Y171798D02*
Y165800D01*
X506330D01*
X505330Y166800D01*
Y168799D01*
X506330Y169799D01*
X509329D01*
X507330D02*
X505330Y171798D01*
X503331Y166800D02*
X502331Y165800D01*
X500332D01*
X499332Y166800D01*
Y167799D01*
X500332Y168799D01*
X501332D01*
X500332D01*
X499332Y169799D01*
Y170799D01*
X500332Y171798D01*
X502331D01*
X503331Y170799D01*
X498502Y262842D02*
Y256843D01*
X495503D01*
X494504Y257843D01*
Y259842D01*
X495503Y260842D01*
X498502D01*
X496503D02*
X494504Y262842D01*
X488506D02*
X492504D01*
X488506Y258843D01*
Y257843D01*
X489505Y256843D01*
X491505D01*
X492504Y257843D01*
X497995Y253983D02*
Y247985D01*
X494996D01*
X493996Y248985D01*
Y250984D01*
X494996Y251984D01*
X497995D01*
X495995D02*
X493996Y253983D01*
X491997D02*
X489997D01*
X490997D01*
Y247985D01*
X491997Y248985D01*
X705118Y158003D02*
Y154005D01*
X706118Y153005D01*
X708117D01*
X709117Y154005D01*
Y158003D01*
X708117Y159003D01*
X706118D01*
X707118Y157004D02*
X705118Y159003D01*
X706118D02*
X705118Y158003D01*
X703119Y159003D02*
X701119D01*
X702119D01*
Y153005D01*
X703119Y154005D01*
X769156Y245125D02*
Y239127D01*
X766157D01*
X765158Y240127D01*
Y242126D01*
X766157Y243126D01*
X769156D01*
X763158Y245125D02*
X761159D01*
X762158D01*
Y239127D01*
X763158Y240127D01*
X659920Y229284D02*
Y235282D01*
X656921D01*
X655921Y234283D01*
Y230284D01*
X656921Y229284D01*
X659920D01*
X649923D02*
X651922Y230284D01*
X653922Y232283D01*
Y234283D01*
X652922Y235282D01*
X650923D01*
X649923Y234283D01*
Y233283D01*
X650923Y232283D01*
X653922D01*
X783443Y245033D02*
Y251030D01*
X780444D01*
X779445Y250031D01*
Y246032D01*
X780444Y245033D01*
X783443D01*
X774446Y251030D02*
Y245033D01*
X777445Y248031D01*
X773447D01*
X724880Y186469D02*
Y192467D01*
X721881D01*
X720882Y191468D01*
Y187469D01*
X721881Y186469D01*
X724880D01*
X718882Y187469D02*
X717882Y186469D01*
X715883D01*
X714884Y187469D01*
Y188469D01*
X715883Y189469D01*
X716883D01*
X715883D01*
X714884Y190468D01*
Y191468D01*
X715883Y192467D01*
X717882D01*
X718882Y191468D01*
X802833Y248477D02*
Y254475D01*
X799834D01*
X798834Y253476D01*
Y249477D01*
X799834Y248477D01*
X802833D01*
X792836Y254475D02*
X796835D01*
X792836Y250477D01*
Y249477D01*
X793836Y248477D01*
X795835D01*
X796835Y249477D01*
X708625Y141194D02*
Y147192D01*
X705626D01*
X704626Y146192D01*
Y142194D01*
X705626Y141194D01*
X708625D01*
X702627Y147192D02*
X700627D01*
X701627D01*
Y141194D01*
X702627Y142194D01*
X592515Y141218D02*
X593514Y140218D01*
X595514D01*
X596513Y141218D01*
Y145217D01*
X595514Y146216D01*
X593514D01*
X592515Y145217D01*
X590515Y146216D02*
Y140218D01*
X586517Y146216D01*
Y140218D01*
X584517Y141218D02*
X583518Y140218D01*
X581518D01*
X580519Y141218D01*
Y142218D01*
X581518Y143218D01*
X582518D01*
X581518D01*
X580519Y144217D01*
Y145217D01*
X581518Y146216D01*
X583518D01*
X584517Y145217D01*
X832640Y216997D02*
X833640Y215997D01*
X835639D01*
X836639Y216997D01*
Y220995D01*
X835639Y221995D01*
X833640D01*
X832640Y220995D01*
X830641Y221995D02*
Y215997D01*
X826642Y221995D01*
Y215997D01*
X820644Y221995D02*
X824643D01*
X820644Y217996D01*
Y216997D01*
X821644Y215997D01*
X823643D01*
X824643Y216997D01*
X832625Y202233D02*
X833625Y201233D01*
X835624D01*
X836624Y202233D01*
Y206232D01*
X835624Y207231D01*
X833625D01*
X832625Y206232D01*
X830626Y207231D02*
Y201233D01*
X826627Y207231D01*
Y201233D01*
X824628Y207231D02*
X822628D01*
X823628D01*
Y201233D01*
X824628Y202233D01*
X667960Y178611D02*
X668959Y177611D01*
X670959D01*
X671958Y178611D01*
Y182610D01*
X670959Y183609D01*
X668959D01*
X667960Y182610D01*
X661962Y183609D02*
X665960D01*
X661962Y179611D01*
Y178611D01*
X662961Y177611D01*
X664961D01*
X665960Y178611D01*
X659962Y183609D02*
X657963D01*
X658963D01*
Y177611D01*
X659962Y178611D01*
X617581Y244064D02*
X618581Y243064D01*
X620580D01*
X621580Y244064D01*
Y248062D01*
X620580Y249062D01*
X618581D01*
X617581Y248062D01*
X611583Y249062D02*
X615582D01*
X611583Y245063D01*
Y244064D01*
X612583Y243064D01*
X614582D01*
X615582Y244064D01*
X609584D02*
X608584Y243064D01*
X606585D01*
X605585Y244064D01*
Y248062D01*
X606585Y249062D01*
X608584D01*
X609584Y248062D01*
Y244064D01*
X668460Y170737D02*
X669459Y169737D01*
X671458D01*
X672458Y170737D01*
Y174736D01*
X671458Y175735D01*
X669459D01*
X668460Y174736D01*
X666460Y175735D02*
X664461D01*
X665460D01*
Y169737D01*
X666460Y170737D01*
X661462Y174736D02*
X660462Y175735D01*
X658463D01*
X657463Y174736D01*
Y170737D01*
X658463Y169737D01*
X660462D01*
X661462Y170737D01*
Y171737D01*
X660462Y172736D01*
X657463D01*
X575615Y222518D02*
X576614Y221518D01*
X578614D01*
X579613Y222518D01*
Y226517D01*
X578614Y227517D01*
X576614D01*
X575615Y226517D01*
X573615Y227517D02*
X571616D01*
X572616D01*
Y221518D01*
X573615Y222518D01*
X568617D02*
X567617Y221518D01*
X565618D01*
X564618Y222518D01*
Y223518D01*
X565618Y224517D01*
X564618Y225517D01*
Y226517D01*
X565618Y227517D01*
X567617D01*
X568617Y226517D01*
Y225517D01*
X567617Y224517D01*
X568617Y223518D01*
Y222518D01*
X567617Y224517D02*
X565618D01*
X688735Y216013D02*
X689735Y215013D01*
X691734D01*
X692734Y216013D01*
Y220011D01*
X691734Y221011D01*
X689735D01*
X688735Y220011D01*
X686736Y221011D02*
X684736D01*
X685736D01*
Y215013D01*
X686736Y216013D01*
X681737Y215013D02*
X677739D01*
Y216013D01*
X681737Y220011D01*
Y221011D01*
X688932Y203709D02*
X689932Y202710D01*
X691931D01*
X692931Y203709D01*
Y207708D01*
X691931Y208708D01*
X689932D01*
X688932Y207708D01*
X686933Y208708D02*
X684933D01*
X685933D01*
Y202710D01*
X686933Y203709D01*
X677936Y202710D02*
X679935Y203709D01*
X681934Y205709D01*
Y207708D01*
X680934Y208708D01*
X678935D01*
X677936Y207708D01*
Y206708D01*
X678935Y205709D01*
X681934D01*
X575615Y213418D02*
X576614Y212419D01*
X578614D01*
X579613Y213418D01*
Y217417D01*
X578614Y218417D01*
X576614D01*
X575615Y217417D01*
X573615Y218417D02*
X571616D01*
X572616D01*
Y212419D01*
X573615Y213418D01*
X564618Y212419D02*
X568617D01*
Y215418D01*
X566618Y214418D01*
X565618D01*
X564618Y215418D01*
Y217417D01*
X565618Y218417D01*
X567617D01*
X568617Y217417D01*
X666294Y160402D02*
X667294Y159403D01*
X669293D01*
X670293Y160402D01*
Y164401D01*
X669293Y165401D01*
X667294D01*
X666294Y164401D01*
X664295Y165401D02*
X662295D01*
X663295D01*
Y159403D01*
X664295Y160402D01*
X656297Y165401D02*
Y159403D01*
X659296Y162402D01*
X655298D01*
X666294Y151544D02*
X667294Y150544D01*
X669293D01*
X670293Y151544D01*
Y155543D01*
X669293Y156542D01*
X667294D01*
X666294Y155543D01*
X664295Y156542D02*
X662295D01*
X663295D01*
Y150544D01*
X664295Y151544D01*
X659296D02*
X658297Y150544D01*
X656297D01*
X655298Y151544D01*
Y152544D01*
X656297Y153543D01*
X657297D01*
X656297D01*
X655298Y154543D01*
Y155543D01*
X656297Y156542D01*
X658297D01*
X659296Y155543D01*
X575615Y204418D02*
X576614Y203418D01*
X578614D01*
X579613Y204418D01*
Y208417D01*
X578614Y209417D01*
X576614D01*
X575615Y208417D01*
X573615Y209417D02*
X571616D01*
X572616D01*
Y203418D01*
X573615Y204418D01*
X564618Y209417D02*
X568617D01*
X564618Y205418D01*
Y204418D01*
X565618Y203418D01*
X567617D01*
X568617Y204418D01*
X576115Y156218D02*
X577114Y155219D01*
X579114D01*
X580113Y156218D01*
Y160217D01*
X579114Y161216D01*
X577114D01*
X576115Y160217D01*
X574115Y161216D02*
X572116D01*
X573116D01*
Y155219D01*
X574115Y156218D01*
X569117Y161216D02*
X567118D01*
X568117D01*
Y155219D01*
X569117Y156218D01*
X576235Y195343D02*
X577235Y194343D01*
X579234D01*
X580234Y195343D01*
Y199342D01*
X579234Y200342D01*
X577235D01*
X576235Y199342D01*
X574236Y200342D02*
X572236D01*
X573236D01*
Y194343D01*
X574236Y195343D01*
X569237D02*
X568238Y194343D01*
X566238D01*
X565239Y195343D01*
Y199342D01*
X566238Y200342D01*
X568238D01*
X569237Y199342D01*
Y195343D01*
X673342Y244556D02*
X674342Y243556D01*
X676341D01*
X677341Y244556D01*
Y248555D01*
X676341Y249554D01*
X674342D01*
X673342Y248555D01*
X671343D02*
X670343Y249554D01*
X668344D01*
X667344Y248555D01*
Y244556D01*
X668344Y243556D01*
X670343D01*
X671343Y244556D01*
Y245555D01*
X670343Y246555D01*
X667344D01*
X645094Y244064D02*
X646094Y243064D01*
X648093D01*
X649093Y244064D01*
Y248062D01*
X648093Y249062D01*
X646094D01*
X645094Y248062D01*
X643095Y244064D02*
X642095Y243064D01*
X640096D01*
X639096Y244064D01*
Y245063D01*
X640096Y246063D01*
X639096Y247063D01*
Y248062D01*
X640096Y249062D01*
X642095D01*
X643095Y248062D01*
Y247063D01*
X642095Y246063D01*
X643095Y245063D01*
Y244064D01*
X642095Y246063D02*
X640096D01*
X809956Y201249D02*
X810956Y200249D01*
X812955D01*
X813955Y201249D01*
Y205247D01*
X812955Y206247D01*
X810956D01*
X809956Y205247D01*
X807957Y200249D02*
X803958D01*
Y201249D01*
X807957Y205247D01*
Y206247D01*
X701689Y252922D02*
X702688Y251922D01*
X704688D01*
X705687Y252922D01*
Y256921D01*
X704688Y257920D01*
X702688D01*
X701689Y256921D01*
X695691Y251922D02*
X699689D01*
Y254921D01*
X697690Y253922D01*
X696690D01*
X695691Y254921D01*
Y256921D01*
X696690Y257920D01*
X698690D01*
X699689Y256921D01*
X737614Y201741D02*
X738614Y200741D01*
X740613D01*
X741613Y201741D01*
Y205739D01*
X740613Y206739D01*
X738614D01*
X737614Y205739D01*
X732616Y206739D02*
Y200741D01*
X735614Y203740D01*
X731616D01*
X549130Y166800D02*
X550129Y165800D01*
X552129D01*
X553128Y166800D01*
Y170799D01*
X552129Y171798D01*
X550129D01*
X549130Y170799D01*
X547130Y166800D02*
X546131Y165800D01*
X544131D01*
X543131Y166800D01*
Y167799D01*
X544131Y168799D01*
X545131D01*
X544131D01*
X543131Y169799D01*
Y170799D01*
X544131Y171798D01*
X546131D01*
X547130Y170799D01*
X549425Y177135D02*
X550424Y176135D01*
X552424D01*
X553424Y177135D01*
Y181133D01*
X552424Y182133D01*
X550424D01*
X549425Y181133D01*
X543427Y182133D02*
X547426D01*
X543427Y178134D01*
Y177135D01*
X544426Y176135D01*
X546426D01*
X547426Y177135D01*
X449705Y151544D02*
X450704Y150544D01*
X452704D01*
X453703Y151544D01*
Y155543D01*
X452704Y156542D01*
X450704D01*
X449705Y155543D01*
X447705Y156542D02*
X445706D01*
X446706D01*
Y150544D01*
X447705Y151544D01*
X339090Y126093D02*
Y121094D01*
X340090Y120095D01*
X342090D01*
X343089Y121094D01*
Y126093D01*
X345089D02*
X349087D01*
X347088D01*
Y120095D01*
X351087D02*
Y126093D01*
X355085Y120095D01*
Y126093D01*
X357085Y120095D02*
Y121094D01*
X358084D01*
Y120095D01*
X357085D01*
X366082Y126093D02*
X362083D01*
Y123093D01*
X364083D01*
X362083D01*
Y120095D01*
X368081D02*
Y126093D01*
X371080D01*
X372080Y125093D01*
Y123093D01*
X371080Y122094D01*
X368081D01*
X370080D02*
X372080Y120095D01*
X374079Y126093D02*
Y120095D01*
X377078D01*
X378078Y121094D01*
Y122094D01*
X377078Y123093D01*
X374079D01*
X377078D01*
X378078Y124093D01*
Y125093D01*
X377078Y126093D01*
X374079D01*
X380077Y120095D02*
Y124093D01*
X382077Y126093D01*
X384076Y124093D01*
Y120095D01*
Y123093D01*
X380077D01*
X144701Y118157D02*
X147367D01*
X146034Y119490D02*
Y116824D01*
X148699Y119490D02*
X149366Y120156D01*
X150699D01*
X151365Y119490D01*
Y118823D01*
X150699Y118157D01*
X150032D01*
X150699D01*
X151365Y117490D01*
Y116824D01*
X150699Y116157D01*
X149366D01*
X148699Y116824D01*
X152698Y116157D02*
Y116824D01*
X153365D01*
Y116157D01*
X152698D01*
X156030Y119490D02*
X156697Y120156D01*
X158030D01*
X158696Y119490D01*
Y118823D01*
X158030Y118157D01*
X157363D01*
X158030D01*
X158696Y117490D01*
Y116824D01*
X158030Y116157D01*
X156697D01*
X156030Y116824D01*
X160029Y120156D02*
Y117490D01*
X161362Y116157D01*
X162695Y117490D01*
Y120156D01*
X150319Y106694D02*
X149653Y107361D01*
X148320D01*
X147653Y106694D01*
Y104029D01*
X148320Y103362D01*
X149653D01*
X150319Y104029D01*
Y105362D01*
X148986D01*
X151652Y103362D02*
Y107361D01*
X154318Y103362D01*
Y107361D01*
X155651D02*
Y103362D01*
X157650D01*
X158317Y104029D01*
Y106694D01*
X157650Y107361D01*
X155651D01*
X169722Y58609D02*
X173721Y52611D01*
Y58609D02*
X169722Y52611D01*
X175720D02*
X177719D01*
X176719D01*
Y58609D01*
X175720Y57610D01*
X120509Y59593D02*
Y53596D01*
X124508D01*
X126507D02*
X128507D01*
X127507D01*
Y59593D01*
X126507Y58594D01*
X103269Y37847D02*
Y43845D01*
X106268D01*
X107268Y42846D01*
Y40846D01*
X106268Y39847D01*
X103269D01*
X105269D02*
X107268Y37847D01*
X109267Y43845D02*
X113266D01*
Y42846D01*
X109267Y38847D01*
Y37847D01*
X405450Y98471D02*
Y93473D01*
X406450Y92473D01*
X408449D01*
X409449Y93473D01*
Y98471D01*
X411448Y92473D02*
X413448D01*
X412448D01*
Y98471D01*
X411448Y97472D01*
X76264Y36448D02*
X75264Y37448D01*
X73265D01*
X72265Y36448D01*
Y32449D01*
X73265Y31450D01*
X75264D01*
X76264Y32449D01*
X82262Y37448D02*
X80263Y36448D01*
X78263Y34449D01*
Y32449D01*
X79263Y31450D01*
X81262D01*
X82262Y32449D01*
Y33449D01*
X81262Y34449D01*
X78263D01*
X226262Y104777D02*
Y110775D01*
X229261D01*
X230261Y109775D01*
Y107776D01*
X229261Y106776D01*
X226262D01*
X228262D02*
X230261Y104777D01*
X232260D02*
X234260D01*
X233260D01*
Y110775D01*
X232260Y109775D01*
X241257Y104777D02*
X237259D01*
X241257Y108775D01*
Y109775D01*
X240258Y110775D01*
X238258D01*
X237259Y109775D01*
X132797Y93950D02*
Y99948D01*
X135796D01*
X136796Y98948D01*
Y96949D01*
X135796Y95949D01*
X132797D01*
X134796D02*
X136796Y93950D01*
X142794Y99948D02*
X140794Y98948D01*
X138795Y96949D01*
Y94950D01*
X139795Y93950D01*
X141794D01*
X142794Y94950D01*
Y95949D01*
X141794Y96949D01*
X138795D01*
X131813Y32035D02*
Y26036D01*
X134812D01*
X135811Y27036D01*
Y31035D01*
X134812Y32035D01*
X131813D01*
X141809D02*
X137811D01*
Y29035D01*
X139810Y30035D01*
X140810D01*
X141809Y29035D01*
Y27036D01*
X140810Y26036D01*
X138810D01*
X137811Y27036D01*
X176104Y81739D02*
X180103Y75741D01*
Y81739D02*
X176104Y75741D01*
X186101D02*
X182102D01*
X186101Y79740D01*
Y80739D01*
X185101Y81739D01*
X183102D01*
X182102Y80739D01*
X230238Y93550D02*
Y88552D01*
X231238Y87552D01*
X233237D01*
X234237Y88552D01*
Y93550D01*
X236236Y92550D02*
X237236Y93550D01*
X239235D01*
X240235Y92550D01*
Y91551D01*
X239235Y90551D01*
X238235D01*
X239235D01*
X240235Y89552D01*
Y88552D01*
X239235Y87552D01*
X237236D01*
X236236Y88552D01*
X101793Y58609D02*
Y53611D01*
X102793Y52611D01*
X104792D01*
X105792Y53611D01*
Y58609D01*
X111790Y52611D02*
X107791D01*
X111790Y56610D01*
Y57610D01*
X110790Y58609D01*
X108791D01*
X107791Y57610D01*
X66329Y62454D02*
Y68452D01*
X69328D01*
X70328Y67452D01*
Y65453D01*
X69328Y64453D01*
X66329D01*
X68328D02*
X70328Y62454D01*
X72327Y68452D02*
Y62454D01*
X76326D01*
X78325D02*
X80325D01*
X79325D01*
Y68452D01*
X78325Y67452D01*
X263000Y97100D02*
Y103098D01*
X265999D01*
X266999Y102098D01*
Y100099D01*
X265999Y99099D01*
X263000D01*
X264999D02*
X266999Y97100D01*
X268998D02*
X270997D01*
X269998D01*
Y103098D01*
X268998Y102098D01*
X273996D02*
X274996Y103098D01*
X276995D01*
X277995Y102098D01*
Y101099D01*
X276995Y100099D01*
X275996D01*
X276995D01*
X277995Y99099D01*
Y98100D01*
X276995Y97100D01*
X274996D01*
X273996Y98100D01*
X263000Y78200D02*
Y84198D01*
X265999D01*
X266999Y83198D01*
Y81199D01*
X265999Y80199D01*
X263000D01*
X264999D02*
X266999Y78200D01*
X268998D02*
X270997D01*
X269998D01*
Y84198D01*
X268998Y83198D01*
X273996Y78200D02*
X275996D01*
X274996D01*
Y84198D01*
X273996Y83198D01*
X263000Y87600D02*
Y93598D01*
X265999D01*
X266999Y92598D01*
Y90599D01*
X265999Y89599D01*
X263000D01*
X264999D02*
X266999Y87600D01*
X268998D02*
X270997D01*
X269998D01*
Y93598D01*
X268998Y92598D01*
X273996D02*
X274996Y93598D01*
X276995D01*
X277995Y92598D01*
Y88600D01*
X276995Y87600D01*
X274996D01*
X273996Y88600D01*
Y92598D01*
X103269Y29481D02*
Y35479D01*
X106268D01*
X107268Y34480D01*
Y32480D01*
X106268Y31481D01*
X103269D01*
X105269D02*
X107268Y29481D01*
X109267Y30481D02*
X110267Y29481D01*
X112266D01*
X113266Y30481D01*
Y34480D01*
X112266Y35479D01*
X110267D01*
X109267Y34480D01*
Y33480D01*
X110267Y32480D01*
X113266D01*
X157895Y32434D02*
Y38432D01*
X160894D01*
X161894Y37432D01*
Y35433D01*
X160894Y34433D01*
X157895D01*
X159895D02*
X161894Y32434D01*
X163893Y37432D02*
X164893Y38432D01*
X166892D01*
X167892Y37432D01*
Y36433D01*
X166892Y35433D01*
X167892Y34433D01*
Y33434D01*
X166892Y32434D01*
X164893D01*
X163893Y33434D01*
Y34433D01*
X164893Y35433D01*
X163893Y36433D01*
Y37432D01*
X164893Y35433D02*
X166892D01*
X132797Y84599D02*
Y90597D01*
X135796D01*
X136796Y89598D01*
Y87598D01*
X135796Y86599D01*
X132797D01*
X134796D02*
X136796Y84599D01*
X142794Y90597D02*
X138795D01*
Y87598D01*
X140794Y88598D01*
X141794D01*
X142794Y87598D01*
Y85599D01*
X141794Y84599D01*
X139795D01*
X138795Y85599D01*
X389194Y101332D02*
Y107330D01*
X392194D01*
X393193Y106330D01*
Y104331D01*
X392194Y103331D01*
X389194D01*
X391194D02*
X393193Y101332D01*
X398192D02*
Y107330D01*
X395193Y104331D01*
X399191D01*
X333584Y95918D02*
Y101916D01*
X336583D01*
X337583Y100917D01*
Y98917D01*
X336583Y97918D01*
X333584D01*
X335584D02*
X337583Y95918D01*
X339582Y100917D02*
X340582Y101916D01*
X342581D01*
X343581Y100917D01*
Y99917D01*
X342581Y98917D01*
X341582D01*
X342581D01*
X343581Y97918D01*
Y96918D01*
X342581Y95918D01*
X340582D01*
X339582Y96918D01*
X344411Y4875D02*
Y10873D01*
X347410D01*
X348410Y9873D01*
Y7874D01*
X347410Y6874D01*
X344411D01*
X346410D02*
X348410Y4875D01*
X354408D02*
X350409D01*
X354408Y8874D01*
Y9873D01*
X353408Y10873D01*
X351409D01*
X350409Y9873D01*
X344919Y13733D02*
Y19731D01*
X347918D01*
X348917Y18732D01*
Y16732D01*
X347918Y15733D01*
X344919D01*
X346918D02*
X348917Y13733D01*
X350917D02*
X352916D01*
X351916D01*
Y19731D01*
X350917Y18732D01*
X137795Y109713D02*
Y113712D01*
X136796Y114712D01*
X134796D01*
X133797Y113712D01*
Y109713D01*
X134796Y108714D01*
X136796D01*
X135796Y110713D02*
X137795Y108714D01*
X136796D02*
X137795Y109713D01*
X139795Y108714D02*
X141794D01*
X140794D01*
Y114712D01*
X139795Y113712D01*
X73757Y22591D02*
Y28590D01*
X76756D01*
X77756Y27590D01*
Y25591D01*
X76756Y24591D01*
X73757D01*
X79755Y22591D02*
X81755D01*
X80755D01*
Y28590D01*
X79755Y27590D01*
X182994Y38432D02*
Y32434D01*
X185993D01*
X186993Y33434D01*
Y37432D01*
X185993Y38432D01*
X182994D01*
X192991D02*
X190991Y37432D01*
X188992Y35433D01*
Y33434D01*
X189991Y32434D01*
X191991D01*
X192991Y33434D01*
Y34433D01*
X191991Y35433D01*
X188992D01*
X59470Y22684D02*
Y16686D01*
X62469D01*
X63469Y17686D01*
Y21684D01*
X62469Y22684D01*
X59470D01*
X68467Y16686D02*
Y22684D01*
X65468Y19685D01*
X69467D01*
X118033Y81247D02*
Y75249D01*
X121032D01*
X122032Y76249D01*
Y80247D01*
X121032Y81247D01*
X118033D01*
X124031Y80247D02*
X125031Y81247D01*
X127030D01*
X128030Y80247D01*
Y79248D01*
X127030Y78248D01*
X126031D01*
X127030D01*
X128030Y77248D01*
Y76249D01*
X127030Y75249D01*
X125031D01*
X124031Y76249D01*
X40080Y19239D02*
Y13241D01*
X43079D01*
X44079Y14241D01*
Y18239D01*
X43079Y19239D01*
X40080D01*
X50077Y13241D02*
X46078D01*
X50077Y17240D01*
Y18239D01*
X49077Y19239D01*
X47078D01*
X46078Y18239D01*
X134289Y126523D02*
Y120525D01*
X137288D01*
X138287Y121524D01*
Y125523D01*
X137288Y126523D01*
X134289D01*
X140287Y120525D02*
X142286D01*
X141286D01*
Y126523D01*
X140287Y125523D01*
X250399Y126498D02*
X249399Y127498D01*
X247400D01*
X246400Y126498D01*
Y122500D01*
X247400Y121500D01*
X249399D01*
X250399Y122500D01*
X252398Y121500D02*
Y127498D01*
X256397Y121500D01*
Y127498D01*
X258396Y126498D02*
X259396Y127498D01*
X261395D01*
X262395Y126498D01*
Y125499D01*
X261395Y124499D01*
X260396D01*
X261395D01*
X262395Y123499D01*
Y122500D01*
X261395Y121500D01*
X259396D01*
X258396Y122500D01*
X10273Y50720D02*
X9273Y51719D01*
X7274D01*
X6274Y50720D01*
Y46721D01*
X7274Y45721D01*
X9273D01*
X10273Y46721D01*
X12272Y45721D02*
Y51719D01*
X16271Y45721D01*
Y51719D01*
X22269Y45721D02*
X18270D01*
X22269Y49720D01*
Y50720D01*
X21269Y51719D01*
X19270D01*
X18270Y50720D01*
X10288Y65484D02*
X9289Y66483D01*
X7289D01*
X6290Y65484D01*
Y61485D01*
X7289Y60485D01*
X9289D01*
X10288Y61485D01*
X12288Y60485D02*
Y66483D01*
X16286Y60485D01*
Y66483D01*
X18286Y60485D02*
X20285D01*
X19286D01*
Y66483D01*
X18286Y65484D01*
X174954Y89106D02*
X173954Y90105D01*
X171955D01*
X170955Y89106D01*
Y85107D01*
X171955Y84107D01*
X173954D01*
X174954Y85107D01*
X180952Y84107D02*
X176953D01*
X180952Y88106D01*
Y89106D01*
X179952Y90105D01*
X177953D01*
X176953Y89106D01*
X182951Y84107D02*
X184950D01*
X183951D01*
Y90105D01*
X182951Y89106D01*
X225332Y23653D02*
X224332Y24653D01*
X222333D01*
X221333Y23653D01*
Y19654D01*
X222333Y18654D01*
X224332D01*
X225332Y19654D01*
X231330Y18654D02*
X227331D01*
X231330Y22653D01*
Y23653D01*
X230330Y24653D01*
X228331D01*
X227331Y23653D01*
X233329D02*
X234329Y24653D01*
X236328D01*
X237328Y23653D01*
Y19654D01*
X236328Y18654D01*
X234329D01*
X233329Y19654D01*
Y23653D01*
X174454Y96980D02*
X173454Y97979D01*
X171455D01*
X170455Y96980D01*
Y92981D01*
X171455Y91981D01*
X173454D01*
X174454Y92981D01*
X176453Y91981D02*
X178453D01*
X177453D01*
Y97979D01*
X176453Y96980D01*
X181452Y92981D02*
X182451Y91981D01*
X184451D01*
X185450Y92981D01*
Y96980D01*
X184451Y97979D01*
X182451D01*
X181452Y96980D01*
Y95980D01*
X182451Y94980D01*
X185450D01*
X267299Y45198D02*
X266299Y46198D01*
X264300D01*
X263300Y45198D01*
Y41200D01*
X264300Y40200D01*
X266299D01*
X267299Y41200D01*
X269298Y40200D02*
X271297D01*
X270298D01*
Y46198D01*
X269298Y45198D01*
X274296D02*
X275296Y46198D01*
X277295D01*
X278295Y45198D01*
Y44199D01*
X277295Y43199D01*
X278295Y42199D01*
Y41200D01*
X277295Y40200D01*
X275296D01*
X274296Y41200D01*
Y42199D01*
X275296Y43199D01*
X274296Y44199D01*
Y45198D01*
X275296Y43199D02*
X277295D01*
X154178Y51704D02*
X153179Y52704D01*
X151179D01*
X150180Y51704D01*
Y47705D01*
X151179Y46706D01*
X153179D01*
X154178Y47705D01*
X156178Y46706D02*
X158177D01*
X157177D01*
Y52704D01*
X156178Y51704D01*
X161176Y52704D02*
X165175D01*
Y51704D01*
X161176Y47705D01*
Y46706D01*
X153981Y64007D02*
X152982Y65007D01*
X150982D01*
X149983Y64007D01*
Y60009D01*
X150982Y59009D01*
X152982D01*
X153981Y60009D01*
X155981Y59009D02*
X157980D01*
X156981D01*
Y65007D01*
X155981Y64007D01*
X164978Y65007D02*
X162978Y64007D01*
X160979Y62008D01*
Y60009D01*
X161979Y59009D01*
X163978D01*
X164978Y60009D01*
Y61008D01*
X163978Y62008D01*
X160979D01*
X267299Y54298D02*
X266299Y55298D01*
X264300D01*
X263300Y54298D01*
Y50300D01*
X264300Y49300D01*
X266299D01*
X267299Y50300D01*
X269298Y49300D02*
X271297D01*
X270298D01*
Y55298D01*
X269298Y54298D01*
X278295Y55298D02*
X274296D01*
Y52299D01*
X276296Y53299D01*
X277295D01*
X278295Y52299D01*
Y50300D01*
X277295Y49300D01*
X275296D01*
X274296Y50300D01*
X176619Y107314D02*
X175620Y108314D01*
X173620D01*
X172620Y107314D01*
Y103316D01*
X173620Y102316D01*
X175620D01*
X176619Y103316D01*
X178619Y102316D02*
X180618D01*
X179618D01*
Y108314D01*
X178619Y107314D01*
X186616Y102316D02*
Y108314D01*
X183617Y105315D01*
X187616D01*
X176619Y116173D02*
X175620Y117172D01*
X173620D01*
X172620Y116173D01*
Y112174D01*
X173620Y111174D01*
X175620D01*
X176619Y112174D01*
X178619Y111174D02*
X180618D01*
X179618D01*
Y117172D01*
X178619Y116173D01*
X183617D02*
X184617Y117172D01*
X186616D01*
X187616Y116173D01*
Y115173D01*
X186616Y114173D01*
X185616D01*
X186616D01*
X187616Y113174D01*
Y112174D01*
X186616Y111174D01*
X184617D01*
X183617Y112174D01*
X267299Y63298D02*
X266299Y64298D01*
X264300D01*
X263300Y63298D01*
Y59300D01*
X264300Y58300D01*
X266299D01*
X267299Y59300D01*
X269298Y58300D02*
X271297D01*
X270298D01*
Y64298D01*
X269298Y63298D01*
X278295Y58300D02*
X274296D01*
X278295Y62299D01*
Y63298D01*
X277295Y64298D01*
X275296D01*
X274296Y63298D01*
X266799Y111498D02*
X265799Y112498D01*
X263800D01*
X262800Y111498D01*
Y107500D01*
X263800Y106500D01*
X265799D01*
X266799Y107500D01*
X268798Y106500D02*
X270797D01*
X269798D01*
Y112498D01*
X268798Y111498D01*
X273796Y106500D02*
X275796D01*
X274796D01*
Y112498D01*
X273796Y111498D01*
X266678Y72373D02*
X265679Y73373D01*
X263679D01*
X262680Y72373D01*
Y68375D01*
X263679Y67375D01*
X265679D01*
X266678Y68375D01*
X268678Y67375D02*
X270677D01*
X269677D01*
Y73373D01*
X268678Y72373D01*
X273676D02*
X274676Y73373D01*
X276675D01*
X277675Y72373D01*
Y68375D01*
X276675Y67375D01*
X274676D01*
X273676Y68375D01*
Y72373D01*
X169571Y23161D02*
X168571Y24160D01*
X166572D01*
X165572Y23161D01*
Y19162D01*
X166572Y18162D01*
X168571D01*
X169571Y19162D01*
X171571D02*
X172570Y18162D01*
X174569D01*
X175569Y19162D01*
Y23161D01*
X174569Y24160D01*
X172570D01*
X171571Y23161D01*
Y22161D01*
X172570Y21161D01*
X175569D01*
X197819Y23653D02*
X196819Y24653D01*
X194820D01*
X193821Y23653D01*
Y19654D01*
X194820Y18654D01*
X196819D01*
X197819Y19654D01*
X199819Y23653D02*
X200818Y24653D01*
X202818D01*
X203817Y23653D01*
Y22653D01*
X202818Y21654D01*
X203817Y20654D01*
Y19654D01*
X202818Y18654D01*
X200818D01*
X199819Y19654D01*
Y20654D01*
X200818Y21654D01*
X199819Y22653D01*
Y23653D01*
X200818Y21654D02*
X202818D01*
X32957Y66468D02*
X31957Y67467D01*
X29958D01*
X28958Y66468D01*
Y62469D01*
X29958Y61470D01*
X31957D01*
X32957Y62469D01*
X34956Y67467D02*
X38955D01*
Y66468D01*
X34956Y62469D01*
Y61470D01*
X141225Y14795D02*
X140225Y15794D01*
X138226D01*
X137226Y14795D01*
Y10796D01*
X138226Y9796D01*
X140225D01*
X141225Y10796D01*
X147223Y15794D02*
X143224D01*
Y12795D01*
X145223Y13795D01*
X146223D01*
X147223Y12795D01*
Y10796D01*
X146223Y9796D01*
X144224D01*
X143224Y10796D01*
X105299Y65976D02*
X104300Y66975D01*
X102301D01*
X101301Y65976D01*
Y61977D01*
X102301Y60977D01*
X104300D01*
X105299Y61977D01*
X110298Y60977D02*
Y66975D01*
X107299Y63976D01*
X111298D01*
X293784Y100917D02*
X292784Y101916D01*
X290785D01*
X289785Y100917D01*
Y96918D01*
X290785Y95918D01*
X292784D01*
X293784Y96918D01*
X295783Y100917D02*
X296783Y101916D01*
X298782D01*
X299782Y100917D01*
Y99917D01*
X298782Y98917D01*
X297782D01*
X298782D01*
X299782Y97918D01*
Y96918D01*
X298782Y95918D01*
X296783D01*
X295783Y96918D01*
X293489Y90582D02*
X292489Y91582D01*
X290490D01*
X289490Y90582D01*
Y86583D01*
X290490Y85584D01*
X292489D01*
X293489Y86583D01*
X299487Y85584D02*
X295488D01*
X299487Y89582D01*
Y90582D01*
X298487Y91582D01*
X296488D01*
X295488Y90582D01*
X393209Y116173D02*
X392209Y117172D01*
X390210D01*
X389210Y116173D01*
Y112174D01*
X390210Y111174D01*
X392209D01*
X393209Y112174D01*
X395208Y111174D02*
X397207D01*
X396208D01*
Y117172D01*
X395208Y116173D01*
X339090Y259951D02*
Y254952D01*
X340090Y253953D01*
X342090D01*
X343089Y254952D01*
Y259951D01*
X345089D02*
X349087D01*
X347088D01*
Y253953D01*
X351087D02*
Y259951D01*
X355085Y253953D01*
Y259951D01*
X357085Y253953D02*
Y254952D01*
X358084D01*
Y253953D01*
X357085D01*
X366082Y259951D02*
X362083D01*
Y256952D01*
X364083D01*
X362083D01*
Y253953D01*
X368081D02*
Y259951D01*
X371080D01*
X372080Y258951D01*
Y256952D01*
X371080Y255952D01*
X368081D01*
X370080D02*
X372080Y253953D01*
X374079Y259951D02*
Y253953D01*
X377078D01*
X378078Y254952D01*
Y255952D01*
X377078Y256952D01*
X374079D01*
X377078D01*
X378078Y257951D01*
Y258951D01*
X377078Y259951D01*
X374079D01*
X380077Y253953D02*
Y257951D01*
X382077Y259951D01*
X384076Y257951D01*
Y253953D01*
Y256952D01*
X380077D01*
X144701Y252015D02*
X147367D01*
X146034Y253348D02*
Y250682D01*
X148699Y253348D02*
X149366Y254014D01*
X150699D01*
X151365Y253348D01*
Y252682D01*
X150699Y252015D01*
X150032D01*
X150699D01*
X151365Y251349D01*
Y250682D01*
X150699Y250016D01*
X149366D01*
X148699Y250682D01*
X152698Y250016D02*
Y250682D01*
X153365D01*
Y250016D01*
X152698D01*
X156030Y253348D02*
X156697Y254014D01*
X158030D01*
X158696Y253348D01*
Y252682D01*
X158030Y252015D01*
X157363D01*
X158030D01*
X158696Y251349D01*
Y250682D01*
X158030Y250016D01*
X156697D01*
X156030Y250682D01*
X160029Y254014D02*
Y251349D01*
X161362Y250016D01*
X162695Y251349D01*
Y254014D01*
X150319Y240553D02*
X149653Y241219D01*
X148320D01*
X147653Y240553D01*
Y237887D01*
X148320Y237221D01*
X149653D01*
X150319Y237887D01*
Y239220D01*
X148986D01*
X151652Y237221D02*
Y241219D01*
X154318Y237221D01*
Y241219D01*
X155651D02*
Y237221D01*
X157650D01*
X158317Y237887D01*
Y240553D01*
X157650Y241219D01*
X155651D01*
X169722Y192467D02*
X173721Y186469D01*
Y192467D02*
X169722Y186469D01*
X175720D02*
X177719D01*
X176719D01*
Y192467D01*
X175720Y191468D01*
X120509Y193452D02*
Y187454D01*
X124508D01*
X126507D02*
X128507D01*
X127507D01*
Y193452D01*
X126507Y192452D01*
X103269Y171706D02*
Y177704D01*
X106268D01*
X107268Y176704D01*
Y174705D01*
X106268Y173705D01*
X103269D01*
X105269D02*
X107268Y171706D01*
X109267Y177704D02*
X113266D01*
Y176704D01*
X109267Y172705D01*
Y171706D01*
X405450Y232330D02*
Y227331D01*
X406450Y226332D01*
X408449D01*
X409449Y227331D01*
Y232330D01*
X411448Y226332D02*
X413448D01*
X412448D01*
Y232330D01*
X411448Y231330D01*
X76264Y170306D02*
X75264Y171306D01*
X73265D01*
X72265Y170306D01*
Y166308D01*
X73265Y165308D01*
X75264D01*
X76264Y166308D01*
X82262Y171306D02*
X80263Y170306D01*
X78263Y168307D01*
Y166308D01*
X79263Y165308D01*
X81262D01*
X82262Y166308D01*
Y167307D01*
X81262Y168307D01*
X78263D01*
X226262Y238635D02*
Y244633D01*
X229261D01*
X230261Y243633D01*
Y241634D01*
X229261Y240634D01*
X226262D01*
X228262D02*
X230261Y238635D01*
X232260D02*
X234260D01*
X233260D01*
Y244633D01*
X232260Y243633D01*
X241257Y238635D02*
X237259D01*
X241257Y242634D01*
Y243633D01*
X240258Y244633D01*
X238258D01*
X237259Y243633D01*
X132797Y227808D02*
Y233806D01*
X135796D01*
X136796Y232806D01*
Y230807D01*
X135796Y229807D01*
X132797D01*
X134796D02*
X136796Y227808D01*
X142794Y233806D02*
X140794Y232806D01*
X138795Y230807D01*
Y228808D01*
X139795Y227808D01*
X141794D01*
X142794Y228808D01*
Y229807D01*
X141794Y230807D01*
X138795D01*
X131813Y165893D02*
Y159895D01*
X134812D01*
X135811Y160894D01*
Y164893D01*
X134812Y165893D01*
X131813D01*
X141809D02*
X137811D01*
Y162894D01*
X139810Y163893D01*
X140810D01*
X141809Y162894D01*
Y160894D01*
X140810Y159895D01*
X138810D01*
X137811Y160894D01*
X176104Y215597D02*
X180103Y209599D01*
Y215597D02*
X176104Y209599D01*
X186101D02*
X182102D01*
X186101Y213598D01*
Y214598D01*
X185101Y215597D01*
X183102D01*
X182102Y214598D01*
X230238Y227409D02*
Y222410D01*
X231238Y221410D01*
X233237D01*
X234237Y222410D01*
Y227409D01*
X236236Y226409D02*
X237236Y227409D01*
X239235D01*
X240235Y226409D01*
Y225409D01*
X239235Y224410D01*
X238235D01*
X239235D01*
X240235Y223410D01*
Y222410D01*
X239235Y221410D01*
X237236D01*
X236236Y222410D01*
X101793Y192467D02*
Y187469D01*
X102793Y186469D01*
X104792D01*
X105792Y187469D01*
Y192467D01*
X111790Y186469D02*
X107791D01*
X111790Y190468D01*
Y191468D01*
X110790Y192467D01*
X108791D01*
X107791Y191468D01*
X66329Y196312D02*
Y202310D01*
X69328D01*
X70328Y201310D01*
Y199311D01*
X69328Y198311D01*
X66329D01*
X68328D02*
X70328Y196312D01*
X72327Y202310D02*
Y196312D01*
X76326D01*
X78325D02*
X80325D01*
X79325D01*
Y202310D01*
X78325Y201310D01*
X263000Y230958D02*
Y236956D01*
X265999D01*
X266999Y235957D01*
Y233957D01*
X265999Y232958D01*
X263000D01*
X264999D02*
X266999Y230958D01*
X268998D02*
X270997D01*
X269998D01*
Y236956D01*
X268998Y235957D01*
X273996D02*
X274996Y236956D01*
X276995D01*
X277995Y235957D01*
Y234957D01*
X276995Y233957D01*
X275996D01*
X276995D01*
X277995Y232958D01*
Y231958D01*
X276995Y230958D01*
X274996D01*
X273996Y231958D01*
X263000Y212058D02*
Y218056D01*
X265999D01*
X266999Y217057D01*
Y215057D01*
X265999Y214058D01*
X263000D01*
X264999D02*
X266999Y212058D01*
X268998D02*
X270997D01*
X269998D01*
Y218056D01*
X268998Y217057D01*
X273996Y212058D02*
X275996D01*
X274996D01*
Y218056D01*
X273996Y217057D01*
X263000Y221458D02*
Y227456D01*
X265999D01*
X266999Y226457D01*
Y224457D01*
X265999Y223458D01*
X263000D01*
X264999D02*
X266999Y221458D01*
X268998D02*
X270997D01*
X269998D01*
Y227456D01*
X268998Y226457D01*
X273996D02*
X274996Y227456D01*
X276995D01*
X277995Y226457D01*
Y222458D01*
X276995Y221458D01*
X274996D01*
X273996Y222458D01*
Y226457D01*
X103269Y163340D02*
Y169338D01*
X106268D01*
X107268Y168338D01*
Y166339D01*
X106268Y165339D01*
X103269D01*
X105269D02*
X107268Y163340D01*
X109267Y164339D02*
X110267Y163340D01*
X112266D01*
X113266Y164339D01*
Y168338D01*
X112266Y169338D01*
X110267D01*
X109267Y168338D01*
Y167338D01*
X110267Y166339D01*
X113266D01*
X157895Y166292D02*
Y172290D01*
X160894D01*
X161894Y171291D01*
Y169291D01*
X160894Y168292D01*
X157895D01*
X159895D02*
X161894Y166292D01*
X163893Y171291D02*
X164893Y172290D01*
X166892D01*
X167892Y171291D01*
Y170291D01*
X166892Y169291D01*
X167892Y168292D01*
Y167292D01*
X166892Y166292D01*
X164893D01*
X163893Y167292D01*
Y168292D01*
X164893Y169291D01*
X163893Y170291D01*
Y171291D01*
X164893Y169291D02*
X166892D01*
X132797Y218458D02*
Y224456D01*
X135796D01*
X136796Y223456D01*
Y221457D01*
X135796Y220457D01*
X132797D01*
X134796D02*
X136796Y218458D01*
X142794Y224456D02*
X138795D01*
Y221457D01*
X140794Y222456D01*
X141794D01*
X142794Y221457D01*
Y219457D01*
X141794Y218458D01*
X139795D01*
X138795Y219457D01*
X389194Y235190D02*
Y241188D01*
X392194D01*
X393193Y240188D01*
Y238189D01*
X392194Y237189D01*
X389194D01*
X391194D02*
X393193Y235190D01*
X398192D02*
Y241188D01*
X395193Y238189D01*
X399191D01*
X333584Y229777D02*
Y235775D01*
X336583D01*
X337583Y234775D01*
Y232776D01*
X336583Y231776D01*
X333584D01*
X335584D02*
X337583Y229777D01*
X339582Y234775D02*
X340582Y235775D01*
X342581D01*
X343581Y234775D01*
Y233775D01*
X342581Y232776D01*
X341582D01*
X342581D01*
X343581Y231776D01*
Y230776D01*
X342581Y229777D01*
X340582D01*
X339582Y230776D01*
X344411Y138733D02*
Y144731D01*
X347410D01*
X348410Y143732D01*
Y141732D01*
X347410Y140733D01*
X344411D01*
X346410D02*
X348410Y138733D01*
X354408D02*
X350409D01*
X354408Y142732D01*
Y143732D01*
X353408Y144731D01*
X351409D01*
X350409Y143732D01*
X344919Y147591D02*
Y153590D01*
X347918D01*
X348917Y152590D01*
Y150591D01*
X347918Y149591D01*
X344919D01*
X346918D02*
X348917Y147591D01*
X350917D02*
X352916D01*
X351916D01*
Y153590D01*
X350917Y152590D01*
X137795Y243571D02*
Y247570D01*
X136796Y248570D01*
X134796D01*
X133797Y247570D01*
Y243571D01*
X134796Y242572D01*
X136796D01*
X135796Y244571D02*
X137795Y242572D01*
X136796D02*
X137795Y243571D01*
X139795Y242572D02*
X141794D01*
X140794D01*
Y248570D01*
X139795Y247570D01*
X73757Y156450D02*
Y162448D01*
X76756D01*
X77756Y161448D01*
Y159449D01*
X76756Y158449D01*
X73757D01*
X79755Y156450D02*
X81755D01*
X80755D01*
Y162448D01*
X79755Y161448D01*
X182994Y172290D02*
Y166292D01*
X185993D01*
X186993Y167292D01*
Y171291D01*
X185993Y172290D01*
X182994D01*
X192991D02*
X190991Y171291D01*
X188992Y169291D01*
Y167292D01*
X189991Y166292D01*
X191991D01*
X192991Y167292D01*
Y168292D01*
X191991Y169291D01*
X188992D01*
X59470Y156542D02*
Y150544D01*
X62469D01*
X63469Y151544D01*
Y155543D01*
X62469Y156542D01*
X59470D01*
X68467Y150544D02*
Y156542D01*
X65468Y153543D01*
X69467D01*
X118033Y215105D02*
Y209107D01*
X121032D01*
X122032Y210107D01*
Y214106D01*
X121032Y215105D01*
X118033D01*
X124031Y214106D02*
X125031Y215105D01*
X127030D01*
X128030Y214106D01*
Y213106D01*
X127030Y212106D01*
X126031D01*
X127030D01*
X128030Y211107D01*
Y210107D01*
X127030Y209107D01*
X125031D01*
X124031Y210107D01*
X40080Y153097D02*
Y147099D01*
X43079D01*
X44079Y148099D01*
Y152098D01*
X43079Y153097D01*
X40080D01*
X50077Y147099D02*
X46078D01*
X50077Y151098D01*
Y152098D01*
X49077Y153097D01*
X47078D01*
X46078Y152098D01*
X134289Y260381D02*
Y254383D01*
X137288D01*
X138287Y255382D01*
Y259381D01*
X137288Y260381D01*
X134289D01*
X140287Y254383D02*
X142286D01*
X141286D01*
Y260381D01*
X140287Y259381D01*
X250399Y260357D02*
X249399Y261356D01*
X247400D01*
X246400Y260357D01*
Y256358D01*
X247400Y255358D01*
X249399D01*
X250399Y256358D01*
X252398Y255358D02*
Y261356D01*
X256397Y255358D01*
Y261356D01*
X258396Y260357D02*
X259396Y261356D01*
X261395D01*
X262395Y260357D01*
Y259357D01*
X261395Y258357D01*
X260396D01*
X261395D01*
X262395Y257358D01*
Y256358D01*
X261395Y255358D01*
X259396D01*
X258396Y256358D01*
X10273Y184578D02*
X9273Y185578D01*
X7274D01*
X6274Y184578D01*
Y180579D01*
X7274Y179580D01*
X9273D01*
X10273Y180579D01*
X12272Y179580D02*
Y185578D01*
X16271Y179580D01*
Y185578D01*
X22269Y179580D02*
X18270D01*
X22269Y183578D01*
Y184578D01*
X21269Y185578D01*
X19270D01*
X18270Y184578D01*
X10288Y199342D02*
X9289Y200342D01*
X7289D01*
X6290Y199342D01*
Y195343D01*
X7289Y194343D01*
X9289D01*
X10288Y195343D01*
X12288Y194343D02*
Y200342D01*
X16286Y194343D01*
Y200342D01*
X18286Y194343D02*
X20285D01*
X19286D01*
Y200342D01*
X18286Y199342D01*
X174954Y222964D02*
X173954Y223963D01*
X171955D01*
X170955Y222964D01*
Y218965D01*
X171955Y217966D01*
X173954D01*
X174954Y218965D01*
X180952Y217966D02*
X176953D01*
X180952Y221964D01*
Y222964D01*
X179952Y223963D01*
X177953D01*
X176953Y222964D01*
X182951Y217966D02*
X184950D01*
X183951D01*
Y223963D01*
X182951Y222964D01*
X225332Y157511D02*
X224332Y158511D01*
X222333D01*
X221333Y157511D01*
Y153513D01*
X222333Y152513D01*
X224332D01*
X225332Y153513D01*
X231330Y152513D02*
X227331D01*
X231330Y156511D01*
Y157511D01*
X230330Y158511D01*
X228331D01*
X227331Y157511D01*
X233329D02*
X234329Y158511D01*
X236328D01*
X237328Y157511D01*
Y153513D01*
X236328Y152513D01*
X234329D01*
X233329Y153513D01*
Y157511D01*
X174454Y230838D02*
X173454Y231838D01*
X171455D01*
X170455Y230838D01*
Y226839D01*
X171455Y225840D01*
X173454D01*
X174454Y226839D01*
X176453Y225840D02*
X178453D01*
X177453D01*
Y231838D01*
X176453Y230838D01*
X181452Y226839D02*
X182451Y225840D01*
X184451D01*
X185450Y226839D01*
Y230838D01*
X184451Y231838D01*
X182451D01*
X181452Y230838D01*
Y229838D01*
X182451Y228839D01*
X185450D01*
X267299Y179057D02*
X266299Y180056D01*
X264300D01*
X263300Y179057D01*
Y175058D01*
X264300Y174058D01*
X266299D01*
X267299Y175058D01*
X269298Y174058D02*
X271297D01*
X270298D01*
Y180056D01*
X269298Y179057D01*
X274296D02*
X275296Y180056D01*
X277295D01*
X278295Y179057D01*
Y178057D01*
X277295Y177057D01*
X278295Y176058D01*
Y175058D01*
X277295Y174058D01*
X275296D01*
X274296Y175058D01*
Y176058D01*
X275296Y177057D01*
X274296Y178057D01*
Y179057D01*
X275296Y177057D02*
X277295D01*
X154178Y185562D02*
X153179Y186562D01*
X151179D01*
X150180Y185562D01*
Y181564D01*
X151179Y180564D01*
X153179D01*
X154178Y181564D01*
X156178Y180564D02*
X158177D01*
X157177D01*
Y186562D01*
X156178Y185562D01*
X161176Y186562D02*
X165175D01*
Y185562D01*
X161176Y181564D01*
Y180564D01*
X153981Y197865D02*
X152982Y198865D01*
X150982D01*
X149983Y197865D01*
Y193867D01*
X150982Y192867D01*
X152982D01*
X153981Y193867D01*
X155981Y192867D02*
X157980D01*
X156981D01*
Y198865D01*
X155981Y197865D01*
X164978Y198865D02*
X162978Y197865D01*
X160979Y195866D01*
Y193867D01*
X161979Y192867D01*
X163978D01*
X164978Y193867D01*
Y194867D01*
X163978Y195866D01*
X160979D01*
X267299Y188157D02*
X266299Y189156D01*
X264300D01*
X263300Y188157D01*
Y184158D01*
X264300Y183158D01*
X266299D01*
X267299Y184158D01*
X269298Y183158D02*
X271297D01*
X270298D01*
Y189156D01*
X269298Y188157D01*
X278295Y189156D02*
X274296D01*
Y186157D01*
X276296Y187157D01*
X277295D01*
X278295Y186157D01*
Y184158D01*
X277295Y183158D01*
X275296D01*
X274296Y184158D01*
X176619Y241173D02*
X175620Y242172D01*
X173620D01*
X172620Y241173D01*
Y237174D01*
X173620Y236174D01*
X175620D01*
X176619Y237174D01*
X178619Y236174D02*
X180618D01*
X179618D01*
Y242172D01*
X178619Y241173D01*
X186616Y236174D02*
Y242172D01*
X183617Y239173D01*
X187616D01*
X176619Y250031D02*
X175620Y251030D01*
X173620D01*
X172620Y250031D01*
Y246032D01*
X173620Y245033D01*
X175620D01*
X176619Y246032D01*
X178619Y245033D02*
X180618D01*
X179618D01*
Y251030D01*
X178619Y250031D01*
X183617D02*
X184617Y251030D01*
X186616D01*
X187616Y250031D01*
Y249031D01*
X186616Y248031D01*
X185616D01*
X186616D01*
X187616Y247032D01*
Y246032D01*
X186616Y245033D01*
X184617D01*
X183617Y246032D01*
X267299Y197157D02*
X266299Y198156D01*
X264300D01*
X263300Y197157D01*
Y193158D01*
X264300Y192158D01*
X266299D01*
X267299Y193158D01*
X269298Y192158D02*
X271297D01*
X270298D01*
Y198156D01*
X269298Y197157D01*
X278295Y192158D02*
X274296D01*
X278295Y196157D01*
Y197157D01*
X277295Y198156D01*
X275296D01*
X274296Y197157D01*
X266799Y245357D02*
X265799Y246356D01*
X263800D01*
X262800Y245357D01*
Y241358D01*
X263800Y240358D01*
X265799D01*
X266799Y241358D01*
X268798Y240358D02*
X270797D01*
X269798D01*
Y246356D01*
X268798Y245357D01*
X273796Y240358D02*
X275796D01*
X274796D01*
Y246356D01*
X273796Y245357D01*
X266678Y206232D02*
X265679Y207231D01*
X263679D01*
X262680Y206232D01*
Y202233D01*
X263679Y201233D01*
X265679D01*
X266678Y202233D01*
X268678Y201233D02*
X270677D01*
X269677D01*
Y207231D01*
X268678Y206232D01*
X273676D02*
X274676Y207231D01*
X276675D01*
X277675Y206232D01*
Y202233D01*
X276675Y201233D01*
X274676D01*
X273676Y202233D01*
Y206232D01*
X169571Y157019D02*
X168571Y158019D01*
X166572D01*
X165572Y157019D01*
Y153020D01*
X166572Y152021D01*
X168571D01*
X169571Y153020D01*
X171571D02*
X172570Y152021D01*
X174569D01*
X175569Y153020D01*
Y157019D01*
X174569Y158019D01*
X172570D01*
X171571Y157019D01*
Y156019D01*
X172570Y155020D01*
X175569D01*
X197819Y157511D02*
X196819Y158511D01*
X194820D01*
X193821Y157511D01*
Y153513D01*
X194820Y152513D01*
X196819D01*
X197819Y153513D01*
X199819Y157511D02*
X200818Y158511D01*
X202818D01*
X203817Y157511D01*
Y156511D01*
X202818Y155512D01*
X203817Y154512D01*
Y153513D01*
X202818Y152513D01*
X200818D01*
X199819Y153513D01*
Y154512D01*
X200818Y155512D01*
X199819Y156511D01*
Y157511D01*
X200818Y155512D02*
X202818D01*
X32957Y200326D02*
X31957Y201326D01*
X29958D01*
X28958Y200326D01*
Y196327D01*
X29958Y195328D01*
X31957D01*
X32957Y196327D01*
X34956Y201326D02*
X38955D01*
Y200326D01*
X34956Y196327D01*
Y195328D01*
X141225Y148653D02*
X140225Y149653D01*
X138226D01*
X137226Y148653D01*
Y144654D01*
X138226Y143655D01*
X140225D01*
X141225Y144654D01*
X147223Y149653D02*
X143224D01*
Y146653D01*
X145223Y147653D01*
X146223D01*
X147223Y146653D01*
Y144654D01*
X146223Y143655D01*
X144224D01*
X143224Y144654D01*
X105299Y199834D02*
X104300Y200834D01*
X102301D01*
X101301Y199834D01*
Y195835D01*
X102301Y194836D01*
X104300D01*
X105299Y195835D01*
X110298Y194836D02*
Y200834D01*
X107299Y197835D01*
X111298D01*
X293784Y234775D02*
X292784Y235775D01*
X290785D01*
X289785Y234775D01*
Y230776D01*
X290785Y229777D01*
X292784D01*
X293784Y230776D01*
X295783Y234775D02*
X296783Y235775D01*
X298782D01*
X299782Y234775D01*
Y233775D01*
X298782Y232776D01*
X297782D01*
X298782D01*
X299782Y231776D01*
Y230776D01*
X298782Y229777D01*
X296783D01*
X295783Y230776D01*
X293489Y224440D02*
X292489Y225440D01*
X290490D01*
X289490Y224440D01*
Y220442D01*
X290490Y219442D01*
X292489D01*
X293489Y220442D01*
X299487Y219442D02*
X295488D01*
X299487Y223441D01*
Y224440D01*
X298487Y225440D01*
X296488D01*
X295488Y224440D01*
X393209Y250031D02*
X392209Y251030D01*
X390210D01*
X389210Y250031D01*
Y246032D01*
X390210Y245033D01*
X392209D01*
X393209Y246032D01*
X395208Y245033D02*
X397207D01*
X396208D01*
Y251030D01*
X395208Y250031D01*
D55*
X663471Y122723D02*
X659473D01*
X661472D01*
Y128721D01*
X657473D02*
Y122723D01*
X654474D01*
X653475Y123723D01*
Y125722D01*
X654474Y126722D01*
X657473D01*
X651475Y128721D02*
X649476D01*
X650475D01*
Y122723D01*
X651475Y123723D01*
X646477Y128721D02*
Y122723D01*
X642478Y128721D01*
Y122723D01*
X639479Y128721D02*
X637480D01*
X636480Y127722D01*
Y125722D01*
X637480Y124723D01*
X639479D01*
X640479Y125722D01*
Y127722D01*
X639479Y128721D01*
X630482Y122723D02*
Y128721D01*
X633481D01*
X634481Y127722D01*
Y125722D01*
X633481Y124723D01*
X630482D01*
X627483Y128721D02*
X625484D01*
X624484Y127722D01*
Y125722D01*
X625484Y124723D01*
X627483D01*
X628483Y125722D01*
Y127722D01*
X627483Y128721D01*
X616486Y122723D02*
Y128721D01*
X614487Y126722D01*
X612488Y128721D01*
Y122723D01*
X610488Y128721D02*
X608489D01*
X609489D01*
Y124723D01*
X610488D01*
X601491Y122723D02*
X605490D01*
Y125722D01*
X603491D01*
X605490D01*
Y128721D01*
X599492D02*
X597493D01*
X598492D01*
Y124723D01*
X599492D01*
X588495Y128721D02*
Y122723D01*
X585497D01*
X584497Y123723D01*
Y125722D01*
X585497Y126722D01*
X588495D01*
X586496D02*
X584497Y128721D01*
X579498D02*
X581498D01*
X582497Y127722D01*
Y125722D01*
X581498Y124723D01*
X579498D01*
X578499Y125722D01*
Y126722D01*
X582497D01*
X576499Y124723D02*
X574500Y128721D01*
X572501Y124723D01*
X570501Y123723D02*
X569502Y122723D01*
X567502D01*
X566503Y123723D01*
Y127722D01*
X567502Y128721D01*
X569502D01*
X570501Y127722D01*
Y123723D01*
X558505Y124723D02*
X556506Y128721D01*
X554506Y124723D01*
X548508Y128721D02*
X552507D01*
X548508Y124723D01*
Y123723D01*
X549508Y122723D01*
X551508D01*
X552507Y123723D01*
X546509Y128721D02*
X544510D01*
X545509D01*
Y122723D01*
X546509Y123723D01*
X663471Y256581D02*
X659473D01*
X661472D01*
Y262579D01*
X657473D02*
Y256581D01*
X654474D01*
X653475Y257581D01*
Y259580D01*
X654474Y260580D01*
X657473D01*
X651475Y262579D02*
X649476D01*
X650475D01*
Y256581D01*
X651475Y257581D01*
X646477Y262579D02*
Y256581D01*
X642478Y262579D01*
Y256581D01*
X639479Y262579D02*
X637480D01*
X636480Y261580D01*
Y259580D01*
X637480Y258581D01*
X639479D01*
X640479Y259580D01*
Y261580D01*
X639479Y262579D01*
X630482Y256581D02*
Y262579D01*
X633481D01*
X634481Y261580D01*
Y259580D01*
X633481Y258581D01*
X630482D01*
X627483Y262579D02*
X625484D01*
X624484Y261580D01*
Y259580D01*
X625484Y258581D01*
X627483D01*
X628483Y259580D01*
Y261580D01*
X627483Y262579D01*
X616486Y256581D02*
Y262579D01*
X614487Y260580D01*
X612488Y262579D01*
Y256581D01*
X610488Y262579D02*
X608489D01*
X609489D01*
Y258581D01*
X610488D01*
X601491Y256581D02*
X605490D01*
Y259580D01*
X603491D01*
X605490D01*
Y262579D01*
X599492D02*
X597493D01*
X598492D01*
Y258581D01*
X599492D01*
X588495Y262579D02*
Y256581D01*
X585497D01*
X584497Y257581D01*
Y259580D01*
X585497Y260580D01*
X588495D01*
X586496D02*
X584497Y262579D01*
X579498D02*
X581498D01*
X582497Y261580D01*
Y259580D01*
X581498Y258581D01*
X579498D01*
X578499Y259580D01*
Y260580D01*
X582497D01*
X576499Y258581D02*
X574500Y262579D01*
X572501Y258581D01*
X570501Y257581D02*
X569502Y256581D01*
X567502D01*
X566503Y257581D01*
Y261580D01*
X567502Y262579D01*
X569502D01*
X570501Y261580D01*
Y257581D01*
X558505Y258581D02*
X556506Y262579D01*
X554506Y258581D01*
X548508Y262579D02*
X552507D01*
X548508Y258581D01*
Y257581D01*
X549508Y256581D01*
X551508D01*
X552507Y257581D01*
X546509Y262579D02*
X544510D01*
X545509D01*
Y256581D01*
X546509Y257581D01*
X179442Y11135D02*
X183441D01*
X181441D01*
Y5137D01*
X185440D02*
Y11135D01*
X188439D01*
X189439Y10135D01*
Y8136D01*
X188439Y7136D01*
X185440D01*
X191438Y5137D02*
X193438D01*
X192438D01*
Y11135D01*
X191438Y10135D01*
X196437Y5137D02*
Y11135D01*
X200435Y5137D01*
Y11135D01*
X203434Y5137D02*
X205434D01*
X206433Y6137D01*
Y8136D01*
X205434Y9136D01*
X203434D01*
X202435Y8136D01*
Y6137D01*
X203434Y5137D01*
X212432Y11135D02*
Y5137D01*
X209433D01*
X208433Y6137D01*
Y8136D01*
X209433Y9136D01*
X212432D01*
X215430Y5137D02*
X217430D01*
X218429Y6137D01*
Y8136D01*
X217430Y9136D01*
X215430D01*
X214431Y8136D01*
Y6137D01*
X215430Y5137D01*
X226427Y11135D02*
Y5137D01*
X228426Y7136D01*
X230426Y5137D01*
Y11135D01*
X232425Y5137D02*
X234424D01*
X233425D01*
Y9136D01*
X232425D01*
X241422Y11135D02*
X237423D01*
Y8136D01*
X239423D01*
X237423D01*
Y5137D01*
X243422D02*
X245421D01*
X244421D01*
Y9136D01*
X243422D01*
X254418Y5137D02*
Y11135D01*
X257417D01*
X258417Y10135D01*
Y8136D01*
X257417Y7136D01*
X254418D01*
X256417D02*
X258417Y5137D01*
X263415D02*
X261416D01*
X260416Y6137D01*
Y8136D01*
X261416Y9136D01*
X263415D01*
X264415Y8136D01*
Y7136D01*
X260416D01*
X266414Y9136D02*
X268413Y5137D01*
X270413Y9136D01*
X272412Y10135D02*
X273412Y11135D01*
X275411D01*
X276411Y10135D01*
Y6137D01*
X275411Y5137D01*
X273412D01*
X272412Y6137D01*
Y10135D01*
X284408Y9136D02*
X286407Y5137D01*
X288407Y9136D01*
X294405Y5137D02*
X290406D01*
X294405Y9136D01*
Y10135D01*
X293405Y11135D01*
X291406D01*
X290406Y10135D01*
X296404Y5137D02*
X298404D01*
X297404D01*
Y11135D01*
X296404Y10135D01*
X179442Y144993D02*
X183441D01*
X181441D01*
Y138995D01*
X185440D02*
Y144993D01*
X188439D01*
X189439Y143994D01*
Y141994D01*
X188439Y140995D01*
X185440D01*
X191438Y138995D02*
X193438D01*
X192438D01*
Y144993D01*
X191438Y143994D01*
X196437Y138995D02*
Y144993D01*
X200435Y138995D01*
Y144993D01*
X203434Y138995D02*
X205434D01*
X206433Y139995D01*
Y141994D01*
X205434Y142994D01*
X203434D01*
X202435Y141994D01*
Y139995D01*
X203434Y138995D01*
X212432Y144993D02*
Y138995D01*
X209433D01*
X208433Y139995D01*
Y141994D01*
X209433Y142994D01*
X212432D01*
X215430Y138995D02*
X217430D01*
X218429Y139995D01*
Y141994D01*
X217430Y142994D01*
X215430D01*
X214431Y141994D01*
Y139995D01*
X215430Y138995D01*
X226427Y144993D02*
Y138995D01*
X228426Y140995D01*
X230426Y138995D01*
Y144993D01*
X232425Y138995D02*
X234424D01*
X233425D01*
Y142994D01*
X232425D01*
X241422Y144993D02*
X237423D01*
Y141994D01*
X239423D01*
X237423D01*
Y138995D01*
X243422D02*
X245421D01*
X244421D01*
Y142994D01*
X243422D01*
X254418Y138995D02*
Y144993D01*
X257417D01*
X258417Y143994D01*
Y141994D01*
X257417Y140995D01*
X254418D01*
X256417D02*
X258417Y138995D01*
X263415D02*
X261416D01*
X260416Y139995D01*
Y141994D01*
X261416Y142994D01*
X263415D01*
X264415Y141994D01*
Y140995D01*
X260416D01*
X266414Y142994D02*
X268413Y138995D01*
X270413Y142994D01*
X272412Y143994D02*
X273412Y144993D01*
X275411D01*
X276411Y143994D01*
Y139995D01*
X275411Y138995D01*
X273412D01*
X272412Y139995D01*
Y143994D01*
X284408Y142994D02*
X286407Y138995D01*
X288407Y142994D01*
X294405Y138995D02*
X290406D01*
X294405Y142994D01*
Y143994D01*
X293405Y144993D01*
X291406D01*
X290406Y143994D01*
X296404Y138995D02*
X298404D01*
X297404D01*
Y144993D01*
X296404Y143994D01*
D56*
X663725Y94175D02*
D03*
Y102675D02*
D03*
X722595Y69211D02*
D03*
Y60711D02*
D03*
X794138Y104018D02*
D03*
Y112518D02*
D03*
X716579Y6085D02*
D03*
Y14585D02*
D03*
X663725Y228033D02*
D03*
Y236533D02*
D03*
X722595Y203069D02*
D03*
Y194569D02*
D03*
X794138Y237876D02*
D03*
Y246376D02*
D03*
X716579Y139943D02*
D03*
Y148443D02*
D03*
X179189Y39683D02*
D03*
Y31184D02*
D03*
X120319Y64648D02*
D03*
Y73148D02*
D03*
X48776Y29840D02*
D03*
Y21340D02*
D03*
X126335Y127774D02*
D03*
Y119274D02*
D03*
X179189Y173542D02*
D03*
Y165042D02*
D03*
X120319Y198506D02*
D03*
Y207006D02*
D03*
X48776Y163699D02*
D03*
Y155199D02*
D03*
X126335Y261632D02*
D03*
Y253132D02*
D03*
D57*
X796514Y86616D02*
D03*
Y220474D02*
D03*
X46400Y47242D02*
D03*
Y181101D02*
D03*
D58*
X441092Y117372D02*
D03*
Y251230D02*
D03*
X401821Y16486D02*
D03*
Y150345D02*
D03*
D59*
X773919Y119016D02*
D03*
X773919Y129016D02*
D03*
X773919Y252874D02*
D03*
X773919Y262874D02*
D03*
X68994Y14842D02*
D03*
X68994Y4843D02*
D03*
X68994Y148701D02*
D03*
X68994Y138701D02*
D03*
M02*
