M48
;Layer_Color=9474304
;FILE_FORMAT=2:5
INCH,LZ
;TYPE=PLATED
T7F00S00C0.03937
%
G90
G05
T07
G00X0023622Y0007086
M15
G01X0015748
M16
G00X0031496Y0020669
M15
G01Y0030512
M16
G00X0007874Y0021654
M15
G01Y0029528
M16
G00X0023622Y0140945
M15
G01X0015748
M16
G00X0031496Y0154528
M15
G01Y016437
M16
G00X0007874Y0155512
M15
G01Y0163386
M16
G00X0819291Y0126772
M15
G01X0827165
M16
G00X0811417Y0113189
M15
G01Y0103347
M16
G00X0835039Y0112205
M15
G01Y0104331
M16
G00X0835039Y0246063
M15
G01Y0238189
M16
G00X0811417Y0247047
M15
G01Y0237205
M16
G00X0819291Y026063
M15
G01X0827165
M16
M17
M30
