M48
;Layer_Color=9474304
;FILE_FORMAT=2:5
INCH,LZ
;TYPE=PLATED
T1F00S00C0.01600
T2F00S00C0.02800
T3F00S00C0.03000
T4F00S00C0.03200
T5F00S00C0.03600
T6F00S00C0.03937
T8F00S00C0.05118
T9F00S00C0.12992
T10F00S00C0.15748
%
T01
X0624744Y0024272
X0638189Y0024606
X064065Y0038878
X0645079Y003937
X0652953
X0635236Y0052165
X0632283Y0056595
X0616043Y0061516
X0646063Y0071358
X0662894Y0076532
X0684941Y0063484
X0698721Y0061516
X0708563Y0051181
X0693307Y0045768
Y0036417
X0708563Y0029035
X0748917Y0077264
X0766634Y0073819
X0603248Y0034449
X059835Y0025122
X0580364Y0028789
X0539272Y0017224
X0525984Y0039862
X0474311Y0019685
X0382382Y0018209
X0374508
X031939Y0020669
X0263287Y0036417
X0237697Y0030512
X0225394Y0036909
X0206693Y0050197
X019685Y00625
X018002Y0057326
X0192421Y0040354
X0189272Y0015059
X0161909Y0014764
X0157972Y0070374
X021063Y0077264
X0207677Y0081693
X022687Y0072342
X0144193
X0138609Y0045167
X0129429Y0034449
X013435Y0012795
X0101378Y0031988
X0093996Y0056595
X0076279Y0060039
X0079724Y0044783
X013435Y0082677
Y0104823
Y0146653
X0129429Y0168307
X0138609Y0179025
X0144193Y0206201
X013435Y0216535
X0093996Y0190453
X0076279Y0193898
X0079724Y0178642
X0101378Y0165847
X0161909Y0148622
X0189272Y0148917
X0192421Y0174213
X0206693Y0184055
X019685Y0196358
X018002Y0191184
X0157972Y0204232
X0149606Y0221949
Y0231299
X0189961Y0228346
X0197835
X0202264Y0228839
X0207677Y0215551
X021063Y0211122
X022687Y0206201
X0225394Y0170768
X0237697Y016437
X0263287Y0170276
X0262549Y0105069
X0244563Y0108736
X0239665Y0099409
X0218169Y0109587
X0204724Y0109252
X0202264Y009498
X0197835Y0094488
X0189961
X0149606Y0097441
Y008809
X0239665Y0233268
X0316929Y0227854
X031939Y0154528
X0303642Y0116634
X0316929Y0093996
X0368602Y0114173
X0374508Y0152067
X0382382
X0474311Y0153543
X0468405Y011565
X0460532
X0523524Y0113189
X0539272Y0151083
X0525984Y0173721
X0580364Y0162648
X059835Y015898
X0603248Y0168307
X0605217Y0103347
X0579626Y0097441
Y0231299
X0605217Y0237205
X061752Y0230807
X0636221Y021752
X0646063Y0205217
X0662894Y021039
X0650492Y0227362
X0632283Y0190453
X0635236Y0186024
X064065Y0172736
X0645079Y0173228
X0652953
X0638189Y0158465
X0624744Y015813
X0616043Y0195374
X0684941Y0197343
X0698721Y0195374
X0708563Y0185039
X0693307Y0179626
Y0170276
X0708563Y0162894
Y0121063
X0713484Y009941
X0704304Y0088691
X0741535Y010187
X0763189Y0089075
X0681004Y0119095
X0653642Y0118799
X0650492Y0093504
X0636221Y0083661
X061752Y0096949
X0704304Y022255
X0713484Y0233268
X0741535Y0235728
X0748917Y0211122
X0766634Y0207677
X0763189Y0222933
X0708563Y0254921
X0681004Y0252953
X0653642Y0252658
X0523524Y0247047
X0468405Y0249508
X0460532
X0368602Y0248031
X0303642Y0250492
X0262549Y0238927
X0244563Y0242595
X0218169Y0243445
X0204724Y024311
X013435Y0238681
T02
X068937Y0022638
X0153543Y0111221
X068937Y0156496
X0153543Y0245079
T03
X068937Y000935
X0153543Y0124508
X068937Y0143209
X0153543Y0258366
T04
X0037402Y0047244
Y0181102
X0805512Y0220472
Y0086614
T05
X0053429Y0047244
X0066929
Y0181102
X0053429
X0775984Y0220472
X0789484
Y0086614
X0775984
T06
X0614744Y000935
X0624744
X0634744
X0644744
X0604744
X0238169Y0124508
X0228169
X0218169
X0208169
X0198169
X0604744Y0143209
X0614744
X0624744
X0634744
X0644744
X0238169Y0258366
X0228169
X0218169
X0208169
X0198169
T08
X0789764Y0009843
X0825197Y0015748
Y0035433
Y0055118
X0789764Y0057087
X0741732
X0733858Y0033465
X0741732Y0009843
X0101181Y0076771
X005315
X0017717Y007874
Y0098425
Y011811
X005315Y0124016
X0101181
X0109055Y0100393
X0101181Y021063
X0109055Y0234252
X005315Y021063
X0017717Y0212598
Y0232283
X0741732Y0190945
X0733858Y0167323
X0741732Y0143701
X0789764
X0825197Y0149606
Y0169291
Y0188977
X0789764Y0190945
X0101181Y0257874
X005315
X0017717Y0251969
T09
X0520079Y0011811
X0098425Y0011811
Y0145669
X0322835Y0122047
X0520079Y0145669
X0744488Y0122047
Y0255906
X0322835Y0255906
T10
X0823228Y-0014764
X0019685
M30
