G04*
G04 #@! TF.GenerationSoftware,Altium Limited,Altium Designer,23.3.1 (30)*
G04*
G04 Layer_Color=16711935*
%FSLAX25Y25*%
%MOIN*%
G70*
G04*
G04 #@! TF.SameCoordinates,731DBA42-33AF-4731-BD85-8EC7A1DC1BC3*
G04*
G04*
G04 #@! TF.FilePolarity,Negative*
G04*
G01*
G75*
%ADD48C,0.04000*%
%ADD87C,0.08300*%
%ADD88R,0.09855X0.09855*%
%ADD89R,0.09855X0.09855*%
%ADD90C,0.12000*%
%ADD91O,0.12611X0.14580*%
%ADD92R,0.10642X0.06706*%
%ADD93O,0.10642X0.06706*%
%ADD94C,0.06706*%
%ADD95R,0.06706X0.06706*%
%ADD96C,0.15000*%
%ADD97R,0.10642X0.07800*%
D48*
X681572Y302631D02*
D03*
X725864Y193379D02*
D03*
X717497Y208635D02*
D03*
X745056Y197316D02*
D03*
X613167Y350859D02*
D03*
X609230D02*
D03*
X601356Y279993D02*
D03*
X593974Y279501D02*
D03*
X508836Y230289D02*
D03*
Y237178D02*
D03*
X489643Y230781D02*
D03*
Y237670D02*
D03*
X555096Y210603D02*
D03*
X592005D02*
D03*
X661887Y206174D02*
D03*
X685509Y195840D02*
D03*
X571828Y256371D02*
D03*
X587576Y279501D02*
D03*
X577734Y279009D02*
D03*
X559525Y299186D02*
D03*
X583676Y195347D02*
D03*
X577734Y225367D02*
D03*
X587576Y249481D02*
D03*
X685509Y212572D02*
D03*
X700694Y221851D02*
D03*
X717497Y236686D02*
D03*
X673698Y215353D02*
D03*
X595905Y242099D02*
D03*
X609230Y245052D02*
D03*
X655489Y190918D02*
D03*
X598895Y185505D02*
D03*
X662871Y157946D02*
D03*
X608245Y150564D02*
D03*
X624978Y149580D02*
D03*
X634820D02*
D03*
X644663D02*
D03*
X679111Y79206D02*
D03*
X670745Y64442D02*
D03*
X654997Y157946D02*
D03*
X613614Y217985D02*
D03*
X704210Y115623D02*
D03*
X552635Y123497D02*
D03*
X573305Y95938D02*
D03*
X608738Y90033D02*
D03*
X582163Y101844D02*
D03*
X556080Y164836D02*
D03*
X556572Y71824D02*
D03*
X563462Y98399D02*
D03*
X607753Y58044D02*
D03*
Y79698D02*
D03*
X670745Y52139D02*
D03*
X646139Y58536D02*
D03*
X700273Y54107D02*
D03*
X521139Y25072D02*
D03*
X760312Y237178D02*
D03*
X473403Y15229D02*
D03*
X455194Y37375D02*
D03*
X465037D02*
D03*
X731769Y245052D02*
D03*
X725371Y230781D02*
D03*
X436001Y198792D02*
D03*
X467989D02*
D03*
X598895Y219954D02*
D03*
X615627Y148596D02*
D03*
X731769Y154993D02*
D03*
X703718Y145643D02*
D03*
X724879Y158438D02*
D03*
X717005Y146135D02*
D03*
X745056Y121529D02*
D03*
X729308Y110210D02*
D03*
X723895Y86588D02*
D03*
X705686Y100859D02*
D03*
X715037D02*
D03*
X723895Y113655D02*
D03*
X699781Y115623D02*
D03*
X700765Y106273D02*
D03*
X679111Y101351D02*
D03*
X647123Y99383D02*
D03*
X638757Y22611D02*
D03*
X663856Y22119D02*
D03*
X682064Y123989D02*
D03*
X646139Y94580D02*
D03*
X763757Y126450D02*
D03*
X741611Y166312D02*
D03*
X612138Y99383D02*
D03*
X736690Y49678D02*
D03*
X621041Y38359D02*
D03*
Y41804D02*
D03*
X461592Y330682D02*
D03*
Y334619D02*
D03*
X748501Y70347D02*
D03*
X717989Y62966D02*
D03*
X736690Y23596D02*
D03*
X726848D02*
D03*
X717005D02*
D03*
X707163Y22611D02*
D03*
X697320Y22119D02*
D03*
X449289Y96430D02*
D03*
Y58044D02*
D03*
X287871Y302631D02*
D03*
X332163Y193379D02*
D03*
X323797Y208635D02*
D03*
X351356Y197316D02*
D03*
X219466Y350859D02*
D03*
X215529D02*
D03*
X207655Y279993D02*
D03*
X200273Y279501D02*
D03*
X115135Y230289D02*
D03*
Y237178D02*
D03*
X95942Y230781D02*
D03*
Y237670D02*
D03*
X161395Y210603D02*
D03*
X198304D02*
D03*
X268186Y206174D02*
D03*
X291808Y195840D02*
D03*
X178127Y256371D02*
D03*
X193875Y279501D02*
D03*
X184033Y279009D02*
D03*
X165824Y299186D02*
D03*
X189975Y195347D02*
D03*
X184033Y225367D02*
D03*
X193875Y249481D02*
D03*
X291808Y212572D02*
D03*
X306993Y221851D02*
D03*
X323797Y236686D02*
D03*
X279997Y215353D02*
D03*
X202204Y242099D02*
D03*
X215529Y245052D02*
D03*
X261789Y190918D02*
D03*
X205194Y185505D02*
D03*
X269171Y157946D02*
D03*
X214545Y150564D02*
D03*
X231277Y149580D02*
D03*
X241119D02*
D03*
X250962D02*
D03*
X285411Y79206D02*
D03*
X277045Y64442D02*
D03*
X261297Y157946D02*
D03*
X219913Y217985D02*
D03*
X310509Y115623D02*
D03*
X158934Y123497D02*
D03*
X179604Y95938D02*
D03*
X215037Y90033D02*
D03*
X188462Y101844D02*
D03*
X162379Y164836D02*
D03*
X162871Y71824D02*
D03*
X169761Y98399D02*
D03*
X214053Y58044D02*
D03*
Y79698D02*
D03*
X277045Y52139D02*
D03*
X252438Y58536D02*
D03*
X306572Y54107D02*
D03*
X127438Y25072D02*
D03*
X366612Y237178D02*
D03*
X79702Y15229D02*
D03*
X61493Y37375D02*
D03*
X71336D02*
D03*
X338068Y245052D02*
D03*
X331671Y230781D02*
D03*
X42301Y198792D02*
D03*
X74289D02*
D03*
X205194Y219954D02*
D03*
X221926Y148596D02*
D03*
X338068Y154993D02*
D03*
X310017Y145643D02*
D03*
X331178Y158438D02*
D03*
X323305Y146135D02*
D03*
X351356Y121529D02*
D03*
X335608Y110210D02*
D03*
X330194Y86588D02*
D03*
X311986Y100859D02*
D03*
X321336D02*
D03*
X330194Y113655D02*
D03*
X306080Y115623D02*
D03*
X307064Y106273D02*
D03*
X285411Y101351D02*
D03*
X253423Y99383D02*
D03*
X245056Y22611D02*
D03*
X270155Y22119D02*
D03*
X288364Y123989D02*
D03*
X252438Y94580D02*
D03*
X370056Y126450D02*
D03*
X347911Y166312D02*
D03*
X218437Y99383D02*
D03*
X342989Y49678D02*
D03*
X227340Y38359D02*
D03*
Y41804D02*
D03*
X67891Y330682D02*
D03*
Y334619D02*
D03*
X354801Y70347D02*
D03*
X324289Y62966D02*
D03*
X342989Y23596D02*
D03*
X333147D02*
D03*
X323305D02*
D03*
X313462Y22611D02*
D03*
X303619Y22119D02*
D03*
X55588Y96430D02*
D03*
Y58044D02*
D03*
D87*
X529454Y126450D02*
D03*
X473454D02*
D03*
X530931Y306568D02*
D03*
X474930D02*
D03*
X135753Y126450D02*
D03*
X79753D02*
D03*
X137230Y306568D02*
D03*
X81230D02*
D03*
D88*
X709623Y254403D02*
D03*
Y309029D02*
D03*
X315923Y254403D02*
D03*
Y309029D02*
D03*
D89*
X709623Y280977D02*
D03*
X315923D02*
D03*
D90*
X690430Y78221D02*
D03*
X296730D02*
D03*
D91*
X556415Y360702D02*
D03*
X576415D02*
D03*
X568049Y27040D02*
D03*
X548049D02*
D03*
X162714Y360702D02*
D03*
X182714D02*
D03*
X174348Y27040D02*
D03*
X154348D02*
D03*
D92*
X766218Y85938D02*
D03*
X372517D02*
D03*
D93*
X766218Y105938D02*
D03*
Y95938D02*
D03*
X372517Y105938D02*
D03*
Y95938D02*
D03*
D94*
X755391Y183123D02*
D03*
X361690D02*
D03*
D95*
X755391Y173123D02*
D03*
X361690D02*
D03*
D96*
X750962Y253910D02*
D03*
X357261D02*
D03*
D97*
X434033Y247848D02*
D03*
Y257847D02*
D03*
Y267847D02*
D03*
X434525Y67237D02*
D03*
Y77237D02*
D03*
Y87237D02*
D03*
Y136135D02*
D03*
Y146135D02*
D03*
Y156135D02*
D03*
X40332Y247848D02*
D03*
Y257847D02*
D03*
Y267847D02*
D03*
X40824Y67237D02*
D03*
Y77237D02*
D03*
Y87237D02*
D03*
Y136135D02*
D03*
Y146135D02*
D03*
Y156135D02*
D03*
M02*
