G04*
G04 #@! TF.GenerationSoftware,Altium Limited,Altium Designer,23.3.1 (30)*
G04*
G04 Layer_Physical_Order=1*
G04 Layer_Color=255*
%FSLAX25Y25*%
%MOIN*%
G70*
G04*
G04 #@! TF.SameCoordinates,731DBA42-33AF-4731-BD85-8EC7A1DC1BC3*
G04*
G04*
G04 #@! TF.FilePolarity,Positive*
G04*
G01*
G75*
%ADD10R,0.13000X0.02900*%
%ADD11R,0.09252X0.16535*%
%ADD12R,0.16535X0.09252*%
%ADD13R,0.19291X0.09252*%
%ADD14R,0.05600X0.06000*%
%ADD15R,0.21260X0.11417*%
%ADD16R,0.06299X0.10236*%
%ADD17R,0.04724X0.03543*%
%ADD18R,0.03937X0.03150*%
%ADD19R,0.01102X0.06496*%
%ADD20R,0.01575X0.06496*%
%ADD21R,0.06496X0.01575*%
%ADD22R,0.06496X0.01102*%
%ADD23R,0.02362X0.08465*%
%ADD24R,0.08465X0.02362*%
%ADD25R,0.05984X0.05906*%
%ADD26R,0.08661X0.12205*%
%ADD27R,0.09449X0.12992*%
%ADD28R,0.09449X0.03937*%
%ADD29R,0.07480X0.04331*%
%ADD30R,0.06890X0.02362*%
%ADD31R,0.03543X0.07087*%
%ADD32R,0.07087X0.08268*%
%ADD33R,0.01772X0.03740*%
%ADD34R,0.02362X0.03740*%
%ADD35C,0.03000*%
%ADD36C,0.01000*%
%ADD37C,0.01100*%
%ADD38C,0.06000*%
%ADD39C,0.05000*%
%ADD40C,0.02000*%
%ADD41C,0.02500*%
%ADD42C,0.01200*%
%ADD43C,0.15748*%
%ADD44C,0.07500*%
%ADD45C,0.19685*%
%ADD46R,0.09055X0.09055*%
%ADD47R,0.09055X0.09055*%
%ADD48C,0.04000*%
%ADD49O,0.11811X0.13780*%
%ADD50R,0.09843X0.05906*%
%ADD51O,0.09843X0.05906*%
%ADD52C,0.05906*%
%ADD53R,0.05906X0.05906*%
%ADD54R,0.09843X0.07000*%
%ADD55C,0.03200*%
D10*
X749836Y155643D02*
D03*
X767836D02*
D03*
X749836Y150643D02*
D03*
X767836D02*
D03*
X749836Y145643D02*
D03*
X767836D02*
D03*
X749836Y140643D02*
D03*
X767836D02*
D03*
X749836Y135643D02*
D03*
X767836D02*
D03*
X356135Y155643D02*
D03*
X374135D02*
D03*
X356135Y150643D02*
D03*
X374135D02*
D03*
X356135Y145643D02*
D03*
X374135D02*
D03*
X356135Y140643D02*
D03*
X374135D02*
D03*
X356135Y135643D02*
D03*
X374135D02*
D03*
D11*
X634328Y324285D02*
D03*
Y350859D02*
D03*
Y245052D02*
D03*
Y218477D02*
D03*
X240627Y324285D02*
D03*
Y350859D02*
D03*
Y245052D02*
D03*
Y218477D02*
D03*
D12*
X508836Y215525D02*
D03*
X535411D02*
D03*
X594466Y30977D02*
D03*
X621041D02*
D03*
X115135Y215525D02*
D03*
X141710D02*
D03*
X200765Y30977D02*
D03*
X227340D02*
D03*
D13*
X489446Y215525D02*
D03*
X456375D02*
D03*
X95745D02*
D03*
X62674D02*
D03*
D14*
X601356Y296304D02*
D03*
Y287304D02*
D03*
X587576Y286812D02*
D03*
Y295812D02*
D03*
X693383Y280907D02*
D03*
Y289907D02*
D03*
Y221851D02*
D03*
Y230852D02*
D03*
X752438Y237249D02*
D03*
Y228249D02*
D03*
X734722Y205119D02*
D03*
Y214119D02*
D03*
X670253Y70277D02*
D03*
Y79277D02*
D03*
X670745Y131792D02*
D03*
Y140792D02*
D03*
X615135Y159351D02*
D03*
Y168351D02*
D03*
X644663Y168351D02*
D03*
Y159352D02*
D03*
X624978Y168351D02*
D03*
Y159351D02*
D03*
X566415Y290257D02*
D03*
Y299257D02*
D03*
X580194Y175100D02*
D03*
Y184099D02*
D03*
X455194Y27603D02*
D03*
Y18603D02*
D03*
X465037Y27603D02*
D03*
Y18603D02*
D03*
X587576Y257777D02*
D03*
Y266777D02*
D03*
X587576Y233170D02*
D03*
Y242170D02*
D03*
X670745Y116186D02*
D03*
Y107186D02*
D03*
X659426Y343056D02*
D03*
Y334056D02*
D03*
X638757Y29922D02*
D03*
Y38922D02*
D03*
X658934Y29922D02*
D03*
Y38922D02*
D03*
X649092D02*
D03*
Y29922D02*
D03*
X563462Y107186D02*
D03*
Y116186D02*
D03*
X573305Y107186D02*
D03*
Y116186D02*
D03*
X682064Y132284D02*
D03*
Y141285D02*
D03*
X717497Y70277D02*
D03*
Y79277D02*
D03*
X705194Y175241D02*
D03*
Y166241D02*
D03*
X695352D02*
D03*
Y175241D02*
D03*
X715037Y166241D02*
D03*
Y175241D02*
D03*
X724879D02*
D03*
Y166241D02*
D03*
X542793Y107186D02*
D03*
Y116186D02*
D03*
X736690Y30907D02*
D03*
Y39907D02*
D03*
X742104Y79277D02*
D03*
Y70277D02*
D03*
X734722Y175241D02*
D03*
Y166241D02*
D03*
X697320Y30907D02*
D03*
Y39907D02*
D03*
X717005Y30907D02*
D03*
Y39907D02*
D03*
X707163Y30907D02*
D03*
Y39907D02*
D03*
X726848D02*
D03*
Y30907D02*
D03*
X654997Y141285D02*
D03*
Y132284D02*
D03*
X615627D02*
D03*
Y141285D02*
D03*
X644663D02*
D03*
Y132284D02*
D03*
X624978Y141285D02*
D03*
Y132284D02*
D03*
X634820D02*
D03*
Y141285D02*
D03*
X687970Y39907D02*
D03*
Y30907D02*
D03*
X435509Y210533D02*
D03*
Y219533D02*
D03*
X579702Y146556D02*
D03*
Y155556D02*
D03*
X567399D02*
D03*
Y146556D02*
D03*
X552635Y116186D02*
D03*
Y107186D02*
D03*
X555096Y146556D02*
D03*
Y155556D02*
D03*
X572320Y71895D02*
D03*
Y62895D02*
D03*
X562478Y71895D02*
D03*
Y62895D02*
D03*
X545253Y155556D02*
D03*
Y146556D02*
D03*
X207655Y296304D02*
D03*
Y287304D02*
D03*
X193875Y286812D02*
D03*
Y295812D02*
D03*
X299682Y280907D02*
D03*
Y289907D02*
D03*
Y221851D02*
D03*
Y230852D02*
D03*
X358737Y237249D02*
D03*
Y228249D02*
D03*
X341021Y205119D02*
D03*
Y214119D02*
D03*
X276553Y70277D02*
D03*
Y79277D02*
D03*
X277045Y131792D02*
D03*
Y140792D02*
D03*
X221434Y159351D02*
D03*
Y168351D02*
D03*
X250962Y168351D02*
D03*
Y159352D02*
D03*
X231277Y168351D02*
D03*
Y159351D02*
D03*
X172714Y290257D02*
D03*
Y299257D02*
D03*
X186493Y175100D02*
D03*
Y184099D02*
D03*
X61493Y27603D02*
D03*
Y18603D02*
D03*
X71336Y27603D02*
D03*
Y18603D02*
D03*
X193875Y257777D02*
D03*
Y266777D02*
D03*
X193875Y233170D02*
D03*
Y242170D02*
D03*
X277045Y116186D02*
D03*
Y107186D02*
D03*
X265726Y343056D02*
D03*
Y334056D02*
D03*
X245056Y29922D02*
D03*
Y38922D02*
D03*
X265234Y29922D02*
D03*
Y38922D02*
D03*
X255391D02*
D03*
Y29922D02*
D03*
X169761Y107186D02*
D03*
Y116186D02*
D03*
X179604Y107186D02*
D03*
Y116186D02*
D03*
X288364Y132284D02*
D03*
Y141285D02*
D03*
X323797Y70277D02*
D03*
Y79277D02*
D03*
X311493Y175241D02*
D03*
Y166241D02*
D03*
X301651D02*
D03*
Y175241D02*
D03*
X321336Y166241D02*
D03*
Y175241D02*
D03*
X331178D02*
D03*
Y166241D02*
D03*
X149092Y107186D02*
D03*
Y116186D02*
D03*
X342989Y30907D02*
D03*
Y39907D02*
D03*
X348403Y79277D02*
D03*
Y70277D02*
D03*
X341021Y175241D02*
D03*
Y166241D02*
D03*
X303619Y30907D02*
D03*
Y39907D02*
D03*
X323304Y30907D02*
D03*
Y39907D02*
D03*
X313462Y30907D02*
D03*
Y39907D02*
D03*
X333147D02*
D03*
Y30907D02*
D03*
X261297Y141285D02*
D03*
Y132284D02*
D03*
X221926D02*
D03*
Y141285D02*
D03*
X250962D02*
D03*
Y132284D02*
D03*
X231277Y141285D02*
D03*
Y132284D02*
D03*
X241119D02*
D03*
Y141285D02*
D03*
X294269Y39907D02*
D03*
Y30907D02*
D03*
X41808Y210533D02*
D03*
Y219533D02*
D03*
X186001Y146556D02*
D03*
Y155556D02*
D03*
X173698D02*
D03*
Y146556D02*
D03*
X158934Y116186D02*
D03*
Y107186D02*
D03*
X161395Y146556D02*
D03*
Y155556D02*
D03*
X178619Y71895D02*
D03*
Y62895D02*
D03*
X168777Y71895D02*
D03*
Y62895D02*
D03*
X151552Y155556D02*
D03*
Y146556D02*
D03*
D15*
X632852Y260997D02*
D03*
Y299974D02*
D03*
X239151Y260997D02*
D03*
Y299974D02*
D03*
D16*
X673698Y277926D02*
D03*
Y292887D02*
D03*
Y233832D02*
D03*
Y218871D02*
D03*
X279997Y277926D02*
D03*
Y292887D02*
D03*
Y233832D02*
D03*
Y218871D02*
D03*
D17*
X634820Y157159D02*
D03*
Y170544D02*
D03*
X577734Y284619D02*
D03*
Y298005D02*
D03*
X668777Y27729D02*
D03*
Y41115D02*
D03*
X241119Y157159D02*
D03*
Y170544D02*
D03*
X184033Y284619D02*
D03*
Y298005D02*
D03*
X275076Y27729D02*
D03*
Y41115D02*
D03*
D18*
X558738Y187966D02*
D03*
X568186Y191706D02*
D03*
Y184225D02*
D03*
X568679Y206863D02*
D03*
Y214344D02*
D03*
X559230Y210603D02*
D03*
X575962Y206666D02*
D03*
X585411Y210407D02*
D03*
Y202926D02*
D03*
X165037Y187966D02*
D03*
X174486Y191706D02*
D03*
Y184225D02*
D03*
X174978Y206863D02*
D03*
Y214344D02*
D03*
X165529Y210603D02*
D03*
X182261Y206666D02*
D03*
X191710Y210407D02*
D03*
Y202926D02*
D03*
D19*
X711100Y139540D02*
D03*
X707163D02*
D03*
X701257D02*
D03*
X703226D02*
D03*
X705194D02*
D03*
X709131D02*
D03*
X713068D02*
D03*
X715037D02*
D03*
X717005D02*
D03*
X718974D02*
D03*
X720942D02*
D03*
X722911D02*
D03*
X724879D02*
D03*
X726848D02*
D03*
Y93674D02*
D03*
X724879D02*
D03*
X722911D02*
D03*
X720942D02*
D03*
X718974D02*
D03*
X717005D02*
D03*
X715037D02*
D03*
X713068D02*
D03*
X711100D02*
D03*
X709131D02*
D03*
X707163D02*
D03*
X705194D02*
D03*
X703226D02*
D03*
X701257D02*
D03*
X317399Y139540D02*
D03*
X313462D02*
D03*
X307556D02*
D03*
X309525D02*
D03*
X311493D02*
D03*
X315430D02*
D03*
X319368D02*
D03*
X321336D02*
D03*
X323305D02*
D03*
X325273D02*
D03*
X327241D02*
D03*
X329210D02*
D03*
X331178D02*
D03*
X333147D02*
D03*
Y93674D02*
D03*
X331178D02*
D03*
X329210D02*
D03*
X327241D02*
D03*
X325273D02*
D03*
X323305D02*
D03*
X321336D02*
D03*
X319368D02*
D03*
X317399D02*
D03*
X315430D02*
D03*
X313462D02*
D03*
X311493D02*
D03*
X309525D02*
D03*
X307556D02*
D03*
D20*
X699052Y139540D02*
D03*
X729052D02*
D03*
Y93674D02*
D03*
X699052D02*
D03*
X305352Y139540D02*
D03*
X335352D02*
D03*
Y93674D02*
D03*
X305352D02*
D03*
D21*
X736986Y131607D02*
D03*
Y101607D02*
D03*
X691119D02*
D03*
Y131607D02*
D03*
X343285D02*
D03*
Y101607D02*
D03*
X297419D02*
D03*
Y131607D02*
D03*
D22*
X736986Y129403D02*
D03*
Y127434D02*
D03*
Y125466D02*
D03*
Y123497D02*
D03*
Y121529D02*
D03*
Y119560D02*
D03*
Y117592D02*
D03*
Y115623D02*
D03*
Y113655D02*
D03*
Y111686D02*
D03*
Y109718D02*
D03*
Y107749D02*
D03*
Y105781D02*
D03*
Y103812D02*
D03*
X691119D02*
D03*
Y105781D02*
D03*
Y107749D02*
D03*
Y109718D02*
D03*
Y111686D02*
D03*
Y113655D02*
D03*
Y115623D02*
D03*
Y117592D02*
D03*
Y119560D02*
D03*
Y121529D02*
D03*
Y123497D02*
D03*
Y125466D02*
D03*
Y127434D02*
D03*
Y129403D02*
D03*
X343285D02*
D03*
Y127434D02*
D03*
Y125466D02*
D03*
Y123497D02*
D03*
Y121529D02*
D03*
Y119560D02*
D03*
Y117592D02*
D03*
Y115623D02*
D03*
Y113655D02*
D03*
Y111686D02*
D03*
Y109718D02*
D03*
Y107749D02*
D03*
Y105781D02*
D03*
Y103812D02*
D03*
X297419D02*
D03*
Y105781D02*
D03*
Y107749D02*
D03*
Y109718D02*
D03*
Y111686D02*
D03*
Y113655D02*
D03*
Y115623D02*
D03*
Y117592D02*
D03*
Y119560D02*
D03*
Y121529D02*
D03*
Y123497D02*
D03*
Y125466D02*
D03*
Y127434D02*
D03*
Y129403D02*
D03*
D23*
X493206Y14540D02*
D03*
Y33635D02*
D03*
X488206D02*
D03*
X483206D02*
D03*
X478206D02*
D03*
X488206Y14540D02*
D03*
X483206D02*
D03*
X478206D02*
D03*
X99505D02*
D03*
Y33635D02*
D03*
X94505D02*
D03*
X89505D02*
D03*
X84505D02*
D03*
X94505Y14540D02*
D03*
X89505D02*
D03*
X84505D02*
D03*
D24*
X551454Y244678D02*
D03*
Y239678D02*
D03*
Y234678D02*
D03*
Y229678D02*
D03*
X570549Y244678D02*
D03*
Y239678D02*
D03*
Y234678D02*
D03*
Y229678D02*
D03*
X157753Y244678D02*
D03*
Y239678D02*
D03*
Y234678D02*
D03*
Y229678D02*
D03*
X176848Y244678D02*
D03*
Y239678D02*
D03*
Y234678D02*
D03*
Y229678D02*
D03*
D25*
X554111Y280032D02*
D03*
X160411D02*
D03*
D26*
X554111Y267355D02*
D03*
X160411D02*
D03*
D27*
X663757Y255879D02*
D03*
X270056D02*
D03*
D28*
X686592Y264934D02*
D03*
Y255879D02*
D03*
Y246824D02*
D03*
X292891Y264934D02*
D03*
Y255879D02*
D03*
Y246824D02*
D03*
D29*
X729308Y69855D02*
D03*
Y79304D02*
D03*
X335608Y69855D02*
D03*
Y79304D02*
D03*
D30*
X618186Y104580D02*
D03*
Y99580D02*
D03*
Y94580D02*
D03*
Y89580D02*
D03*
Y84580D02*
D03*
Y79580D02*
D03*
Y74580D02*
D03*
Y69580D02*
D03*
X656375Y104580D02*
D03*
Y99580D02*
D03*
Y94580D02*
D03*
Y89580D02*
D03*
Y84580D02*
D03*
Y79580D02*
D03*
Y74580D02*
D03*
Y69580D02*
D03*
X224486Y104580D02*
D03*
Y99580D02*
D03*
Y94580D02*
D03*
Y89580D02*
D03*
Y84580D02*
D03*
Y79580D02*
D03*
Y74580D02*
D03*
Y69580D02*
D03*
X262674Y104580D02*
D03*
Y99580D02*
D03*
Y94580D02*
D03*
Y89580D02*
D03*
Y84580D02*
D03*
Y79580D02*
D03*
Y74580D02*
D03*
Y69580D02*
D03*
D31*
X713560Y200761D02*
D03*
X707655D02*
D03*
X713560Y188950D02*
D03*
X707655D02*
D03*
X319860Y200761D02*
D03*
X313954D02*
D03*
X319860Y188950D02*
D03*
X313954D02*
D03*
D32*
X602340Y104501D02*
D03*
Y121824D02*
D03*
X461592Y323103D02*
D03*
Y305781D02*
D03*
X208639Y104501D02*
D03*
Y121824D02*
D03*
X67891Y323103D02*
D03*
Y305781D02*
D03*
D33*
X582163Y107355D02*
D03*
Y116017D02*
D03*
X584623Y63064D02*
D03*
Y71725D02*
D03*
X188462Y107355D02*
D03*
Y116017D02*
D03*
X190923Y63064D02*
D03*
Y71725D02*
D03*
D34*
X739446Y237375D02*
D03*
X731966D02*
D03*
X735706Y227336D02*
D03*
X345745Y237375D02*
D03*
X338265D02*
D03*
X342005Y227336D02*
D03*
D35*
X717497Y236686D02*
Y247724D01*
X719255Y249481D01*
X737886D02*
X719255D01*
X739643Y245052D02*
Y247724D01*
X737886Y249481D01*
X739151Y160407D02*
X737104D01*
X745549D02*
X739151D01*
X679111Y101406D02*
X681271Y103565D01*
Y104026D02*
X683283Y106038D01*
X679111Y101351D02*
Y101406D01*
X681271Y103565D02*
Y104026D01*
X775779Y161337D02*
X762070D01*
X777537Y137558D02*
Y159580D01*
X775779Y161337D01*
Y135800D02*
X777537Y137558D01*
X775779Y135800D02*
X773014D01*
X554111Y174607D02*
Y186283D01*
X565149Y164836D02*
X547503D01*
X693383Y300593D02*
X691307Y302669D01*
X681610D01*
X693383Y289907D02*
Y300593D01*
X681572Y302631D02*
X675456D01*
X681572D02*
X681610Y302669D01*
X673698Y292887D02*
Y300874D01*
X675456Y302631D01*
X725825Y197433D02*
X722497Y200761D01*
X713560D01*
X725864Y193379D02*
X725825Y193417D01*
X760312Y193379D02*
X725864D01*
X725825Y193417D02*
Y197433D01*
X725864Y193379D02*
X725864Y193379D01*
X743885Y205119D02*
X734722D01*
X745056Y203948D02*
X743885Y205119D01*
X717497Y208635D02*
X698797D01*
X745056Y197316D02*
Y203948D01*
X691907Y201745D02*
X698797Y208635D01*
X659426Y350859D02*
X634328D01*
X659426Y343056D02*
Y350859D01*
X634820Y323792D02*
X634328Y324285D01*
X657669Y323792D02*
X659426Y325550D01*
Y334056D01*
X657669Y323792D02*
X634820D01*
X601356Y287304D02*
X601356Y287304D01*
X601356Y279993D02*
Y287304D01*
X603324Y208424D02*
Y275564D01*
X578324Y298005D02*
X578596Y298277D01*
X593974Y279555D02*
Y296304D01*
X578324Y298005D02*
X577734D01*
X587576Y266777D02*
Y273807D01*
X589333Y275564D01*
X603324D02*
X589333D01*
X598895Y219954D02*
X595905Y222944D01*
Y242099D01*
X547714Y194396D02*
Y212746D01*
X562126Y214503D02*
X549471D01*
X547714Y212746D02*
X549471Y214503D01*
X536887Y222907D02*
X536395Y223399D01*
X546238Y222907D02*
X536887D01*
X548698Y220446D02*
X546238Y222907D01*
X562211Y214418D02*
X562126Y214503D01*
X568679Y214344D02*
X568604Y214418D01*
X562211D01*
X572812Y220446D02*
X548698D01*
X574289Y218970D02*
X572812Y220446D01*
X585819Y218970D02*
X574289D01*
X587576Y220727D02*
Y233170D01*
X585819Y218970D02*
X587576Y220727D01*
X551454Y239678D02*
X538403D01*
X536395Y237670D02*
X538403Y239678D01*
X548722Y244560D02*
X536395D01*
X559230Y210603D02*
X555096D01*
X567022Y194396D02*
X547714D01*
X539137D01*
X591829Y210481D02*
X585486D01*
X591829D02*
X591951Y210603D01*
X585411Y210407D02*
X585486Y210481D01*
X592005Y210603D02*
X591951D01*
X580194Y174607D02*
X554111D01*
X558663Y188040D02*
X555869D01*
X554111Y186283D02*
X555869Y188040D01*
X558738Y187966D02*
X558663Y188040D01*
X539137Y194396D02*
X537379Y196154D01*
Y198300D01*
X568106Y191781D02*
Y193313D01*
X567022Y194396D01*
X568181Y191706D02*
X568106Y191781D01*
X568186Y191706D02*
X568181D01*
X572455Y184521D02*
Y196095D01*
X580131Y184162D02*
X568249D01*
X580194Y184099D02*
X580131Y184162D01*
X568249D02*
X568186Y184225D01*
X572455Y196095D02*
X568679Y199872D01*
Y206863D01*
X575568Y206666D02*
X575371Y206863D01*
X575962Y206666D02*
X575568D01*
X575371Y206863D02*
X568679D01*
X591597Y202926D02*
X585411D01*
X593763Y200761D02*
X591597Y202926D01*
X680416Y200761D02*
X593763D01*
X737076Y214540D02*
X694196D01*
X694860Y255879D02*
X662281D01*
X699289Y254403D02*
X696336D01*
X694860Y255879D01*
X708147Y254403D02*
X699289D01*
X697531Y239147D02*
X699289Y240904D01*
X697531Y239147D02*
X693383D01*
X699289Y240904D02*
Y254403D01*
X661887Y206174D02*
X605574D01*
X603324Y208424D01*
X680416Y200761D02*
X694196Y214540D01*
X685509Y195840D02*
X584222D01*
X583730Y195347D02*
X584222Y195840D01*
X571828Y277095D02*
X566961Y281962D01*
X571828Y256371D02*
Y277095D01*
X586311Y306568D02*
X579491D01*
X588068Y296304D02*
Y304811D01*
X586311Y306568D01*
X577734Y298005D02*
Y304811D01*
X579491Y306568D01*
X593974Y296304D02*
X588068D01*
X587576Y279501D02*
Y286812D01*
X595780Y242170D02*
X587576D01*
X577734Y279009D02*
X577734Y279009D01*
Y284619D01*
X566415Y299257D02*
X559650D01*
X559579Y299186D02*
X559650Y299257D01*
X559579Y299186D02*
X559525D01*
X601356Y296304D02*
X593974D01*
X593974Y296304D02*
X593974Y296304D01*
X583730Y195347D02*
X583676D01*
X587576Y249481D02*
Y257777D01*
X693383Y239147D02*
X687168D01*
X685411Y237389D02*
X687168Y239147D01*
X685411Y233832D02*
Y237389D01*
X685509Y212572D02*
Y233733D01*
X700694Y221851D02*
X693383D01*
X693383Y280907D02*
X693383Y280907D01*
X693383Y266495D02*
Y280907D01*
X691626Y264737D02*
X685312D01*
X691626D02*
X693383Y266495D01*
X693383Y289907D02*
X693383Y289907D01*
X707726Y280907D02*
X693383D01*
X708147Y254403D02*
Y256863D01*
X693383Y230852D02*
X693383Y230852D01*
X685312Y264737D02*
X685115Y264934D01*
X683147Y277926D02*
X673698D01*
X685115Y264934D02*
Y275958D01*
X683147Y277926D01*
X685115Y246824D02*
X684919Y247021D01*
X671730D01*
X667301Y242592D02*
X671730Y247021D01*
X693383Y230852D02*
Y239147D01*
X685411Y233832D02*
X673698D01*
X667301Y221219D02*
Y242592D01*
X673108Y219462D02*
X669058D01*
X667301Y221219D01*
X673698Y215353D02*
Y218871D01*
X673108Y219462D01*
X760312Y185630D02*
Y193379D01*
Y226563D01*
X691907Y192676D02*
Y201745D01*
X690149Y190918D02*
X655489D01*
X690149D02*
X691907Y192676D01*
X707655Y201033D02*
Y201253D01*
X707383Y200761D02*
X698757D01*
X707383D02*
X707655Y201033D01*
X696828Y178499D02*
Y198832D01*
X698757Y200761D01*
X682064Y183748D02*
X680307Y185505D01*
X682064Y141285D02*
Y183748D01*
X680307Y185505D02*
X598895D01*
X624978Y176647D02*
X616892D01*
X634820D02*
X624978D01*
Y168351D02*
Y176647D01*
X643398D02*
X634820D01*
Y170544D02*
Y176647D01*
X645155Y168844D02*
Y174889D01*
X644663Y168351D02*
X645155Y168844D01*
Y174889D02*
X643398Y176647D01*
X615135Y168351D02*
Y174889D01*
X616892Y176647D01*
X668988Y168351D02*
X644663D01*
X670745Y140792D02*
Y166594D01*
X668988Y168351D01*
X662871Y118436D02*
Y157946D01*
X665121Y116186D02*
X662871Y118436D01*
X596153Y175100D02*
X580194D01*
X597911Y161180D02*
Y173342D01*
X596153Y175100D01*
X615064Y159422D02*
X599668D01*
X597911Y161180D01*
X615135Y159351D02*
X615064Y159422D01*
X624978Y141285D02*
Y149580D01*
X634820Y141285D02*
X634820Y141285D01*
Y149580D01*
X644663Y141285D02*
X644663Y141285D01*
Y149580D01*
X679111Y79206D02*
X670324D01*
X670745Y64442D02*
X670707Y64480D01*
Y69402D01*
X670489Y69620D01*
X713560Y182552D02*
Y188950D01*
X714545Y181568D02*
X713560Y182552D01*
X714545Y175733D02*
Y181568D01*
X715037Y175241D02*
X714545Y175733D01*
X707383Y183968D02*
Y188678D01*
X704702Y181287D02*
X707383Y183968D01*
Y188678D02*
X707655Y188950D01*
X704702Y175733D02*
Y181287D01*
X705194Y175241D02*
X704702Y175733D01*
X654997Y141285D02*
Y157946D01*
X615627Y132284D02*
X608245D01*
X604097D01*
X696652Y176541D02*
Y178322D01*
X696828Y178499D01*
X695352Y175241D02*
X696652Y176541D01*
X684525Y111686D02*
X679111D01*
Y119560D01*
X552635Y116186D02*
Y123497D01*
X618186Y69580D02*
X594747D01*
X592989Y71337D01*
Y153799D02*
X591232Y155556D01*
X592989Y71337D02*
Y153799D01*
X591232Y155556D02*
X579702D01*
X582163Y101844D02*
X582163Y101844D01*
Y104304D01*
X582163Y127247D02*
X580991Y128418D01*
X572039D01*
X582163Y120052D02*
Y127247D01*
X582163Y120052D02*
X582163Y120052D01*
X567399Y162586D02*
X565149Y164836D01*
X545253Y162586D02*
X547503Y164836D01*
X545253Y155556D02*
Y162586D01*
X567399Y155556D02*
Y162586D01*
X562442Y71859D02*
X556608D01*
X556572Y71824D02*
X556608Y71859D01*
X573305Y116186D02*
Y127153D01*
X572039Y128418D01*
X588068Y95938D02*
Y134043D01*
X555167Y155485D02*
X555096Y155556D01*
X579210Y146064D02*
X578647Y146627D01*
X588068Y134043D02*
X586311Y135800D01*
X584623Y92493D02*
X588068Y95938D01*
X563462Y98399D02*
Y107186D01*
Y116186D02*
Y128418D01*
X560017D01*
X572039D02*
X563462D01*
X560017Y128418D02*
X548087D01*
X560017Y128418D02*
X560017Y128418D01*
X579210Y59802D02*
Y68637D01*
X580967Y58044D02*
X579210Y59802D01*
X607753Y58044D02*
X580967D01*
X607926Y79580D02*
X607807Y79698D01*
X607753D01*
X618186Y79580D02*
X607926D01*
X567399Y146627D02*
X561001D01*
Y155556D01*
X567399Y146556D02*
Y146627D01*
X561001Y155556D02*
X555096D01*
X542793Y116186D02*
Y123124D01*
X548087Y128418D01*
X562442Y71859D02*
X562478Y71895D01*
X670745Y52085D02*
Y52139D01*
X668777Y50116D02*
X670745Y52085D01*
X668777Y48694D02*
Y50116D01*
Y41115D02*
Y48694D01*
X700273Y54107D02*
X690256D01*
X686870Y39907D02*
X686670Y40107D01*
X687970Y39907D02*
X686870D01*
X687970Y51821D02*
X690256Y54107D01*
X664348Y84580D02*
Y92493D01*
Y84580D02*
X661887D01*
X752509Y237178D02*
X752545Y237214D01*
X760277D02*
X752545D01*
X760312Y237178D02*
X760277Y237214D01*
X455194Y8128D02*
Y18603D01*
X488206Y6371D02*
X456952D01*
X455194Y8128D01*
X684736Y6371D02*
X488206D01*
X455194Y27603D02*
Y37375D01*
X465037Y27603D02*
Y37375D01*
X684736Y6371D02*
X687970Y9605D01*
X537379Y198300D02*
X468482D01*
X483206Y48241D02*
X481769Y49678D01*
X478206Y33635D02*
Y49560D01*
X478324Y49678D01*
X493206Y48084D02*
X493088Y48202D01*
X483206Y33635D02*
Y48241D01*
X493206Y33635D02*
Y48084D01*
X488206Y46765D02*
X489643Y48202D01*
X488206Y33635D02*
Y46765D01*
X725371Y230781D02*
X725301Y230852D01*
X693383D01*
X436001Y198792D02*
X435963Y198831D01*
Y210079D02*
X435509Y210533D01*
X435963Y198831D02*
Y210079D01*
X468482Y198300D02*
X467989Y198792D01*
X758555Y228320D02*
X751651D01*
X760312Y226563D02*
X758555Y228320D01*
X615627Y141285D02*
Y148596D01*
X731769Y154993D02*
Y155047D01*
X735346Y158649D02*
X737104Y160407D01*
X731769Y155047D02*
X735346Y158625D01*
Y158649D01*
X700273Y148596D02*
X697109D01*
X695352Y150353D01*
Y166241D01*
X724879Y158438D02*
Y166241D01*
X664348Y92493D02*
Y108241D01*
X682556Y96430D02*
X670745D01*
Y107186D01*
X664348Y108241D02*
X654997Y117592D01*
Y122021D02*
Y132284D01*
Y117592D02*
Y122021D01*
X646420D02*
X644663Y123778D01*
Y132284D01*
X654997Y122021D02*
X646420D01*
X687970Y39907D02*
Y51821D01*
X634328Y217985D02*
Y218477D01*
X687970Y9605D02*
Y30907D01*
X660692Y48694D02*
X649092D01*
X641499D01*
X649092Y38922D02*
Y48694D01*
X668777D02*
X660692D01*
X639742Y39907D02*
Y46937D01*
X641499Y48694D01*
X638757Y38922D02*
X639742Y39907D01*
X658934Y46937D02*
X660692Y48694D01*
X658934Y38922D02*
Y46937D01*
X572320Y71695D02*
Y80893D01*
X579210Y68637D02*
X577453Y70395D01*
X573620D01*
X574078Y53615D02*
X564235D01*
X562478Y55373D02*
Y62895D01*
X564235Y53615D02*
X562478Y55373D01*
X625189Y53615D02*
X574078D01*
X572320Y55373D01*
X626946D02*
Y64934D01*
X625189Y53615D02*
X626946Y55373D01*
X602340Y130527D02*
X604097Y132284D01*
X602340Y121824D02*
Y130527D01*
Y76534D02*
Y104501D01*
X610706Y74777D02*
X604097D01*
X602340Y76534D01*
X682064Y123989D02*
Y132284D01*
X679111Y119560D02*
X677186Y121486D01*
X673248D01*
X670745Y123989D02*
Y131792D01*
X673248Y121486D02*
X670745Y123989D01*
X745549Y171458D02*
X747292Y173202D01*
X755312D02*
X747292D01*
X755391Y173123D02*
X755312Y173202D01*
X745549Y160407D02*
Y171458D01*
X754285Y116644D02*
X744564D01*
X764953Y117592D02*
X755232D01*
X754285Y116644D02*
X755232Y117592D01*
X762070Y161337D02*
X760312Y163094D01*
Y168886D02*
X760644Y169218D01*
Y185299D01*
X760312Y185630D01*
Y163094D02*
Y168886D01*
X741611Y166312D02*
X741557D01*
X741487Y166241D02*
X734722D01*
X741487D02*
X741557Y166312D01*
X586311Y135800D02*
X579702D01*
X584623Y76745D02*
Y92493D01*
X748993Y105781D02*
X743088D01*
X749978Y80963D02*
Y104796D01*
X748993Y105781D01*
X766710Y105938D02*
Y115834D01*
X764953Y117592D01*
X755312Y183123D02*
X734800D01*
X736690Y49678D02*
X707163D01*
X670745Y116186D02*
X665121D01*
X748430Y70277D02*
X748501Y70347D01*
X748430Y70277D02*
X742104D01*
X717951Y69746D02*
X717989Y69784D01*
Y62966D02*
X717951Y63004D01*
Y69746D01*
X717989Y69784D02*
X717497Y70277D01*
X736690Y23596D02*
X736690Y23596D01*
Y30907D01*
X726848Y23596D02*
X726848Y23596D01*
Y30907D01*
X717005Y23596D02*
X717005Y23596D01*
Y30907D01*
X707163Y30907D02*
X707163Y30907D01*
X707163Y22611D02*
Y30907D01*
X707163Y22611D02*
X707163Y22611D01*
X707163Y30907D02*
X707163Y30907D01*
X697320Y22119D02*
Y30907D01*
X735214Y183537D02*
X726637D01*
X734722Y175241D02*
Y183044D01*
X724879Y175241D02*
Y181779D01*
X734722Y183044D02*
X735214Y183537D01*
X724879Y181779D02*
X726637Y183537D01*
X531474Y118044D02*
X545253Y131824D01*
X531474Y91017D02*
Y118044D01*
X545253Y131824D02*
Y139526D01*
X736690Y39907D02*
Y49678D01*
X707163D02*
X697320D01*
Y39907D02*
Y49678D01*
X717005Y39907D02*
Y49186D01*
X705780Y153025D02*
Y165655D01*
X711931Y148443D02*
Y152380D01*
X715529Y155977D01*
X695352Y166241D02*
X695352Y166241D01*
X705780Y165655D02*
X705194Y166241D01*
X715529Y155977D02*
Y165749D01*
X715037Y166241D01*
X536983Y59125D02*
X542793Y64934D01*
X536983Y59125D02*
X493703D01*
X492623Y58044D02*
X493703Y59125D01*
X542793Y64934D02*
Y98680D01*
X492623Y58044D02*
X449289D01*
X542793Y98680D02*
Y107186D01*
X707163Y39907D02*
X707163Y39907D01*
Y49678D01*
X717005Y39907D02*
X717005Y39907D01*
X726848Y39907D02*
Y49186D01*
X734614Y70521D02*
X729974D01*
X734614D02*
X735706Y71613D01*
Y77448D01*
X729308Y69855D02*
X729974Y70521D01*
X742033Y79206D02*
X737463D01*
X735706Y77448D02*
X737463Y79206D01*
X742033D02*
X742104Y79277D01*
X743333D02*
X742104D01*
X743404Y79206D02*
X743333Y79277D01*
X748220Y79206D02*
X743404D01*
X748220D02*
X749978Y80963D01*
X742596Y92282D02*
Y97907D01*
X740838Y90525D02*
X735214D01*
X740838D02*
X742596Y92282D01*
X729308Y84619D02*
X735214Y90525D01*
X729295Y79290D02*
X717511D01*
X717497Y79277D02*
X717511Y79290D01*
X729295D02*
X729308Y79304D01*
Y84619D01*
X579702Y135800D02*
X569156D01*
X579702D02*
Y146556D01*
X567399Y137558D02*
Y146556D01*
X569156Y135800D02*
X567399Y137558D01*
X573620Y70395D02*
X572320Y71695D01*
Y80893D02*
X570563Y82651D01*
X564235D01*
X562478Y71895D02*
Y80893D01*
X564235Y82651D01*
X572320Y55373D02*
Y62895D01*
X449289Y96430D02*
Y125997D01*
X445981Y129305D01*
X444223Y135800D02*
X434860D01*
X445981Y134043D02*
X444223Y135800D01*
X445981Y129305D02*
Y134043D01*
X434860Y135800D02*
X434525Y136135D01*
X552635Y98680D02*
Y107186D01*
X550878Y96922D02*
X545042D01*
X550878D02*
X552635Y98680D01*
X545042Y96922D02*
X543285Y98680D01*
X529454Y126450D02*
Y152763D01*
X507813Y67356D02*
X434644D01*
X507813D02*
X531474Y91017D01*
X529454Y152763D02*
X532247Y155556D01*
X434525Y67237D02*
X434644Y67356D01*
X545253Y139526D02*
Y146556D01*
X552846Y137769D02*
X547011D01*
X545253Y139526D01*
X552846Y137769D02*
X554604Y139526D01*
Y146064D01*
X555096Y146556D01*
X545253Y155556D02*
X532247D01*
X323797Y236686D02*
Y247724D01*
X325554Y249481D01*
X344185D02*
X325554D01*
X345942Y245052D02*
Y247724D01*
X344185Y249481D01*
X345450Y160407D02*
X343403D01*
X351848D02*
X345450D01*
X285411Y101406D02*
X287570Y103565D01*
Y104026D02*
X289582Y106038D01*
X285411Y101351D02*
Y101406D01*
X287570Y103565D02*
Y104026D01*
X382079Y161337D02*
X368369D01*
X383836Y137558D02*
Y159580D01*
X382079Y161337D01*
Y135800D02*
X383836Y137558D01*
X382079Y135800D02*
X379313D01*
X160411Y174607D02*
Y186283D01*
X171449Y164836D02*
X153802D01*
X299682Y300593D02*
X297606Y302669D01*
X287910D01*
X299682Y289907D02*
Y300593D01*
X287871Y302631D02*
X281755D01*
X287871D02*
X287910Y302669D01*
X279997Y292887D02*
Y300874D01*
X281755Y302631D01*
X332124Y197433D02*
X328797Y200761D01*
X319860D01*
X332163Y193379D02*
X332124Y193417D01*
X366612Y193379D02*
X332163D01*
X332124Y193417D02*
Y197433D01*
X332163Y193379D02*
X332163Y193379D01*
X350184Y205119D02*
X341021D01*
X351356Y203948D02*
X350184Y205119D01*
X323797Y208635D02*
X305096D01*
X351356Y197316D02*
Y203948D01*
X298206Y201745D02*
X305096Y208635D01*
X265726Y350859D02*
X240627D01*
X265726Y343056D02*
Y350859D01*
X241119Y323792D02*
X240627Y324285D01*
X263968Y323792D02*
X265726Y325550D01*
Y334056D01*
X263968Y323792D02*
X241119D01*
X207655Y287304D02*
X207655Y287304D01*
X207655Y279993D02*
Y287304D01*
X209623Y208424D02*
Y275564D01*
X184623Y298005D02*
X184895Y298277D01*
X200273Y279555D02*
Y296304D01*
X184623Y298005D02*
X184033D01*
X193875Y266777D02*
Y273807D01*
X195633Y275564D01*
X209623D02*
X195633D01*
X205194Y219954D02*
X202204Y222944D01*
Y242099D01*
X154013Y194396D02*
Y212746D01*
X168425Y214503D02*
X155771D01*
X154013Y212746D02*
X155771Y214503D01*
X143186Y222907D02*
X142694Y223399D01*
X152537Y222907D02*
X143186D01*
X154997Y220446D02*
X152537Y222907D01*
X168510Y214418D02*
X168425Y214503D01*
X174978Y214344D02*
X174903Y214418D01*
X168510D01*
X179112Y220446D02*
X154997D01*
X180588Y218970D02*
X179112Y220446D01*
X192118Y218970D02*
X180588D01*
X193875Y220727D02*
Y233170D01*
X192118Y218970D02*
X193875Y220727D01*
X157753Y239678D02*
X144702D01*
X142694Y237670D02*
X144702Y239678D01*
X155021Y244560D02*
X142694D01*
X165529Y210603D02*
X161395D01*
X173322Y194396D02*
X154013D01*
X145436D01*
X198128Y210481D02*
X191785D01*
X198128D02*
X198250Y210603D01*
X191710Y210407D02*
X191785Y210481D01*
X198304Y210603D02*
X198250D01*
X186493Y174607D02*
X160411D01*
X164962Y188040D02*
X162168D01*
X160411Y186283D02*
X162168Y188040D01*
X165037Y187966D02*
X164962Y188040D01*
X145436Y194396D02*
X143678Y196154D01*
Y198300D01*
X174405Y191781D02*
Y193313D01*
X173322Y194396D01*
X174480Y191706D02*
X174405Y191781D01*
X174486Y191706D02*
X174480D01*
X178754Y184521D02*
Y196095D01*
X186430Y184162D02*
X174549D01*
X186493Y184099D02*
X186430Y184162D01*
X174549D02*
X174486Y184225D01*
X178754Y196095D02*
X174978Y199872D01*
Y206863D01*
X181868Y206666D02*
X181671Y206863D01*
X182261Y206666D02*
X181868D01*
X181671Y206863D02*
X174978D01*
X197897Y202926D02*
X191710D01*
X200062Y200761D02*
X197897Y202926D01*
X286715Y200761D02*
X200062D01*
X343375Y214540D02*
X300495D01*
X301159Y255879D02*
X268580D01*
X305588Y254403D02*
X302635D01*
X301159Y255879D01*
X314446Y254403D02*
X305588D01*
X303831Y239147D02*
X305588Y240904D01*
X303831Y239147D02*
X299682D01*
X305588Y240904D02*
Y254403D01*
X268186Y206174D02*
X211873D01*
X209623Y208424D01*
X286715Y200761D02*
X300495Y214540D01*
X291808Y195840D02*
X190521D01*
X190029Y195347D02*
X190521Y195840D01*
X178127Y277095D02*
X173260Y281962D01*
X178127Y256371D02*
Y277095D01*
X192610Y306568D02*
X185790D01*
X194368Y296304D02*
Y304811D01*
X192610Y306568D01*
X184033Y298005D02*
Y304811D01*
X185790Y306568D01*
X200273Y296304D02*
X194368D01*
X193875Y279501D02*
Y286812D01*
X202080Y242170D02*
X193875D01*
X184033Y279009D02*
X184033Y279009D01*
Y284619D01*
X172714Y299257D02*
X165949D01*
X165878Y299186D02*
X165949Y299257D01*
X165878Y299186D02*
X165824D01*
X207655Y296304D02*
X200273D01*
X200273Y296304D02*
X200273Y296304D01*
X190029Y195347D02*
X189975D01*
X193875Y249481D02*
Y257777D01*
X299682Y239147D02*
X293467D01*
X291710Y237389D02*
X293467Y239147D01*
X291710Y233832D02*
Y237389D01*
X291808Y212572D02*
Y233733D01*
X306993Y221851D02*
X299682D01*
X299682Y280907D02*
X299682Y280907D01*
X299682Y266495D02*
Y280907D01*
X297925Y264737D02*
X291612D01*
X297925D02*
X299682Y266495D01*
X299682Y289907D02*
X299682Y289907D01*
X314025Y280907D02*
X299682D01*
X314446Y254403D02*
Y256863D01*
X299682Y230852D02*
X299682Y230852D01*
X291612Y264737D02*
X291415Y264934D01*
X289446Y277926D02*
X279997D01*
X291415Y264934D02*
Y275958D01*
X289446Y277926D01*
X291415Y246824D02*
X291218Y247021D01*
X278029D01*
X273600Y242592D02*
X278029Y247021D01*
X299682Y230852D02*
Y239147D01*
X291710Y233832D02*
X279997D01*
X273600Y221219D02*
Y242592D01*
X279407Y219462D02*
X275357D01*
X273600Y221219D01*
X279997Y215353D02*
Y218871D01*
X279407Y219462D01*
X366612Y185630D02*
Y193379D01*
Y226563D01*
X298206Y192676D02*
Y201745D01*
X296449Y190918D02*
X261789D01*
X296449D02*
X298206Y192676D01*
X313954Y201033D02*
Y201253D01*
X313682Y200761D02*
X305056D01*
X313682D02*
X313954Y201033D01*
X303127Y178499D02*
Y198832D01*
X305056Y200761D01*
X288364Y183748D02*
X286606Y185505D01*
X288364Y141285D02*
Y183748D01*
X286606Y185505D02*
X205194D01*
X231277Y176647D02*
X223192D01*
X241119D02*
X231277D01*
Y168351D02*
Y176647D01*
X249697D02*
X241119D01*
Y170544D02*
Y176647D01*
X251454Y168844D02*
Y174889D01*
X250962Y168351D02*
X251454Y168844D01*
Y174889D02*
X249697Y176647D01*
X221434Y168351D02*
Y174889D01*
X223192Y176647D01*
X275287Y168351D02*
X250962D01*
X277045Y140792D02*
Y166594D01*
X275287Y168351D01*
X269171Y118436D02*
Y157946D01*
X271420Y116186D02*
X269171Y118436D01*
X202453Y175100D02*
X186493D01*
X204210Y161180D02*
Y173342D01*
X202453Y175100D01*
X221363Y159422D02*
X205967D01*
X204210Y161180D01*
X221434Y159351D02*
X221363Y159422D01*
X231277Y141285D02*
Y149580D01*
X241119Y141285D02*
X241119Y141285D01*
Y149580D01*
X250962Y141285D02*
X250962Y141285D01*
Y149580D01*
X285411Y79206D02*
X276623D01*
X277045Y64442D02*
X277006Y64480D01*
Y69402D01*
X276788Y69620D01*
X319860Y182552D02*
Y188950D01*
X320844Y181568D02*
X319860Y182552D01*
X320844Y175733D02*
Y181568D01*
X321336Y175241D02*
X320844Y175733D01*
X313682Y183968D02*
Y188678D01*
X311001Y181287D02*
X313682Y183968D01*
Y188678D02*
X313954Y188950D01*
X311001Y175733D02*
Y181287D01*
X311493Y175241D02*
X311001Y175733D01*
X261297Y141285D02*
Y157946D01*
X221926Y132284D02*
X214545D01*
X210397D01*
X302951Y176541D02*
Y178322D01*
X303127Y178499D01*
X301651Y175241D02*
X302951Y176541D01*
X290824Y111686D02*
X285411D01*
Y119560D01*
X158934Y116186D02*
Y123497D01*
X224486Y69580D02*
X201046D01*
X199289Y71337D01*
Y153799D02*
X197531Y155556D01*
X199289Y71337D02*
Y153799D01*
X197531Y155556D02*
X186001D01*
X188462Y101844D02*
X188462Y101844D01*
Y104304D01*
X188462Y127247D02*
X187290Y128418D01*
X178338D01*
X188462Y120052D02*
Y127247D01*
X188462Y120052D02*
X188462Y120052D01*
X173698Y162586D02*
X171449Y164836D01*
X151552Y162586D02*
X153802Y164836D01*
X151552Y155556D02*
Y162586D01*
X173698Y155556D02*
Y162586D01*
X168742Y71859D02*
X162907D01*
X162871Y71824D02*
X162907Y71859D01*
X179604Y116186D02*
Y127153D01*
X178338Y128418D01*
X194368Y95938D02*
Y134043D01*
X161466Y155485D02*
X161395Y155556D01*
X185509Y146064D02*
X184946Y146627D01*
X194368Y134043D02*
X192610Y135800D01*
X190923Y92493D02*
X194368Y95938D01*
X169761Y98399D02*
Y107186D01*
Y116186D02*
Y128418D01*
X166316D01*
X178338D02*
X169761D01*
X166316Y128418D02*
X154386D01*
X166316Y128418D02*
X166316Y128418D01*
X185509Y59802D02*
Y68637D01*
X187267Y58044D02*
X185509Y59802D01*
X214053Y58044D02*
X187267D01*
X214225Y79580D02*
X214107Y79698D01*
X214053D01*
X224486Y79580D02*
X214225D01*
X173698Y146627D02*
X167300D01*
Y155556D01*
X173698Y146556D02*
Y146627D01*
X167300Y155556D02*
X161395D01*
X149092Y116186D02*
Y123124D01*
X154386Y128418D01*
X168742Y71859D02*
X168777Y71895D01*
X277045Y52085D02*
Y52139D01*
X275076Y50116D02*
X277045Y52085D01*
X275076Y48694D02*
Y50116D01*
Y41115D02*
Y48694D01*
X306572Y54107D02*
X296555D01*
X293169Y39907D02*
X292969Y40107D01*
X294269Y39907D02*
X293169D01*
X294269Y51821D02*
X296555Y54107D01*
X270647Y84580D02*
Y92493D01*
Y84580D02*
X268186D01*
X358808Y237178D02*
X358844Y237214D01*
X366576D02*
X358844D01*
X366612Y237178D02*
X366576Y237214D01*
X61493Y8128D02*
Y18603D01*
X94505Y6371D02*
X63251D01*
X61493Y8128D01*
X291035Y6371D02*
X94505D01*
X61493Y27603D02*
Y37375D01*
X71336Y27603D02*
Y37375D01*
X291035Y6371D02*
X294269Y9605D01*
X143678Y198300D02*
X74781D01*
X89505Y48241D02*
X88068Y49678D01*
X84505Y33635D02*
Y49560D01*
X84623Y49678D01*
X99505Y48084D02*
X99387Y48202D01*
X89505Y33635D02*
Y48241D01*
X99505Y33635D02*
Y48084D01*
X94505Y46765D02*
X95942Y48202D01*
X94505Y33635D02*
Y46765D01*
X331671Y230781D02*
X331600Y230852D01*
X299682D01*
X42301Y198792D02*
X42262Y198831D01*
Y210079D02*
X41808Y210533D01*
X42262Y198831D02*
Y210079D01*
X74781Y198300D02*
X74289Y198792D01*
X364854Y228320D02*
X357951D01*
X366612Y226563D02*
X364854Y228320D01*
X221926Y141285D02*
Y148596D01*
X338068Y154993D02*
Y155047D01*
X341646Y158649D02*
X343403Y160407D01*
X338068Y155047D02*
X341646Y158625D01*
Y158649D01*
X306572Y148596D02*
X303408D01*
X301651Y150353D01*
Y166241D01*
X331178Y158438D02*
Y166241D01*
X270647Y92493D02*
Y108241D01*
X288856Y96430D02*
X277045D01*
Y107186D01*
X270647Y108241D02*
X261297Y117592D01*
Y122021D02*
Y132284D01*
Y117592D02*
Y122021D01*
X252719D02*
X250962Y123778D01*
Y132284D01*
X261297Y122021D02*
X252719D01*
X294269Y39907D02*
Y51821D01*
X240627Y217985D02*
Y218477D01*
X294269Y9605D02*
Y30907D01*
X266991Y48694D02*
X255391D01*
X247798D01*
X255391Y38922D02*
Y48694D01*
X275076D02*
X266991D01*
X246041Y39907D02*
Y46937D01*
X247798Y48694D01*
X245056Y38922D02*
X246041Y39907D01*
X265234Y46937D02*
X266991Y48694D01*
X265234Y38922D02*
Y46937D01*
X178619Y71695D02*
Y80893D01*
X185509Y68637D02*
X183752Y70395D01*
X179919D01*
X180377Y53615D02*
X170534D01*
X168777Y55373D02*
Y62895D01*
X170534Y53615D02*
X168777Y55373D01*
X231488Y53615D02*
X180377D01*
X178619Y55373D01*
X233245D02*
Y64934D01*
X231488Y53615D02*
X233245Y55373D01*
X208639Y130527D02*
X210397Y132284D01*
X208639Y121824D02*
Y130527D01*
Y76534D02*
Y104501D01*
X217005Y74777D02*
X210397D01*
X208639Y76534D01*
X288364Y123989D02*
Y132284D01*
X285411Y119560D02*
X283485Y121486D01*
X279548D01*
X277045Y123989D02*
Y131792D01*
X279548Y121486D02*
X277045Y123989D01*
X351848Y171458D02*
X353592Y173202D01*
X361612D02*
X353592D01*
X361690Y173123D02*
X361612Y173202D01*
X351848Y160407D02*
Y171458D01*
X360584Y116644D02*
X350864D01*
X371252Y117592D02*
X361531D01*
X360584Y116644D02*
X361531Y117592D01*
X368369Y161337D02*
X366612Y163094D01*
Y168886D02*
X366943Y169218D01*
Y185299D01*
X366612Y185630D01*
Y163094D02*
Y168886D01*
X347911Y166312D02*
X347857D01*
X347786Y166241D02*
X341021D01*
X347786D02*
X347857Y166312D01*
X192610Y135800D02*
X186001D01*
X190923Y76745D02*
Y92493D01*
X355293Y105781D02*
X349387D01*
X356277Y80963D02*
Y104796D01*
X355293Y105781D01*
X373009Y105938D02*
Y115834D01*
X371252Y117592D01*
X361612Y183123D02*
X341100D01*
X342989Y49678D02*
X313462D01*
X277045Y116186D02*
X271420D01*
X354730Y70277D02*
X354801Y70347D01*
X354730Y70277D02*
X348403D01*
X324251Y69746D02*
X324289Y69784D01*
Y62966D02*
X324251Y63004D01*
Y69746D01*
X324289Y69784D02*
X323797Y70277D01*
X342989Y23596D02*
X342989Y23596D01*
Y30907D01*
X333147Y23596D02*
X333147Y23596D01*
Y30907D01*
X323305Y23596D02*
X323304Y23596D01*
Y30907D01*
X313462Y30907D02*
X313462Y30907D01*
X313462Y22611D02*
Y30907D01*
X313462Y22611D02*
X313462Y22611D01*
X313462Y30907D02*
X313462Y30907D01*
X303619Y22119D02*
Y30907D01*
X341513Y183537D02*
X332936D01*
X341021Y175241D02*
Y183044D01*
X331178Y175241D02*
Y181779D01*
X341021Y183044D02*
X341513Y183537D01*
X331178Y181779D02*
X332936Y183537D01*
X137773Y118044D02*
X151552Y131824D01*
X137773Y91017D02*
Y118044D01*
X151552Y131824D02*
Y139526D01*
X342989Y39907D02*
Y49678D01*
X313462D02*
X303619D01*
Y39907D02*
Y49678D01*
X323305Y39907D02*
Y49186D01*
X312079Y153025D02*
Y165655D01*
X318230Y148443D02*
Y152380D01*
X321828Y155977D01*
X301651Y166241D02*
X301651Y166241D01*
X312079Y165655D02*
X311493Y166241D01*
X321828Y155977D02*
Y165749D01*
X321336Y166241D01*
X143282Y59125D02*
X149092Y64934D01*
X143282Y59125D02*
X100002D01*
X98922Y58044D02*
X100002Y59125D01*
X149092Y64934D02*
Y98680D01*
X98922Y58044D02*
X55588D01*
X149092Y98680D02*
Y107186D01*
X313462Y39907D02*
X313462Y39907D01*
Y49678D01*
X323304Y39907D02*
X323305Y39907D01*
X333147Y39907D02*
Y49186D01*
X340913Y70521D02*
X336273D01*
X340913D02*
X342005Y71613D01*
Y77448D01*
X335608Y69855D02*
X336273Y70521D01*
X348332Y79206D02*
X343763D01*
X342005Y77448D02*
X343763Y79206D01*
X348332D02*
X348403Y79277D01*
X349632D02*
X348403D01*
X349703Y79206D02*
X349632Y79277D01*
X354520Y79206D02*
X349703D01*
X354520D02*
X356277Y80963D01*
X348895Y92282D02*
Y97907D01*
X347138Y90525D02*
X341513D01*
X347138D02*
X348895Y92282D01*
X335608Y84619D02*
X341513Y90525D01*
X335594Y79290D02*
X323810D01*
X323797Y79277D02*
X323810Y79290D01*
X335594D02*
X335608Y79304D01*
Y84619D01*
X186001Y135800D02*
X175455D01*
X186001D02*
Y146556D01*
X173698Y137558D02*
Y146556D01*
X175455Y135800D02*
X173698Y137558D01*
X179919Y70395D02*
X178619Y71695D01*
Y80893D02*
X176862Y82651D01*
X170534D01*
X168777Y71895D02*
Y80893D01*
X170534Y82651D01*
X178619Y55373D02*
Y62895D01*
X55588Y96430D02*
Y125997D01*
X52280Y129305D01*
X50523Y135800D02*
X41159D01*
X52280Y134043D02*
X50523Y135800D01*
X52280Y129305D02*
Y134043D01*
X41159Y135800D02*
X40824Y136135D01*
X158934Y98680D02*
Y107186D01*
X157177Y96922D02*
X151341D01*
X157177D02*
X158934Y98680D01*
X151341Y96922D02*
X149584Y98680D01*
X135753Y126450D02*
Y152763D01*
X114113Y67356D02*
X40943D01*
X114113D02*
X137773Y91017D01*
X135753Y152763D02*
X138546Y155556D01*
X40824Y67237D02*
X40943Y67356D01*
X151552Y139526D02*
Y146556D01*
X159145Y137769D02*
X153310D01*
X151552Y139526D01*
X159145Y137769D02*
X160903Y139526D01*
Y146064D01*
X161395Y146556D01*
X151552Y155556D02*
X138546D01*
D36*
X739151Y156784D02*
Y160407D01*
X740293Y155643D02*
X739151Y156784D01*
X749836Y155643D02*
X740293D01*
X749836Y140643D02*
X737460D01*
X731810Y134992D02*
X737460Y140643D01*
X685017Y103226D02*
X685603Y103812D01*
X683541Y105781D02*
X683283Y106038D01*
X685017Y97016D02*
Y103226D01*
X691119Y103812D02*
X685603D01*
X759820Y127036D02*
Y140057D01*
Y145057D01*
X760406Y145643D01*
X767836D02*
X760406D01*
X763757Y126450D02*
X760406D01*
X759820Y127036D01*
X767836Y140643D02*
X760406D01*
X759820Y140057D02*
X760406Y140643D01*
X704210Y103484D02*
Y115623D01*
X709131Y119015D02*
X698383D01*
X696959Y117592D02*
X698383Y119015D01*
X702333Y101607D02*
X691119D01*
X702333D02*
X704210Y103484D01*
X691119Y111686D02*
X684525D01*
X731966Y244855D02*
X731769Y245052D01*
X709131Y119015D02*
Y125466D01*
Y105781D02*
Y119015D01*
X715037Y126122D02*
X709788D01*
X709131Y125466D02*
X709788Y126122D01*
X703297Y145222D02*
X703718Y145643D01*
X699340Y139828D02*
Y143261D01*
X699052Y139540D02*
X699340Y139828D01*
X703297Y145222D02*
X701301D01*
X699340Y143261D02*
X701301Y145222D01*
X707163Y146627D02*
X705194Y148596D01*
X700273D01*
X707163Y139540D02*
Y146627D01*
X717005Y139540D02*
Y146135D01*
X723790Y134992D02*
X723028Y135754D01*
X731810Y134992D02*
X723790D01*
X722962Y136397D02*
Y139489D01*
X722911Y139540D01*
X723028Y135754D02*
Y136331D01*
X722962Y136397D01*
X736986Y121529D02*
X736986Y121529D01*
X745056D02*
X736986D01*
X729308Y105781D02*
X709131D01*
X729308Y103812D02*
Y105781D01*
X711100Y103812D02*
X709131D01*
X729308Y105781D02*
Y110210D01*
X709131Y103812D02*
Y105781D01*
X736985Y113655D02*
X731277D01*
X709131Y93674D02*
Y103812D01*
X711100Y93674D02*
Y98497D01*
Y103812D01*
X713068Y97813D02*
X712482Y98399D01*
X713068Y93674D02*
Y97813D01*
X712482Y98399D02*
X711198D01*
X711100Y98497D01*
X707163Y98891D02*
X705686Y100367D01*
Y100859D01*
X707163Y93674D02*
Y98891D01*
X705194Y93674D02*
Y99772D01*
X715037Y93674D02*
Y100859D01*
X736986Y113655D02*
X736985Y113655D01*
X699781Y109718D02*
X691119D01*
X700765Y108733D02*
X699781Y109718D01*
X696959Y117592D02*
X691119D01*
X700765Y106273D02*
Y108733D01*
X699781Y115623D02*
X691119D01*
X684431Y96430D02*
X685017Y97016D01*
X691119Y105781D02*
X683541D01*
X684431Y96430D02*
X682556D01*
X744564Y116644D02*
Y117006D01*
X743979Y117592D02*
X736986D01*
X744564Y117006D02*
X743979Y117592D01*
X715037Y126122D02*
Y139540D01*
X736986Y103812D02*
X729308D01*
X705780Y150962D02*
Y153025D01*
X709131Y147611D02*
X705780Y150962D01*
X709131Y139540D02*
Y147611D01*
X711931Y146780D02*
Y148443D01*
X711100Y145948D02*
X711931Y146780D01*
X711100Y139540D02*
Y145948D01*
X743088Y105781D02*
X736986D01*
X742596Y97907D02*
Y101022D01*
X742010Y101607D01*
X736986D01*
X584623Y75761D02*
Y76745D01*
X345450Y156784D02*
Y160407D01*
X346592Y155643D02*
X345450Y156784D01*
X356135Y155643D02*
X346592D01*
X356135Y140643D02*
X343759D01*
X338109Y134992D02*
X343759Y140643D01*
X291316Y103226D02*
X291902Y103812D01*
X289840Y105781D02*
X289582Y106038D01*
X291316Y97016D02*
Y103226D01*
X297419Y103812D02*
X291902D01*
X366119Y127036D02*
Y140057D01*
Y145057D01*
X366705Y145643D01*
X374135D02*
X366705D01*
X370056Y126450D02*
X366705D01*
X366119Y127036D01*
X374135Y140643D02*
X366705D01*
X366119Y140057D02*
X366705Y140643D01*
X310509Y103484D02*
Y115623D01*
X315430Y119015D02*
X304682D01*
X303258Y117592D02*
X304682Y119015D01*
X308632Y101607D02*
X297419D01*
X308632D02*
X310509Y103484D01*
X297419Y111686D02*
X290824D01*
X338265Y244855D02*
X338068Y245052D01*
X315430Y119015D02*
Y125466D01*
Y105781D02*
Y119015D01*
X321336Y126122D02*
X316087D01*
X315430Y125466D02*
X316087Y126122D01*
X309596Y145222D02*
X310017Y145643D01*
X305639Y139828D02*
Y143261D01*
X305352Y139540D02*
X305639Y139828D01*
X309596Y145222D02*
X307600D01*
X305639Y143261D02*
X307600Y145222D01*
X313462Y146627D02*
X311493Y148596D01*
X306572D01*
X313462Y139540D02*
Y146627D01*
X323305Y139540D02*
Y146135D01*
X330089Y134992D02*
X329327Y135754D01*
X338109Y134992D02*
X330089D01*
X329261Y136397D02*
Y139489D01*
X329210Y139540D01*
X329327Y135754D02*
Y136331D01*
X329261Y136397D01*
X343285Y121529D02*
X343285Y121529D01*
X351356D02*
X343285D01*
X335608Y105781D02*
X315430D01*
X335608Y103812D02*
Y105781D01*
X317399Y103812D02*
X315430D01*
X335608Y105781D02*
Y110210D01*
X315430Y103812D02*
Y105781D01*
X343285Y113655D02*
X337576D01*
X315430Y93674D02*
Y103812D01*
X317399Y93674D02*
Y98497D01*
Y103812D01*
X319368Y97813D02*
X318782Y98399D01*
X319368Y93674D02*
Y97813D01*
X318782Y98399D02*
X317497D01*
X317399Y98497D01*
X313462Y98891D02*
X311986Y100367D01*
Y100859D01*
X313462Y93674D02*
Y98891D01*
X311493Y93674D02*
Y99772D01*
X321336Y93674D02*
Y100859D01*
X343285Y113655D02*
X343285Y113655D01*
X306080Y109718D02*
X297419D01*
X307064Y108733D02*
X306080Y109718D01*
X303258Y117592D02*
X297419D01*
X307064Y106273D02*
Y108733D01*
X306080Y115623D02*
X297419D01*
X290731Y96430D02*
X291316Y97016D01*
X297419Y105781D02*
X289840D01*
X290731Y96430D02*
X288856D01*
X350864Y116644D02*
Y117006D01*
X350278Y117592D02*
X343285D01*
X350864Y117006D02*
X350278Y117592D01*
X321336Y126122D02*
Y139540D01*
X343285Y103812D02*
X335608D01*
X312079Y150962D02*
Y153025D01*
X315430Y147611D02*
X312079Y150962D01*
X315430Y139540D02*
Y147611D01*
X318230Y146780D02*
Y148443D01*
X317399Y145948D02*
X318230Y146780D01*
X317399Y139540D02*
Y145948D01*
X349387Y105781D02*
X343285D01*
X348895Y97907D02*
Y101022D01*
X348309Y101607D01*
X343285D01*
X190923Y75761D02*
Y76745D01*
D37*
X749836Y135643D02*
X735076D01*
X732576Y133142D02*
X735076Y135643D01*
X732576Y133142D02*
X722189D01*
X720942Y134389D01*
Y139540D01*
X356135Y135643D02*
X341376D01*
X338875Y133142D02*
X341376Y135643D01*
X338875Y133142D02*
X328488D01*
X327241Y134389D01*
Y139540D01*
D38*
X554111Y307975D02*
X557626Y311489D01*
X573235D02*
X557626D01*
X573235D02*
X576749Y315004D01*
X554111Y280032D02*
Y307975D01*
X576749Y315004D02*
Y323792D01*
X461592Y287375D02*
Y305781D01*
Y264315D02*
Y287375D01*
X474930Y290890D02*
Y306568D01*
X471416Y287375D02*
X474930Y290890D01*
X471416Y287375D02*
X461592D01*
X632852Y299974D02*
X632415Y300411D01*
X613167Y350859D02*
X609230D01*
X634328D02*
X613167D01*
X530931Y267012D02*
Y306568D01*
X634328Y310505D02*
Y324285D01*
Y301450D02*
Y310505D01*
X615697D01*
X632852Y299974D02*
X634328Y301450D01*
X611198Y315004D02*
Y323792D01*
X576749D01*
Y360367D01*
X536395Y223399D02*
Y237670D01*
Y216509D02*
Y223399D01*
Y244560D02*
Y263497D01*
Y237670D02*
Y244560D01*
X508836Y215525D02*
Y230289D01*
Y237178D01*
X489446Y215525D02*
X489643Y215722D01*
Y230781D01*
Y237670D01*
X552143Y181076D02*
X546307D01*
X542793Y184591D01*
Y188458D01*
X615697Y310505D02*
X611198Y315004D01*
X576749Y360367D02*
X576415Y360702D01*
X559486Y249028D02*
X554950Y253564D01*
Y266025D01*
X559486Y236923D02*
Y249028D01*
X554950Y266025D02*
X553619Y267355D01*
X559033Y234678D02*
Y236470D01*
X559486Y236923D01*
Y231212D02*
Y234678D01*
X534445Y263497D02*
X530931Y267012D01*
X536395Y263497D02*
X534445D01*
X659033Y281371D02*
X636859D01*
X634820Y249481D02*
Y264442D01*
X633344Y277856D02*
X636859Y281371D01*
X633344Y269363D02*
Y277856D01*
X632852Y268871D02*
X633344Y269363D01*
X661887Y278517D02*
X659033Y281371D01*
X673698Y277926D02*
Y278367D01*
X673549Y278517D01*
X614151Y217985D02*
X613614D01*
X542793Y188458D02*
X484722D01*
X634328Y217985D02*
X613614D01*
X548049Y27040D02*
X549160Y28152D01*
Y41844D01*
X550105Y42788D01*
X590951D02*
X550105D01*
X594466Y30977D02*
Y39274D01*
X590951Y42788D01*
X594466Y17268D02*
Y30977D01*
X597981Y13753D02*
X594466Y17268D01*
X645577Y13753D02*
X597981D01*
X645577D02*
X649092Y17268D01*
Y29922D01*
X544691Y48202D02*
X493088D01*
X550105Y42788D02*
X544691Y48202D01*
X481769Y49678D02*
X478324D01*
X493088Y48202D02*
X489643D01*
X456671Y177190D02*
X437427D01*
X473454D02*
X456671D01*
X456375Y177485D02*
Y215525D01*
X456671Y177190D02*
X456375Y177485D01*
X455124Y257847D02*
X461592Y264315D01*
X455124Y257847D02*
X434033D01*
Y267847D02*
X418847D01*
X415332Y199285D02*
Y264333D01*
X418847Y267847D01*
X437427Y177190D02*
X415332Y199285D01*
X535411Y215525D02*
X536395Y216509D01*
X433541Y233733D02*
Y247355D01*
X434033Y247848D01*
X435509Y231765D02*
X433541Y233733D01*
X435509Y219533D02*
Y231765D01*
X473454Y177190D02*
X484722Y188458D01*
X473454Y126450D02*
Y177190D01*
X508836Y215525D02*
X489446D01*
X673549Y278517D02*
X661887D01*
X478324Y49678D02*
X417793D01*
Y75480D01*
X621041Y30977D02*
Y38359D01*
Y41804D01*
X461592Y330682D02*
Y334619D01*
Y323103D02*
Y330682D01*
X521139Y118135D02*
X529454Y126450D01*
X521139Y93848D02*
Y118135D01*
X514529Y87237D02*
X521139Y93848D01*
X514529Y87237D02*
X434525D01*
Y77237D02*
X419550D01*
X417793Y75480D02*
X419550Y77237D01*
X434525Y87237D02*
X419831D01*
X434525Y146135D02*
X419831D01*
X416316Y90752D02*
Y142620D01*
X419831Y146135D01*
Y87237D02*
X416316Y90752D01*
X160411Y307975D02*
X163926Y311489D01*
X179534D02*
X163926D01*
X179534D02*
X183049Y315004D01*
X160411Y280032D02*
Y307975D01*
X183049Y315004D02*
Y323792D01*
X67891Y287375D02*
Y305781D01*
Y264315D02*
Y287375D01*
X81230Y290890D02*
Y306568D01*
X77715Y287375D02*
X81230Y290890D01*
X77715Y287375D02*
X67891D01*
X239151Y299974D02*
X238714Y300411D01*
X219466Y350859D02*
X215529D01*
X240627D02*
X219466D01*
X137230Y267012D02*
Y306568D01*
X240627Y310505D02*
Y324285D01*
Y301450D02*
Y310505D01*
X221996D01*
X239151Y299974D02*
X240627Y301450D01*
X217497Y315004D02*
Y323792D01*
X183049D01*
Y360367D01*
X142694Y223399D02*
Y237670D01*
Y216509D02*
Y223399D01*
Y244560D02*
Y263497D01*
Y237670D02*
Y244560D01*
X115135Y215525D02*
Y230289D01*
Y237178D01*
X95745Y215525D02*
X95942Y215722D01*
Y230781D01*
Y237670D01*
X158442Y181076D02*
X152607D01*
X149092Y184591D01*
Y188458D01*
X221996Y310505D02*
X217497Y315004D01*
X183049Y360367D02*
X182714Y360702D01*
X165786Y249028D02*
X161249Y253564D01*
Y266025D01*
X165786Y236923D02*
Y249028D01*
X161249Y266025D02*
X159919Y267355D01*
X165332Y234678D02*
Y236470D01*
X165786Y236923D01*
Y231212D02*
Y234678D01*
X140744Y263497D02*
X137230Y267012D01*
X142694Y263497D02*
X140744D01*
X265332Y281371D02*
X243158D01*
X241119Y249481D02*
Y264442D01*
X239643Y277856D02*
X243158Y281371D01*
X239643Y269363D02*
Y277856D01*
X239151Y268871D02*
X239643Y269363D01*
X268186Y278517D02*
X265332Y281371D01*
X279997Y277926D02*
Y278367D01*
X279848Y278517D01*
X220450Y217985D02*
X219913D01*
X149092Y188458D02*
X91021D01*
X240627Y217985D02*
X219913D01*
X154348Y27040D02*
X155460Y28152D01*
Y41844D01*
X156404Y42788D01*
X197250D02*
X156404D01*
X200765Y30977D02*
Y39274D01*
X197250Y42788D01*
X200765Y17268D02*
Y30977D01*
X204280Y13753D02*
X200765Y17268D01*
X251876Y13753D02*
X204280D01*
X251876D02*
X255391Y17268D01*
Y29922D01*
X150990Y48202D02*
X99387D01*
X156404Y42788D02*
X150990Y48202D01*
X88068Y49678D02*
X84623D01*
X99387Y48202D02*
X95942D01*
X62970Y177190D02*
X43726D01*
X79753D02*
X62970D01*
X62674Y177485D02*
Y215525D01*
X62970Y177190D02*
X62674Y177485D01*
X61424Y257847D02*
X67891Y264315D01*
X61424Y257847D02*
X40332D01*
Y267847D02*
X25146D01*
X21631Y199285D02*
Y264333D01*
X25146Y267847D01*
X43726Y177190D02*
X21631Y199285D01*
X141710Y215525D02*
X142694Y216509D01*
X39840Y233733D02*
Y247355D01*
X40332Y247848D01*
X41808Y231765D02*
X39840Y233733D01*
X41808Y219533D02*
Y231765D01*
X79753Y177190D02*
X91021Y188458D01*
X79753Y126450D02*
Y177190D01*
X115135Y215525D02*
X95745D01*
X279848Y278517D02*
X268186D01*
X84623Y49678D02*
X24092D01*
Y75480D01*
X227340Y30977D02*
Y38359D01*
Y41804D01*
X67891Y330682D02*
Y334619D01*
Y323103D02*
Y330682D01*
X127438Y118135D02*
X135753Y126450D01*
X127438Y93848D02*
Y118135D01*
X120828Y87237D02*
X127438Y93848D01*
X120828Y87237D02*
X40824D01*
Y77237D02*
X25849D01*
X24092Y75480D02*
X25849Y77237D01*
X40824Y87237D02*
X26130D01*
X40824Y146135D02*
X26130D01*
X22615Y90752D02*
Y142620D01*
X26130Y146135D01*
Y87237D02*
X22615Y90752D01*
D39*
X709623Y309029D02*
X634328D01*
X315923D02*
X240627D01*
D40*
X575765Y245732D02*
Y252434D01*
X571828Y256371D01*
X587576Y266777D02*
X580874D01*
X579702Y240850D02*
Y265229D01*
X579702Y265605D02*
X580874Y266777D01*
X577734Y225367D02*
Y230289D01*
X578531Y239678D02*
X579702Y240850D01*
X634328Y245052D02*
X634328Y245052D01*
X609230D01*
X608245Y132284D02*
Y150564D01*
X624978Y149580D02*
Y159351D01*
X634820Y149580D02*
Y157159D01*
X644663Y159352D02*
X644663Y159352D01*
X644663Y149580D02*
Y159352D01*
X628915Y102828D02*
Y123192D01*
X624978Y127129D01*
Y120357D02*
X623806Y121529D01*
X624978Y94580D02*
Y120357D01*
X642163Y89580D02*
X628915Y102828D01*
X623806Y121529D02*
X617291D01*
X624978Y127129D02*
Y132284D01*
X617291Y121529D02*
X615627Y123192D01*
X624978Y86585D02*
Y94580D01*
X626149Y85413D02*
X624978Y86585D01*
X630391Y85413D02*
X626149D01*
X636224Y79580D02*
X630391Y85413D01*
X624978Y94580D02*
X618186D01*
X573305Y95938D02*
Y107186D01*
X608738Y90033D02*
Y103408D01*
X609909Y104580D01*
X618186D02*
X609909D01*
X582163Y104304D02*
Y107355D01*
Y116017D02*
Y120052D01*
X753235Y58536D02*
X754407Y59708D01*
X753235Y58536D02*
X646139D01*
X521139Y25072D02*
X502438D01*
X501946Y24580D02*
X502438Y25072D01*
X681080Y92493D02*
X664348D01*
X723895Y86588D02*
X686986D01*
X681080Y92493D01*
X752509Y237178D02*
X746228D01*
X478324Y9671D02*
X474056D01*
X473403Y10325D02*
Y15229D01*
X474056Y9671D02*
X473403Y10325D01*
X482356Y9671D02*
X478324D01*
X482356D02*
X483025Y10340D01*
Y14359D01*
X478324Y9671D02*
Y14422D01*
X483025Y14359D02*
X483206Y14540D01*
X493206D02*
Y17592D01*
X496216Y20601D01*
X501946Y22736D02*
Y24580D01*
X499812Y20601D02*
X496216D01*
X488206Y6371D02*
Y14540D01*
X499812Y20601D02*
X501946Y22736D01*
X478324Y14422D02*
X478206Y14540D01*
X465037Y18603D02*
Y18803D01*
X472419Y22916D02*
X469149D01*
X465037Y18803D02*
X469149Y22916D01*
X566415Y281470D02*
Y290257D01*
X574593Y244560D02*
X570667D01*
X574593D02*
X575765Y245732D01*
X570667Y244560D02*
X570549Y244678D01*
X578531Y239678D02*
X570549D01*
X577546Y230289D02*
X577734Y230476D01*
Y230289D02*
X577546D01*
X576936Y229678D02*
X577546Y230289D01*
X576936Y229678D02*
X570549D01*
X577734Y230476D02*
Y233507D01*
X576562Y234678D01*
X570549D01*
X472419Y22916D02*
X474575Y25072D01*
X501454D02*
X474575D01*
X501946Y24580D02*
X501454Y25072D01*
X739446Y237375D02*
Y244855D01*
X739643Y245052D01*
X731966Y237375D02*
Y244855D01*
X745056Y228507D02*
Y236007D01*
X746228Y237178D01*
X743885Y227336D02*
X735706D01*
X743885D02*
X745056Y228507D01*
X731277Y113655D02*
X723895D01*
X661887Y84580D02*
X656375D01*
X647123Y99383D02*
X647222Y99481D01*
X656277D02*
X656375Y99580D01*
X656277Y99481D02*
X647222D01*
X754407Y59708D02*
Y94766D01*
X638757Y22611D02*
Y29922D01*
X658934Y23291D02*
Y29922D01*
X663856Y22119D02*
X660106D01*
X658934Y23291D01*
X667605Y22119D02*
X668777Y23291D01*
Y27729D01*
X667605Y22119D02*
X663856D01*
X668777Y27729D02*
X668777Y27729D01*
X626946Y64934D02*
Y73408D01*
X625775Y74580D01*
X618186D01*
X615627Y123192D02*
Y132284D01*
X618186Y74580D02*
X610903D01*
X610706Y74777D01*
X646139Y94580D02*
X642576D01*
X656375D02*
X646139D01*
X656375Y89580D02*
X642163D01*
X642576Y94580D02*
X634820Y102336D01*
Y132284D01*
X618186Y99580D02*
X612334D01*
X612138Y99383D02*
X612334Y99580D01*
X754407Y94766D02*
X755578Y95938D01*
X766710D02*
X755578D01*
X656375Y79580D02*
X636224D01*
X182064Y245732D02*
Y252434D01*
X178127Y256371D01*
X193875Y266777D02*
X187173D01*
X186001Y240850D02*
Y265229D01*
X186001Y265605D02*
X187173Y266777D01*
X184033Y225367D02*
Y230289D01*
X184830Y239678D02*
X186001Y240850D01*
X240627Y245052D02*
X240627Y245052D01*
X215529D01*
X214545Y132284D02*
Y150564D01*
X231277Y149580D02*
Y159351D01*
X241119Y149580D02*
Y157159D01*
X250962Y159352D02*
X250962Y159352D01*
X250962Y149580D02*
Y159352D01*
X235214Y102828D02*
Y123192D01*
X231277Y127129D01*
Y120357D02*
X230105Y121529D01*
X231277Y94580D02*
Y120357D01*
X248462Y89580D02*
X235214Y102828D01*
X230105Y121529D02*
X223590D01*
X231277Y127129D02*
Y132284D01*
X223590Y121529D02*
X221926Y123192D01*
X231277Y86585D02*
Y94580D01*
X232449Y85413D02*
X231277Y86585D01*
X236690Y85413D02*
X232449D01*
X242524Y79580D02*
X236690Y85413D01*
X231277Y94580D02*
X224486D01*
X179604Y95938D02*
Y107186D01*
X215037Y90033D02*
Y103408D01*
X216208Y104580D01*
X224486D02*
X216208D01*
X188462Y104304D02*
Y107355D01*
Y116017D02*
Y120052D01*
X359534Y58536D02*
X360706Y59708D01*
X359534Y58536D02*
X252438D01*
X127438Y25072D02*
X108738D01*
X108245Y24580D02*
X108738Y25072D01*
X287379Y92493D02*
X270647D01*
X330194Y86588D02*
X293285D01*
X287379Y92493D01*
X358808Y237178D02*
X352527D01*
X84623Y9671D02*
X80356D01*
X79702Y10325D02*
Y15229D01*
X80356Y9671D02*
X79702Y10325D01*
X88655Y9671D02*
X84623D01*
X88655D02*
X89324Y10340D01*
Y14359D01*
X84623Y9671D02*
Y14422D01*
X89324Y14359D02*
X89505Y14540D01*
X99505D02*
Y17592D01*
X102515Y20601D01*
X108245Y22736D02*
Y24580D01*
X106111Y20601D02*
X102515D01*
X94505Y6371D02*
Y14540D01*
X106111Y20601D02*
X108245Y22736D01*
X84623Y14422D02*
X84505Y14540D01*
X71336Y18603D02*
Y18803D01*
X78718Y22916D02*
X75449D01*
X71336Y18803D02*
X75449Y22916D01*
X172714Y281470D02*
Y290257D01*
X180893Y244560D02*
X176966D01*
X180893D02*
X182064Y245732D01*
X176966Y244560D02*
X176848Y244678D01*
X184830Y239678D02*
X176848D01*
X183845Y230289D02*
X184033Y230476D01*
Y230289D02*
X183845D01*
X183235Y229678D02*
X183845Y230289D01*
X183235Y229678D02*
X176848D01*
X184033Y230476D02*
Y233507D01*
X182861Y234678D01*
X176848D01*
X78718Y22916D02*
X80874Y25072D01*
X107753D02*
X80874D01*
X108245Y24580D02*
X107753Y25072D01*
X345745Y237375D02*
Y244855D01*
X345942Y245052D01*
X338265Y237375D02*
Y244855D01*
X351356Y228507D02*
Y236007D01*
X352527Y237178D01*
X350184Y227336D02*
X342005D01*
X350184D02*
X351356Y228507D01*
X337576Y113655D02*
X330194D01*
X268186Y84580D02*
X262674D01*
X253423Y99383D02*
X253521Y99481D01*
X262576D02*
X262674Y99580D01*
X262576Y99481D02*
X253521D01*
X360706Y59708D02*
Y94766D01*
X245056Y22611D02*
Y29922D01*
X265234Y23291D02*
Y29922D01*
X270155Y22119D02*
X266405D01*
X265234Y23291D01*
X273904Y22119D02*
X275076Y23291D01*
Y27729D01*
X273904Y22119D02*
X270155D01*
X275076Y27729D02*
X275076Y27729D01*
X233245Y64934D02*
Y73408D01*
X232074Y74580D01*
X224486D01*
X221926Y123192D02*
Y132284D01*
X224486Y74580D02*
X217202D01*
X217005Y74777D01*
X252438Y94580D02*
X248875D01*
X262674D02*
X252438D01*
X262674Y89580D02*
X248462D01*
X248875Y94580D02*
X241119Y102336D01*
Y132284D01*
X224486Y99580D02*
X218634D01*
X218437Y99383D02*
X218634Y99580D01*
X360706Y94766D02*
X361878Y95938D01*
X373009D02*
X361878D01*
X262674Y79580D02*
X242524D01*
D41*
X559033Y234678D02*
X551454D01*
X558022Y229747D02*
X551523D01*
X558022D02*
X559486Y231212D01*
X551454Y229678D02*
X551523Y229747D01*
X165332Y234678D02*
X157753D01*
X164321Y229747D02*
X157822D01*
X164321D02*
X165786Y231212D01*
X157753Y229678D02*
X157822Y229747D01*
D42*
X584623Y71725D02*
Y75761D01*
Y58536D02*
Y63064D01*
X190923Y71725D02*
Y75761D01*
Y58536D02*
Y63064D01*
D43*
X745835Y-14764D02*
D03*
X19685D02*
D03*
D44*
X529454Y126450D02*
D03*
X473454D02*
D03*
X530931Y306568D02*
D03*
X474930D02*
D03*
X135753Y126450D02*
D03*
X79753D02*
D03*
X137230Y306568D02*
D03*
X81230D02*
D03*
D45*
X771631Y352828D02*
D03*
X424190D02*
D03*
Y16214D02*
D03*
X771631D02*
D03*
X377930Y352828D02*
D03*
X30490D02*
D03*
Y16214D02*
D03*
X377930D02*
D03*
D46*
X709623Y254403D02*
D03*
Y309029D02*
D03*
X315923Y254403D02*
D03*
Y309029D02*
D03*
D47*
X709623Y280977D02*
D03*
X315923D02*
D03*
D48*
X690430Y78221D02*
D03*
X750962Y253910D02*
D03*
X296730Y78221D02*
D03*
X357261Y253910D02*
D03*
D49*
X556415Y360702D02*
D03*
X576415D02*
D03*
X568049Y27040D02*
D03*
X548049D02*
D03*
X162714Y360702D02*
D03*
X182714D02*
D03*
X174348Y27040D02*
D03*
X154348D02*
D03*
D50*
X766218Y85938D02*
D03*
X372517D02*
D03*
D51*
X766218Y105938D02*
D03*
Y95938D02*
D03*
X372517Y105938D02*
D03*
Y95938D02*
D03*
D52*
X755391Y183123D02*
D03*
X361690D02*
D03*
D53*
X755391Y173123D02*
D03*
X361690D02*
D03*
D54*
X434033Y247848D02*
D03*
Y257847D02*
D03*
Y267847D02*
D03*
X434525Y67237D02*
D03*
Y77237D02*
D03*
Y87237D02*
D03*
Y136135D02*
D03*
Y146135D02*
D03*
Y156135D02*
D03*
X40332Y247848D02*
D03*
Y257847D02*
D03*
Y267847D02*
D03*
X40824Y67237D02*
D03*
Y77237D02*
D03*
Y87237D02*
D03*
Y136135D02*
D03*
Y146135D02*
D03*
Y156135D02*
D03*
D55*
X681572Y302631D02*
D03*
X725864Y193379D02*
D03*
X717497Y208635D02*
D03*
X745056Y197316D02*
D03*
X613167Y350859D02*
D03*
X609230D02*
D03*
X601356Y279993D02*
D03*
X593974Y279501D02*
D03*
X508836Y230289D02*
D03*
Y237178D02*
D03*
X489643Y230781D02*
D03*
Y237670D02*
D03*
X555096Y210603D02*
D03*
X592005D02*
D03*
X661887Y206174D02*
D03*
X685509Y195840D02*
D03*
X571828Y256371D02*
D03*
X587576Y279501D02*
D03*
X577734Y279009D02*
D03*
X559525Y299186D02*
D03*
X583676Y195347D02*
D03*
X577734Y225367D02*
D03*
X587576Y249481D02*
D03*
X685509Y212572D02*
D03*
X700694Y221851D02*
D03*
X717497Y236686D02*
D03*
X673698Y215353D02*
D03*
X595905Y242099D02*
D03*
X609230Y245052D02*
D03*
X655489Y190918D02*
D03*
X598895Y185505D02*
D03*
X662871Y157946D02*
D03*
X608245Y150564D02*
D03*
X624978Y149580D02*
D03*
X634820D02*
D03*
X644663D02*
D03*
X679111Y79206D02*
D03*
X670745Y64442D02*
D03*
X654997Y157946D02*
D03*
X613614Y217985D02*
D03*
X704210Y115623D02*
D03*
X552635Y123497D02*
D03*
X573305Y95938D02*
D03*
X608738Y90033D02*
D03*
X582163Y101844D02*
D03*
X556080Y164836D02*
D03*
X556572Y71824D02*
D03*
X563462Y98399D02*
D03*
X607753Y58044D02*
D03*
Y79698D02*
D03*
X670745Y52139D02*
D03*
X646139Y58536D02*
D03*
X700273Y54107D02*
D03*
X521139Y25072D02*
D03*
X760312Y237178D02*
D03*
X473403Y15229D02*
D03*
X455194Y37375D02*
D03*
X465037D02*
D03*
X731769Y245052D02*
D03*
X725371Y230781D02*
D03*
X436001Y198792D02*
D03*
X467989D02*
D03*
X598895Y219954D02*
D03*
X615627Y148596D02*
D03*
X731769Y154993D02*
D03*
X703718Y145643D02*
D03*
X724879Y158438D02*
D03*
X717005Y146135D02*
D03*
X745056Y121529D02*
D03*
X729308Y110210D02*
D03*
X723895Y86588D02*
D03*
X705686Y100859D02*
D03*
X715037D02*
D03*
X723895Y113655D02*
D03*
X699781Y115623D02*
D03*
X700765Y106273D02*
D03*
X679111Y101351D02*
D03*
X647123Y99383D02*
D03*
X638757Y22611D02*
D03*
X663856Y22119D02*
D03*
X682064Y123989D02*
D03*
X646139Y94580D02*
D03*
X763757Y126450D02*
D03*
X741611Y166312D02*
D03*
X612138Y99383D02*
D03*
X736690Y49678D02*
D03*
X621041Y38359D02*
D03*
Y41804D02*
D03*
X461592Y330682D02*
D03*
Y334619D02*
D03*
X748501Y70347D02*
D03*
X717989Y62966D02*
D03*
X736690Y23596D02*
D03*
X726848D02*
D03*
X717005D02*
D03*
X707163Y22611D02*
D03*
X697320Y22119D02*
D03*
X449289Y96430D02*
D03*
Y58044D02*
D03*
X287871Y302631D02*
D03*
X332163Y193379D02*
D03*
X323797Y208635D02*
D03*
X351356Y197316D02*
D03*
X219466Y350859D02*
D03*
X215529D02*
D03*
X207655Y279993D02*
D03*
X200273Y279501D02*
D03*
X115135Y230289D02*
D03*
Y237178D02*
D03*
X95942Y230781D02*
D03*
Y237670D02*
D03*
X161395Y210603D02*
D03*
X198304D02*
D03*
X268186Y206174D02*
D03*
X291808Y195840D02*
D03*
X178127Y256371D02*
D03*
X193875Y279501D02*
D03*
X184033Y279009D02*
D03*
X165824Y299186D02*
D03*
X189975Y195347D02*
D03*
X184033Y225367D02*
D03*
X193875Y249481D02*
D03*
X291808Y212572D02*
D03*
X306993Y221851D02*
D03*
X323797Y236686D02*
D03*
X279997Y215353D02*
D03*
X202204Y242099D02*
D03*
X215529Y245052D02*
D03*
X261789Y190918D02*
D03*
X205194Y185505D02*
D03*
X269171Y157946D02*
D03*
X214545Y150564D02*
D03*
X231277Y149580D02*
D03*
X241119D02*
D03*
X250962D02*
D03*
X285411Y79206D02*
D03*
X277045Y64442D02*
D03*
X261297Y157946D02*
D03*
X219913Y217985D02*
D03*
X310509Y115623D02*
D03*
X158934Y123497D02*
D03*
X179604Y95938D02*
D03*
X215037Y90033D02*
D03*
X188462Y101844D02*
D03*
X162379Y164836D02*
D03*
X162871Y71824D02*
D03*
X169761Y98399D02*
D03*
X214053Y58044D02*
D03*
Y79698D02*
D03*
X277045Y52139D02*
D03*
X252438Y58536D02*
D03*
X306572Y54107D02*
D03*
X127438Y25072D02*
D03*
X366612Y237178D02*
D03*
X79702Y15229D02*
D03*
X61493Y37375D02*
D03*
X71336D02*
D03*
X338068Y245052D02*
D03*
X331671Y230781D02*
D03*
X42301Y198792D02*
D03*
X74289D02*
D03*
X205194Y219954D02*
D03*
X221926Y148596D02*
D03*
X338068Y154993D02*
D03*
X310017Y145643D02*
D03*
X331178Y158438D02*
D03*
X323305Y146135D02*
D03*
X351356Y121529D02*
D03*
X335608Y110210D02*
D03*
X330194Y86588D02*
D03*
X311986Y100859D02*
D03*
X321336D02*
D03*
X330194Y113655D02*
D03*
X306080Y115623D02*
D03*
X307064Y106273D02*
D03*
X285411Y101351D02*
D03*
X253423Y99383D02*
D03*
X245056Y22611D02*
D03*
X270155Y22119D02*
D03*
X288364Y123989D02*
D03*
X252438Y94580D02*
D03*
X370056Y126450D02*
D03*
X347911Y166312D02*
D03*
X218437Y99383D02*
D03*
X342989Y49678D02*
D03*
X227340Y38359D02*
D03*
Y41804D02*
D03*
X67891Y330682D02*
D03*
Y334619D02*
D03*
X354801Y70347D02*
D03*
X324289Y62966D02*
D03*
X342989Y23596D02*
D03*
X333147D02*
D03*
X323305D02*
D03*
X313462Y22611D02*
D03*
X303619Y22119D02*
D03*
X55588Y96430D02*
D03*
Y58044D02*
D03*
M02*
