G04*
G04 #@! TF.GenerationSoftware,Altium Limited,Altium Designer,23.3.1 (30)*
G04*
G04 Layer_Color=65535*
%FSLAX25Y25*%
%MOIN*%
G70*
G04*
G04 #@! TF.SameCoordinates,731DBA42-33AF-4731-BD85-8EC7A1DC1BC3*
G04*
G04*
G04 #@! TF.FilePolarity,Positive*
G04*
G01*
G75*
%ADD35C,0.03000*%
%ADD36C,0.01000*%
%ADD57C,0.00984*%
%ADD58C,0.02362*%
%ADD59C,0.00500*%
%ADD60C,0.00787*%
%ADD61C,0.00800*%
%ADD62C,0.00394*%
%ADD63R,0.31496X0.59055*%
G36*
X427033Y234603D02*
X420096D01*
Y281848D01*
X427033D01*
Y234603D01*
D02*
G37*
G36*
X33332D02*
X26395D01*
Y281848D01*
X33332D01*
Y234603D01*
D02*
G37*
G36*
X427525Y122891D02*
X420588D01*
Y170135D01*
X427525D01*
Y122891D01*
D02*
G37*
G36*
X33824D02*
X26887D01*
Y170135D01*
X33824D01*
Y122891D01*
D02*
G37*
G36*
X427525Y53993D02*
X420588D01*
Y101237D01*
X427525D01*
Y53993D01*
D02*
G37*
G36*
X33824D02*
X26887D01*
Y101237D01*
X33824D01*
Y53993D01*
D02*
G37*
D35*
X402492Y254842D02*
X400918Y253267D01*
Y250119D01*
X402492Y248544D01*
X408789D01*
X410363Y250119D01*
Y253267D01*
X408789Y254842D01*
X410363Y257990D02*
X404066D01*
X400918Y261139D01*
X404066Y264287D01*
X410363D01*
X405641D01*
Y257990D01*
X402492Y273733D02*
X400918Y272159D01*
Y269010D01*
X402492Y267436D01*
X404066D01*
X405641Y269010D01*
Y272159D01*
X407215Y273733D01*
X408789D01*
X410363Y272159D01*
Y269010D01*
X408789Y267436D01*
X400918Y276882D02*
Y280030D01*
Y278456D01*
X410363D01*
Y276882D01*
Y280030D01*
Y284753D02*
X400918D01*
X410363Y291050D01*
X400918D01*
X402492Y300496D02*
X400918Y298922D01*
Y295773D01*
X402492Y294199D01*
X408789D01*
X410363Y295773D01*
Y298922D01*
X408789Y300496D01*
X405641D01*
Y297347D01*
X410363Y313090D02*
Y316239D01*
Y314665D01*
X400918D01*
X402492Y313090D01*
X400918Y327259D02*
Y320962D01*
X405641D01*
X404066Y324111D01*
Y325685D01*
X405641Y327259D01*
X408789D01*
X410363Y325685D01*
Y322536D01*
X408789Y320962D01*
X400918Y336705D02*
Y330408D01*
X405641D01*
X404066Y333556D01*
Y335131D01*
X405641Y336705D01*
X408789D01*
X410363Y335131D01*
Y331982D01*
X408789Y330408D01*
X400918Y346151D02*
Y339854D01*
X405641D01*
X404066Y343002D01*
Y344576D01*
X405641Y346151D01*
X408789D01*
X410363Y344576D01*
Y341428D01*
X408789Y339854D01*
X402492Y355596D02*
X400918Y354022D01*
Y350873D01*
X402492Y349299D01*
X404066D01*
X405641Y350873D01*
Y354022D01*
X407215Y355596D01*
X408789D01*
X410363Y354022D01*
Y350873D01*
X408789Y349299D01*
X402492Y365042D02*
X400918Y363468D01*
Y360319D01*
X402492Y358745D01*
X408789D01*
X410363Y360319D01*
Y363468D01*
X408789Y365042D01*
X405641D01*
Y361894D01*
X400918Y368191D02*
X402492D01*
X405641Y371339D01*
X402492Y374488D01*
X400918D01*
X405641Y371339D02*
X410363D01*
X399441Y15277D02*
X407313D01*
X408887Y16851D01*
Y19999D01*
X407313Y21574D01*
X399441D01*
Y24722D02*
Y31020D01*
Y27871D01*
X408887D01*
Y34168D02*
X399441D01*
X408887Y40465D01*
X399441D01*
X408887Y43614D02*
X407313D01*
Y45188D01*
X408887D01*
Y43614D01*
X399441Y57783D02*
Y51485D01*
X404164D01*
Y54634D01*
Y51485D01*
X408887D01*
Y60931D02*
X399441D01*
Y65654D01*
X401016Y67228D01*
X404164D01*
X405738Y65654D01*
Y60931D01*
Y64080D02*
X408887Y67228D01*
X399441Y70377D02*
X408887D01*
Y75100D01*
X407313Y76674D01*
X405738D01*
X404164Y75100D01*
Y70377D01*
Y75100D01*
X402590Y76674D01*
X401016D01*
X399441Y75100D01*
Y70377D01*
X408887Y79823D02*
X402590D01*
X399441Y82971D01*
X402590Y86120D01*
X408887D01*
X404164D01*
Y79823D01*
Y98714D02*
Y105011D01*
X408887Y117606D02*
X399441D01*
X402590Y120754D01*
X399441Y123903D01*
X408887D01*
Y127052D02*
X399441D01*
Y131774D01*
X401016Y133349D01*
X404164D01*
X405738Y131774D01*
Y127052D01*
X399441Y136497D02*
Y142795D01*
Y139646D01*
X408887D01*
X399441Y145943D02*
Y152240D01*
Y149092D01*
X408887D01*
X404164Y164835D02*
Y171132D01*
X401016Y190023D02*
X399441Y188449D01*
Y185301D01*
X401016Y183726D01*
X402590D01*
X404164Y185301D01*
Y188449D01*
X405738Y190023D01*
X407313D01*
X408887Y188449D01*
Y185301D01*
X407313Y183726D01*
X399441Y197895D02*
Y194746D01*
X401016Y193172D01*
X407313D01*
X408887Y194746D01*
Y197895D01*
X407313Y199469D01*
X401016D01*
X399441Y197895D01*
Y202618D02*
X408887D01*
Y207341D01*
X407313Y208915D01*
X405738D01*
X404164Y207341D01*
Y202618D01*
Y207341D01*
X402590Y208915D01*
X401016D01*
X399441Y207341D01*
Y202618D01*
X408887Y212064D02*
X399441D01*
Y216786D01*
X401016Y218361D01*
X404164D01*
X405738Y216786D01*
Y212064D01*
Y215212D02*
X408887Y218361D01*
Y221509D02*
X402590D01*
X399441Y224658D01*
X402590Y227806D01*
X408887D01*
X404164D01*
Y221509D01*
X399441Y230955D02*
X408887D01*
Y237252D01*
X8791Y254842D02*
X7217Y253267D01*
Y250119D01*
X8791Y248544D01*
X15088D01*
X16663Y250119D01*
Y253267D01*
X15088Y254842D01*
X16663Y257990D02*
X10366D01*
X7217Y261139D01*
X10366Y264287D01*
X16663D01*
X11940D01*
Y257990D01*
X8791Y273733D02*
X7217Y272159D01*
Y269010D01*
X8791Y267436D01*
X10366D01*
X11940Y269010D01*
Y272159D01*
X13514Y273733D01*
X15088D01*
X16663Y272159D01*
Y269010D01*
X15088Y267436D01*
X7217Y276882D02*
Y280030D01*
Y278456D01*
X16663D01*
Y276882D01*
Y280030D01*
Y284753D02*
X7217D01*
X16663Y291050D01*
X7217D01*
X8791Y300496D02*
X7217Y298922D01*
Y295773D01*
X8791Y294199D01*
X15088D01*
X16663Y295773D01*
Y298922D01*
X15088Y300496D01*
X11940D01*
Y297347D01*
X16663Y313090D02*
Y316239D01*
Y314665D01*
X7217D01*
X8791Y313090D01*
X7217Y327259D02*
Y320962D01*
X11940D01*
X10366Y324111D01*
Y325685D01*
X11940Y327259D01*
X15088D01*
X16663Y325685D01*
Y322536D01*
X15088Y320962D01*
X7217Y336705D02*
Y330408D01*
X11940D01*
X10366Y333556D01*
Y335131D01*
X11940Y336705D01*
X15088D01*
X16663Y335131D01*
Y331982D01*
X15088Y330408D01*
X7217Y346151D02*
Y339854D01*
X11940D01*
X10366Y343002D01*
Y344576D01*
X11940Y346151D01*
X15088D01*
X16663Y344576D01*
Y341428D01*
X15088Y339854D01*
X8791Y355596D02*
X7217Y354022D01*
Y350873D01*
X8791Y349299D01*
X10366D01*
X11940Y350873D01*
Y354022D01*
X13514Y355596D01*
X15088D01*
X16663Y354022D01*
Y350873D01*
X15088Y349299D01*
X8791Y365042D02*
X7217Y363468D01*
Y360319D01*
X8791Y358745D01*
X15088D01*
X16663Y360319D01*
Y363468D01*
X15088Y365042D01*
X11940D01*
Y361894D01*
X7217Y368191D02*
X8791D01*
X11940Y371339D01*
X8791Y374488D01*
X7217D01*
X11940Y371339D02*
X16663D01*
X5741Y15277D02*
X13612D01*
X15186Y16851D01*
Y19999D01*
X13612Y21574D01*
X5741D01*
Y24722D02*
Y31020D01*
Y27871D01*
X15186D01*
Y34168D02*
X5741D01*
X15186Y40465D01*
X5741D01*
X15186Y43614D02*
X13612D01*
Y45188D01*
X15186D01*
Y43614D01*
X5741Y57783D02*
Y51485D01*
X10464D01*
Y54634D01*
Y51485D01*
X15186D01*
Y60931D02*
X5741D01*
Y65654D01*
X7315Y67228D01*
X10464D01*
X12038Y65654D01*
Y60931D01*
Y64080D02*
X15186Y67228D01*
X5741Y70377D02*
X15186D01*
Y75100D01*
X13612Y76674D01*
X12038D01*
X10464Y75100D01*
Y70377D01*
Y75100D01*
X8889Y76674D01*
X7315D01*
X5741Y75100D01*
Y70377D01*
X15186Y79823D02*
X8889D01*
X5741Y82971D01*
X8889Y86120D01*
X15186D01*
X10464D01*
Y79823D01*
Y98714D02*
Y105011D01*
X15186Y117606D02*
X5741D01*
X8889Y120754D01*
X5741Y123903D01*
X15186D01*
Y127052D02*
X5741D01*
Y131774D01*
X7315Y133349D01*
X10464D01*
X12038Y131774D01*
Y127052D01*
X5741Y136497D02*
Y142795D01*
Y139646D01*
X15186D01*
X5741Y145943D02*
Y152240D01*
Y149092D01*
X15186D01*
X10464Y164835D02*
Y171132D01*
X7315Y190023D02*
X5741Y188449D01*
Y185301D01*
X7315Y183726D01*
X8889D01*
X10464Y185301D01*
Y188449D01*
X12038Y190023D01*
X13612D01*
X15186Y188449D01*
Y185301D01*
X13612Y183726D01*
X5741Y197895D02*
Y194746D01*
X7315Y193172D01*
X13612D01*
X15186Y194746D01*
Y197895D01*
X13612Y199469D01*
X7315D01*
X5741Y197895D01*
Y202618D02*
X15186D01*
Y207341D01*
X13612Y208915D01*
X12038D01*
X10464Y207341D01*
Y202618D01*
Y207341D01*
X8889Y208915D01*
X7315D01*
X5741Y207341D01*
Y202618D01*
X15186Y212064D02*
X5741D01*
Y216786D01*
X7315Y218361D01*
X10464D01*
X12038Y216786D01*
Y212064D01*
Y215212D02*
X15186Y218361D01*
Y221509D02*
X8889D01*
X5741Y224658D01*
X8889Y227806D01*
X15186D01*
X10464D01*
Y221509D01*
X5741Y230955D02*
X15186D01*
Y237252D01*
D36*
X496553Y34127D02*
G03*
X496553Y34127I0J-492D01*
G01*
X551454Y248517D02*
G03*
X551454Y248517I0J-492D01*
G01*
X618186Y108418D02*
G03*
X618186Y108418I0J-492D01*
G01*
X718208Y201208D02*
G03*
X718208Y201208I0J-447D01*
G01*
X775836Y131143D02*
X741836D01*
X775836D02*
Y160143D01*
X741836D01*
Y131143D02*
Y160143D01*
X716467Y299032D02*
X720466D01*
X722465Y301031D01*
X720466Y303031D01*
X716467D01*
Y305030D02*
X722465D01*
Y308029D01*
X721465Y309029D01*
X720466D01*
X719466D01*
X718466Y308029D01*
Y305030D01*
Y312028D02*
Y314027D01*
X719466Y315027D01*
X722465D01*
Y312028D01*
X721465Y311028D01*
X720466Y312028D01*
Y315027D01*
X717466Y318026D02*
X718466D01*
Y317026D01*
Y319025D01*
Y318026D01*
X721465D01*
X722465Y319025D01*
X723941Y273972D02*
Y275971D01*
Y274972D01*
X717943D01*
X718943Y273972D01*
X723941Y282969D02*
Y278970D01*
X719943Y282969D01*
X718943D01*
X717943Y281969D01*
Y279970D01*
X718943Y278970D01*
X719943Y284968D02*
X723941Y286968D01*
X719943Y288967D01*
X718451Y246859D02*
X717451Y247859D01*
Y249858D01*
X718451Y250857D01*
X719450D01*
X720450Y249858D01*
Y248858D01*
Y249858D01*
X721450Y250857D01*
X722449D01*
X723449Y249858D01*
Y247859D01*
X722449Y246859D01*
X723449Y252857D02*
X722449D01*
Y253856D01*
X723449D01*
Y252857D01*
X718451Y257855D02*
X717451Y258855D01*
Y260854D01*
X718451Y261854D01*
X719450D01*
X720450Y260854D01*
Y259855D01*
Y260854D01*
X721450Y261854D01*
X722449D01*
X723449Y260854D01*
Y258855D01*
X722449Y257855D01*
X719450Y263853D02*
X723449Y265853D01*
X719450Y267852D01*
X551113Y284837D02*
X557111D01*
Y287836D01*
X556111Y288836D01*
X552112D01*
X551113Y287836D01*
Y284837D01*
X557111Y293834D02*
X551113D01*
X554111Y290835D01*
Y294834D01*
X583116Y17675D02*
X582117Y16675D01*
Y14676D01*
X583116Y13676D01*
X587115D01*
X588115Y14676D01*
Y16675D01*
X587115Y17675D01*
X583116Y19674D02*
X582117Y20674D01*
Y22673D01*
X583116Y23673D01*
X587115D01*
X588115Y22673D01*
Y20674D01*
X587115Y19674D01*
X583116D01*
X102852Y34127D02*
G03*
X102852Y34127I0J-492D01*
G01*
X157753Y248517D02*
G03*
X157753Y248517I0J-492D01*
G01*
X224486Y108418D02*
G03*
X224486Y108418I0J-492D01*
G01*
X324507Y201208D02*
G03*
X324507Y201208I0J-447D01*
G01*
X382135Y131143D02*
X348135D01*
X382135D02*
Y160143D01*
X348135D01*
Y131143D02*
Y160143D01*
X322766Y299032D02*
X326765D01*
X328764Y301031D01*
X326765Y303031D01*
X322766D01*
Y305030D02*
X328764D01*
Y308029D01*
X327764Y309029D01*
X326765D01*
X325765D01*
X324765Y308029D01*
Y305030D01*
Y312028D02*
Y314027D01*
X325765Y315027D01*
X328764D01*
Y312028D01*
X327764Y311028D01*
X326765Y312028D01*
Y315027D01*
X323766Y318026D02*
X324765D01*
Y317026D01*
Y319025D01*
Y318026D01*
X327764D01*
X328764Y319025D01*
X330241Y273972D02*
Y275971D01*
Y274972D01*
X324242D01*
X325242Y273972D01*
X330241Y282969D02*
Y278970D01*
X326242Y282969D01*
X325242D01*
X324242Y281969D01*
Y279970D01*
X325242Y278970D01*
X326242Y284968D02*
X330241Y286968D01*
X326242Y288967D01*
X324750Y246859D02*
X323750Y247859D01*
Y249858D01*
X324750Y250857D01*
X325750D01*
X326749Y249858D01*
Y248858D01*
Y249858D01*
X327749Y250857D01*
X328749D01*
X329748Y249858D01*
Y247859D01*
X328749Y246859D01*
X329748Y252857D02*
X328749D01*
Y253856D01*
X329748D01*
Y252857D01*
X324750Y257855D02*
X323750Y258855D01*
Y260854D01*
X324750Y261854D01*
X325750D01*
X326749Y260854D01*
Y259855D01*
Y260854D01*
X327749Y261854D01*
X328749D01*
X329748Y260854D01*
Y258855D01*
X328749Y257855D01*
X325750Y263853D02*
X329748Y265853D01*
X325750Y267852D01*
X157412Y284837D02*
X163410D01*
Y287836D01*
X162410Y288836D01*
X158411D01*
X157412Y287836D01*
Y284837D01*
X163410Y293834D02*
X157412D01*
X160411Y290835D01*
Y294834D01*
X189415Y17675D02*
X188416Y16675D01*
Y14676D01*
X189415Y13676D01*
X193414D01*
X194414Y14676D01*
Y16675D01*
X193414Y17675D01*
X189415Y19674D02*
X188416Y20674D01*
Y22673D01*
X189415Y23673D01*
X193414D01*
X194414Y22673D01*
Y20674D01*
X193414Y19674D01*
X189415D01*
D57*
X639052Y171135D02*
G03*
X639052Y171135I0J-492D01*
G01*
X568186Y180977D02*
G03*
X568186Y180977I0J-492D01*
G01*
X568679Y203615D02*
G03*
X568679Y203615I0J-492D01*
G01*
X585411Y199678D02*
G03*
X585411Y199678I0J-492D01*
G01*
X691119Y134718D02*
G03*
X691119Y134718I0J-492D01*
G01*
X581966Y298596D02*
G03*
X581966Y298596I0J-492D01*
G01*
X554111Y259521D02*
G03*
X554111Y259521I0J-492D01*
G01*
X673009Y41706D02*
G03*
X673009Y41706I0J-492D01*
G01*
X586100Y118084D02*
G03*
X586100Y118084I0J-492D01*
G01*
X580686Y61981D02*
G03*
X580686Y61981I0J-492D01*
G01*
X245352Y171135D02*
G03*
X245352Y171135I0J-492D01*
G01*
X174486Y180977D02*
G03*
X174486Y180977I0J-492D01*
G01*
X174978Y203615D02*
G03*
X174978Y203615I0J-492D01*
G01*
X191710Y199678D02*
G03*
X191710Y199678I0J-492D01*
G01*
X297419Y134718D02*
G03*
X297419Y134718I0J-492D01*
G01*
X188265Y298596D02*
G03*
X188265Y298596I0J-492D01*
G01*
X160411Y259521D02*
G03*
X160411Y259521I0J-492D01*
G01*
X279308Y41706D02*
G03*
X279308Y41706I0J-492D01*
G01*
X192399Y118084D02*
G03*
X192399Y118084I0J-492D01*
G01*
X186986Y61981D02*
G03*
X186986Y61981I0J-492D01*
G01*
D58*
X699879Y131962D02*
G03*
X699879Y131962I0J-1181D01*
G01*
X306178D02*
G03*
X306178Y131962I0J-1181D01*
G01*
D59*
X533954Y62450D02*
X468954D01*
X533954Y190450D02*
X468954D01*
X533954Y132450D02*
Y190450D01*
Y62450D02*
Y120450D01*
X468954Y62450D02*
Y120450D01*
Y132450D02*
Y190450D01*
X535430Y242568D02*
Y300568D01*
Y312568D02*
Y370568D01*
X470431Y312568D02*
Y370568D01*
Y242568D02*
Y300568D01*
X535430Y242568D02*
X470431D01*
X535430Y370568D02*
X470431D01*
X620352Y255879D02*
X608245D01*
X620352Y305092D02*
X608245D01*
X657458Y255879D02*
X645352D01*
X657458Y305092D02*
X645352D01*
X608245Y255879D02*
Y305092D01*
X657458Y255879D02*
Y305092D01*
X597340Y103663D02*
X596340Y104663D01*
Y102663D02*
Y104663D01*
Y102663D02*
X597340Y103663D01*
X607340Y105663D02*
Y120662D01*
X597340Y105663D02*
Y120662D01*
X456592Y306942D02*
Y321942D01*
X466592Y306942D02*
Y321942D01*
X455592Y303942D02*
X456592Y304942D01*
X455592Y303942D02*
Y305942D01*
X456592Y304942D02*
X455592Y305942D01*
X140253Y62450D02*
X75253D01*
X140253Y190450D02*
X75253D01*
X140253Y132450D02*
Y190450D01*
Y62450D02*
Y120450D01*
X75253Y62450D02*
Y120450D01*
Y132450D02*
Y190450D01*
X141730Y242568D02*
Y300568D01*
Y312568D02*
Y370568D01*
X76730Y312568D02*
Y370568D01*
Y242568D02*
Y300568D01*
X141730Y242568D02*
X76730D01*
X141730Y370568D02*
X76730D01*
X226651Y255879D02*
X214545D01*
X226651Y305092D02*
X214545D01*
X263757Y255879D02*
X251651D01*
X263757Y305092D02*
X251651D01*
X214545Y255879D02*
Y305092D01*
X263757Y255879D02*
Y305092D01*
X203639Y103663D02*
X202639Y104663D01*
Y102663D02*
Y104663D01*
Y102663D02*
X203639Y103663D01*
X213639Y105663D02*
Y120662D01*
X203639Y105663D02*
Y120662D01*
X62891Y306942D02*
Y321942D01*
X72891Y306942D02*
Y321942D01*
X61891Y303942D02*
X62891Y304942D01*
X61891Y303942D02*
Y305942D01*
X62891Y304942D02*
X61891Y305942D01*
D60*
X628521Y320840D02*
X623649D01*
X617596Y326893D01*
X645007Y320840D02*
X651060Y326893D01*
X645007Y320840D02*
X640135D01*
X617596Y326893D02*
Y354304D01*
X628521D02*
X617596D01*
X651060D02*
X640135D01*
X651060Y326893D02*
Y354304D01*
X532802Y232257D02*
X505391D01*
Y221332D02*
Y232257D01*
Y198792D02*
Y209718D01*
X532802Y198792D02*
X505391D01*
X538856Y221332D02*
Y226204D01*
X532802Y232257D01*
Y198792D02*
X538856Y204846D01*
Y209718D01*
X493580Y194855D02*
X460263D01*
X493580D02*
Y209718D01*
Y221332D02*
Y236194D01*
X460263D01*
X452242Y202877D02*
Y209718D01*
X460263Y194855D02*
X452242Y202877D01*
Y228172D02*
X460263Y236194D01*
X452242Y221332D02*
Y228172D01*
X597556Y283304D02*
Y300304D01*
X605156Y283304D02*
Y300304D01*
Y283304D02*
X597556D01*
X605156Y300304D02*
X597556D01*
X591376Y282812D02*
Y299812D01*
X583776Y282812D02*
Y299812D01*
X591376D02*
X583776D01*
X591376Y282812D02*
X583776D01*
X715123Y248903D02*
X704123D01*
Y259903D01*
X715123D02*
X704123D01*
X715123Y248903D02*
Y259903D01*
X704123Y275477D02*
Y286477D01*
X715123D02*
X704123D01*
X715123Y275477D02*
Y286477D01*
Y275477D02*
X704123D01*
X697183Y293907D02*
X689583D01*
X697183Y276907D02*
X689583D01*
X697183D02*
Y293907D01*
X689583Y276907D02*
Y293907D01*
X697183Y217851D02*
Y234852D01*
X689583Y217851D02*
Y234852D01*
X697183D02*
X689583D01*
X697183Y217851D02*
X689583D01*
X756238Y224249D02*
X748638D01*
X756238Y241249D02*
X748638D01*
Y224249D02*
Y241249D01*
X756238Y224249D02*
Y241249D01*
X738522Y218119D02*
X730922D01*
X738522Y201119D02*
X730922D01*
X738522D02*
Y218119D01*
X730922Y201119D02*
Y218119D01*
X674053Y66277D02*
Y83277D01*
X666453Y66277D02*
Y83277D01*
X674053D02*
X666453D01*
X674053Y66277D02*
X666453D01*
X674545Y144792D02*
X666945D01*
X674545Y127792D02*
X666945D01*
X674545D02*
Y144792D01*
X666945Y127792D02*
Y144792D01*
X618935Y155351D02*
Y172351D01*
X611335Y155351D02*
Y172351D01*
X618935D02*
X611335D01*
X618935Y155351D02*
X611335D01*
X640863Y155351D02*
Y172352D01*
X648463Y155351D02*
Y172352D01*
Y155351D02*
X640863D01*
X648463Y172352D02*
X640863D01*
X628778Y155351D02*
X621178D01*
X628778Y172351D02*
X621178D01*
Y155351D02*
Y172351D01*
X628778Y155351D02*
Y172351D01*
X560706Y191115D02*
Y193871D01*
X564643D02*
X560706D01*
Y182060D02*
Y184816D01*
X564643Y182060D02*
X560706D01*
X565135Y204698D02*
X561198D01*
Y207454D01*
X565135Y216509D02*
X561198D01*
Y213753D02*
Y216509D01*
X577930Y209816D02*
Y212572D01*
X581868D02*
X577930D01*
Y200761D02*
Y203517D01*
X581868Y200761D02*
X577930D01*
X732163Y98497D02*
X695942D01*
X732163Y134718D02*
X695942D01*
X732163Y98497D02*
Y134718D01*
X695942Y98497D02*
Y134718D01*
X570215Y303257D02*
X562615D01*
X570215Y286257D02*
X562615D01*
X570215D02*
Y303257D01*
X562615Y286257D02*
Y303257D01*
X583994Y188100D02*
X576394D01*
X583994Y171099D02*
X576394D01*
X583994D02*
Y188100D01*
X576394Y171099D02*
Y188100D01*
X451394Y14603D02*
Y31603D01*
X458994Y14603D02*
Y31603D01*
Y14603D02*
X451394D01*
X458994Y31603D02*
X451394D01*
X461237Y14603D02*
Y31603D01*
X468837Y14603D02*
Y31603D01*
Y14603D02*
X461237D01*
X468837Y31603D02*
X461237D01*
X495549Y27828D02*
X475864D01*
X495549Y20347D02*
X475864D01*
X495549D02*
Y27828D01*
X475864Y20347D02*
Y27828D01*
X586021Y399875D02*
X546808D01*
X586021Y352631D02*
X546808D01*
X586021D02*
Y399875D01*
X581021Y383537D02*
X571808D01*
X572793D02*
Y399875D01*
X580037Y383537D02*
Y399875D01*
X581021Y383537D02*
Y399875D01*
X571808Y383537D02*
Y399875D01*
X584895Y366214D02*
Y399875D01*
X567934Y366214D02*
Y399875D01*
X577202Y396332D02*
X575627D01*
X574801Y392425D02*
X574744Y392653D01*
X574919Y391994D02*
X574801Y392425D01*
X575044Y391596D02*
X574919Y391994D01*
X575109Y391410D02*
X575044Y391596D01*
X577720Y391410D02*
X577785Y391596D01*
X577910Y391994D01*
X578028Y392425D01*
X578085Y392653D01*
X578028Y392425D02*
X578085Y392653D01*
X577910Y391994D02*
X578028Y392425D01*
X577785Y391596D02*
X577910Y391994D01*
X577720Y391410D02*
X577785Y391596D01*
X577720Y391410D02*
X575109D01*
Y366214D02*
Y391410D01*
X574446D02*
X575627Y396332D01*
X574446Y366214D02*
Y391410D01*
X578383D02*
X577202Y396332D01*
X578383Y366214D02*
Y391410D01*
X577720Y366214D02*
Y391410D01*
X584895Y366214D02*
X567934D01*
X564895D02*
X547934D01*
X557720D02*
Y391410D01*
X558383Y366214D02*
Y391410D01*
X557202Y396332D01*
X557720Y391410D02*
X555109D01*
X557720D02*
X557785Y391596D01*
X557910Y391994D01*
X558029Y392425D01*
X558085Y392653D01*
X558029Y392425D02*
X558085Y392653D01*
X557910Y391994D02*
X558029Y392425D01*
X557785Y391596D02*
X557910Y391994D01*
X557720Y391410D02*
X557785Y391596D01*
X557202Y396332D02*
X555627D01*
X564895Y366214D02*
Y399875D01*
X561021Y383537D02*
Y399875D01*
X560037Y383537D02*
Y399875D01*
X561021Y383537D02*
X551808D01*
X552793D02*
Y399875D01*
X551808Y383537D02*
Y399875D01*
X547934Y366214D02*
Y399875D01*
X554801Y392425D02*
X554744Y392653D01*
X554919Y391994D02*
X554801Y392425D01*
X555044Y391596D02*
X554919Y391994D01*
X555109Y391410D02*
X555044Y391596D01*
X555109Y366214D02*
Y391410D01*
X554446D02*
X555627Y396332D01*
X554446Y366214D02*
Y391410D01*
X546808Y352631D02*
Y399875D01*
X557261Y227336D02*
Y247021D01*
X564742Y227336D02*
Y247021D01*
X557261D01*
X564742Y227336D02*
X557261D01*
X548305Y263753D02*
Y280485D01*
X559919Y263753D02*
Y280485D01*
X591376Y253777D02*
Y270777D01*
X583776Y253777D02*
Y270777D01*
X591376D02*
X583776D01*
X591376Y253777D02*
X583776D01*
X591376Y229170D02*
Y246170D01*
X583776Y229170D02*
Y246170D01*
X591376D02*
X583776D01*
X591376Y229170D02*
X583776D01*
X666945Y103186D02*
Y120186D01*
X674545Y103186D02*
Y120186D01*
Y103186D02*
X666945D01*
X674545Y120186D02*
X666945D01*
X715123Y303529D02*
X704123D01*
Y314529D01*
X715123D02*
X704123D01*
X715123Y303529D02*
Y314529D01*
X645007Y248497D02*
X640135D01*
X651060Y242444D02*
X645007Y248497D01*
X617596Y242444D02*
X623649Y248497D01*
X628521D02*
X623649D01*
X651060Y215033D02*
Y242444D01*
Y215033D02*
X640135D01*
X628521D02*
X617596D01*
Y242444D01*
X680675Y242690D02*
Y269068D01*
X680675Y242690D02*
X680675Y242690D01*
X680675Y242690D02*
X669674D01*
X680675Y269068D02*
X669674D01*
Y242690D02*
Y269068D01*
X655626Y330056D02*
Y347056D01*
X663227Y330056D02*
Y347056D01*
Y330056D02*
X655626D01*
X663227Y347056D02*
X655626D01*
X642557Y25922D02*
Y42922D01*
X634957Y25922D02*
Y42922D01*
X642557D02*
X634957D01*
X642557Y25922D02*
X634957D01*
X662734Y42922D02*
X655134D01*
X662734Y25922D02*
X655134D01*
X662734D02*
Y42922D01*
X655134Y25922D02*
Y42922D01*
X652892Y25922D02*
X645292D01*
X652892Y42922D02*
X645292D01*
Y25922D02*
Y42922D01*
X652892Y25922D02*
Y42922D01*
X567262Y120186D02*
X559662D01*
X567262Y103186D02*
X559662D01*
X567262D02*
Y120186D01*
X559662Y103186D02*
Y120186D01*
X577105D02*
X569504D01*
X577105Y103186D02*
X569504D01*
X577105D02*
Y120186D01*
X569504Y103186D02*
Y120186D01*
X685864Y145284D02*
X678264D01*
X685864Y128285D02*
X678264D01*
X685864D02*
Y145284D01*
X678264Y128285D02*
Y145284D01*
X623206Y66607D02*
Y107552D01*
X651356Y66607D02*
Y107552D01*
X623206D01*
X651356Y66607D02*
X623206D01*
X721297Y66277D02*
Y83277D01*
X713697Y66277D02*
Y83277D01*
X721297D02*
X713697D01*
X721297Y66277D02*
X713697D01*
X701394Y162241D02*
Y179241D01*
X708994Y162241D02*
Y179241D01*
Y162241D02*
X701394D01*
X708994Y179241D02*
X701394D01*
X699152D02*
X691552D01*
X699152Y162241D02*
X691552D01*
X699152D02*
Y179241D01*
X691552Y162241D02*
Y179241D01*
X718837D02*
X711237D01*
X718837Y162241D02*
X711237D01*
X718837D02*
Y179241D01*
X711237Y162241D02*
Y179241D01*
X728679Y162241D02*
X721079D01*
X728679Y179241D02*
X721079D01*
Y162241D02*
Y179241D01*
X728679Y162241D02*
Y179241D01*
X546593Y120186D02*
X538993D01*
X546593Y103186D02*
X538993D01*
X546593D02*
Y120186D01*
X538993Y103186D02*
Y120186D01*
X740490Y43907D02*
X732890D01*
X740490Y26907D02*
X732890D01*
X740490D02*
Y43907D01*
X732890Y26907D02*
Y43907D01*
X745904Y66277D02*
X738304D01*
X745904Y83277D02*
X738304D01*
Y66277D02*
Y83277D01*
X745904Y66277D02*
Y83277D01*
X738522Y162241D02*
X730922D01*
X738522Y179241D02*
X730922D01*
Y162241D02*
Y179241D01*
X738522Y162241D02*
Y179241D01*
X701120Y26907D02*
Y43907D01*
X693520Y26907D02*
Y43907D01*
X701120D02*
X693520D01*
X701120Y26907D02*
X693520D01*
X720805D02*
Y43907D01*
X713205Y26907D02*
Y43907D01*
X720805D02*
X713205D01*
X720805Y26907D02*
X713205D01*
X710963D02*
Y43907D01*
X703363Y26907D02*
Y43907D01*
X710963D02*
X703363D01*
X710963Y26907D02*
X703363D01*
X723048D02*
Y43907D01*
X730648Y26907D02*
Y43907D01*
Y26907D02*
X723048D01*
X730648Y43907D02*
X723048D01*
X658797Y128285D02*
X651197D01*
X658797Y145284D02*
X651197D01*
Y128285D02*
Y145284D01*
X658797Y128285D02*
Y145284D01*
X619427D02*
X611827D01*
X619427Y128285D02*
X611827D01*
X619427D02*
Y145284D01*
X611827Y128285D02*
Y145284D01*
X648463Y128285D02*
X640863D01*
X648463Y145284D02*
X640863D01*
Y128285D02*
Y145284D01*
X648463Y128285D02*
Y145284D01*
X628778Y128285D02*
X621178D01*
X628778Y145284D02*
X621178D01*
Y128285D02*
Y145284D01*
X628778Y128285D02*
Y145284D01*
X638620Y128285D02*
Y145284D01*
X631020Y128285D02*
Y145284D01*
X638620D02*
X631020D01*
X638620Y128285D02*
X631020D01*
X771218Y80938D02*
X761218D01*
X771218Y90938D02*
X761218D01*
X771218Y110938D02*
X761218D01*
Y80938D02*
Y110938D01*
X771218Y80938D02*
Y110938D01*
X760391Y178123D02*
X750391D01*
X760391Y168123D02*
X750391D01*
Y188123D01*
X760391D02*
X750391D01*
X760391Y168123D02*
Y188123D01*
X691770Y26907D02*
X684170D01*
X691770Y43907D02*
X684170D01*
Y26907D02*
Y43907D01*
X691770Y26907D02*
Y43907D01*
X439309Y206533D02*
Y223533D01*
X431709Y206533D02*
Y223533D01*
X439309D02*
X431709D01*
X439309Y206533D02*
X431709D01*
X591021Y36784D02*
Y41657D01*
X597074Y47710D01*
Y14245D02*
X591021Y20298D01*
Y25170D01*
X624486Y47710D02*
X597074D01*
X624486Y36784D02*
Y47710D01*
Y14245D02*
Y25170D01*
Y14245D02*
X597074D01*
X583502Y142556D02*
Y159556D01*
X575902Y142556D02*
Y159556D01*
X583502D02*
X575902D01*
X583502Y142556D02*
X575902D01*
X563599D02*
Y159556D01*
X571199Y142556D02*
Y159556D01*
Y142556D02*
X563599D01*
X571199Y159556D02*
X563599D01*
X741808Y228812D02*
Y233930D01*
Y228812D02*
X738462D01*
X729604D02*
Y233930D01*
X732950Y228812D02*
X729604D01*
X556435Y103186D02*
X548835D01*
X556435Y120186D02*
X548835D01*
Y103186D02*
Y120186D01*
X556435Y103186D02*
Y120186D01*
X558896Y159556D02*
X551296D01*
X558896Y142556D02*
X551296D01*
X558896D02*
Y159556D01*
X551296Y142556D02*
Y159556D01*
X576120Y58895D02*
X568520D01*
X576120Y75895D02*
X568520D01*
Y58895D02*
Y75895D01*
X576120Y58895D02*
Y75895D01*
X566278Y58895D02*
X558678D01*
X566278Y75895D02*
X558678D01*
Y58895D02*
Y75895D01*
X566278Y58895D02*
Y75895D01*
X577655Y-12133D02*
X538442D01*
X577655Y35111D02*
X538442D01*
Y-12133D02*
Y35111D01*
X552655Y4206D02*
X543442D01*
X551671Y-12133D02*
Y4206D01*
X544426Y-12133D02*
Y4206D01*
X543442Y-12133D02*
Y4206D01*
X552655Y-12133D02*
Y4206D01*
X539568Y-12133D02*
Y21529D01*
X556529Y-12133D02*
Y21529D01*
X548836Y-8590D02*
X547261D01*
X549719Y-4911D02*
X549662Y-4683D01*
X549544Y-4251D01*
X549419Y-3854D01*
X549354Y-3668D01*
X546678Y-3854D02*
X546743Y-3668D01*
X546553Y-4251D02*
X546678Y-3854D01*
X546435Y-4683D02*
X546553Y-4251D01*
X546378Y-4911D02*
X546435Y-4683D01*
X546378Y-4911D02*
X546435Y-4683D01*
X546553Y-4251D01*
X546678Y-3854D01*
X546743Y-3668D01*
X549354D02*
X546743D01*
X549354D02*
Y21529D01*
X548836Y-8590D02*
X550017Y-3668D01*
Y21529D01*
X547261Y-8590D02*
X546080Y-3668D01*
Y21529D01*
X546743Y-3668D02*
Y21529D01*
X556529D02*
X539568D01*
X576529D02*
X559568D01*
X566743Y-3668D02*
Y21529D01*
X566080Y-3668D02*
Y21529D01*
X567261Y-8590D02*
X566080Y-3668D01*
X569354D02*
X566743D01*
X566678Y-3854D02*
X566743Y-3668D01*
X566553Y-4251D02*
X566678Y-3854D01*
X566435Y-4683D02*
X566553Y-4251D01*
X566378Y-4911D02*
X566435Y-4683D01*
X566378Y-4911D02*
X566435Y-4683D01*
X566553Y-4251D01*
X566678Y-3854D01*
X566743Y-3668D01*
X568836Y-8590D02*
X567261D01*
X559568Y-12133D02*
Y21529D01*
X563442Y-12133D02*
Y4206D01*
X564427Y-12133D02*
Y4206D01*
X572655D02*
X563442D01*
X571671Y-12133D02*
Y4206D01*
X572655Y-12133D02*
Y4206D01*
X576529Y-12133D02*
Y21529D01*
X569719Y-4911D02*
X569662Y-4683D01*
X569544Y-4251D01*
X569419Y-3854D01*
X569354Y-3668D01*
Y21529D01*
X568836Y-8590D02*
X570017Y-3668D01*
Y21529D01*
X577655Y-12133D02*
Y35111D01*
X549053Y142556D02*
X541453D01*
X549053Y159556D02*
X541453D01*
Y142556D02*
Y159556D01*
X549053Y142556D02*
Y159556D01*
X420096Y234603D02*
Y281848D01*
X444033D02*
X420096D01*
X444033Y234603D02*
X420096D01*
X444033D02*
Y281848D01*
X420588Y53993D02*
Y101237D01*
X444525D02*
X420588D01*
X444525Y53993D02*
X420588D01*
X444525D02*
Y101237D01*
X420588Y122891D02*
Y170135D01*
X444525D02*
X420588D01*
X444525Y122891D02*
X420588D01*
X444525D02*
Y170135D01*
X234820Y320840D02*
X229948D01*
X223895Y326893D01*
X251306Y320840D02*
X257360Y326893D01*
X251306Y320840D02*
X246434D01*
X223895Y326893D02*
Y354304D01*
X234820D02*
X223895D01*
X257360D02*
X246434D01*
X257360Y326893D02*
Y354304D01*
X139102Y232257D02*
X111690D01*
Y221332D02*
Y232257D01*
Y198792D02*
Y209718D01*
X139102Y198792D02*
X111690D01*
X145155Y221332D02*
Y226204D01*
X139102Y232257D01*
Y198792D02*
X145155Y204846D01*
Y209718D01*
X99879Y194855D02*
X66562D01*
X99879D02*
Y209718D01*
Y221332D02*
Y236194D01*
X66562D01*
X58541Y202877D02*
Y209718D01*
X66562Y194855D02*
X58541Y202877D01*
Y228172D02*
X66562Y236194D01*
X58541Y221332D02*
Y228172D01*
X203855Y283304D02*
Y300304D01*
X211455Y283304D02*
Y300304D01*
Y283304D02*
X203855D01*
X211455Y300304D02*
X203855D01*
X197675Y282812D02*
Y299812D01*
X190075Y282812D02*
Y299812D01*
X197675D02*
X190075D01*
X197675Y282812D02*
X190075D01*
X321423Y248903D02*
X310423D01*
Y259903D01*
X321423D02*
X310423D01*
X321423Y248903D02*
Y259903D01*
X310423Y275477D02*
Y286477D01*
X321423D02*
X310423D01*
X321423Y275477D02*
Y286477D01*
Y275477D02*
X310423D01*
X303482Y293907D02*
X295882D01*
X303482Y276907D02*
X295882D01*
X303482D02*
Y293907D01*
X295882Y276907D02*
Y293907D01*
X303482Y217851D02*
Y234852D01*
X295882Y217851D02*
Y234852D01*
X303482D02*
X295882D01*
X303482Y217851D02*
X295882D01*
X362538Y224249D02*
X354938D01*
X362538Y241249D02*
X354938D01*
Y224249D02*
Y241249D01*
X362538Y224249D02*
Y241249D01*
X344821Y218119D02*
X337221D01*
X344821Y201119D02*
X337221D01*
X344821D02*
Y218119D01*
X337221Y201119D02*
Y218119D01*
X280352Y66277D02*
Y83277D01*
X272752Y66277D02*
Y83277D01*
X280352D02*
X272752D01*
X280352Y66277D02*
X272752D01*
X280845Y144792D02*
X273245D01*
X280845Y127792D02*
X273245D01*
X280845D02*
Y144792D01*
X273245Y127792D02*
Y144792D01*
X225234Y155351D02*
Y172351D01*
X217634Y155351D02*
Y172351D01*
X225234D02*
X217634D01*
X225234Y155351D02*
X217634D01*
X247162Y155351D02*
Y172352D01*
X254762Y155351D02*
Y172352D01*
Y155351D02*
X247162D01*
X254762Y172352D02*
X247162D01*
X235077Y155351D02*
X227477D01*
X235077Y172351D02*
X227477D01*
Y155351D02*
Y172351D01*
X235077Y155351D02*
Y172351D01*
X167005Y191115D02*
Y193871D01*
X170942D02*
X167005D01*
Y182060D02*
Y184816D01*
X170942Y182060D02*
X167005D01*
X171434Y204698D02*
X167497D01*
Y207454D01*
X171434Y216509D02*
X167497D01*
Y213753D02*
Y216509D01*
X184230Y209816D02*
Y212572D01*
X188167D02*
X184230D01*
Y200761D02*
Y203517D01*
X188167Y200761D02*
X184230D01*
X338462Y98497D02*
X302241D01*
X338462Y134718D02*
X302241D01*
X338462Y98497D02*
Y134718D01*
X302241Y98497D02*
Y134718D01*
X176514Y303257D02*
X168914D01*
X176514Y286257D02*
X168914D01*
X176514D02*
Y303257D01*
X168914Y286257D02*
Y303257D01*
X190293Y188100D02*
X182693D01*
X190293Y171099D02*
X182693D01*
X190293D02*
Y188100D01*
X182693Y171099D02*
Y188100D01*
X57693Y14603D02*
Y31603D01*
X65293Y14603D02*
Y31603D01*
Y14603D02*
X57693D01*
X65293Y31603D02*
X57693D01*
X67536Y14603D02*
Y31603D01*
X75136Y14603D02*
Y31603D01*
Y14603D02*
X67536D01*
X75136Y31603D02*
X67536D01*
X101848Y27828D02*
X82163D01*
X101848Y20347D02*
X82163D01*
X101848D02*
Y27828D01*
X82163Y20347D02*
Y27828D01*
X192320Y399875D02*
X153108D01*
X192320Y352631D02*
X153108D01*
X192320D02*
Y399875D01*
X187320Y383537D02*
X178108D01*
X179092D02*
Y399875D01*
X186336Y383537D02*
Y399875D01*
X187320Y383537D02*
Y399875D01*
X178108Y383537D02*
Y399875D01*
X191194Y366214D02*
Y399875D01*
X174233Y366214D02*
Y399875D01*
X183501Y396332D02*
X181927D01*
X181100Y392425D02*
X181044Y392653D01*
X181218Y391994D02*
X181100Y392425D01*
X181343Y391596D02*
X181218Y391994D01*
X181408Y391410D02*
X181343Y391596D01*
X184020Y391410D02*
X184084Y391596D01*
X184209Y391994D01*
X184328Y392425D01*
X184384Y392653D01*
X184328Y392425D02*
X184384Y392653D01*
X184209Y391994D02*
X184328Y392425D01*
X184084Y391596D02*
X184209Y391994D01*
X184020Y391410D02*
X184084Y391596D01*
X184020Y391410D02*
X181408D01*
Y366214D02*
Y391410D01*
X180745D02*
X181927Y396332D01*
X180745Y366214D02*
Y391410D01*
X184682D02*
X183501Y396332D01*
X184682Y366214D02*
Y391410D01*
X184020Y366214D02*
Y391410D01*
X191194Y366214D02*
X174233D01*
X171195D02*
X154233D01*
X164020D02*
Y391410D01*
X164682Y366214D02*
Y391410D01*
X163501Y396332D01*
X164020Y391410D02*
X161408D01*
X164020D02*
X164084Y391596D01*
X164209Y391994D01*
X164328Y392425D01*
X164384Y392653D01*
X164328Y392425D02*
X164384Y392653D01*
X164209Y391994D02*
X164328Y392425D01*
X164084Y391596D02*
X164209Y391994D01*
X164020Y391410D02*
X164084Y391596D01*
X163501Y396332D02*
X161926D01*
X171195Y366214D02*
Y399875D01*
X167320Y383537D02*
Y399875D01*
X166336Y383537D02*
Y399875D01*
X167320Y383537D02*
X158108D01*
X159092D02*
Y399875D01*
X158108Y383537D02*
Y399875D01*
X154233Y366214D02*
Y399875D01*
X161100Y392425D02*
X161044Y392653D01*
X161218Y391994D02*
X161100Y392425D01*
X161343Y391596D02*
X161218Y391994D01*
X161408Y391410D02*
X161343Y391596D01*
X161408Y366214D02*
Y391410D01*
X160745D02*
X161926Y396332D01*
X160745Y366214D02*
Y391410D01*
X153108Y352631D02*
Y399875D01*
X163560Y227336D02*
Y247021D01*
X171041Y227336D02*
Y247021D01*
X163560D01*
X171041Y227336D02*
X163560D01*
X154604Y263753D02*
Y280485D01*
X166218Y263753D02*
Y280485D01*
X197675Y253777D02*
Y270777D01*
X190075Y253777D02*
Y270777D01*
X197675D02*
X190075D01*
X197675Y253777D02*
X190075D01*
X197675Y229170D02*
Y246170D01*
X190075Y229170D02*
Y246170D01*
X197675D02*
X190075D01*
X197675Y229170D02*
X190075D01*
X273245Y103186D02*
Y120186D01*
X280845Y103186D02*
Y120186D01*
Y103186D02*
X273245D01*
X280845Y120186D02*
X273245D01*
X321423Y303529D02*
X310423D01*
Y314529D01*
X321423D02*
X310423D01*
X321423Y303529D02*
Y314529D01*
X251306Y248497D02*
X246434D01*
X257360Y242444D02*
X251306Y248497D01*
X223895Y242444D02*
X229948Y248497D01*
X234820D02*
X229948D01*
X257360Y215033D02*
Y242444D01*
Y215033D02*
X246434D01*
X234820D02*
X223895D01*
Y242444D01*
X286974Y242690D02*
Y269068D01*
X286974Y242690D02*
X286974Y242690D01*
X286974Y242690D02*
X275974D01*
X286974Y269068D02*
X275974D01*
Y242690D02*
Y269068D01*
X261926Y330056D02*
Y347056D01*
X269526Y330056D02*
Y347056D01*
Y330056D02*
X261926D01*
X269526Y347056D02*
X261926D01*
X248856Y25922D02*
Y42922D01*
X241256Y25922D02*
Y42922D01*
X248856D02*
X241256D01*
X248856Y25922D02*
X241256D01*
X269034Y42922D02*
X261434D01*
X269034Y25922D02*
X261434D01*
X269034D02*
Y42922D01*
X261434Y25922D02*
Y42922D01*
X259191Y25922D02*
X251591D01*
X259191Y42922D02*
X251591D01*
Y25922D02*
Y42922D01*
X259191Y25922D02*
Y42922D01*
X173561Y120186D02*
X165961D01*
X173561Y103186D02*
X165961D01*
X173561D02*
Y120186D01*
X165961Y103186D02*
Y120186D01*
X183404D02*
X175804D01*
X183404Y103186D02*
X175804D01*
X183404D02*
Y120186D01*
X175804Y103186D02*
Y120186D01*
X292163Y145284D02*
X284563D01*
X292163Y128285D02*
X284563D01*
X292163D02*
Y145284D01*
X284563Y128285D02*
Y145284D01*
X229505Y66607D02*
Y107552D01*
X257655Y66607D02*
Y107552D01*
X229505D01*
X257655Y66607D02*
X229505D01*
X327597Y66277D02*
Y83277D01*
X319997Y66277D02*
Y83277D01*
X327597D02*
X319997D01*
X327597Y66277D02*
X319997D01*
X307693Y162241D02*
Y179241D01*
X315293Y162241D02*
Y179241D01*
Y162241D02*
X307693D01*
X315293Y179241D02*
X307693D01*
X305451D02*
X297851D01*
X305451Y162241D02*
X297851D01*
X305451D02*
Y179241D01*
X297851Y162241D02*
Y179241D01*
X325136D02*
X317536D01*
X325136Y162241D02*
X317536D01*
X325136D02*
Y179241D01*
X317536Y162241D02*
Y179241D01*
X334979Y162241D02*
X327379D01*
X334979Y179241D02*
X327379D01*
Y162241D02*
Y179241D01*
X334979Y162241D02*
Y179241D01*
X152892Y120186D02*
X145292D01*
X152892Y103186D02*
X145292D01*
X152892D02*
Y120186D01*
X145292Y103186D02*
Y120186D01*
X346790Y43907D02*
X339190D01*
X346790Y26907D02*
X339190D01*
X346790D02*
Y43907D01*
X339190Y26907D02*
Y43907D01*
X352203Y66277D02*
X344603D01*
X352203Y83277D02*
X344603D01*
Y66277D02*
Y83277D01*
X352203Y66277D02*
Y83277D01*
X344821Y162241D02*
X337221D01*
X344821Y179241D02*
X337221D01*
Y162241D02*
Y179241D01*
X344821Y162241D02*
Y179241D01*
X307419Y26907D02*
Y43907D01*
X299819Y26907D02*
Y43907D01*
X307419D02*
X299819D01*
X307419Y26907D02*
X299819D01*
X327104D02*
Y43907D01*
X319504Y26907D02*
Y43907D01*
X327104D02*
X319504D01*
X327104Y26907D02*
X319504D01*
X317262D02*
Y43907D01*
X309662Y26907D02*
Y43907D01*
X317262D02*
X309662D01*
X317262Y26907D02*
X309662D01*
X329347D02*
Y43907D01*
X336947Y26907D02*
Y43907D01*
Y26907D02*
X329347D01*
X336947Y43907D02*
X329347D01*
X265097Y128285D02*
X257497D01*
X265097Y145284D02*
X257497D01*
Y128285D02*
Y145284D01*
X265097Y128285D02*
Y145284D01*
X225727D02*
X218127D01*
X225727Y128285D02*
X218127D01*
X225727D02*
Y145284D01*
X218127Y128285D02*
Y145284D01*
X254762Y128285D02*
X247162D01*
X254762Y145284D02*
X247162D01*
Y128285D02*
Y145284D01*
X254762Y128285D02*
Y145284D01*
X235077Y128285D02*
X227477D01*
X235077Y145284D02*
X227477D01*
Y128285D02*
Y145284D01*
X235077Y128285D02*
Y145284D01*
X244919Y128285D02*
Y145284D01*
X237319Y128285D02*
Y145284D01*
X244919D02*
X237319D01*
X244919Y128285D02*
X237319D01*
X377517Y80938D02*
X367517D01*
X377517Y90938D02*
X367517D01*
X377517Y110938D02*
X367517D01*
Y80938D02*
Y110938D01*
X377517Y80938D02*
Y110938D01*
X366690Y178123D02*
X356690D01*
X366690Y168123D02*
X356690D01*
Y188123D01*
X366690D02*
X356690D01*
X366690Y168123D02*
Y188123D01*
X298069Y26907D02*
X290469D01*
X298069Y43907D02*
X290469D01*
Y26907D02*
Y43907D01*
X298069Y26907D02*
Y43907D01*
X45608Y206533D02*
Y223533D01*
X38008Y206533D02*
Y223533D01*
X45608D02*
X38008D01*
X45608Y206533D02*
X38008D01*
X197320Y36784D02*
Y41657D01*
X203373Y47710D01*
Y14245D02*
X197320Y20298D01*
Y25170D01*
X230785Y47710D02*
X203373D01*
X230785Y36784D02*
Y47710D01*
Y14245D02*
Y25170D01*
Y14245D02*
X203373D01*
X189801Y142556D02*
Y159556D01*
X182201Y142556D02*
Y159556D01*
X189801D02*
X182201D01*
X189801Y142556D02*
X182201D01*
X169898D02*
Y159556D01*
X177498Y142556D02*
Y159556D01*
Y142556D02*
X169898D01*
X177498Y159556D02*
X169898D01*
X348108Y228812D02*
Y233930D01*
Y228812D02*
X344761D01*
X335903D02*
Y233930D01*
X339249Y228812D02*
X335903D01*
X162734Y103186D02*
X155134D01*
X162734Y120186D02*
X155134D01*
Y103186D02*
Y120186D01*
X162734Y103186D02*
Y120186D01*
X165195Y159556D02*
X157595D01*
X165195Y142556D02*
X157595D01*
X165195D02*
Y159556D01*
X157595Y142556D02*
Y159556D01*
X182419Y58895D02*
X174819D01*
X182419Y75895D02*
X174819D01*
Y58895D02*
Y75895D01*
X182419Y58895D02*
Y75895D01*
X172577Y58895D02*
X164977D01*
X172577Y75895D02*
X164977D01*
Y58895D02*
Y75895D01*
X172577Y58895D02*
Y75895D01*
X183954Y-12133D02*
X144741D01*
X183954Y35111D02*
X144741D01*
Y-12133D02*
Y35111D01*
X158954Y4206D02*
X149741D01*
X157970Y-12133D02*
Y4206D01*
X150726Y-12133D02*
Y4206D01*
X149741Y-12133D02*
Y4206D01*
X158954Y-12133D02*
Y4206D01*
X145867Y-12133D02*
Y21529D01*
X162828Y-12133D02*
Y21529D01*
X155135Y-8590D02*
X153560D01*
X156018Y-4911D02*
X155962Y-4683D01*
X155843Y-4251D01*
X155718Y-3854D01*
X155654Y-3668D01*
X152977Y-3854D02*
X153042Y-3668D01*
X152852Y-4251D02*
X152977Y-3854D01*
X152734Y-4683D02*
X152852Y-4251D01*
X152677Y-4911D02*
X152734Y-4683D01*
X152677Y-4911D02*
X152734Y-4683D01*
X152852Y-4251D01*
X152977Y-3854D01*
X153042Y-3668D01*
X155654D02*
X153042D01*
X155654D02*
Y21529D01*
X155135Y-8590D02*
X156316Y-3668D01*
Y21529D01*
X153560Y-8590D02*
X152379Y-3668D01*
Y21529D01*
X153042Y-3668D02*
Y21529D01*
X162828D02*
X145867D01*
X182828D02*
X165867D01*
X173042Y-3668D02*
Y21529D01*
X172379Y-3668D02*
Y21529D01*
X173560Y-8590D02*
X172379Y-3668D01*
X175654D02*
X173042D01*
X172977Y-3854D02*
X173042Y-3668D01*
X172852Y-4251D02*
X172977Y-3854D01*
X172734Y-4683D02*
X172852Y-4251D01*
X172677Y-4911D02*
X172734Y-4683D01*
X172677Y-4911D02*
X172734Y-4683D01*
X172852Y-4251D01*
X172977Y-3854D01*
X173042Y-3668D01*
X175135Y-8590D02*
X173560D01*
X165867Y-12133D02*
Y21529D01*
X169741Y-12133D02*
Y4206D01*
X170726Y-12133D02*
Y4206D01*
X178954D02*
X169741D01*
X177970Y-12133D02*
Y4206D01*
X178954Y-12133D02*
Y4206D01*
X182828Y-12133D02*
Y21529D01*
X176018Y-4911D02*
X175962Y-4683D01*
X175843Y-4251D01*
X175718Y-3854D01*
X175654Y-3668D01*
Y21529D01*
X175135Y-8590D02*
X176316Y-3668D01*
Y21529D01*
X183954Y-12133D02*
Y35111D01*
X155352Y142556D02*
X147752D01*
X155352Y159556D02*
X147752D01*
Y142556D02*
Y159556D01*
X155352Y142556D02*
Y159556D01*
X26395Y234603D02*
Y281848D01*
X50332D02*
X26395D01*
X50332Y234603D02*
X26395D01*
X50332D02*
Y281848D01*
X26887Y53993D02*
Y101237D01*
X50824D02*
X26887D01*
X50824Y53993D02*
X26887D01*
X50824D02*
Y101237D01*
X26887Y122891D02*
Y170135D01*
X50824D02*
X26887D01*
X50824Y122891D02*
X26887D01*
X50824D02*
Y170135D01*
D61*
X666415Y294462D02*
X664840D01*
X668777D02*
X666415D01*
X682556D02*
X678619D01*
X682556Y277533D02*
Y294462D01*
X668777Y276351D02*
X666021D01*
X681375D02*
X678619D01*
X681375D02*
X682556Y277533D01*
X666415Y294462D02*
X666415D01*
X666021Y276351D02*
X664840Y277533D01*
Y294462D01*
X682556Y217296D02*
X680982D01*
X680982D02*
X678619D01*
X668777D02*
X664840D01*
Y234226D01*
X681375Y235407D02*
X678619D01*
X668777D02*
X666021D01*
X664840Y234226D02*
X666021Y235407D01*
X680982Y217296D02*
X680982D01*
X682556Y234226D02*
X681375Y235407D01*
X682556Y217296D02*
Y234226D01*
X726159Y73005D02*
Y76155D01*
X732064Y73005D02*
Y76155D01*
X691384Y136897D02*
X694716D01*
X695383Y137564D01*
Y138897D01*
X694716Y139563D01*
X691384D01*
X695383Y143562D02*
Y140896D01*
X692717Y143562D01*
X692050D01*
X691384Y142895D01*
Y141562D01*
X692050Y140896D01*
X462053Y91622D02*
X466052D01*
Y94287D01*
Y98286D02*
Y95620D01*
X463386Y98286D01*
X462720D01*
X462053Y97620D01*
Y96287D01*
X462720Y95620D01*
X662152Y242583D02*
X665484D01*
X666150Y243250D01*
Y244583D01*
X665484Y245249D01*
X662152D01*
X666150Y246582D02*
Y247915D01*
Y247249D01*
X662152D01*
X662818Y246582D01*
X697351Y152351D02*
X693352D01*
Y154350D01*
X694019Y155017D01*
X695352D01*
X696018Y154350D01*
Y152351D01*
Y153684D02*
X697351Y155017D01*
X693352Y156349D02*
Y159015D01*
X694019D01*
X696685Y156349D01*
X697351D01*
X707151Y152351D02*
X703152D01*
Y154350D01*
X703819Y155017D01*
X705152D01*
X705818Y154350D01*
Y152351D01*
Y153684D02*
X707151Y155017D01*
X703819Y156349D02*
X703152Y157016D01*
Y158349D01*
X703819Y159015D01*
X704485D01*
X705152Y158349D01*
X705818Y159015D01*
X706485D01*
X707151Y158349D01*
Y157016D01*
X706485Y156349D01*
X705818D01*
X705152Y157016D01*
X704485Y156349D01*
X703819D01*
X705152Y157016D02*
Y158349D01*
X717051Y152351D02*
X713052D01*
Y154350D01*
X713719Y155017D01*
X715052D01*
X715718Y154350D01*
Y152351D01*
Y153684D02*
X717051Y155017D01*
X716385Y156349D02*
X717051Y157016D01*
Y158349D01*
X716385Y159015D01*
X713719D01*
X713052Y158349D01*
Y157016D01*
X713719Y156349D01*
X714385D01*
X715052Y157016D01*
Y159015D01*
X463037Y250086D02*
X467036D01*
Y252752D01*
X463704Y254085D02*
X463037Y254751D01*
Y256084D01*
X463704Y256751D01*
X464370D01*
X465037Y256084D01*
Y255418D01*
Y256084D01*
X465703Y256751D01*
X466370D01*
X467036Y256084D01*
Y254751D01*
X466370Y254085D01*
X661539Y325269D02*
X660872Y324602D01*
Y323269D01*
X661539Y322603D01*
X664204D01*
X664871Y323269D01*
Y324602D01*
X664204Y325269D01*
X664871Y326602D02*
Y327935D01*
Y327268D01*
X660872D01*
X661539Y326602D01*
X601325Y257150D02*
X605324D01*
Y259816D01*
Y261149D02*
Y262482D01*
Y261815D01*
X601325D01*
X601991Y261149D01*
X617914Y254751D02*
X617247Y255418D01*
X615914D01*
X615248Y254751D01*
Y252085D01*
X615914Y251419D01*
X617247D01*
X617914Y252085D01*
X619246Y254751D02*
X619913Y255418D01*
X621246D01*
X621912Y254751D01*
Y254085D01*
X621246Y253418D01*
X620579D01*
X621246D01*
X621912Y252752D01*
Y252085D01*
X621246Y251419D01*
X619913D01*
X619246Y252085D01*
X647593Y314192D02*
X648259Y313525D01*
X649592D01*
X650259Y314192D01*
Y316858D01*
X649592Y317524D01*
X648259D01*
X647593Y316858D01*
X643594Y317524D02*
X646260D01*
X643594Y314858D01*
Y314192D01*
X644261Y313525D01*
X645594D01*
X646260Y314192D01*
X672745Y147898D02*
X668746D01*
Y149898D01*
X669413Y150564D01*
X670745D01*
X671412Y149898D01*
Y147898D01*
Y149231D02*
X672745Y150564D01*
Y151897D02*
Y153230D01*
Y152563D01*
X668746D01*
X669413Y151897D01*
X580655Y84670D02*
Y87336D01*
Y86003D01*
X584654D01*
X580655Y88669D02*
X583321D01*
X584654Y90002D01*
X583321Y91335D01*
X580655D01*
X581322Y95333D02*
X580655Y94667D01*
Y93334D01*
X581322Y92668D01*
X581988D01*
X582655Y93334D01*
Y94667D01*
X583321Y95333D01*
X583988D01*
X584654Y94667D01*
Y93334D01*
X583988Y92668D01*
X584654Y99332D02*
Y96666D01*
X581988Y99332D01*
X581322D01*
X580655Y98666D01*
Y97333D01*
X581322Y96666D01*
X582624Y44490D02*
Y47156D01*
Y45823D01*
X586623D01*
X582624Y48489D02*
X585290D01*
X586623Y49822D01*
X585290Y51155D01*
X582624D01*
X583290Y55153D02*
X582624Y54487D01*
Y53154D01*
X583290Y52487D01*
X583957D01*
X584623Y53154D01*
Y54487D01*
X585290Y55153D01*
X585956D01*
X586623Y54487D01*
Y53154D01*
X585956Y52487D01*
X586623Y56486D02*
Y57819D01*
Y57153D01*
X582624D01*
X583290Y56486D01*
X626951Y115751D02*
X622952D01*
Y117750D01*
X623619Y118417D01*
X624952D01*
X625618Y117750D01*
Y115751D01*
Y117084D02*
X626951Y118417D01*
X623619Y119749D02*
X622952Y120416D01*
Y121749D01*
X623619Y122415D01*
X624285D01*
X624952Y121749D01*
Y121082D01*
Y121749D01*
X625618Y122415D01*
X626285D01*
X626951Y121749D01*
Y120416D01*
X626285Y119749D01*
X626951Y123748D02*
Y125081D01*
Y124415D01*
X622952D01*
X623619Y123748D01*
X646651Y114451D02*
X642652D01*
Y116450D01*
X643319Y117116D01*
X644652D01*
X645318Y116450D01*
Y114451D01*
Y115784D02*
X646651Y117116D01*
X643319Y118449D02*
X642652Y119116D01*
Y120449D01*
X643319Y121115D01*
X643985D01*
X644652Y120449D01*
Y119782D01*
Y120449D01*
X645318Y121115D01*
X645985D01*
X646651Y120449D01*
Y119116D01*
X645985Y118449D01*
X643319Y122448D02*
X642652Y123115D01*
Y124447D01*
X643319Y125114D01*
X645985D01*
X646651Y124447D01*
Y123115D01*
X645985Y122448D01*
X643319D01*
X636820Y113343D02*
X632821D01*
Y115342D01*
X633487Y116008D01*
X634820D01*
X635487Y115342D01*
Y113343D01*
Y114676D02*
X636820Y116008D01*
Y120007D02*
Y117341D01*
X634154Y120007D01*
X633487D01*
X632821Y119341D01*
Y118008D01*
X633487Y117341D01*
X636153Y121340D02*
X636820Y122007D01*
Y123339D01*
X636153Y124006D01*
X633487D01*
X632821Y123339D01*
Y122007D01*
X633487Y121340D01*
X634154D01*
X634820Y122007D01*
Y124006D01*
X565461Y82240D02*
X561463D01*
Y84240D01*
X562129Y84906D01*
X563462D01*
X564128Y84240D01*
Y82240D01*
Y83573D02*
X565461Y84906D01*
Y88905D02*
Y86239D01*
X562795Y88905D01*
X562129D01*
X561463Y88238D01*
Y86905D01*
X562129Y86239D01*
Y90238D02*
X561463Y90904D01*
Y92237D01*
X562129Y92904D01*
X562795D01*
X563462Y92237D01*
X564128Y92904D01*
X564795D01*
X565461Y92237D01*
Y90904D01*
X564795Y90238D01*
X564128D01*
X563462Y90904D01*
X562795Y90238D01*
X562129D01*
X563462Y90904D02*
Y92237D01*
X575304Y82240D02*
X571305D01*
Y84240D01*
X571972Y84906D01*
X573305D01*
X573971Y84240D01*
Y82240D01*
Y83573D02*
X575304Y84906D01*
Y88905D02*
Y86239D01*
X572638Y88905D01*
X571972D01*
X571305Y88238D01*
Y86905D01*
X571972Y86239D01*
X571305Y90238D02*
Y92904D01*
X571972D01*
X574637Y90238D01*
X575304D01*
X581751Y128651D02*
X577752D01*
Y130650D01*
X578419Y131316D01*
X579752D01*
X580418Y130650D01*
Y128651D01*
Y129984D02*
X581751Y131316D01*
Y135315D02*
Y132649D01*
X579085Y135315D01*
X578419D01*
X577752Y134649D01*
Y133316D01*
X578419Y132649D01*
X577752Y139314D02*
X578419Y137981D01*
X579752Y136648D01*
X581084D01*
X581751Y137314D01*
Y138647D01*
X581084Y139314D01*
X580418D01*
X579752Y138647D01*
Y136648D01*
X569351Y128651D02*
X565352D01*
Y130650D01*
X566019Y131316D01*
X567352D01*
X568018Y130650D01*
Y128651D01*
Y129984D02*
X569351Y131316D01*
Y135315D02*
Y132649D01*
X566685Y135315D01*
X566019D01*
X565352Y134649D01*
Y133316D01*
X566019Y132649D01*
X569351Y139314D02*
Y136648D01*
X566685Y139314D01*
X566019D01*
X565352Y138647D01*
Y137314D01*
X566019Y136648D01*
X614319Y117116D02*
X613652Y116450D01*
Y115117D01*
X614319Y114451D01*
X616985D01*
X617651Y115117D01*
Y116450D01*
X616985Y117116D01*
X617651Y121115D02*
Y118449D01*
X614985Y121115D01*
X614319D01*
X613652Y120449D01*
Y119116D01*
X614319Y118449D01*
X613652Y122448D02*
Y125114D01*
X614319D01*
X616985Y122448D01*
X617651D01*
X569421Y206787D02*
X566755D01*
X566089Y206121D01*
Y204788D01*
X566755Y204122D01*
X569421D01*
X570087Y204788D01*
Y206121D01*
X568754Y205454D02*
X570087Y206787D01*
Y206121D02*
X569421Y206787D01*
X566089Y210786D02*
Y208120D01*
X568088D01*
X567421Y209453D01*
Y210120D01*
X568088Y210786D01*
X569421D01*
X570087Y210120D01*
Y208787D01*
X569421Y208120D01*
X556429Y203539D02*
X553763D01*
X553096Y202873D01*
Y201540D01*
X553763Y200873D01*
X556429D01*
X557095Y201540D01*
Y202873D01*
X555762Y202206D02*
X557095Y203539D01*
Y202873D02*
X556429Y203539D01*
X553096Y204872D02*
Y207538D01*
X553763D01*
X556429Y204872D01*
X557095D01*
X552196Y186512D02*
X549531D01*
X548864Y185845D01*
Y184512D01*
X549531Y183846D01*
X552196D01*
X552863Y184512D01*
Y185845D01*
X551530Y185179D02*
X552863Y186512D01*
Y185845D02*
X552196Y186512D01*
X548864Y190510D02*
X549531Y189178D01*
X550864Y187845D01*
X552196D01*
X552863Y188511D01*
Y189844D01*
X552196Y190510D01*
X551530D01*
X550864Y189844D01*
Y187845D01*
X582151Y158551D02*
X578152D01*
Y160550D01*
X578819Y161216D01*
X580152D01*
X580818Y160550D01*
Y158551D01*
Y159884D02*
X582151Y161216D01*
Y165215D02*
Y162549D01*
X579485Y165215D01*
X578819D01*
X578152Y164549D01*
Y163216D01*
X578819Y162549D01*
X582151Y166548D02*
Y167881D01*
Y167215D01*
X578152D01*
X578819Y166548D01*
X736721Y189032D02*
X732722D01*
Y191031D01*
X733389Y191698D01*
X734722D01*
X735388Y191031D01*
Y189032D01*
Y190365D02*
X736721Y191698D01*
Y195696D02*
Y193030D01*
X734055Y195696D01*
X733389D01*
X732722Y195030D01*
Y193697D01*
X733389Y193030D01*
X732722Y199695D02*
Y197029D01*
X734722D01*
X734055Y198362D01*
Y199028D01*
X734722Y199695D01*
X736055D01*
X736721Y199028D01*
Y197696D01*
X736055Y197029D01*
X540793Y356098D02*
Y354766D01*
Y355432D01*
X544126D01*
X544792Y354766D01*
Y354099D01*
X544126Y353433D01*
X544792Y359431D02*
X540793D01*
X542793Y357431D01*
Y360097D01*
X539252Y226951D02*
X542585D01*
X543251Y227617D01*
Y228950D01*
X542585Y229616D01*
X539252D01*
Y233615D02*
Y230949D01*
X541252D01*
X540585Y232282D01*
Y232949D01*
X541252Y233615D01*
X542585D01*
X543251Y232949D01*
Y231616D01*
X542585Y230949D01*
X604339Y302713D02*
X600341D01*
Y304712D01*
X601007Y305379D01*
X602340D01*
X603006Y304712D01*
Y302713D01*
Y304046D02*
X604339Y305379D01*
Y309377D02*
Y306712D01*
X601673Y309377D01*
X601007D01*
X600341Y308711D01*
Y307378D01*
X601007Y306712D01*
X604339Y312709D02*
X600341D01*
X602340Y310710D01*
Y313376D01*
X589551Y215351D02*
X585552D01*
Y217350D01*
X586219Y218017D01*
X587552D01*
X588218Y217350D01*
Y215351D01*
Y216684D02*
X589551Y218017D01*
Y222015D02*
Y219349D01*
X586885Y222015D01*
X586219D01*
X585552Y221349D01*
Y220016D01*
X586219Y219349D01*
Y223348D02*
X585552Y224014D01*
Y225347D01*
X586219Y226014D01*
X586885D01*
X587552Y225347D01*
Y224681D01*
Y225347D01*
X588218Y226014D01*
X588884D01*
X589551Y225347D01*
Y224014D01*
X588884Y223348D01*
X433079Y193953D02*
X429081D01*
Y195952D01*
X429747Y196619D01*
X431080D01*
X431746Y195952D01*
Y193953D01*
Y195286D02*
X433079Y196619D01*
Y200617D02*
Y197952D01*
X430414Y200617D01*
X429747D01*
X429081Y199951D01*
Y198618D01*
X429747Y197952D01*
Y201950D02*
X429081Y202617D01*
Y203950D01*
X429747Y204616D01*
X432413D01*
X433079Y203950D01*
Y202617D01*
X432413Y201950D01*
X429747D01*
X647154Y175093D02*
X643155D01*
Y177093D01*
X643822Y177759D01*
X645155D01*
X645821Y177093D01*
Y175093D01*
Y176426D02*
X647154Y177759D01*
Y179092D02*
Y180425D01*
Y179758D01*
X643155D01*
X643822Y179092D01*
Y182424D02*
X643155Y183091D01*
Y184424D01*
X643822Y185090D01*
X644488D01*
X645155Y184424D01*
X645821Y185090D01*
X646488D01*
X647154Y184424D01*
Y183091D01*
X646488Y182424D01*
X645821D01*
X645155Y183091D01*
X644488Y182424D01*
X643822D01*
X645155Y183091D02*
Y184424D01*
X617627Y175585D02*
X613628D01*
Y177585D01*
X614294Y178251D01*
X615627D01*
X616294Y177585D01*
Y175585D01*
Y176918D02*
X617627Y178251D01*
Y179584D02*
Y180917D01*
Y180251D01*
X613628D01*
X614294Y179584D01*
X613628Y185582D02*
X614294Y184249D01*
X615627Y182916D01*
X616960D01*
X617627Y183583D01*
Y184916D01*
X616960Y185582D01*
X616294D01*
X615627Y184916D01*
Y182916D01*
X575734Y301729D02*
X579733D01*
Y303728D01*
X579067Y304394D01*
X576401D01*
X575734Y303728D01*
Y301729D01*
Y305727D02*
Y308393D01*
X576401D01*
X579067Y305727D01*
X579733D01*
Y308393D01*
X576401Y309726D02*
X575734Y310392D01*
Y311725D01*
X576401Y312392D01*
X577067D01*
X577734Y311725D01*
Y311059D01*
Y311725D01*
X578400Y312392D01*
X579067D01*
X579733Y311725D01*
Y310392D01*
X579067Y309726D01*
X586243Y303410D02*
X585577Y302744D01*
Y301411D01*
X586243Y300744D01*
X588909D01*
X589575Y301411D01*
Y302744D01*
X588909Y303410D01*
X589575Y307409D02*
Y304743D01*
X586910Y307409D01*
X586243D01*
X585577Y306742D01*
Y305409D01*
X586243Y304743D01*
X585577Y311407D02*
X586243Y310075D01*
X587576Y308742D01*
X588909D01*
X589575Y309408D01*
Y310741D01*
X588909Y311407D01*
X588243D01*
X587576Y310741D01*
Y308742D01*
X594117Y252721D02*
X593451Y252055D01*
Y250722D01*
X594117Y250055D01*
X596783D01*
X597449Y250722D01*
Y252055D01*
X596783Y252721D01*
X597449Y256720D02*
Y254054D01*
X594784Y256720D01*
X594117D01*
X593451Y256053D01*
Y254720D01*
X594117Y254054D01*
X597449Y260052D02*
X593451D01*
X595450Y258053D01*
Y260718D01*
X564590Y306855D02*
X563923Y306189D01*
Y304856D01*
X564590Y304189D01*
X567255D01*
X567922Y304856D01*
Y306189D01*
X567255Y306855D01*
X567922Y310854D02*
Y308188D01*
X565256Y310854D01*
X564590D01*
X563923Y310187D01*
Y308854D01*
X564590Y308188D01*
Y312187D02*
X563923Y312853D01*
Y314186D01*
X564590Y314852D01*
X565256D01*
X565923Y314186D01*
Y313520D01*
Y314186D01*
X566589Y314852D01*
X567255D01*
X567922Y314186D01*
Y312853D01*
X567255Y312187D01*
X656951Y115051D02*
X652952D01*
Y117050D01*
X653619Y117717D01*
X654952D01*
X655618Y117050D01*
Y115051D01*
Y116384D02*
X656951Y117717D01*
Y119049D02*
Y120382D01*
Y119716D01*
X652952D01*
X653619Y119049D01*
Y122382D02*
X652952Y123048D01*
Y124381D01*
X653619Y125047D01*
X654285D01*
X654952Y124381D01*
Y123714D01*
Y124381D01*
X655618Y125047D01*
X656285D01*
X656951Y124381D01*
Y123048D01*
X656285Y122382D01*
X754930Y212495D02*
X750931D01*
Y214494D01*
X751597Y215161D01*
X752930D01*
X753597Y214494D01*
Y212495D01*
Y213828D02*
X754930Y215161D01*
Y216494D02*
Y217826D01*
Y217160D01*
X750931D01*
X751597Y216494D01*
X754930Y222492D02*
Y219826D01*
X752264Y222492D01*
X751597D01*
X750931Y221825D01*
Y220492D01*
X751597Y219826D01*
X725228Y230289D02*
X722562D01*
X721896Y229622D01*
Y228289D01*
X722562Y227623D01*
X725228D01*
X725894Y228289D01*
Y229622D01*
X724562Y228956D02*
X725894Y230289D01*
Y229622D02*
X725228Y230289D01*
X725894Y231621D02*
Y232954D01*
Y232288D01*
X721896D01*
X722562Y231621D01*
X762742Y73618D02*
Y72285D01*
Y72952D01*
X766074D01*
X766741Y72285D01*
Y71619D01*
X766074Y70952D01*
X762742Y74951D02*
Y77617D01*
X763409D01*
X766074Y74951D01*
X766741D01*
X684556Y148216D02*
X680557D01*
Y150215D01*
X681223Y150882D01*
X682556D01*
X683223Y150215D01*
Y148216D01*
Y149549D02*
X684556Y150882D01*
X680557Y154881D02*
Y152215D01*
X682556D01*
X681890Y153548D01*
Y154214D01*
X682556Y154881D01*
X683889D01*
X684556Y154214D01*
Y152881D01*
X683889Y152215D01*
X613628Y57173D02*
X616960D01*
X617627Y57839D01*
Y59172D01*
X616960Y59839D01*
X613628D01*
X617627Y63171D02*
X613628D01*
X615627Y61172D01*
Y63837D01*
X554651Y89951D02*
X550652D01*
Y91950D01*
X551319Y92616D01*
X552652D01*
X553318Y91950D01*
Y89951D01*
Y91284D02*
X554651Y92616D01*
Y93949D02*
Y95282D01*
Y94616D01*
X550652D01*
X551319Y93949D01*
X553984Y97282D02*
X554651Y97948D01*
Y99281D01*
X553984Y99947D01*
X551319D01*
X550652Y99281D01*
Y97948D01*
X551319Y97282D01*
X551985D01*
X552652Y97948D01*
Y99947D01*
X544751Y89951D02*
X540752D01*
Y91950D01*
X541419Y92616D01*
X542752D01*
X543418Y91950D01*
Y89951D01*
Y91284D02*
X544751Y92616D01*
Y93949D02*
Y95282D01*
Y94616D01*
X540752D01*
X541419Y93949D01*
X540752Y97282D02*
Y99947D01*
X541419D01*
X544085Y97282D01*
X544751D01*
X557051Y129351D02*
X553052D01*
Y131350D01*
X553719Y132017D01*
X555052D01*
X555718Y131350D01*
Y129351D01*
Y130684D02*
X557051Y132017D01*
Y133349D02*
Y134682D01*
Y134016D01*
X553052D01*
X553719Y133349D01*
X557051Y138681D02*
X553052D01*
X555052Y136682D01*
Y139347D01*
X673237Y95066D02*
X669238D01*
Y97066D01*
X669905Y97732D01*
X671238D01*
X671904Y97066D01*
Y95066D01*
Y96399D02*
X673237Y97732D01*
Y101065D02*
X669238D01*
X671238Y99065D01*
Y101731D01*
X667331Y57173D02*
X663333D01*
Y59172D01*
X663999Y59838D01*
X665332D01*
X665999Y59172D01*
Y57173D01*
Y58506D02*
X667331Y59838D01*
X663999Y61172D02*
X663333Y61838D01*
Y63171D01*
X663999Y63837D01*
X664666D01*
X665332Y63171D01*
Y62504D01*
Y63171D01*
X665999Y63837D01*
X666665D01*
X667331Y63171D01*
Y61838D01*
X666665Y61172D01*
X689951Y17051D02*
X685952D01*
Y19050D01*
X686619Y19716D01*
X687952D01*
X688618Y19050D01*
Y17051D01*
Y18384D02*
X689951Y19716D01*
Y23715D02*
Y21049D01*
X687285Y23715D01*
X686619D01*
X685952Y23049D01*
Y21716D01*
X686619Y21049D01*
X632821Y175252D02*
X636820D01*
Y177252D01*
X636153Y177918D01*
X633487D01*
X632821Y177252D01*
Y175252D01*
Y179251D02*
Y181917D01*
X633487D01*
X636153Y179251D01*
X636820D01*
Y181917D01*
Y185915D02*
Y183249D01*
X634154Y185915D01*
X633487D01*
X632821Y185249D01*
Y183916D01*
X633487Y183249D01*
X667270Y11056D02*
X671268D01*
Y13056D01*
X670602Y13722D01*
X667936D01*
X667270Y13056D01*
Y11056D01*
Y15055D02*
Y17721D01*
X667936D01*
X670602Y15055D01*
X671268D01*
Y17721D01*
Y19054D02*
Y20387D01*
Y19720D01*
X667270D01*
X667936Y19054D01*
X623153Y177918D02*
X622486Y177252D01*
Y175919D01*
X623153Y175252D01*
X625818D01*
X626485Y175919D01*
Y177252D01*
X625818Y177918D01*
X626485Y181917D02*
Y179251D01*
X623819Y181917D01*
X623153D01*
X622486Y181250D01*
Y179917D01*
X623153Y179251D01*
X626485Y185915D02*
Y183249D01*
X623819Y185915D01*
X623153D01*
X622486Y185249D01*
Y183916D01*
X623153Y183249D01*
X571019Y47717D02*
X570352Y47050D01*
Y45717D01*
X571019Y45051D01*
X573685D01*
X574351Y45717D01*
Y47050D01*
X573685Y47717D01*
X574351Y51715D02*
Y49049D01*
X571685Y51715D01*
X571019D01*
X570352Y51049D01*
Y49716D01*
X571019Y49049D01*
Y53048D02*
X570352Y53715D01*
Y55047D01*
X571019Y55714D01*
X573685D01*
X574351Y55047D01*
Y53715D01*
X573685Y53048D01*
X571019D01*
X561119Y48417D02*
X560452Y47750D01*
Y46417D01*
X561119Y45751D01*
X563785D01*
X564451Y46417D01*
Y47750D01*
X563785Y48417D01*
X564451Y49749D02*
Y51082D01*
Y50416D01*
X560452D01*
X561119Y49749D01*
X563785Y53082D02*
X564451Y53748D01*
Y55081D01*
X563785Y55747D01*
X561119D01*
X560452Y55081D01*
Y53748D01*
X561119Y53082D01*
X561785D01*
X562452Y53748D01*
Y55747D01*
X637424Y16342D02*
X636758Y15675D01*
Y14342D01*
X637424Y13676D01*
X640090D01*
X640757Y14342D01*
Y15675D01*
X640090Y16342D01*
X640757Y17675D02*
Y19007D01*
Y18341D01*
X636758D01*
X637424Y17675D01*
Y21007D02*
X636758Y21673D01*
Y23006D01*
X637424Y23673D01*
X638091D01*
X638757Y23006D01*
X639424Y23673D01*
X640090D01*
X640757Y23006D01*
Y21673D01*
X640090Y21007D01*
X639424D01*
X638757Y21673D01*
X638091Y21007D01*
X637424D01*
X638757Y21673D02*
Y23006D01*
X660062Y220764D02*
X659396Y220097D01*
Y218764D01*
X660062Y218098D01*
X662728D01*
X663394Y218764D01*
Y220097D01*
X662728Y220764D01*
X659396Y222097D02*
Y224763D01*
X660062D01*
X662728Y222097D01*
X663394D01*
X727309Y60300D02*
X727976D01*
X729308Y61633D01*
X727976Y62966D01*
X727309D01*
X729308Y61633D02*
X731308D01*
Y64298D02*
Y65631D01*
Y64965D01*
X727309D01*
X727976Y64298D01*
X499947Y27645D02*
X503279D01*
X503945Y28312D01*
Y29645D01*
X503279Y30311D01*
X499947D01*
X500613Y31644D02*
X499947Y32310D01*
Y33643D01*
X500613Y34310D01*
X501280D01*
X501946Y33643D01*
Y32977D01*
Y33643D01*
X502613Y34310D01*
X503279D01*
X503945Y33643D01*
Y32310D01*
X503279Y31644D01*
X660934Y12374D02*
X656935D01*
Y14373D01*
X657601Y15040D01*
X658934D01*
X659601Y14373D01*
Y12374D01*
Y13707D02*
X660934Y15040D01*
Y16373D02*
Y17706D01*
Y17039D01*
X656935D01*
X657601Y16373D01*
X660934Y19705D02*
Y21038D01*
Y20371D01*
X656935D01*
X657601Y19705D01*
X651091Y11215D02*
X647092D01*
Y13215D01*
X647759Y13881D01*
X649092D01*
X649758Y13215D01*
Y11215D01*
Y12548D02*
X651091Y13881D01*
Y15214D02*
Y16547D01*
Y15880D01*
X647092D01*
X647759Y15214D01*
Y18546D02*
X647092Y19213D01*
Y20546D01*
X647759Y21212D01*
X650425D01*
X651091Y20546D01*
Y19213D01*
X650425Y18546D01*
X647759D01*
X736229Y152645D02*
X732230D01*
Y154645D01*
X732897Y155311D01*
X734230D01*
X734896Y154645D01*
Y152645D01*
Y153978D02*
X736229Y155311D01*
X732230Y159310D02*
X732897Y157977D01*
X734230Y156644D01*
X735563D01*
X736229Y157310D01*
Y158643D01*
X735563Y159310D01*
X734896D01*
X734230Y158643D01*
Y156644D01*
X532762Y12595D02*
Y11262D01*
Y11928D01*
X536094D01*
X536761Y11262D01*
Y10595D01*
X536094Y9929D01*
X533428Y13927D02*
X532762Y14594D01*
Y15927D01*
X533428Y16593D01*
X534095D01*
X534761Y15927D01*
Y15260D01*
Y15927D01*
X535428Y16593D01*
X536094D01*
X536761Y15927D01*
Y14594D01*
X536094Y13927D01*
X756058Y163329D02*
X757390D01*
X756724D01*
Y166661D01*
X757390Y167327D01*
X758057D01*
X758723Y166661D01*
X752059Y167327D02*
X754725D01*
X752059Y164661D01*
Y163995D01*
X752725Y163329D01*
X754058D01*
X754725Y163995D01*
X756852Y125216D02*
Y123884D01*
Y124550D01*
X760184D01*
X760851Y123884D01*
Y123217D01*
X760184Y122551D01*
X760851Y126549D02*
Y127882D01*
Y127216D01*
X756852D01*
X757519Y126549D01*
X600341Y90145D02*
X604339D01*
Y92145D01*
X603673Y92811D01*
X601007D01*
X600341Y92145D01*
Y90145D01*
X604339Y96810D02*
Y94144D01*
X601673Y96810D01*
X601007D01*
X600341Y96143D01*
Y94810D01*
X601007Y94144D01*
X708608Y176442D02*
X712607D01*
Y178441D01*
X711940Y179107D01*
X709275D01*
X708608Y178441D01*
Y176442D01*
X712607Y180440D02*
Y181773D01*
Y181107D01*
X708608D01*
X709275Y180440D01*
X453861Y6007D02*
X453195Y5341D01*
Y4008D01*
X453861Y3341D01*
X456527D01*
X457194Y4008D01*
Y5341D01*
X456527Y6007D01*
X457194Y7340D02*
Y8673D01*
Y8006D01*
X453195D01*
X453861Y7340D01*
X453195Y10672D02*
Y13338D01*
X453861D01*
X456527Y10672D01*
X457194D01*
X464688Y5515D02*
X464022Y4848D01*
Y3516D01*
X464688Y2849D01*
X467354D01*
X468020Y3516D01*
Y4848D01*
X467354Y5515D01*
X468020Y6848D02*
Y8181D01*
Y7514D01*
X464022D01*
X464688Y6848D01*
X464022Y12846D02*
X464688Y11513D01*
X466021Y10180D01*
X467354D01*
X468020Y10847D01*
Y12179D01*
X467354Y12846D01*
X466687D01*
X466021Y12179D01*
Y10180D01*
X723519Y151716D02*
X722852Y151050D01*
Y149717D01*
X723519Y149051D01*
X726185D01*
X726851Y149717D01*
Y151050D01*
X726185Y151716D01*
X726851Y153049D02*
Y154382D01*
Y153716D01*
X722852D01*
X723519Y153049D01*
X722852Y159047D02*
Y156382D01*
X724852D01*
X724185Y157714D01*
Y158381D01*
X724852Y159047D01*
X726185D01*
X726851Y158381D01*
Y157048D01*
X726185Y156382D01*
X695495Y11913D02*
X694829Y11246D01*
Y9913D01*
X695495Y9247D01*
X698161D01*
X698827Y9913D01*
Y11246D01*
X698161Y11913D01*
X698827Y13246D02*
Y14578D01*
Y13912D01*
X694829D01*
X695495Y13246D01*
X698827Y18577D02*
X694829D01*
X696828Y16578D01*
Y19243D01*
X715180Y11913D02*
X714514Y11246D01*
Y9913D01*
X715180Y9247D01*
X717846D01*
X718512Y9913D01*
Y11246D01*
X717846Y11913D01*
X718512Y13246D02*
Y14578D01*
Y13912D01*
X714514D01*
X715180Y13246D01*
Y16578D02*
X714514Y17244D01*
Y18577D01*
X715180Y19243D01*
X715847D01*
X716513Y18577D01*
Y17911D01*
Y18577D01*
X717180Y19243D01*
X717846D01*
X718512Y18577D01*
Y17244D01*
X717846Y16578D01*
X705830Y11913D02*
X705163Y11246D01*
Y9913D01*
X705830Y9247D01*
X708496D01*
X709162Y9913D01*
Y11246D01*
X708496Y11913D01*
X709162Y13246D02*
Y14578D01*
Y13912D01*
X705163D01*
X705830Y13246D01*
X709162Y19243D02*
Y16578D01*
X706496Y19243D01*
X705830D01*
X705163Y18577D01*
Y17244D01*
X705830Y16578D01*
X734865Y13071D02*
X734199Y12405D01*
Y11072D01*
X734865Y10405D01*
X737531D01*
X738198Y11072D01*
Y12405D01*
X737531Y13071D01*
X738198Y14404D02*
Y15737D01*
Y15070D01*
X734199D01*
X734865Y14404D01*
X738198Y17736D02*
Y19069D01*
Y18403D01*
X734199D01*
X734865Y17736D01*
X725515Y11913D02*
X724848Y11246D01*
Y9913D01*
X725515Y9247D01*
X728181D01*
X728847Y9913D01*
Y11246D01*
X728181Y11913D01*
X728847Y13246D02*
Y14578D01*
Y13912D01*
X724848D01*
X725515Y13246D01*
Y16578D02*
X724848Y17244D01*
Y18577D01*
X725515Y19243D01*
X728181D01*
X728847Y18577D01*
Y17244D01*
X728181Y16578D01*
X725515D01*
X740377Y57968D02*
X739711Y57302D01*
Y55969D01*
X740377Y55303D01*
X743043D01*
X743709Y55969D01*
Y57302D01*
X743043Y57968D01*
Y59301D02*
X743709Y59968D01*
Y61301D01*
X743043Y61967D01*
X740377D01*
X739711Y61301D01*
Y59968D01*
X740377Y59301D01*
X741044D01*
X741710Y59968D01*
Y61967D01*
X716164Y56394D02*
X715498Y55727D01*
Y54394D01*
X716164Y53728D01*
X718830D01*
X719497Y54394D01*
Y55727D01*
X718830Y56394D01*
X716164Y57727D02*
X715498Y58393D01*
Y59726D01*
X716164Y60392D01*
X716831D01*
X717497Y59726D01*
X718164Y60392D01*
X718830D01*
X719497Y59726D01*
Y58393D01*
X718830Y57727D01*
X718164D01*
X717497Y58393D01*
X716831Y57727D01*
X716164D01*
X717497Y58393D02*
Y59726D01*
X692050Y211906D02*
X691384Y211239D01*
Y209906D01*
X692050Y209240D01*
X694716D01*
X695382Y209906D01*
Y211239D01*
X694716Y211906D01*
X691384Y215904D02*
X692050Y214571D01*
X693383Y213238D01*
X694716D01*
X695382Y213905D01*
Y215238D01*
X694716Y215904D01*
X694050D01*
X693383Y215238D01*
Y213238D01*
X692050Y270961D02*
X691384Y270294D01*
Y268961D01*
X692050Y268295D01*
X694716D01*
X695382Y268961D01*
Y270294D01*
X694716Y270961D01*
X691384Y274959D02*
Y272293D01*
X693383D01*
X692717Y273626D01*
Y274293D01*
X693383Y274959D01*
X694716D01*
X695382Y274293D01*
Y272960D01*
X694716Y272293D01*
X664764Y299732D02*
X664097Y300398D01*
X662765D01*
X662098Y299732D01*
Y297066D01*
X662765Y296399D01*
X664097D01*
X664764Y297066D01*
X668096Y296399D02*
Y300398D01*
X666097Y298399D01*
X668763D01*
X433385Y287717D02*
X430719D01*
X430052Y287050D01*
Y285717D01*
X430719Y285051D01*
X433385D01*
X434051Y285717D01*
Y287050D01*
X432718Y286384D02*
X434051Y287717D01*
Y287050D02*
X433385Y287717D01*
X434051Y291049D02*
X430052D01*
X432052Y289049D01*
Y291715D01*
X448552Y302051D02*
X452551D01*
Y304050D01*
X451885Y304716D01*
X449219D01*
X448552Y304050D01*
Y302051D01*
X449219Y306049D02*
X448552Y306716D01*
Y308049D01*
X449219Y308715D01*
X449885D01*
X450552Y308049D01*
Y307382D01*
Y308049D01*
X451218Y308715D01*
X451885D01*
X452551Y308049D01*
Y306716D01*
X451885Y306049D01*
X500121Y225654D02*
X499455Y224988D01*
Y223655D01*
X500121Y222988D01*
X502787D01*
X503453Y223655D01*
Y224988D01*
X502787Y225654D01*
X503453Y229653D02*
Y226987D01*
X500788Y229653D01*
X500121D01*
X499455Y228986D01*
Y227654D01*
X500121Y226987D01*
X499455Y233652D02*
Y230986D01*
X501454D01*
X500788Y232319D01*
Y232985D01*
X501454Y233652D01*
X502787D01*
X503453Y232985D01*
Y231652D01*
X502787Y230986D01*
X547251Y129351D02*
X543252D01*
Y131350D01*
X543919Y132017D01*
X545252D01*
X545918Y131350D01*
Y129351D01*
Y130684D02*
X547251Y132017D01*
Y133349D02*
Y134682D01*
Y134016D01*
X543252D01*
X543919Y133349D01*
X543252Y139347D02*
Y136682D01*
X545252D01*
X544585Y138014D01*
Y138681D01*
X545252Y139347D01*
X546585D01*
X547251Y138681D01*
Y137348D01*
X546585Y136682D01*
X433884Y176016D02*
X431219D01*
X430552Y175350D01*
Y174017D01*
X431219Y173351D01*
X433884D01*
X434551Y174017D01*
Y175350D01*
X433218Y174684D02*
X434551Y176016D01*
Y175350D02*
X433884Y176016D01*
X431219Y177349D02*
X430552Y178016D01*
Y179349D01*
X431219Y180015D01*
X431885D01*
X432552Y179349D01*
Y178682D01*
Y179349D01*
X433218Y180015D01*
X433884D01*
X434551Y179349D01*
Y178016D01*
X433884Y177349D01*
X445987Y226321D02*
X445321Y225654D01*
Y224321D01*
X445987Y223655D01*
X448653D01*
X449320Y224321D01*
Y225654D01*
X448653Y226321D01*
X449320Y230319D02*
Y227654D01*
X446654Y230319D01*
X445987D01*
X445321Y229653D01*
Y228320D01*
X445987Y227654D01*
X449320Y231652D02*
Y232985D01*
Y232319D01*
X445321D01*
X445987Y231652D01*
X433884Y107116D02*
X431219D01*
X430552Y106450D01*
Y105117D01*
X431219Y104451D01*
X433884D01*
X434551Y105117D01*
Y106450D01*
X433218Y105784D02*
X434551Y107116D01*
Y106450D02*
X433884Y107116D01*
X434551Y111115D02*
Y108449D01*
X431885Y111115D01*
X431219D01*
X430552Y110449D01*
Y109116D01*
X431219Y108449D01*
X272714Y294462D02*
X271139D01*
X275076D02*
X272714D01*
X288856D02*
X284919D01*
X288856Y277533D02*
Y294462D01*
X275076Y276351D02*
X272320D01*
X287674D02*
X284919D01*
X287674D02*
X288856Y277533D01*
X272714Y294462D02*
X272714D01*
X272320Y276351D02*
X271139Y277533D01*
Y294462D01*
X288856Y217296D02*
X287281D01*
X287281D02*
X284919D01*
X275076D02*
X271139D01*
Y234226D01*
X287674Y235407D02*
X284919D01*
X275076D02*
X272320D01*
X271139Y234226D02*
X272320Y235407D01*
X287281Y217296D02*
X287281D01*
X288856Y234226D02*
X287674Y235407D01*
X288856Y217296D02*
Y234226D01*
X332458Y73005D02*
Y76155D01*
X338364Y73005D02*
Y76155D01*
X297683Y136897D02*
X301015D01*
X301682Y137564D01*
Y138897D01*
X301015Y139563D01*
X297683D01*
X301682Y143562D02*
Y140896D01*
X299016Y143562D01*
X298349D01*
X297683Y142895D01*
Y141562D01*
X298349Y140896D01*
X68352Y91622D02*
X72351D01*
Y94287D01*
Y98286D02*
Y95620D01*
X69685Y98286D01*
X69019D01*
X68352Y97620D01*
Y96287D01*
X69019Y95620D01*
X268451Y242583D02*
X271783D01*
X272449Y243250D01*
Y244583D01*
X271783Y245249D01*
X268451D01*
X272449Y246582D02*
Y247915D01*
Y247249D01*
X268451D01*
X269117Y246582D01*
X303650Y152351D02*
X299651D01*
Y154350D01*
X300318Y155017D01*
X301651D01*
X302317Y154350D01*
Y152351D01*
Y153684D02*
X303650Y155017D01*
X299651Y156349D02*
Y159015D01*
X300318D01*
X302984Y156349D01*
X303650D01*
X313450Y152351D02*
X309451D01*
Y154350D01*
X310118Y155017D01*
X311451D01*
X312117Y154350D01*
Y152351D01*
Y153684D02*
X313450Y155017D01*
X310118Y156349D02*
X309451Y157016D01*
Y158349D01*
X310118Y159015D01*
X310784D01*
X311451Y158349D01*
X312117Y159015D01*
X312784D01*
X313450Y158349D01*
Y157016D01*
X312784Y156349D01*
X312117D01*
X311451Y157016D01*
X310784Y156349D01*
X310118D01*
X311451Y157016D02*
Y158349D01*
X323350Y152351D02*
X319351D01*
Y154350D01*
X320018Y155017D01*
X321351D01*
X322017Y154350D01*
Y152351D01*
Y153684D02*
X323350Y155017D01*
X322684Y156349D02*
X323350Y157016D01*
Y158349D01*
X322684Y159015D01*
X320018D01*
X319351Y158349D01*
Y157016D01*
X320018Y156349D01*
X320684D01*
X321351Y157016D01*
Y159015D01*
X69337Y250086D02*
X73335D01*
Y252752D01*
X70003Y254085D02*
X69337Y254751D01*
Y256084D01*
X70003Y256751D01*
X70670D01*
X71336Y256084D01*
Y255418D01*
Y256084D01*
X72002Y256751D01*
X72669D01*
X73335Y256084D01*
Y254751D01*
X72669Y254085D01*
X267838Y325269D02*
X267171Y324602D01*
Y323269D01*
X267838Y322603D01*
X270503D01*
X271170Y323269D01*
Y324602D01*
X270503Y325269D01*
X271170Y326602D02*
Y327935D01*
Y327268D01*
X267171D01*
X267838Y326602D01*
X207624Y257150D02*
X211623D01*
Y259816D01*
Y261149D02*
Y262482D01*
Y261815D01*
X207624D01*
X208290Y261149D01*
X224213Y254751D02*
X223546Y255418D01*
X222214D01*
X221547Y254751D01*
Y252085D01*
X222214Y251419D01*
X223546D01*
X224213Y252085D01*
X225546Y254751D02*
X226212Y255418D01*
X227545D01*
X228211Y254751D01*
Y254085D01*
X227545Y253418D01*
X226879D01*
X227545D01*
X228211Y252752D01*
Y252085D01*
X227545Y251419D01*
X226212D01*
X225546Y252085D01*
X253892Y314192D02*
X254559Y313525D01*
X255891D01*
X256558Y314192D01*
Y316858D01*
X255891Y317524D01*
X254559D01*
X253892Y316858D01*
X249893Y317524D02*
X252559D01*
X249893Y314858D01*
Y314192D01*
X250560Y313525D01*
X251893D01*
X252559Y314192D01*
X279044Y147898D02*
X275045D01*
Y149898D01*
X275712Y150564D01*
X277045D01*
X277711Y149898D01*
Y147898D01*
Y149231D02*
X279044Y150564D01*
Y151897D02*
Y153230D01*
Y152563D01*
X275045D01*
X275712Y151897D01*
X186955Y84670D02*
Y87336D01*
Y86003D01*
X190953D01*
X186955Y88669D02*
X189620D01*
X190953Y90002D01*
X189620Y91335D01*
X186955D01*
X187621Y95333D02*
X186955Y94667D01*
Y93334D01*
X187621Y92668D01*
X188288D01*
X188954Y93334D01*
Y94667D01*
X189620Y95333D01*
X190287D01*
X190953Y94667D01*
Y93334D01*
X190287Y92668D01*
X190953Y99332D02*
Y96666D01*
X188288Y99332D01*
X187621D01*
X186955Y98666D01*
Y97333D01*
X187621Y96666D01*
X188923Y44490D02*
Y47156D01*
Y45823D01*
X192922D01*
X188923Y48489D02*
X191589D01*
X192922Y49822D01*
X191589Y51155D01*
X188923D01*
X189590Y55153D02*
X188923Y54487D01*
Y53154D01*
X189590Y52487D01*
X190256D01*
X190923Y53154D01*
Y54487D01*
X191589Y55153D01*
X192255D01*
X192922Y54487D01*
Y53154D01*
X192255Y52487D01*
X192922Y56486D02*
Y57819D01*
Y57153D01*
X188923D01*
X189590Y56486D01*
X233250Y115751D02*
X229251D01*
Y117750D01*
X229918Y118417D01*
X231251D01*
X231917Y117750D01*
Y115751D01*
Y117084D02*
X233250Y118417D01*
X229918Y119749D02*
X229251Y120416D01*
Y121749D01*
X229918Y122415D01*
X230584D01*
X231251Y121749D01*
Y121082D01*
Y121749D01*
X231917Y122415D01*
X232584D01*
X233250Y121749D01*
Y120416D01*
X232584Y119749D01*
X233250Y123748D02*
Y125081D01*
Y124415D01*
X229251D01*
X229918Y123748D01*
X252950Y114451D02*
X248951D01*
Y116450D01*
X249618Y117116D01*
X250951D01*
X251617Y116450D01*
Y114451D01*
Y115784D02*
X252950Y117116D01*
X249618Y118449D02*
X248951Y119116D01*
Y120449D01*
X249618Y121115D01*
X250284D01*
X250951Y120449D01*
Y119782D01*
Y120449D01*
X251617Y121115D01*
X252284D01*
X252950Y120449D01*
Y119116D01*
X252284Y118449D01*
X249618Y122448D02*
X248951Y123115D01*
Y124447D01*
X249618Y125114D01*
X252284D01*
X252950Y124447D01*
Y123115D01*
X252284Y122448D01*
X249618D01*
X243119Y113343D02*
X239120D01*
Y115342D01*
X239787Y116008D01*
X241119D01*
X241786Y115342D01*
Y113343D01*
Y114676D02*
X243119Y116008D01*
Y120007D02*
Y117341D01*
X240453Y120007D01*
X239787D01*
X239120Y119341D01*
Y118008D01*
X239787Y117341D01*
X242452Y121340D02*
X243119Y122007D01*
Y123339D01*
X242452Y124006D01*
X239787D01*
X239120Y123339D01*
Y122007D01*
X239787Y121340D01*
X240453D01*
X241119Y122007D01*
Y124006D01*
X171760Y82240D02*
X167762D01*
Y84240D01*
X168428Y84906D01*
X169761D01*
X170428Y84240D01*
Y82240D01*
Y83573D02*
X171760Y84906D01*
Y88905D02*
Y86239D01*
X169095Y88905D01*
X168428D01*
X167762Y88238D01*
Y86905D01*
X168428Y86239D01*
Y90238D02*
X167762Y90904D01*
Y92237D01*
X168428Y92904D01*
X169095D01*
X169761Y92237D01*
X170428Y92904D01*
X171094D01*
X171760Y92237D01*
Y90904D01*
X171094Y90238D01*
X170428D01*
X169761Y90904D01*
X169095Y90238D01*
X168428D01*
X169761Y90904D02*
Y92237D01*
X181603Y82240D02*
X177604D01*
Y84240D01*
X178271Y84906D01*
X179604D01*
X180270Y84240D01*
Y82240D01*
Y83573D02*
X181603Y84906D01*
Y88905D02*
Y86239D01*
X178937Y88905D01*
X178271D01*
X177604Y88238D01*
Y86905D01*
X178271Y86239D01*
X177604Y90238D02*
Y92904D01*
X178271D01*
X180937Y90238D01*
X181603D01*
X188050Y128651D02*
X184051D01*
Y130650D01*
X184718Y131316D01*
X186051D01*
X186717Y130650D01*
Y128651D01*
Y129984D02*
X188050Y131316D01*
Y135315D02*
Y132649D01*
X185384Y135315D01*
X184718D01*
X184051Y134649D01*
Y133316D01*
X184718Y132649D01*
X184051Y139314D02*
X184718Y137981D01*
X186051Y136648D01*
X187384D01*
X188050Y137314D01*
Y138647D01*
X187384Y139314D01*
X186717D01*
X186051Y138647D01*
Y136648D01*
X175650Y128651D02*
X171651D01*
Y130650D01*
X172318Y131316D01*
X173651D01*
X174317Y130650D01*
Y128651D01*
Y129984D02*
X175650Y131316D01*
Y135315D02*
Y132649D01*
X172984Y135315D01*
X172318D01*
X171651Y134649D01*
Y133316D01*
X172318Y132649D01*
X175650Y139314D02*
Y136648D01*
X172984Y139314D01*
X172318D01*
X171651Y138647D01*
Y137314D01*
X172318Y136648D01*
X220618Y117116D02*
X219951Y116450D01*
Y115117D01*
X220618Y114451D01*
X223284D01*
X223950Y115117D01*
Y116450D01*
X223284Y117116D01*
X223950Y121115D02*
Y118449D01*
X221284Y121115D01*
X220618D01*
X219951Y120449D01*
Y119116D01*
X220618Y118449D01*
X219951Y122448D02*
Y125114D01*
X220618D01*
X223284Y122448D01*
X223950D01*
X175720Y206787D02*
X173054D01*
X172388Y206121D01*
Y204788D01*
X173054Y204122D01*
X175720D01*
X176386Y204788D01*
Y206121D01*
X175054Y205454D02*
X176386Y206787D01*
Y206121D02*
X175720Y206787D01*
X172388Y210786D02*
Y208120D01*
X174387D01*
X173721Y209453D01*
Y210120D01*
X174387Y210786D01*
X175720D01*
X176386Y210120D01*
Y208787D01*
X175720Y208120D01*
X162728Y203539D02*
X160062D01*
X159396Y202873D01*
Y201540D01*
X160062Y200873D01*
X162728D01*
X163394Y201540D01*
Y202873D01*
X162062Y202206D02*
X163394Y203539D01*
Y202873D02*
X162728Y203539D01*
X159396Y204872D02*
Y207538D01*
X160062D01*
X162728Y204872D01*
X163394D01*
X158496Y186512D02*
X155830D01*
X155163Y185845D01*
Y184512D01*
X155830Y183846D01*
X158496D01*
X159162Y184512D01*
Y185845D01*
X157829Y185179D02*
X159162Y186512D01*
Y185845D02*
X158496Y186512D01*
X155163Y190510D02*
X155830Y189178D01*
X157163Y187845D01*
X158496D01*
X159162Y188511D01*
Y189844D01*
X158496Y190510D01*
X157829D01*
X157163Y189844D01*
Y187845D01*
X188450Y158551D02*
X184451D01*
Y160550D01*
X185118Y161216D01*
X186451D01*
X187117Y160550D01*
Y158551D01*
Y159884D02*
X188450Y161216D01*
Y165215D02*
Y162549D01*
X185784Y165215D01*
X185118D01*
X184451Y164549D01*
Y163216D01*
X185118Y162549D01*
X188450Y166548D02*
Y167881D01*
Y167215D01*
X184451D01*
X185118Y166548D01*
X343020Y189032D02*
X339022D01*
Y191031D01*
X339688Y191698D01*
X341021D01*
X341687Y191031D01*
Y189032D01*
Y190365D02*
X343020Y191698D01*
Y195696D02*
Y193030D01*
X340354Y195696D01*
X339688D01*
X339022Y195030D01*
Y193697D01*
X339688Y193030D01*
X339022Y199695D02*
Y197029D01*
X341021D01*
X340354Y198362D01*
Y199028D01*
X341021Y199695D01*
X342354D01*
X343020Y199028D01*
Y197696D01*
X342354Y197029D01*
X147092Y356098D02*
Y354766D01*
Y355432D01*
X150425D01*
X151091Y354766D01*
Y354099D01*
X150425Y353433D01*
X151091Y359431D02*
X147092D01*
X149092Y357431D01*
Y360097D01*
X145551Y226951D02*
X148884D01*
X149550Y227617D01*
Y228950D01*
X148884Y229616D01*
X145551D01*
Y233615D02*
Y230949D01*
X147551D01*
X146884Y232282D01*
Y232949D01*
X147551Y233615D01*
X148884D01*
X149550Y232949D01*
Y231616D01*
X148884Y230949D01*
X210638Y302713D02*
X206640D01*
Y304712D01*
X207306Y305379D01*
X208639D01*
X209306Y304712D01*
Y302713D01*
Y304046D02*
X210638Y305379D01*
Y309377D02*
Y306712D01*
X207973Y309377D01*
X207306D01*
X206640Y308711D01*
Y307378D01*
X207306Y306712D01*
X210638Y312709D02*
X206640D01*
X208639Y310710D01*
Y313376D01*
X195850Y215351D02*
X191851D01*
Y217350D01*
X192518Y218017D01*
X193851D01*
X194517Y217350D01*
Y215351D01*
Y216684D02*
X195850Y218017D01*
Y222015D02*
Y219349D01*
X193184Y222015D01*
X192518D01*
X191851Y221349D01*
Y220016D01*
X192518Y219349D01*
Y223348D02*
X191851Y224014D01*
Y225347D01*
X192518Y226014D01*
X193184D01*
X193851Y225347D01*
Y224681D01*
Y225347D01*
X194517Y226014D01*
X195184D01*
X195850Y225347D01*
Y224014D01*
X195184Y223348D01*
X39379Y193953D02*
X35380D01*
Y195952D01*
X36046Y196619D01*
X37379D01*
X38046Y195952D01*
Y193953D01*
Y195286D02*
X39379Y196619D01*
Y200617D02*
Y197952D01*
X36713Y200617D01*
X36046D01*
X35380Y199951D01*
Y198618D01*
X36046Y197952D01*
Y201950D02*
X35380Y202617D01*
Y203950D01*
X36046Y204616D01*
X38712D01*
X39379Y203950D01*
Y202617D01*
X38712Y201950D01*
X36046D01*
X253453Y175093D02*
X249455D01*
Y177093D01*
X250121Y177759D01*
X251454D01*
X252120Y177093D01*
Y175093D01*
Y176426D02*
X253453Y177759D01*
Y179092D02*
Y180425D01*
Y179758D01*
X249455D01*
X250121Y179092D01*
Y182424D02*
X249455Y183091D01*
Y184424D01*
X250121Y185090D01*
X250788D01*
X251454Y184424D01*
X252120Y185090D01*
X252787D01*
X253453Y184424D01*
Y183091D01*
X252787Y182424D01*
X252120D01*
X251454Y183091D01*
X250788Y182424D01*
X250121D01*
X251454Y183091D02*
Y184424D01*
X223926Y175585D02*
X219927D01*
Y177585D01*
X220594Y178251D01*
X221926D01*
X222593Y177585D01*
Y175585D01*
Y176918D02*
X223926Y178251D01*
Y179584D02*
Y180917D01*
Y180251D01*
X219927D01*
X220594Y179584D01*
X219927Y185582D02*
X220594Y184249D01*
X221926Y182916D01*
X223259D01*
X223926Y183583D01*
Y184916D01*
X223259Y185582D01*
X222593D01*
X221926Y184916D01*
Y182916D01*
X182033Y301729D02*
X186032D01*
Y303728D01*
X185366Y304394D01*
X182700D01*
X182033Y303728D01*
Y301729D01*
Y305727D02*
Y308393D01*
X182700D01*
X185366Y305727D01*
X186032D01*
Y308393D01*
X182700Y309726D02*
X182033Y310392D01*
Y311725D01*
X182700Y312392D01*
X183366D01*
X184033Y311725D01*
Y311059D01*
Y311725D01*
X184699Y312392D01*
X185366D01*
X186032Y311725D01*
Y310392D01*
X185366Y309726D01*
X192542Y303410D02*
X191876Y302744D01*
Y301411D01*
X192542Y300744D01*
X195208D01*
X195875Y301411D01*
Y302744D01*
X195208Y303410D01*
X195875Y307409D02*
Y304743D01*
X193209Y307409D01*
X192542D01*
X191876Y306742D01*
Y305409D01*
X192542Y304743D01*
X191876Y311407D02*
X192542Y310075D01*
X193875Y308742D01*
X195208D01*
X195875Y309408D01*
Y310741D01*
X195208Y311407D01*
X194542D01*
X193875Y310741D01*
Y308742D01*
X200416Y252721D02*
X199750Y252055D01*
Y250722D01*
X200416Y250055D01*
X203082D01*
X203749Y250722D01*
Y252055D01*
X203082Y252721D01*
X203749Y256720D02*
Y254054D01*
X201083Y256720D01*
X200416D01*
X199750Y256053D01*
Y254720D01*
X200416Y254054D01*
X203749Y260052D02*
X199750D01*
X201749Y258053D01*
Y260718D01*
X170889Y306855D02*
X170222Y306189D01*
Y304856D01*
X170889Y304189D01*
X173555D01*
X174221Y304856D01*
Y306189D01*
X173555Y306855D01*
X174221Y310854D02*
Y308188D01*
X171555Y310854D01*
X170889D01*
X170222Y310187D01*
Y308854D01*
X170889Y308188D01*
Y312187D02*
X170222Y312853D01*
Y314186D01*
X170889Y314852D01*
X171555D01*
X172222Y314186D01*
Y313520D01*
Y314186D01*
X172888Y314852D01*
X173555D01*
X174221Y314186D01*
Y312853D01*
X173555Y312187D01*
X263250Y115051D02*
X259251D01*
Y117050D01*
X259918Y117717D01*
X261251D01*
X261917Y117050D01*
Y115051D01*
Y116384D02*
X263250Y117717D01*
Y119049D02*
Y120382D01*
Y119716D01*
X259251D01*
X259918Y119049D01*
Y122382D02*
X259251Y123048D01*
Y124381D01*
X259918Y125047D01*
X260584D01*
X261251Y124381D01*
Y123714D01*
Y124381D01*
X261917Y125047D01*
X262584D01*
X263250Y124381D01*
Y123048D01*
X262584Y122382D01*
X361229Y212495D02*
X357230D01*
Y214494D01*
X357897Y215161D01*
X359230D01*
X359896Y214494D01*
Y212495D01*
Y213828D02*
X361229Y215161D01*
Y216494D02*
Y217826D01*
Y217160D01*
X357230D01*
X357897Y216494D01*
X361229Y222492D02*
Y219826D01*
X358563Y222492D01*
X357897D01*
X357230Y221825D01*
Y220492D01*
X357897Y219826D01*
X331527Y230289D02*
X328861D01*
X328195Y229622D01*
Y228289D01*
X328861Y227623D01*
X331527D01*
X332194Y228289D01*
Y229622D01*
X330861Y228956D02*
X332194Y230289D01*
Y229622D02*
X331527Y230289D01*
X332194Y231621D02*
Y232954D01*
Y232288D01*
X328195D01*
X328861Y231621D01*
X369041Y73618D02*
Y72285D01*
Y72952D01*
X372374D01*
X373040Y72285D01*
Y71619D01*
X372374Y70952D01*
X369041Y74951D02*
Y77617D01*
X369708D01*
X372374Y74951D01*
X373040D01*
X290855Y148216D02*
X286856D01*
Y150215D01*
X287523Y150882D01*
X288856D01*
X289522Y150215D01*
Y148216D01*
Y149549D02*
X290855Y150882D01*
X286856Y154881D02*
Y152215D01*
X288856D01*
X288189Y153548D01*
Y154214D01*
X288856Y154881D01*
X290189D01*
X290855Y154214D01*
Y152881D01*
X290189Y152215D01*
X219927Y57173D02*
X223259D01*
X223926Y57839D01*
Y59172D01*
X223259Y59839D01*
X219927D01*
X223926Y63171D02*
X219927D01*
X221926Y61172D01*
Y63837D01*
X160950Y89951D02*
X156951D01*
Y91950D01*
X157618Y92616D01*
X158951D01*
X159617Y91950D01*
Y89951D01*
Y91284D02*
X160950Y92616D01*
Y93949D02*
Y95282D01*
Y94616D01*
X156951D01*
X157618Y93949D01*
X160284Y97282D02*
X160950Y97948D01*
Y99281D01*
X160284Y99947D01*
X157618D01*
X156951Y99281D01*
Y97948D01*
X157618Y97282D01*
X158284D01*
X158951Y97948D01*
Y99947D01*
X151050Y89951D02*
X147051D01*
Y91950D01*
X147718Y92616D01*
X149051D01*
X149717Y91950D01*
Y89951D01*
Y91284D02*
X151050Y92616D01*
Y93949D02*
Y95282D01*
Y94616D01*
X147051D01*
X147718Y93949D01*
X147051Y97282D02*
Y99947D01*
X147718D01*
X150384Y97282D01*
X151050D01*
X163350Y129351D02*
X159351D01*
Y131350D01*
X160018Y132017D01*
X161351D01*
X162017Y131350D01*
Y129351D01*
Y130684D02*
X163350Y132017D01*
Y133349D02*
Y134682D01*
Y134016D01*
X159351D01*
X160018Y133349D01*
X163350Y138681D02*
X159351D01*
X161351Y136682D01*
Y139347D01*
X279536Y95066D02*
X275537D01*
Y97066D01*
X276204Y97732D01*
X277537D01*
X278203Y97066D01*
Y95066D01*
Y96399D02*
X279536Y97732D01*
Y101065D02*
X275537D01*
X277537Y99065D01*
Y101731D01*
X273631Y57173D02*
X269632D01*
Y59172D01*
X270298Y59838D01*
X271631D01*
X272298Y59172D01*
Y57173D01*
Y58506D02*
X273631Y59838D01*
X270298Y61172D02*
X269632Y61838D01*
Y63171D01*
X270298Y63837D01*
X270965D01*
X271631Y63171D01*
Y62504D01*
Y63171D01*
X272298Y63837D01*
X272964D01*
X273631Y63171D01*
Y61838D01*
X272964Y61172D01*
X296250Y17051D02*
X292251D01*
Y19050D01*
X292918Y19716D01*
X294251D01*
X294917Y19050D01*
Y17051D01*
Y18384D02*
X296250Y19716D01*
Y23715D02*
Y21049D01*
X293584Y23715D01*
X292918D01*
X292251Y23049D01*
Y21716D01*
X292918Y21049D01*
X239120Y175252D02*
X243119D01*
Y177252D01*
X242452Y177918D01*
X239787D01*
X239120Y177252D01*
Y175252D01*
Y179251D02*
Y181917D01*
X239787D01*
X242452Y179251D01*
X243119D01*
Y181917D01*
Y185915D02*
Y183249D01*
X240453Y185915D01*
X239787D01*
X239120Y185249D01*
Y183916D01*
X239787Y183249D01*
X273569Y11056D02*
X277568D01*
Y13056D01*
X276901Y13722D01*
X274235D01*
X273569Y13056D01*
Y11056D01*
Y15055D02*
Y17721D01*
X274235D01*
X276901Y15055D01*
X277568D01*
Y17721D01*
Y19054D02*
Y20387D01*
Y19720D01*
X273569D01*
X274235Y19054D01*
X229452Y177918D02*
X228785Y177252D01*
Y175919D01*
X229452Y175252D01*
X232118D01*
X232784Y175919D01*
Y177252D01*
X232118Y177918D01*
X232784Y181917D02*
Y179251D01*
X230118Y181917D01*
X229452D01*
X228785Y181250D01*
Y179917D01*
X229452Y179251D01*
X232784Y185915D02*
Y183249D01*
X230118Y185915D01*
X229452D01*
X228785Y185249D01*
Y183916D01*
X229452Y183249D01*
X177318Y47717D02*
X176651Y47050D01*
Y45717D01*
X177318Y45051D01*
X179984D01*
X180650Y45717D01*
Y47050D01*
X179984Y47717D01*
X180650Y51715D02*
Y49049D01*
X177984Y51715D01*
X177318D01*
X176651Y51049D01*
Y49716D01*
X177318Y49049D01*
Y53048D02*
X176651Y53715D01*
Y55047D01*
X177318Y55714D01*
X179984D01*
X180650Y55047D01*
Y53715D01*
X179984Y53048D01*
X177318D01*
X167418Y48417D02*
X166751Y47750D01*
Y46417D01*
X167418Y45751D01*
X170084D01*
X170750Y46417D01*
Y47750D01*
X170084Y48417D01*
X170750Y49749D02*
Y51082D01*
Y50416D01*
X166751D01*
X167418Y49749D01*
X170084Y53082D02*
X170750Y53748D01*
Y55081D01*
X170084Y55747D01*
X167418D01*
X166751Y55081D01*
Y53748D01*
X167418Y53082D01*
X168084D01*
X168751Y53748D01*
Y55747D01*
X243724Y16342D02*
X243057Y15675D01*
Y14342D01*
X243724Y13676D01*
X246389D01*
X247056Y14342D01*
Y15675D01*
X246389Y16342D01*
X247056Y17675D02*
Y19007D01*
Y18341D01*
X243057D01*
X243724Y17675D01*
Y21007D02*
X243057Y21673D01*
Y23006D01*
X243724Y23673D01*
X244390D01*
X245056Y23006D01*
X245723Y23673D01*
X246389D01*
X247056Y23006D01*
Y21673D01*
X246389Y21007D01*
X245723D01*
X245056Y21673D01*
X244390Y21007D01*
X243724D01*
X245056Y21673D02*
Y23006D01*
X266361Y220764D02*
X265695Y220097D01*
Y218764D01*
X266361Y218098D01*
X269027D01*
X269694Y218764D01*
Y220097D01*
X269027Y220764D01*
X265695Y222097D02*
Y224763D01*
X266361D01*
X269027Y222097D01*
X269694D01*
X333608Y60300D02*
X334275D01*
X335608Y61633D01*
X334275Y62966D01*
X333608D01*
X335608Y61633D02*
X337607D01*
Y64298D02*
Y65631D01*
Y64965D01*
X333608D01*
X334275Y64298D01*
X106246Y27645D02*
X109578D01*
X110245Y28312D01*
Y29645D01*
X109578Y30311D01*
X106246D01*
X106913Y31644D02*
X106246Y32310D01*
Y33643D01*
X106913Y34310D01*
X107579D01*
X108245Y33643D01*
Y32977D01*
Y33643D01*
X108912Y34310D01*
X109578D01*
X110245Y33643D01*
Y32310D01*
X109578Y31644D01*
X267233Y12374D02*
X263234D01*
Y14373D01*
X263901Y15040D01*
X265234D01*
X265900Y14373D01*
Y12374D01*
Y13707D02*
X267233Y15040D01*
Y16373D02*
Y17706D01*
Y17039D01*
X263234D01*
X263901Y16373D01*
X267233Y19705D02*
Y21038D01*
Y20371D01*
X263234D01*
X263901Y19705D01*
X257390Y11215D02*
X253392D01*
Y13215D01*
X254058Y13881D01*
X255391D01*
X256058Y13215D01*
Y11215D01*
Y12548D02*
X257390Y13881D01*
Y15214D02*
Y16547D01*
Y15880D01*
X253392D01*
X254058Y15214D01*
Y18546D02*
X253392Y19213D01*
Y20546D01*
X254058Y21212D01*
X256724D01*
X257390Y20546D01*
Y19213D01*
X256724Y18546D01*
X254058D01*
X342528Y152645D02*
X338529D01*
Y154645D01*
X339196Y155311D01*
X340529D01*
X341195Y154645D01*
Y152645D01*
Y153978D02*
X342528Y155311D01*
X338529Y159310D02*
X339196Y157977D01*
X340529Y156644D01*
X341862D01*
X342528Y157310D01*
Y158643D01*
X341862Y159310D01*
X341195D01*
X340529Y158643D01*
Y156644D01*
X139061Y12595D02*
Y11262D01*
Y11928D01*
X142393D01*
X143060Y11262D01*
Y10595D01*
X142393Y9929D01*
X139727Y13927D02*
X139061Y14594D01*
Y15927D01*
X139727Y16593D01*
X140394D01*
X141060Y15927D01*
Y15260D01*
Y15927D01*
X141727Y16593D01*
X142393D01*
X143060Y15927D01*
Y14594D01*
X142393Y13927D01*
X362357Y163329D02*
X363690D01*
X363023D01*
Y166661D01*
X363690Y167327D01*
X364356D01*
X365022Y166661D01*
X358358Y167327D02*
X361024D01*
X358358Y164661D01*
Y163995D01*
X359025Y163329D01*
X360357D01*
X361024Y163995D01*
X363151Y125216D02*
Y123884D01*
Y124550D01*
X366484D01*
X367150Y123884D01*
Y123217D01*
X366484Y122551D01*
X367150Y126549D02*
Y127882D01*
Y127216D01*
X363151D01*
X363818Y126549D01*
X206640Y90145D02*
X210638D01*
Y92145D01*
X209972Y92811D01*
X207306D01*
X206640Y92145D01*
Y90145D01*
X210638Y96810D02*
Y94144D01*
X207973Y96810D01*
X207306D01*
X206640Y96143D01*
Y94810D01*
X207306Y94144D01*
X314908Y176442D02*
X318906D01*
Y178441D01*
X318240Y179107D01*
X315574D01*
X314908Y178441D01*
Y176442D01*
X318906Y180440D02*
Y181773D01*
Y181107D01*
X314908D01*
X315574Y180440D01*
X60160Y6007D02*
X59494Y5341D01*
Y4008D01*
X60160Y3341D01*
X62826D01*
X63493Y4008D01*
Y5341D01*
X62826Y6007D01*
X63493Y7340D02*
Y8673D01*
Y8006D01*
X59494D01*
X60160Y7340D01*
X59494Y10672D02*
Y13338D01*
X60160D01*
X62826Y10672D01*
X63493D01*
X70987Y5515D02*
X70321Y4848D01*
Y3516D01*
X70987Y2849D01*
X73653D01*
X74320Y3516D01*
Y4848D01*
X73653Y5515D01*
X74320Y6848D02*
Y8181D01*
Y7514D01*
X70321D01*
X70987Y6848D01*
X70321Y12846D02*
X70987Y11513D01*
X72320Y10180D01*
X73653D01*
X74320Y10847D01*
Y12179D01*
X73653Y12846D01*
X72987D01*
X72320Y12179D01*
Y10180D01*
X329818Y151716D02*
X329151Y151050D01*
Y149717D01*
X329818Y149051D01*
X332484D01*
X333150Y149717D01*
Y151050D01*
X332484Y151716D01*
X333150Y153049D02*
Y154382D01*
Y153716D01*
X329151D01*
X329818Y153049D01*
X329151Y159047D02*
Y156382D01*
X331151D01*
X330484Y157714D01*
Y158381D01*
X331151Y159047D01*
X332484D01*
X333150Y158381D01*
Y157048D01*
X332484Y156382D01*
X301794Y11913D02*
X301128Y11246D01*
Y9913D01*
X301794Y9247D01*
X304460D01*
X305127Y9913D01*
Y11246D01*
X304460Y11913D01*
X305127Y13246D02*
Y14578D01*
Y13912D01*
X301128D01*
X301794Y13246D01*
X305127Y18577D02*
X301128D01*
X303127Y16578D01*
Y19243D01*
X321479Y11913D02*
X320813Y11246D01*
Y9913D01*
X321479Y9247D01*
X324145D01*
X324812Y9913D01*
Y11246D01*
X324145Y11913D01*
X324812Y13246D02*
Y14578D01*
Y13912D01*
X320813D01*
X321479Y13246D01*
Y16578D02*
X320813Y17244D01*
Y18577D01*
X321479Y19243D01*
X322146D01*
X322812Y18577D01*
Y17911D01*
Y18577D01*
X323479Y19243D01*
X324145D01*
X324812Y18577D01*
Y17244D01*
X324145Y16578D01*
X312129Y11913D02*
X311463Y11246D01*
Y9913D01*
X312129Y9247D01*
X314795D01*
X315461Y9913D01*
Y11246D01*
X314795Y11913D01*
X315461Y13246D02*
Y14578D01*
Y13912D01*
X311463D01*
X312129Y13246D01*
X315461Y19243D02*
Y16578D01*
X312795Y19243D01*
X312129D01*
X311463Y18577D01*
Y17244D01*
X312129Y16578D01*
X341164Y13071D02*
X340498Y12405D01*
Y11072D01*
X341164Y10405D01*
X343830D01*
X344497Y11072D01*
Y12405D01*
X343830Y13071D01*
X344497Y14404D02*
Y15737D01*
Y15070D01*
X340498D01*
X341164Y14404D01*
X344497Y17736D02*
Y19069D01*
Y18403D01*
X340498D01*
X341164Y17736D01*
X331814Y11913D02*
X331148Y11246D01*
Y9913D01*
X331814Y9247D01*
X334480D01*
X335146Y9913D01*
Y11246D01*
X334480Y11913D01*
X335146Y13246D02*
Y14578D01*
Y13912D01*
X331148D01*
X331814Y13246D01*
Y16578D02*
X331148Y17244D01*
Y18577D01*
X331814Y19243D01*
X334480D01*
X335146Y18577D01*
Y17244D01*
X334480Y16578D01*
X331814D01*
X346676Y57968D02*
X346010Y57302D01*
Y55969D01*
X346676Y55303D01*
X349342D01*
X350009Y55969D01*
Y57302D01*
X349342Y57968D01*
Y59301D02*
X350009Y59968D01*
Y61301D01*
X349342Y61967D01*
X346676D01*
X346010Y61301D01*
Y59968D01*
X346676Y59301D01*
X347343D01*
X348009Y59968D01*
Y61967D01*
X322464Y56394D02*
X321797Y55727D01*
Y54394D01*
X322464Y53728D01*
X325130D01*
X325796Y54394D01*
Y55727D01*
X325130Y56394D01*
X322464Y57727D02*
X321797Y58393D01*
Y59726D01*
X322464Y60392D01*
X323130D01*
X323797Y59726D01*
X324463Y60392D01*
X325130D01*
X325796Y59726D01*
Y58393D01*
X325130Y57727D01*
X324463D01*
X323797Y58393D01*
X323130Y57727D01*
X322464D01*
X323797Y58393D02*
Y59726D01*
X298349Y211906D02*
X297683Y211239D01*
Y209906D01*
X298349Y209240D01*
X301015D01*
X301682Y209906D01*
Y211239D01*
X301015Y211906D01*
X297683Y215904D02*
X298349Y214571D01*
X299682Y213238D01*
X301015D01*
X301682Y213905D01*
Y215238D01*
X301015Y215904D01*
X300349D01*
X299682Y215238D01*
Y213238D01*
X298349Y270961D02*
X297683Y270294D01*
Y268961D01*
X298349Y268295D01*
X301015D01*
X301682Y268961D01*
Y270294D01*
X301015Y270961D01*
X297683Y274959D02*
Y272293D01*
X299682D01*
X299016Y273626D01*
Y274293D01*
X299682Y274959D01*
X301015D01*
X301682Y274293D01*
Y272960D01*
X301015Y272293D01*
X271063Y299732D02*
X270397Y300398D01*
X269064D01*
X268397Y299732D01*
Y297066D01*
X269064Y296399D01*
X270397D01*
X271063Y297066D01*
X274395Y296399D02*
Y300398D01*
X272396Y298399D01*
X275062D01*
X39684Y287717D02*
X37018D01*
X36351Y287050D01*
Y285717D01*
X37018Y285051D01*
X39684D01*
X40350Y285717D01*
Y287050D01*
X39017Y286384D02*
X40350Y287717D01*
Y287050D02*
X39684Y287717D01*
X40350Y291049D02*
X36351D01*
X38351Y289049D01*
Y291715D01*
X54851Y302051D02*
X58850D01*
Y304050D01*
X58184Y304716D01*
X55518D01*
X54851Y304050D01*
Y302051D01*
X55518Y306049D02*
X54851Y306716D01*
Y308049D01*
X55518Y308715D01*
X56184D01*
X56851Y308049D01*
Y307382D01*
Y308049D01*
X57517Y308715D01*
X58184D01*
X58850Y308049D01*
Y306716D01*
X58184Y306049D01*
X106420Y225654D02*
X105754Y224988D01*
Y223655D01*
X106420Y222988D01*
X109086D01*
X109753Y223655D01*
Y224988D01*
X109086Y225654D01*
X109753Y229653D02*
Y226987D01*
X107087Y229653D01*
X106420D01*
X105754Y228986D01*
Y227654D01*
X106420Y226987D01*
X105754Y233652D02*
Y230986D01*
X107753D01*
X107087Y232319D01*
Y232985D01*
X107753Y233652D01*
X109086D01*
X109753Y232985D01*
Y231652D01*
X109086Y230986D01*
X153550Y129351D02*
X149551D01*
Y131350D01*
X150218Y132017D01*
X151551D01*
X152217Y131350D01*
Y129351D01*
Y130684D02*
X153550Y132017D01*
Y133349D02*
Y134682D01*
Y134016D01*
X149551D01*
X150218Y133349D01*
X149551Y139347D02*
Y136682D01*
X151551D01*
X150884Y138014D01*
Y138681D01*
X151551Y139347D01*
X152884D01*
X153550Y138681D01*
Y137348D01*
X152884Y136682D01*
X40184Y176016D02*
X37518D01*
X36851Y175350D01*
Y174017D01*
X37518Y173351D01*
X40184D01*
X40850Y174017D01*
Y175350D01*
X39517Y174684D02*
X40850Y176016D01*
Y175350D02*
X40184Y176016D01*
X37518Y177349D02*
X36851Y178016D01*
Y179349D01*
X37518Y180015D01*
X38184D01*
X38851Y179349D01*
Y178682D01*
Y179349D01*
X39517Y180015D01*
X40184D01*
X40850Y179349D01*
Y178016D01*
X40184Y177349D01*
X52286Y226321D02*
X51620Y225654D01*
Y224321D01*
X52286Y223655D01*
X54952D01*
X55619Y224321D01*
Y225654D01*
X54952Y226321D01*
X55619Y230319D02*
Y227654D01*
X52953Y230319D01*
X52286D01*
X51620Y229653D01*
Y228320D01*
X52286Y227654D01*
X55619Y231652D02*
Y232985D01*
Y232319D01*
X51620D01*
X52286Y231652D01*
X40184Y107116D02*
X37518D01*
X36851Y106450D01*
Y105117D01*
X37518Y104451D01*
X40184D01*
X40850Y105117D01*
Y106450D01*
X39517Y105784D02*
X40850Y107116D01*
Y106450D02*
X40184Y107116D01*
X40850Y111115D02*
Y108449D01*
X38184Y111115D01*
X37518D01*
X36851Y110449D01*
Y109116D01*
X37518Y108449D01*
D62*
X638167Y158143D02*
Y169560D01*
X631474Y158143D02*
Y169560D01*
X581080Y285603D02*
Y297021D01*
X574387Y285603D02*
Y297021D01*
X672123Y28714D02*
Y40131D01*
X665430Y28714D02*
Y40131D01*
X711001Y188556D02*
X710214D01*
X711001Y201155D02*
X710214D01*
X704702Y188556D02*
Y201155D01*
X716513Y188556D02*
Y201155D01*
X585115Y107749D02*
Y115623D01*
X579210Y107749D02*
Y115623D01*
X587576Y63458D02*
Y71332D01*
X581671Y63458D02*
Y71332D01*
X244466Y158143D02*
Y169560D01*
X237773Y158143D02*
Y169560D01*
X187379Y285603D02*
Y297021D01*
X180686Y285603D02*
Y297021D01*
X278423Y28714D02*
Y40131D01*
X271730Y28714D02*
Y40131D01*
X317301Y188556D02*
X316513D01*
X317301Y201155D02*
X316513D01*
X311001Y188556D02*
Y201155D01*
X322812Y188556D02*
Y201155D01*
X191415Y107749D02*
Y115623D01*
X185509Y107749D02*
Y115623D01*
X193875Y63458D02*
Y71332D01*
X187970Y63458D02*
Y71332D01*
D63*
X762773Y302139D02*
D03*
X369072D02*
D03*
M02*
