G04*
G04 #@! TF.GenerationSoftware,Altium Limited,Altium Designer,23.3.1 (30)*
G04*
G04 Layer_Physical_Order=2*
G04 Layer_Color=16711680*
%FSLAX25Y25*%
%MOIN*%
G70*
G04*
G04 #@! TF.SameCoordinates,731DBA42-33AF-4731-BD85-8EC7A1DC1BC3*
G04*
G04*
G04 #@! TF.FilePolarity,Positive*
G04*
G01*
G75*
%ADD35C,0.03000*%
%ADD40C,0.02000*%
%ADD43C,0.15748*%
%ADD44C,0.07500*%
%ADD45C,0.19685*%
%ADD46R,0.09055X0.09055*%
%ADD47R,0.09055X0.09055*%
%ADD48C,0.04000*%
%ADD49O,0.11811X0.13780*%
%ADD50R,0.09843X0.05906*%
%ADD51O,0.09843X0.05906*%
%ADD52C,0.05906*%
%ADD53R,0.05906X0.05906*%
%ADD54R,0.09843X0.07000*%
%ADD55C,0.03200*%
%ADD56C,0.01575*%
G36*
X779013Y361462D02*
X778513Y361230D01*
X777314Y362101D01*
X775793Y362876D01*
X774170Y363403D01*
X772485Y363670D01*
X772131D01*
Y341985D01*
X772485D01*
X774170Y342252D01*
X775793Y342780D01*
X777314Y343554D01*
X778513Y344426D01*
X779013Y344193D01*
Y24848D01*
X778513Y24616D01*
X777314Y25487D01*
X775793Y26262D01*
X774170Y26789D01*
X772485Y27056D01*
X772131D01*
Y5371D01*
X772485D01*
X774170Y5638D01*
X775793Y6165D01*
X777314Y6940D01*
X778513Y7812D01*
X779013Y7579D01*
Y4041D01*
X420662Y4041D01*
X420613Y5545D01*
X421013Y5846D01*
X421651Y5638D01*
X423337Y5371D01*
X423690D01*
Y27056D01*
X423337D01*
X421651Y26789D01*
X420441Y26396D01*
X419929Y26755D01*
X408946Y367232D01*
X409294Y367592D01*
X551937D01*
X552116Y367092D01*
X551508Y366593D01*
X550645Y365541D01*
X550004Y364341D01*
X549609Y363040D01*
X549476Y361686D01*
Y361202D01*
X563354D01*
Y361686D01*
X563220Y363040D01*
X562825Y364341D01*
X562184Y365541D01*
X561321Y366593D01*
X560713Y367092D01*
X560892Y367592D01*
X570428D01*
X570665Y367092D01*
X569836Y366082D01*
X569105Y364714D01*
X568655Y363230D01*
X568503Y361686D01*
Y359718D01*
X568655Y358174D01*
X569105Y356690D01*
X569836Y355322D01*
X570820Y354123D01*
X572019Y353139D01*
X573387Y352408D01*
X574871Y351958D01*
X576415Y351805D01*
X577958Y351958D01*
X579443Y352408D01*
X580810Y353139D01*
X582009Y354123D01*
X582993Y355322D01*
X583724Y356690D01*
X584175Y358174D01*
X584327Y359718D01*
Y361686D01*
X584175Y363230D01*
X583724Y364714D01*
X582993Y366082D01*
X582165Y367092D01*
X582401Y367592D01*
X779013D01*
Y361462D01*
D02*
G37*
G36*
X385312D02*
X384812Y361230D01*
X383613Y362101D01*
X382092Y362876D01*
X380469Y363403D01*
X378784Y363670D01*
X378430D01*
Y341985D01*
X378784D01*
X380469Y342252D01*
X382092Y342780D01*
X383613Y343554D01*
X384812Y344426D01*
X385312Y344193D01*
Y24848D01*
X384812Y24616D01*
X383613Y25487D01*
X382092Y26262D01*
X380469Y26789D01*
X378784Y27056D01*
X378430D01*
Y5371D01*
X378784D01*
X380469Y5638D01*
X382092Y6165D01*
X383613Y6940D01*
X384812Y7812D01*
X385312Y7579D01*
Y4041D01*
X26961Y4041D01*
X26913Y5545D01*
X27312Y5846D01*
X27951Y5638D01*
X29636Y5371D01*
X29989D01*
Y27056D01*
X29636D01*
X27951Y26789D01*
X26740Y26396D01*
X26228Y26755D01*
X15245Y367232D01*
X15593Y367592D01*
X158236D01*
X158415Y367092D01*
X157807Y366593D01*
X156944Y365541D01*
X156303Y364341D01*
X155908Y363040D01*
X155775Y361686D01*
Y361202D01*
X169653D01*
Y361686D01*
X169519Y363040D01*
X169125Y364341D01*
X168483Y365541D01*
X167621Y366593D01*
X167013Y367092D01*
X167191Y367592D01*
X176727D01*
X176964Y367092D01*
X176135Y366082D01*
X175404Y364714D01*
X174954Y363230D01*
X174802Y361686D01*
Y359718D01*
X174954Y358174D01*
X175404Y356690D01*
X176135Y355322D01*
X177119Y354123D01*
X178318Y353139D01*
X179686Y352408D01*
X181170Y351958D01*
X182714Y351805D01*
X184257Y351958D01*
X185742Y352408D01*
X187110Y353139D01*
X188309Y354123D01*
X189293Y355322D01*
X190024Y356690D01*
X190474Y358174D01*
X190626Y359718D01*
Y361686D01*
X190474Y363230D01*
X190024Y364714D01*
X189293Y366082D01*
X188464Y367092D01*
X188700Y367592D01*
X385312D01*
Y361462D01*
D02*
G37*
%LPC*%
G36*
X771131Y363670D02*
X770778D01*
X769092Y363403D01*
X767469Y362876D01*
X765948Y362101D01*
X764568Y361098D01*
X763361Y359891D01*
X762358Y358511D01*
X761583Y356990D01*
X761056Y355367D01*
X760789Y353681D01*
Y353328D01*
X771131D01*
Y363670D01*
D02*
G37*
G36*
X563354Y360202D02*
X556915D01*
Y352828D01*
X557768Y352912D01*
X559070Y353307D01*
X560270Y353948D01*
X561321Y354811D01*
X562184Y355862D01*
X562825Y357062D01*
X563220Y358364D01*
X563354Y359718D01*
Y360202D01*
D02*
G37*
G36*
X555915D02*
X549476D01*
Y359718D01*
X549609Y358364D01*
X550004Y357062D01*
X550645Y355862D01*
X551508Y354811D01*
X552560Y353948D01*
X553759Y353307D01*
X555061Y352912D01*
X555915Y352828D01*
Y360202D01*
D02*
G37*
G36*
X771131Y352328D02*
X760789D01*
Y351975D01*
X761056Y350289D01*
X761583Y348666D01*
X762358Y347145D01*
X763361Y345764D01*
X764568Y344558D01*
X765948Y343554D01*
X767469Y342780D01*
X769092Y342252D01*
X770778Y341985D01*
X771131D01*
Y352328D01*
D02*
G37*
G36*
X425120Y364639D02*
X423261D01*
X421424Y364348D01*
X419656Y363773D01*
X418000Y362930D01*
X416496Y361837D01*
X415181Y360522D01*
X414089Y359018D01*
X413245Y357362D01*
X412670Y355594D01*
X412379Y353757D01*
Y351898D01*
X412670Y350062D01*
X413245Y348294D01*
X414089Y346638D01*
X415181Y345133D01*
X416496Y343819D01*
X418000Y342726D01*
X419656Y341882D01*
X421424Y341308D01*
X423261Y341017D01*
X425120D01*
X426956Y341308D01*
X428724Y341882D01*
X430381Y342726D01*
X431885Y343819D01*
X433199Y345133D01*
X434292Y346638D01*
X435136Y348294D01*
X435710Y350062D01*
X436001Y351898D01*
Y353757D01*
X435710Y355594D01*
X435136Y357362D01*
X434292Y359018D01*
X433199Y360522D01*
X431885Y361837D01*
X430381Y362930D01*
X428724Y363773D01*
X426956Y364348D01*
X425120Y364639D01*
D02*
G37*
G36*
X716119Y315525D02*
X703127D01*
Y302533D01*
X716119D01*
Y315525D01*
D02*
G37*
G36*
X531683Y312286D02*
X530178D01*
X528723Y311897D01*
X527419Y311144D01*
X526355Y310079D01*
X525602Y308775D01*
X525212Y307321D01*
Y305815D01*
X525602Y304361D01*
X526355Y303057D01*
X527419Y301992D01*
X528723Y301239D01*
X530178Y300850D01*
X531683D01*
X533138Y301239D01*
X534442Y301992D01*
X535506Y303057D01*
X536259Y304361D01*
X536649Y305815D01*
Y307321D01*
X536259Y308775D01*
X535506Y310079D01*
X534442Y311144D01*
X533138Y311897D01*
X531683Y312286D01*
D02*
G37*
G36*
X475683D02*
X474178D01*
X472723Y311897D01*
X471419Y311144D01*
X470355Y310079D01*
X469602Y308775D01*
X469212Y307321D01*
Y305815D01*
X469602Y304361D01*
X470355Y303057D01*
X471419Y301992D01*
X472723Y301239D01*
X474178Y300850D01*
X475683D01*
X477138Y301239D01*
X478442Y301992D01*
X479506Y303057D01*
X480259Y304361D01*
X480649Y305815D01*
Y307321D01*
X480259Y308775D01*
X479506Y310079D01*
X478442Y311144D01*
X477138Y311897D01*
X475683Y312286D01*
D02*
G37*
G36*
X716119Y287474D02*
X703127D01*
Y274481D01*
X716119D01*
Y287474D01*
D02*
G37*
G36*
X746348Y361502D02*
X729792D01*
Y268198D01*
X746348D01*
Y361502D01*
D02*
G37*
G36*
X716119Y260899D02*
X703127D01*
Y247907D01*
X716119D01*
Y260899D01*
D02*
G37*
G36*
X750962Y264880D02*
X749246Y264745D01*
X747572Y264343D01*
X745982Y263684D01*
X744514Y262785D01*
X743206Y261667D01*
X742088Y260358D01*
X741188Y258890D01*
X740530Y257300D01*
X740128Y255627D01*
X739993Y253910D01*
X740128Y252195D01*
X740530Y250521D01*
X741188Y248931D01*
X742088Y247463D01*
X743206Y246154D01*
X744514Y245036D01*
X745982Y244137D01*
X747572Y243478D01*
X749246Y243076D01*
X750962Y242941D01*
X752678Y243076D01*
X754352Y243478D01*
X755942Y244137D01*
X757409Y245036D01*
X758718Y246154D01*
X759836Y247463D01*
X760736Y248931D01*
X761394Y250521D01*
X761796Y252195D01*
X761931Y253910D01*
X761796Y255627D01*
X761394Y257300D01*
X760736Y258890D01*
X759836Y260358D01*
X758718Y261667D01*
X757409Y262785D01*
X755942Y263684D01*
X754352Y264343D01*
X752678Y264745D01*
X750962Y264880D01*
D02*
G37*
G36*
X440923Y273316D02*
X427143D01*
Y242379D01*
X440923D01*
Y273316D01*
D02*
G37*
G36*
X594444Y283070D02*
X593504D01*
X592596Y282826D01*
X591783Y282357D01*
X591118Y281692D01*
X590648Y280878D01*
X590405Y279971D01*
Y279031D01*
X590475Y278770D01*
Y275032D01*
X590594Y274127D01*
X590944Y273283D01*
X591500Y272559D01*
X592407Y271652D01*
Y242831D01*
X592337Y242569D01*
Y241630D01*
X592580Y240722D01*
X593050Y239908D01*
X593714Y239244D01*
X594528Y238774D01*
X595435Y238531D01*
X596375D01*
X597283Y238774D01*
X598096Y239244D01*
X598761Y239908D01*
X599231Y240722D01*
X599474Y241630D01*
Y242569D01*
X599404Y242831D01*
Y273101D01*
X599285Y274007D01*
X598935Y274850D01*
X598379Y275575D01*
X597472Y276482D01*
Y278770D01*
X597542Y279031D01*
Y279971D01*
X597299Y280878D01*
X596829Y281692D01*
X596165Y282357D01*
X595351Y282826D01*
X594444Y283070D01*
D02*
G37*
G36*
X717967Y240255D02*
X717028D01*
X716120Y240011D01*
X715306Y239542D01*
X714642Y238877D01*
X714172Y238064D01*
X713929Y237156D01*
Y236216D01*
X713999Y235955D01*
Y209366D01*
X713929Y209105D01*
Y208165D01*
X714172Y207258D01*
X714642Y206444D01*
X715306Y205779D01*
X716120Y205310D01*
X717028Y205066D01*
X717967D01*
X718875Y205310D01*
X719689Y205779D01*
X720353Y206444D01*
X720823Y207258D01*
X721066Y208165D01*
Y209105D01*
X720996Y209366D01*
Y235955D01*
X721066Y236216D01*
Y237156D01*
X720823Y238064D01*
X720353Y238877D01*
X719689Y239542D01*
X718875Y240011D01*
X717967Y240255D01*
D02*
G37*
G36*
X468459Y202361D02*
X467520D01*
X467258Y202291D01*
X436733D01*
X436471Y202361D01*
X435532D01*
X434624Y202118D01*
X433810Y201648D01*
X433146Y200984D01*
X432676Y200170D01*
X432433Y199262D01*
Y198323D01*
X432676Y197415D01*
X433146Y196601D01*
X433810Y195937D01*
X434624Y195467D01*
X435532Y195224D01*
X436471D01*
X436733Y195294D01*
X467258D01*
X467520Y195224D01*
X468459D01*
X469367Y195467D01*
X470181Y195937D01*
X470845Y196601D01*
X471315Y197415D01*
X471558Y198323D01*
Y199262D01*
X471315Y200170D01*
X470845Y200984D01*
X470181Y201648D01*
X469367Y202118D01*
X468459Y202361D01*
D02*
G37*
G36*
X685979Y216140D02*
X685039D01*
X684132Y215897D01*
X683318Y215427D01*
X682654Y214763D01*
X682184Y213949D01*
X681941Y213042D01*
Y212102D01*
X682011Y211841D01*
Y196571D01*
X681941Y196309D01*
Y195370D01*
X682184Y194462D01*
X682654Y193649D01*
X683318Y192984D01*
X684132Y192514D01*
X685039Y192271D01*
X685979D01*
X686887Y192514D01*
X687700Y192984D01*
X688365Y193649D01*
X688834Y194462D01*
X689078Y195370D01*
Y196309D01*
X689008Y196571D01*
Y211841D01*
X689078Y212102D01*
Y213042D01*
X688834Y213949D01*
X688365Y214763D01*
X687700Y215427D01*
X686887Y215897D01*
X685979Y216140D01*
D02*
G37*
G36*
X662357Y209743D02*
X661417D01*
X660510Y209500D01*
X659696Y209030D01*
X659032Y208365D01*
X658562Y207552D01*
X658319Y206644D01*
Y205704D01*
X658562Y204797D01*
X659032Y203983D01*
X659373Y203642D01*
Y192145D01*
X658873Y192079D01*
X658815Y192296D01*
X658345Y193110D01*
X657681Y193774D01*
X656867Y194244D01*
X655959Y194487D01*
X655020D01*
X654112Y194244D01*
X653298Y193774D01*
X652634Y193110D01*
X652355Y192626D01*
X651968Y192121D01*
X651618Y191278D01*
X651558Y190825D01*
X651499Y190372D01*
Y158677D01*
X651429Y158416D01*
Y157476D01*
X651672Y156569D01*
X652142Y155755D01*
X652806Y155090D01*
X653620Y154621D01*
X654528Y154377D01*
X655467D01*
X656375Y154621D01*
X657189Y155090D01*
X657853Y155755D01*
X658323Y156569D01*
X658566Y157476D01*
Y158416D01*
X658496Y158677D01*
Y188988D01*
X658815Y189541D01*
X658873Y189758D01*
X659373Y189692D01*
Y158677D01*
X659303Y158416D01*
Y157476D01*
X659546Y156569D01*
X660016Y155755D01*
X660680Y155090D01*
X661494Y154621D01*
X662402Y154377D01*
X663341D01*
X664249Y154621D01*
X665063Y155090D01*
X665727Y155755D01*
X666197Y156569D01*
X666440Y157476D01*
Y158416D01*
X666370Y158677D01*
Y205136D01*
X666310Y205589D01*
X666251Y206041D01*
X665901Y206885D01*
X665345Y207610D01*
X664952Y208003D01*
X664743Y208365D01*
X664078Y209030D01*
X663265Y209500D01*
X662357Y209743D01*
D02*
G37*
G36*
X760782Y240747D02*
X759842D01*
X758935Y240504D01*
X758121Y240034D01*
X757457Y239369D01*
X756987Y238556D01*
X756744Y237648D01*
Y236708D01*
X756987Y235801D01*
X757145Y235526D01*
Y188159D01*
X756749Y187854D01*
X756039Y188044D01*
X754743D01*
X753492Y187709D01*
X752369Y187061D01*
X751453Y186145D01*
X750805Y185023D01*
X750470Y183771D01*
Y182475D01*
X750805Y181224D01*
X751453Y180101D01*
X752369Y179185D01*
X753491Y178537D01*
X753399Y178044D01*
X750470D01*
Y168202D01*
X757145D01*
Y139646D01*
X754929Y137429D01*
X754373Y136704D01*
X754023Y135861D01*
X753904Y134955D01*
Y87853D01*
X753964Y87400D01*
X754023Y86948D01*
X754168Y86598D01*
X754373Y86104D01*
X754929Y85379D01*
X756686Y83622D01*
X757410Y83066D01*
X758254Y82716D01*
X758707Y82657D01*
X759160Y82597D01*
X759328D01*
Y81017D01*
X773108D01*
Y90859D01*
X770092D01*
X769992Y91359D01*
X770668Y91639D01*
X771696Y92428D01*
X772485Y93456D01*
X772981Y94653D01*
X773150Y95938D01*
X772981Y97223D01*
X772485Y98420D01*
X771696Y99448D01*
X770668Y100237D01*
X769595Y100681D01*
X769594Y100682D01*
Y101194D01*
X769595Y101195D01*
X770668Y101639D01*
X771696Y102428D01*
X772485Y103456D01*
X772981Y104653D01*
X773150Y105938D01*
X772981Y107223D01*
X772485Y108420D01*
X771696Y109448D01*
X770668Y110237D01*
X769471Y110733D01*
X768186Y110902D01*
X764249D01*
X762965Y110733D01*
X761767Y110237D01*
X761349Y109916D01*
X760901Y110137D01*
Y133506D01*
X763118Y135723D01*
X763674Y136447D01*
X764023Y137291D01*
X764142Y138197D01*
Y236847D01*
X764083Y237299D01*
X764023Y237752D01*
X763674Y238596D01*
X763435Y238908D01*
X763168Y239369D01*
X762503Y240034D01*
X761690Y240504D01*
X760782Y240747D01*
D02*
G37*
G36*
X599365Y223522D02*
X598425D01*
X597518Y223279D01*
X596704Y222809D01*
X596039Y222145D01*
X595570Y221331D01*
X595327Y220424D01*
Y219484D01*
X595397Y219222D01*
Y186236D01*
X595327Y185975D01*
Y185035D01*
X595570Y184128D01*
X596039Y183314D01*
X596704Y182650D01*
X597518Y182180D01*
X598425Y181937D01*
X599365D01*
X600272Y182180D01*
X601086Y182650D01*
X601751Y183314D01*
X602220Y184128D01*
X602463Y185035D01*
Y185975D01*
X602393Y186236D01*
Y219222D01*
X602463Y219484D01*
Y220424D01*
X602220Y221331D01*
X601751Y222145D01*
X601086Y222809D01*
X600272Y223279D01*
X599365Y223522D01*
D02*
G37*
G36*
X440446Y160635D02*
X435025D01*
Y156635D01*
X440446D01*
Y160635D01*
D02*
G37*
G36*
X434025D02*
X428604D01*
Y156635D01*
X434025D01*
Y160635D01*
D02*
G37*
G36*
X609699Y248621D02*
X608760D01*
X607852Y248378D01*
X607038Y247908D01*
X606374Y247243D01*
X605904Y246430D01*
X605661Y245522D01*
Y245252D01*
X605652Y245240D01*
X605353Y244518D01*
X605251Y243743D01*
X605251Y152515D01*
X604920Y151941D01*
X604677Y151034D01*
Y150094D01*
X604920Y149187D01*
X605390Y148373D01*
X606054Y147708D01*
X606868Y147239D01*
X607776Y146996D01*
X608715D01*
X609623Y147239D01*
X610436Y147708D01*
X611101Y148373D01*
X611571Y149187D01*
X611814Y150094D01*
Y151034D01*
X611571Y151941D01*
X611239Y152515D01*
X611239Y242092D01*
X611421Y242197D01*
X612085Y242861D01*
X612555Y243675D01*
X612798Y244583D01*
Y245522D01*
X612555Y246430D01*
X612085Y247243D01*
X611421Y247908D01*
X610607Y248378D01*
X609699Y248621D01*
D02*
G37*
G36*
X440446Y155635D02*
X428604D01*
Y152103D01*
X428604Y151635D01*
X428117Y151603D01*
X427635D01*
Y130666D01*
X441415D01*
Y151603D01*
X440933D01*
X440446Y151635D01*
X440446Y152103D01*
Y155635D01*
D02*
G37*
G36*
X572298Y259940D02*
X571358D01*
X570451Y259696D01*
X569637Y259227D01*
X568973Y258562D01*
X568503Y257749D01*
X568260Y256841D01*
Y255901D01*
X568330Y255640D01*
Y198354D01*
X520994D01*
X520089Y198235D01*
X519245Y197885D01*
X518521Y197329D01*
X517965Y196605D01*
X517615Y195761D01*
X517496Y194855D01*
X517516Y194705D01*
X517496Y194555D01*
Y25217D01*
X517571Y24649D01*
Y24602D01*
X517583Y24557D01*
X517615Y24311D01*
X517710Y24082D01*
X517814Y23695D01*
X518284Y22881D01*
X518948Y22216D01*
X519762Y21747D01*
X520669Y21503D01*
X521609D01*
X522516Y21747D01*
X523330Y22216D01*
X523995Y22881D01*
X524464Y23695D01*
X524708Y24602D01*
Y25542D01*
X524493Y26344D01*
Y122662D01*
X524993Y122824D01*
X525943Y121874D01*
X527247Y121121D01*
X528701Y120731D01*
X530207D01*
X531661Y121121D01*
X532965Y121874D01*
X534030Y122939D01*
X534783Y124243D01*
X535173Y125697D01*
Y127203D01*
X534783Y128657D01*
X534030Y129961D01*
X532965Y131026D01*
X531661Y131779D01*
X530207Y132168D01*
X528701D01*
X527247Y131779D01*
X525943Y131026D01*
X524993Y130076D01*
X524493Y130238D01*
Y191357D01*
X583130D01*
X583582Y191417D01*
X584035Y191476D01*
X584879Y191826D01*
X585383Y192213D01*
X585867Y192492D01*
X586531Y193156D01*
X587001Y193970D01*
X587244Y194878D01*
Y195817D01*
X587001Y196725D01*
X586531Y197539D01*
X585867Y198203D01*
X585053Y198673D01*
X584146Y198916D01*
X583206D01*
X582299Y198673D01*
X581746Y198354D01*
X575326D01*
Y255640D01*
X575397Y255901D01*
Y256841D01*
X575153Y257749D01*
X574684Y258562D01*
X574019Y259227D01*
X573206Y259696D01*
X572298Y259940D01*
D02*
G37*
G36*
X474207Y132168D02*
X472701D01*
X471247Y131779D01*
X469943Y131026D01*
X468878Y129961D01*
X468125Y128657D01*
X467736Y127203D01*
Y125697D01*
X468125Y124243D01*
X468878Y122939D01*
X469943Y121874D01*
X471247Y121121D01*
X472701Y120731D01*
X474207D01*
X475661Y121121D01*
X476965Y121874D01*
X478030Y122939D01*
X478783Y124243D01*
X479173Y125697D01*
Y127203D01*
X478783Y128657D01*
X478030Y129961D01*
X476965Y131026D01*
X475661Y131779D01*
X474207Y132168D01*
D02*
G37*
G36*
X725841Y234349D02*
X724902D01*
X723994Y234106D01*
X723180Y233636D01*
X722516Y232972D01*
X722046Y232158D01*
X721803Y231250D01*
Y230311D01*
X722046Y229403D01*
X722365Y228851D01*
Y194110D01*
X722295Y193849D01*
Y192909D01*
X722365Y192648D01*
Y185105D01*
X722425Y184652D01*
X722484Y184200D01*
X722629Y183850D01*
X722834Y183356D01*
X723390Y182631D01*
X725147Y180874D01*
X725872Y180318D01*
X726715Y179969D01*
X727168Y179909D01*
X727621Y179849D01*
X733192D01*
Y158824D01*
X732692Y158440D01*
X732239Y158562D01*
X731299D01*
X730392Y158318D01*
X729896Y158032D01*
X717298D01*
X717236Y158095D01*
X716616Y158570D01*
X715894Y158870D01*
X715119Y158972D01*
X704889D01*
X704114Y158870D01*
X703392Y158570D01*
X702772Y158095D01*
X701601Y156923D01*
X701125Y156303D01*
X700826Y155581D01*
X700724Y154806D01*
Y147594D01*
X700392Y147020D01*
X700149Y146113D01*
Y145173D01*
X700392Y144265D01*
X700862Y143452D01*
X701527Y142787D01*
X702341Y142317D01*
X703248Y142074D01*
X704188D01*
X705095Y142317D01*
X705909Y142787D01*
X706573Y143452D01*
X707043Y144265D01*
X707286Y145173D01*
Y146113D01*
X707043Y147020D01*
X706712Y147594D01*
Y152983D01*
X713879D01*
X713941Y152921D01*
X714561Y152445D01*
X715283Y152146D01*
X716058Y152044D01*
X729740D01*
X730392Y151668D01*
X731299Y151425D01*
X732239D01*
X732692Y151546D01*
X733192Y151162D01*
Y113708D01*
X730040D01*
X729778Y113778D01*
X728839D01*
X727963Y113544D01*
X727870Y113540D01*
X727463Y113814D01*
Y114124D01*
X727220Y115032D01*
X726751Y115846D01*
X726086Y116510D01*
X725272Y116980D01*
X724365Y117223D01*
X723425D01*
X722518Y116980D01*
X721704Y116510D01*
X721039Y115846D01*
X720570Y115032D01*
X720327Y114124D01*
Y113185D01*
X720570Y112277D01*
X720901Y111704D01*
Y88539D01*
X720570Y87965D01*
X720327Y87058D01*
Y86118D01*
X720570Y85210D01*
X721039Y84397D01*
X721704Y83732D01*
X722518Y83262D01*
X723425Y83019D01*
X724365D01*
X725272Y83262D01*
X726086Y83732D01*
X726751Y84397D01*
X727220Y85210D01*
X727463Y86118D01*
Y87058D01*
X727220Y87965D01*
X726889Y88539D01*
Y106909D01*
X727389Y107197D01*
X727931Y106884D01*
X728839Y106641D01*
X729778D01*
X730040Y106711D01*
X733192D01*
Y50410D01*
X733122Y50148D01*
Y49208D01*
X733365Y48301D01*
X733835Y47487D01*
X734499Y46823D01*
X735313Y46353D01*
X736221Y46110D01*
X737160D01*
X738068Y46353D01*
X738881Y46823D01*
X739546Y47487D01*
X740016Y48301D01*
X740259Y49208D01*
Y50148D01*
X740189Y50410D01*
Y162814D01*
X740880D01*
X741142Y162744D01*
X742062D01*
Y123480D01*
X741731Y122906D01*
X741488Y121998D01*
Y121059D01*
X741731Y120151D01*
X742201Y119337D01*
X742865Y118673D01*
X743679Y118203D01*
X744587Y117960D01*
X745526D01*
X746434Y118203D01*
X747248Y118673D01*
X747912Y119337D01*
X748382Y120151D01*
X748625Y121059D01*
Y121998D01*
X748382Y122906D01*
X748051Y123480D01*
Y195365D01*
X748382Y195939D01*
X748625Y196846D01*
Y197786D01*
X748382Y198693D01*
X748051Y199267D01*
Y202729D01*
X747949Y203504D01*
X747649Y204226D01*
X747174Y204847D01*
X746554Y205322D01*
X745831Y205622D01*
X745056Y205724D01*
X744281Y205622D01*
X743559Y205322D01*
X742939Y204847D01*
X742463Y204226D01*
X742164Y203504D01*
X742062Y202729D01*
Y199267D01*
X741731Y198693D01*
X741488Y197786D01*
Y196846D01*
X741731Y195939D01*
X742062Y195365D01*
Y169881D01*
X741142D01*
X740880Y169810D01*
X740189D01*
Y183348D01*
X740069Y184253D01*
X739720Y185097D01*
X739164Y185822D01*
X738440Y186378D01*
X737596Y186727D01*
X736690Y186846D01*
X729362D01*
Y192648D01*
X729432Y192909D01*
Y193849D01*
X729362Y194110D01*
Y230234D01*
X729243Y231140D01*
X728893Y231984D01*
X728506Y232488D01*
X728227Y232972D01*
X727563Y233636D01*
X726749Y234106D01*
X725841Y234349D01*
D02*
G37*
G36*
X682534Y127558D02*
X681595D01*
X680687Y127315D01*
X679873Y126845D01*
X679209Y126180D01*
X678739Y125367D01*
X678496Y124459D01*
Y123520D01*
X678739Y122612D01*
X679209Y121798D01*
X679873Y121134D01*
X680687Y120664D01*
X681595Y120421D01*
X682534D01*
X683442Y120664D01*
X684015Y120995D01*
X701216D01*
Y117574D01*
X700885Y117000D01*
X700641Y116093D01*
Y115153D01*
X700885Y114246D01*
X701355Y113432D01*
X702019Y112768D01*
X702833Y112298D01*
X703740Y112055D01*
X704680D01*
X705587Y112298D01*
X706401Y112768D01*
X707065Y113432D01*
X707535Y114246D01*
X707779Y115153D01*
Y116093D01*
X707535Y117000D01*
X707204Y117574D01*
Y122818D01*
X707102Y123593D01*
X706803Y124315D01*
X706327Y124935D01*
X705156Y126106D01*
X704535Y126582D01*
X703813Y126881D01*
X703038Y126983D01*
X684015D01*
X683442Y127315D01*
X682534Y127558D01*
D02*
G37*
G36*
X573774Y99507D02*
X572835D01*
X571927Y99263D01*
X571113Y98794D01*
X570449Y98129D01*
X569979Y97316D01*
X569736Y96408D01*
Y95468D01*
X569979Y94561D01*
X570310Y93987D01*
Y91204D01*
X570412Y90429D01*
X570712Y89707D01*
X571187Y89087D01*
X572359Y87915D01*
X572979Y87440D01*
X573701Y87141D01*
X574476Y87038D01*
X606786D01*
X607360Y86707D01*
X608268Y86464D01*
X609207D01*
X610115Y86707D01*
X610929Y87177D01*
X611593Y87841D01*
X612063Y88655D01*
X612306Y89563D01*
Y90502D01*
X612063Y91410D01*
X611593Y92224D01*
X610929Y92888D01*
X610115Y93358D01*
X609207Y93601D01*
X608268D01*
X607360Y93358D01*
X606786Y93027D01*
X576299D01*
Y93987D01*
X576630Y94561D01*
X576873Y95468D01*
Y96408D01*
X576630Y97316D01*
X576160Y98129D01*
X575496Y98794D01*
X574682Y99263D01*
X573774Y99507D01*
D02*
G37*
G36*
X679581Y104920D02*
X678642D01*
X677734Y104677D01*
X676920Y104207D01*
X676256Y103543D01*
X675786Y102729D01*
X675543Y101821D01*
Y100882D01*
X675613Y100620D01*
Y80682D01*
X675679Y80183D01*
X675543Y79676D01*
Y78736D01*
X675786Y77828D01*
X676256Y77015D01*
X676920Y76350D01*
X677734Y75880D01*
X678642Y75637D01*
X679581D01*
X680489Y75880D01*
X681303Y76350D01*
X681967Y77015D01*
X682437Y77828D01*
X682680Y78736D01*
Y79676D01*
X682544Y80183D01*
X682610Y80682D01*
Y100620D01*
X682680Y100882D01*
Y101821D01*
X682437Y102729D01*
X681967Y103543D01*
X681303Y104207D01*
X680489Y104677D01*
X679581Y104920D01*
D02*
G37*
G36*
X690953Y82190D02*
X689908D01*
X688899Y81920D01*
X687994Y81397D01*
X687255Y80658D01*
X686732Y79753D01*
X686462Y78744D01*
Y77699D01*
X686732Y76690D01*
X687255Y75785D01*
X687994Y75046D01*
X688899Y74524D01*
X689908Y74253D01*
X690953D01*
X691962Y74524D01*
X692867Y75046D01*
X693606Y75785D01*
X694129Y76690D01*
X694399Y77699D01*
Y78744D01*
X694129Y79753D01*
X693606Y80658D01*
X692867Y81397D01*
X691962Y81920D01*
X690953Y82190D01*
D02*
G37*
G36*
X556550Y168404D02*
X555610D01*
X554703Y168161D01*
X553889Y167691D01*
X553225Y167027D01*
X552755Y166213D01*
X552512Y165305D01*
Y164366D01*
X552755Y163458D01*
X553074Y162906D01*
Y72555D01*
X553004Y72294D01*
Y71354D01*
X553247Y70446D01*
X553717Y69633D01*
X554381Y68968D01*
X555195Y68499D01*
X556102Y68255D01*
X557042D01*
X557950Y68499D01*
X558763Y68968D01*
X559428Y69633D01*
X559898Y70446D01*
X560141Y71354D01*
Y72294D01*
X560071Y72555D01*
Y164289D01*
X560011Y164742D01*
X559951Y165195D01*
X559602Y166039D01*
X559215Y166543D01*
X558936Y167027D01*
X558271Y167691D01*
X557457Y168161D01*
X556550Y168404D01*
D02*
G37*
G36*
X441415Y92706D02*
X427635D01*
Y61769D01*
X441415D01*
Y92706D01*
D02*
G37*
G36*
X646609Y98148D02*
X645669D01*
X644762Y97905D01*
X643948Y97435D01*
X643284Y96771D01*
X642814Y95957D01*
X642571Y95050D01*
Y94110D01*
X642814Y93202D01*
X643145Y92629D01*
Y60488D01*
X642814Y59914D01*
X642571Y59006D01*
Y58067D01*
X642814Y57159D01*
X643284Y56345D01*
X643948Y55681D01*
X644762Y55211D01*
X645669Y54968D01*
X646609D01*
X647516Y55211D01*
X648330Y55681D01*
X648995Y56345D01*
X649464Y57159D01*
X649708Y58067D01*
Y59006D01*
X649464Y59914D01*
X649133Y60488D01*
Y92629D01*
X649464Y93202D01*
X649708Y94110D01*
Y95050D01*
X649464Y95957D01*
X648995Y96771D01*
X648330Y97435D01*
X647516Y97905D01*
X646609Y98148D01*
D02*
G37*
G36*
X608223Y83266D02*
X607283D01*
X606376Y83023D01*
X605562Y82553D01*
X604898Y81889D01*
X604428Y81075D01*
X604185Y80168D01*
Y79228D01*
X604293Y78824D01*
Y58918D01*
X604185Y58514D01*
Y57575D01*
X604428Y56667D01*
X604898Y55853D01*
X605562Y55189D01*
X606376Y54719D01*
X607283Y54476D01*
X608223D01*
X609131Y54719D01*
X609944Y55189D01*
X610609Y55853D01*
X611079Y56667D01*
X611322Y57575D01*
Y58514D01*
X611290Y58633D01*
Y79109D01*
X611322Y79228D01*
Y80168D01*
X611079Y81075D01*
X610609Y81889D01*
X609944Y82553D01*
X609131Y83023D01*
X608223Y83266D01*
D02*
G37*
G36*
X449758Y99999D02*
X448819D01*
X447911Y99756D01*
X447098Y99286D01*
X446433Y98621D01*
X445963Y97808D01*
X445720Y96900D01*
Y95960D01*
X445790Y95699D01*
Y58776D01*
X445720Y58514D01*
Y57575D01*
X445963Y56667D01*
X446433Y55853D01*
X447098Y55189D01*
X447911Y54719D01*
X448819Y54476D01*
X449758D01*
X450666Y54719D01*
X451480Y55189D01*
X452144Y55853D01*
X452614Y56667D01*
X452857Y57575D01*
Y58514D01*
X452787Y58776D01*
Y95699D01*
X452857Y95960D01*
Y96900D01*
X452614Y97808D01*
X452144Y98621D01*
X451480Y99286D01*
X450666Y99756D01*
X449758Y99999D01*
D02*
G37*
G36*
X701235Y109841D02*
X700295D01*
X699388Y109598D01*
X698574Y109128D01*
X697910Y108464D01*
X697440Y107650D01*
X697197Y106743D01*
Y105803D01*
X697440Y104895D01*
X697771Y104322D01*
Y81445D01*
X697680Y81326D01*
X697381Y80604D01*
X697279Y79829D01*
Y56058D01*
X696948Y55485D01*
X696704Y54577D01*
Y53638D01*
X696948Y52730D01*
X697417Y51916D01*
X698082Y51252D01*
X698896Y50782D01*
X699803Y50539D01*
X700743D01*
X701650Y50782D01*
X702464Y51252D01*
X703128Y51916D01*
X703598Y52730D01*
X703841Y53638D01*
Y54577D01*
X703598Y55485D01*
X703267Y56058D01*
Y78706D01*
X703358Y78824D01*
X703482Y79123D01*
X703657Y79546D01*
X703759Y80321D01*
Y104322D01*
X704090Y104895D01*
X704334Y105803D01*
Y106743D01*
X704090Y107650D01*
X703621Y108464D01*
X702956Y109128D01*
X702142Y109598D01*
X701235Y109841D01*
D02*
G37*
G36*
X671215Y68010D02*
X670276D01*
X669368Y67767D01*
X668554Y67298D01*
X667890Y66633D01*
X667420Y65819D01*
X667177Y64912D01*
Y63972D01*
X667247Y63711D01*
Y52870D01*
X667177Y52609D01*
Y51669D01*
X667420Y50761D01*
X667890Y49948D01*
X668554Y49283D01*
X669368Y48814D01*
X670276Y48570D01*
X671215D01*
X672123Y48814D01*
X672936Y49283D01*
X673601Y49948D01*
X674071Y50761D01*
X674314Y51669D01*
Y52609D01*
X674244Y52870D01*
Y63711D01*
X674314Y63972D01*
Y64912D01*
X674071Y65819D01*
X673601Y66633D01*
X672936Y67298D01*
X672123Y67767D01*
X671215Y68010D01*
D02*
G37*
G36*
X568549Y34914D02*
Y27540D01*
X574988D01*
Y28025D01*
X574854Y29378D01*
X574459Y30680D01*
X573818Y31880D01*
X572955Y32931D01*
X571904Y33794D01*
X570704Y34435D01*
X569402Y34830D01*
X568549Y34914D01*
D02*
G37*
G36*
X567549D02*
X566695Y34830D01*
X565393Y34435D01*
X564193Y33794D01*
X563142Y32931D01*
X562279Y31880D01*
X561638Y30680D01*
X561243Y29378D01*
X561110Y28025D01*
Y27540D01*
X567549D01*
Y34914D01*
D02*
G37*
G36*
X574988Y26540D02*
X568549D01*
Y19166D01*
X569402Y19251D01*
X570704Y19646D01*
X571904Y20287D01*
X572955Y21150D01*
X573818Y22201D01*
X574459Y23401D01*
X574854Y24702D01*
X574988Y26056D01*
Y26540D01*
D02*
G37*
G36*
X567549D02*
X561110D01*
Y26056D01*
X561243Y24702D01*
X561638Y23401D01*
X562279Y22201D01*
X563142Y21150D01*
X564193Y20287D01*
X565393Y19646D01*
X566695Y19251D01*
X567549Y19166D01*
Y26540D01*
D02*
G37*
G36*
X548049Y35937D02*
X546505Y35785D01*
X545021Y35335D01*
X543653Y34603D01*
X542454Y33619D01*
X541470Y32420D01*
X540739Y31053D01*
X540288Y29568D01*
X540136Y28025D01*
Y26056D01*
X540288Y24513D01*
X540739Y23028D01*
X541470Y21660D01*
X542454Y20461D01*
X543653Y19478D01*
X545021Y18746D01*
X546505Y18296D01*
X548049Y18144D01*
X549592Y18296D01*
X551076Y18746D01*
X552444Y19478D01*
X553643Y20461D01*
X554627Y21660D01*
X555358Y23028D01*
X555809Y24513D01*
X555961Y26056D01*
Y28025D01*
X555809Y29568D01*
X555358Y31053D01*
X554627Y32420D01*
X553643Y33619D01*
X552444Y34603D01*
X551076Y35335D01*
X549592Y35785D01*
X548049Y35937D01*
D02*
G37*
G36*
X771131Y27056D02*
X770778D01*
X769092Y26789D01*
X767469Y26262D01*
X765948Y25487D01*
X764568Y24484D01*
X763361Y23277D01*
X762358Y21896D01*
X761583Y20376D01*
X761056Y18753D01*
X760789Y17067D01*
Y16714D01*
X771131D01*
Y27056D01*
D02*
G37*
G36*
X425044D02*
X424690D01*
Y16714D01*
X435033D01*
Y17067D01*
X434766Y18753D01*
X434238Y20376D01*
X433464Y21896D01*
X432460Y23277D01*
X431254Y24484D01*
X429873Y25487D01*
X428352Y26262D01*
X426729Y26789D01*
X425044Y27056D01*
D02*
G37*
G36*
X771131Y15714D02*
X760789D01*
Y15360D01*
X761056Y13675D01*
X761583Y12052D01*
X762358Y10531D01*
X763361Y9150D01*
X764568Y7943D01*
X765948Y6940D01*
X767469Y6165D01*
X769092Y5638D01*
X770778Y5371D01*
X771131D01*
Y15714D01*
D02*
G37*
G36*
X435033D02*
X424690D01*
Y5371D01*
X425044D01*
X426729Y5638D01*
X428352Y6165D01*
X429873Y6940D01*
X431254Y7943D01*
X432460Y9150D01*
X433464Y10531D01*
X434238Y12052D01*
X434766Y13675D01*
X435033Y15360D01*
Y15714D01*
D02*
G37*
%LPD*%
G36*
X752128Y259773D02*
X753249Y259433D01*
X754283Y258880D01*
X755188Y258137D01*
X755932Y257231D01*
X756484Y256198D01*
X756824Y255077D01*
X756939Y253910D01*
X756824Y252744D01*
X756484Y251623D01*
X755932Y250590D01*
X755188Y249684D01*
X754283Y248941D01*
X753249Y248388D01*
X752128Y248048D01*
X750962Y247933D01*
X749796Y248048D01*
X748675Y248388D01*
X747641Y248941D01*
X746735Y249684D01*
X745992Y250590D01*
X745440Y251623D01*
X745100Y252744D01*
X744985Y253910D01*
X745100Y255077D01*
X745440Y256198D01*
X745992Y257231D01*
X746735Y258137D01*
X747641Y258880D01*
X748675Y259433D01*
X749796Y259773D01*
X750962Y259888D01*
X752128Y259773D01*
D02*
G37*
%LPC*%
G36*
X751484Y257879D02*
X750440D01*
X749430Y257609D01*
X748525Y257086D01*
X747786Y256347D01*
X747264Y255442D01*
X746993Y254433D01*
Y253388D01*
X747264Y252379D01*
X747786Y251474D01*
X748525Y250735D01*
X749430Y250213D01*
X750440Y249942D01*
X751484D01*
X752494Y250213D01*
X753399Y250735D01*
X754138Y251474D01*
X754660Y252379D01*
X754930Y253388D01*
Y254433D01*
X754660Y255442D01*
X754138Y256347D01*
X753399Y257086D01*
X752494Y257609D01*
X751484Y257879D01*
D02*
G37*
G36*
X377430Y363670D02*
X377077D01*
X375392Y363403D01*
X373768Y362876D01*
X372248Y362101D01*
X370867Y361098D01*
X369660Y359891D01*
X368657Y358511D01*
X367882Y356990D01*
X367355Y355367D01*
X367088Y353681D01*
Y353328D01*
X377430D01*
Y363670D01*
D02*
G37*
G36*
X169653Y360202D02*
X163214D01*
Y352828D01*
X164068Y352912D01*
X165369Y353307D01*
X166569Y353948D01*
X167621Y354811D01*
X168483Y355862D01*
X169125Y357062D01*
X169519Y358364D01*
X169653Y359718D01*
Y360202D01*
D02*
G37*
G36*
X162214D02*
X155775D01*
Y359718D01*
X155908Y358364D01*
X156303Y357062D01*
X156944Y355862D01*
X157807Y354811D01*
X158859Y353948D01*
X160058Y353307D01*
X161360Y352912D01*
X162214Y352828D01*
Y360202D01*
D02*
G37*
G36*
X377430Y352328D02*
X367088D01*
Y351975D01*
X367355Y350289D01*
X367882Y348666D01*
X368657Y347145D01*
X369660Y345764D01*
X370867Y344558D01*
X372248Y343554D01*
X373768Y342780D01*
X375392Y342252D01*
X377077Y341985D01*
X377430D01*
Y352328D01*
D02*
G37*
G36*
X31419Y364639D02*
X29560D01*
X27724Y364348D01*
X25956Y363773D01*
X24299Y362930D01*
X22795Y361837D01*
X21481Y360522D01*
X20388Y359018D01*
X19544Y357362D01*
X18969Y355594D01*
X18678Y353757D01*
Y351898D01*
X18969Y350062D01*
X19544Y348294D01*
X20388Y346638D01*
X21481Y345133D01*
X22795Y343819D01*
X24299Y342726D01*
X25956Y341882D01*
X27724Y341308D01*
X29560Y341017D01*
X31419D01*
X33255Y341308D01*
X35023Y341882D01*
X36680Y342726D01*
X38184Y343819D01*
X39498Y345133D01*
X40591Y346638D01*
X41435Y348294D01*
X42010Y350062D01*
X42301Y351898D01*
Y353757D01*
X42010Y355594D01*
X41435Y357362D01*
X40591Y359018D01*
X39498Y360522D01*
X38184Y361837D01*
X36680Y362930D01*
X35023Y363773D01*
X33255Y364348D01*
X31419Y364639D01*
D02*
G37*
G36*
X322419Y315525D02*
X309426D01*
Y302533D01*
X322419D01*
Y315525D01*
D02*
G37*
G36*
X137982Y312286D02*
X136477D01*
X135022Y311897D01*
X133718Y311144D01*
X132654Y310079D01*
X131901Y308775D01*
X131511Y307321D01*
Y305815D01*
X131901Y304361D01*
X132654Y303057D01*
X133718Y301992D01*
X135022Y301239D01*
X136477Y300850D01*
X137982D01*
X139437Y301239D01*
X140741Y301992D01*
X141806Y303057D01*
X142558Y304361D01*
X142948Y305815D01*
Y307321D01*
X142558Y308775D01*
X141806Y310079D01*
X140741Y311144D01*
X139437Y311897D01*
X137982Y312286D01*
D02*
G37*
G36*
X81982D02*
X80477D01*
X79022Y311897D01*
X77718Y311144D01*
X76654Y310079D01*
X75901Y308775D01*
X75511Y307321D01*
Y305815D01*
X75901Y304361D01*
X76654Y303057D01*
X77718Y301992D01*
X79022Y301239D01*
X80477Y300850D01*
X81982D01*
X83437Y301239D01*
X84741Y301992D01*
X85806Y303057D01*
X86559Y304361D01*
X86948Y305815D01*
Y307321D01*
X86559Y308775D01*
X85806Y310079D01*
X84741Y311144D01*
X83437Y311897D01*
X81982Y312286D01*
D02*
G37*
G36*
X322419Y287474D02*
X309426D01*
Y274481D01*
X322419D01*
Y287474D01*
D02*
G37*
G36*
X352648Y361502D02*
X336091D01*
Y268198D01*
X352648D01*
Y361502D01*
D02*
G37*
G36*
X322419Y260899D02*
X309426D01*
Y247907D01*
X322419D01*
Y260899D01*
D02*
G37*
G36*
X357261Y264880D02*
X355545Y264745D01*
X353871Y264343D01*
X352281Y263684D01*
X350814Y262785D01*
X349505Y261667D01*
X348387Y260358D01*
X347488Y258890D01*
X346829Y257300D01*
X346427Y255627D01*
X346292Y253910D01*
X346427Y252195D01*
X346829Y250521D01*
X347488Y248931D01*
X348387Y247463D01*
X349505Y246154D01*
X350814Y245036D01*
X352281Y244137D01*
X353871Y243478D01*
X355545Y243076D01*
X357261Y242941D01*
X358977Y243076D01*
X360651Y243478D01*
X362241Y244137D01*
X363709Y245036D01*
X365018Y246154D01*
X366135Y247463D01*
X367035Y248931D01*
X367693Y250521D01*
X368095Y252195D01*
X368230Y253910D01*
X368095Y255627D01*
X367693Y257300D01*
X367035Y258890D01*
X366135Y260358D01*
X365018Y261667D01*
X363709Y262785D01*
X362241Y263684D01*
X360651Y264343D01*
X358977Y264745D01*
X357261Y264880D01*
D02*
G37*
G36*
X47222Y273316D02*
X33442D01*
Y242379D01*
X47222D01*
Y273316D01*
D02*
G37*
G36*
X200743Y283070D02*
X199803D01*
X198896Y282826D01*
X198082Y282357D01*
X197417Y281692D01*
X196948Y280878D01*
X196704Y279971D01*
Y279031D01*
X196774Y278770D01*
Y275032D01*
X196894Y274127D01*
X197243Y273283D01*
X197799Y272559D01*
X198706Y271652D01*
Y242831D01*
X198636Y242569D01*
Y241630D01*
X198879Y240722D01*
X199349Y239908D01*
X200013Y239244D01*
X200827Y238774D01*
X201735Y238531D01*
X202674D01*
X203582Y238774D01*
X204396Y239244D01*
X205060Y239908D01*
X205530Y240722D01*
X205773Y241630D01*
Y242569D01*
X205703Y242831D01*
Y273101D01*
X205584Y274007D01*
X205234Y274850D01*
X204678Y275575D01*
X203771Y276482D01*
Y278770D01*
X203841Y279031D01*
Y279971D01*
X203598Y280878D01*
X203129Y281692D01*
X202464Y282357D01*
X201650Y282826D01*
X200743Y283070D01*
D02*
G37*
G36*
X324266Y240255D02*
X323327D01*
X322419Y240011D01*
X321605Y239542D01*
X320941Y238877D01*
X320471Y238064D01*
X320228Y237156D01*
Y236216D01*
X320298Y235955D01*
Y209366D01*
X320228Y209105D01*
Y208165D01*
X320471Y207258D01*
X320941Y206444D01*
X321605Y205779D01*
X322419Y205310D01*
X323327Y205066D01*
X324266D01*
X325174Y205310D01*
X325988Y205779D01*
X326652Y206444D01*
X327122Y207258D01*
X327365Y208165D01*
Y209105D01*
X327295Y209366D01*
Y235955D01*
X327365Y236216D01*
Y237156D01*
X327122Y238064D01*
X326652Y238877D01*
X325988Y239542D01*
X325174Y240011D01*
X324266Y240255D01*
D02*
G37*
G36*
X74758Y202361D02*
X73819D01*
X73557Y202291D01*
X43032D01*
X42770Y202361D01*
X41831D01*
X40923Y202118D01*
X40109Y201648D01*
X39445Y200984D01*
X38975Y200170D01*
X38732Y199262D01*
Y198323D01*
X38975Y197415D01*
X39445Y196601D01*
X40109Y195937D01*
X40923Y195467D01*
X41831Y195224D01*
X42770D01*
X43032Y195294D01*
X73557D01*
X73819Y195224D01*
X74758D01*
X75666Y195467D01*
X76480Y195937D01*
X77144Y196601D01*
X77614Y197415D01*
X77857Y198323D01*
Y199262D01*
X77614Y200170D01*
X77144Y200984D01*
X76480Y201648D01*
X75666Y202118D01*
X74758Y202361D01*
D02*
G37*
G36*
X292278Y216140D02*
X291339D01*
X290431Y215897D01*
X289617Y215427D01*
X288953Y214763D01*
X288483Y213949D01*
X288240Y213042D01*
Y212102D01*
X288310Y211841D01*
Y196571D01*
X288240Y196309D01*
Y195370D01*
X288483Y194462D01*
X288953Y193649D01*
X289617Y192984D01*
X290431Y192514D01*
X291339Y192271D01*
X292278D01*
X293186Y192514D01*
X294000Y192984D01*
X294664Y193649D01*
X295134Y194462D01*
X295377Y195370D01*
Y196309D01*
X295307Y196571D01*
Y211841D01*
X295377Y212102D01*
Y213042D01*
X295134Y213949D01*
X294664Y214763D01*
X294000Y215427D01*
X293186Y215897D01*
X292278Y216140D01*
D02*
G37*
G36*
X268656Y209743D02*
X267717D01*
X266809Y209500D01*
X265995Y209030D01*
X265331Y208365D01*
X264861Y207552D01*
X264618Y206644D01*
Y205704D01*
X264861Y204797D01*
X265331Y203983D01*
X265672Y203642D01*
Y192145D01*
X265172Y192079D01*
X265114Y192296D01*
X264644Y193110D01*
X263980Y193774D01*
X263166Y194244D01*
X262259Y194487D01*
X261319D01*
X260411Y194244D01*
X259598Y193774D01*
X258933Y193110D01*
X258654Y192626D01*
X258267Y192121D01*
X257917Y191278D01*
X257858Y190825D01*
X257798Y190372D01*
Y158677D01*
X257728Y158416D01*
Y157476D01*
X257971Y156569D01*
X258441Y155755D01*
X259105Y155090D01*
X259919Y154621D01*
X260827Y154377D01*
X261766D01*
X262674Y154621D01*
X263488Y155090D01*
X264152Y155755D01*
X264622Y156569D01*
X264865Y157476D01*
Y158416D01*
X264795Y158677D01*
Y188988D01*
X265114Y189541D01*
X265172Y189758D01*
X265672Y189692D01*
Y158677D01*
X265602Y158416D01*
Y157476D01*
X265845Y156569D01*
X266315Y155755D01*
X266980Y155090D01*
X267793Y154621D01*
X268701Y154377D01*
X269640D01*
X270548Y154621D01*
X271362Y155090D01*
X272026Y155755D01*
X272496Y156569D01*
X272739Y157476D01*
Y158416D01*
X272669Y158677D01*
Y205136D01*
X272609Y205589D01*
X272550Y206041D01*
X272200Y206885D01*
X271644Y207610D01*
X271251Y208003D01*
X271042Y208365D01*
X270377Y209030D01*
X269564Y209500D01*
X268656Y209743D01*
D02*
G37*
G36*
X367081Y240747D02*
X366142D01*
X365234Y240504D01*
X364420Y240034D01*
X363756Y239369D01*
X363286Y238556D01*
X363043Y237648D01*
Y236708D01*
X363286Y235801D01*
X363445Y235526D01*
Y188159D01*
X363048Y187854D01*
X362338Y188044D01*
X361042D01*
X359791Y187709D01*
X358669Y187061D01*
X357752Y186145D01*
X357104Y185023D01*
X356769Y183771D01*
Y182475D01*
X357104Y181224D01*
X357752Y180101D01*
X358669Y179185D01*
X359791Y178537D01*
X359698Y178044D01*
X356769D01*
Y168202D01*
X363445D01*
Y139646D01*
X361228Y137429D01*
X360672Y136704D01*
X360322Y135861D01*
X360203Y134955D01*
Y87853D01*
X360263Y87400D01*
X360322Y86948D01*
X360467Y86598D01*
X360672Y86104D01*
X361228Y85379D01*
X362985Y83622D01*
X363710Y83066D01*
X364553Y82716D01*
X365006Y82657D01*
X365459Y82597D01*
X365627D01*
Y81017D01*
X379407D01*
Y90859D01*
X376391D01*
X376291Y91359D01*
X376967Y91639D01*
X377995Y92428D01*
X378784Y93456D01*
X379280Y94653D01*
X379449Y95938D01*
X379280Y97223D01*
X378784Y98420D01*
X377995Y99448D01*
X376967Y100237D01*
X375894Y100681D01*
X375894Y100682D01*
Y101194D01*
X375894Y101195D01*
X376967Y101639D01*
X377995Y102428D01*
X378784Y103456D01*
X379280Y104653D01*
X379449Y105938D01*
X379280Y107223D01*
X378784Y108420D01*
X377995Y109448D01*
X376967Y110237D01*
X375770Y110733D01*
X374486Y110902D01*
X370549D01*
X369264Y110733D01*
X368067Y110237D01*
X367648Y109916D01*
X367200Y110137D01*
Y133506D01*
X369417Y135723D01*
X369973Y136447D01*
X370322Y137291D01*
X370442Y138197D01*
Y236847D01*
X370382Y237299D01*
X370322Y237752D01*
X369973Y238596D01*
X369734Y238908D01*
X369467Y239369D01*
X368803Y240034D01*
X367989Y240504D01*
X367081Y240747D01*
D02*
G37*
G36*
X205664Y223522D02*
X204724D01*
X203817Y223279D01*
X203003Y222809D01*
X202339Y222145D01*
X201869Y221331D01*
X201626Y220424D01*
Y219484D01*
X201696Y219222D01*
Y186236D01*
X201626Y185975D01*
Y185035D01*
X201869Y184128D01*
X202339Y183314D01*
X203003Y182650D01*
X203817Y182180D01*
X204724Y181937D01*
X205664D01*
X206572Y182180D01*
X207385Y182650D01*
X208050Y183314D01*
X208520Y184128D01*
X208763Y185035D01*
Y185975D01*
X208693Y186236D01*
Y219222D01*
X208763Y219484D01*
Y220424D01*
X208520Y221331D01*
X208050Y222145D01*
X207385Y222809D01*
X206572Y223279D01*
X205664Y223522D01*
D02*
G37*
G36*
X46745Y160635D02*
X41324D01*
Y156635D01*
X46745D01*
Y160635D01*
D02*
G37*
G36*
X40324D02*
X34903D01*
Y156635D01*
X40324D01*
Y160635D01*
D02*
G37*
G36*
X215999Y248621D02*
X215059D01*
X214152Y248378D01*
X213338Y247908D01*
X212673Y247243D01*
X212204Y246430D01*
X211960Y245522D01*
Y245252D01*
X211952Y245240D01*
X211652Y244518D01*
X211550Y243743D01*
X211550Y152515D01*
X211219Y151941D01*
X210976Y151034D01*
Y150094D01*
X211219Y149187D01*
X211689Y148373D01*
X212353Y147708D01*
X213167Y147239D01*
X214075Y146996D01*
X215014D01*
X215922Y147239D01*
X216736Y147708D01*
X217400Y148373D01*
X217870Y149187D01*
X218113Y150094D01*
Y151034D01*
X217870Y151941D01*
X217539Y152515D01*
X217539Y242092D01*
X217720Y242197D01*
X218384Y242861D01*
X218854Y243675D01*
X219097Y244583D01*
Y245522D01*
X218854Y246430D01*
X218384Y247243D01*
X217720Y247908D01*
X216906Y248378D01*
X215999Y248621D01*
D02*
G37*
G36*
X46745Y155635D02*
X34903D01*
Y152103D01*
X34903Y151635D01*
X34416Y151603D01*
X33934D01*
Y130666D01*
X47714D01*
Y151603D01*
X47232D01*
X46745Y151635D01*
X46745Y152103D01*
Y155635D01*
D02*
G37*
G36*
X178597Y259940D02*
X177657D01*
X176750Y259696D01*
X175936Y259227D01*
X175272Y258562D01*
X174802Y257749D01*
X174559Y256841D01*
Y255901D01*
X174629Y255640D01*
Y198354D01*
X127294D01*
X126388Y198235D01*
X125544Y197885D01*
X124820Y197329D01*
X124264Y196605D01*
X123914Y195761D01*
X123795Y194855D01*
X123815Y194705D01*
X123795Y194555D01*
Y25217D01*
X123870Y24649D01*
Y24602D01*
X123882Y24557D01*
X123914Y24311D01*
X124009Y24082D01*
X124113Y23695D01*
X124583Y22881D01*
X125247Y22216D01*
X126061Y21747D01*
X126969Y21503D01*
X127908D01*
X128816Y21747D01*
X129629Y22216D01*
X130294Y22881D01*
X130764Y23695D01*
X131007Y24602D01*
Y25542D01*
X130792Y26344D01*
Y122662D01*
X131292Y122824D01*
X132242Y121874D01*
X133546Y121121D01*
X135000Y120731D01*
X136506D01*
X137961Y121121D01*
X139265Y121874D01*
X140329Y122939D01*
X141082Y124243D01*
X141472Y125697D01*
Y127203D01*
X141082Y128657D01*
X140329Y129961D01*
X139265Y131026D01*
X137961Y131779D01*
X136506Y132168D01*
X135000D01*
X133546Y131779D01*
X132242Y131026D01*
X131292Y130076D01*
X130792Y130238D01*
Y191357D01*
X189429D01*
X189882Y191417D01*
X190334Y191476D01*
X191178Y191826D01*
X191683Y192213D01*
X192166Y192492D01*
X192831Y193156D01*
X193300Y193970D01*
X193544Y194878D01*
Y195817D01*
X193300Y196725D01*
X192831Y197539D01*
X192166Y198203D01*
X191352Y198673D01*
X190445Y198916D01*
X189505D01*
X188598Y198673D01*
X188045Y198354D01*
X181626D01*
Y255640D01*
X181696Y255901D01*
Y256841D01*
X181453Y257749D01*
X180983Y258562D01*
X180318Y259227D01*
X179505Y259696D01*
X178597Y259940D01*
D02*
G37*
G36*
X80506Y132168D02*
X79000D01*
X77546Y131779D01*
X76242Y131026D01*
X75177Y129961D01*
X74424Y128657D01*
X74035Y127203D01*
Y125697D01*
X74424Y124243D01*
X75177Y122939D01*
X76242Y121874D01*
X77546Y121121D01*
X79000Y120731D01*
X80506D01*
X81960Y121121D01*
X83264Y121874D01*
X84329Y122939D01*
X85082Y124243D01*
X85472Y125697D01*
Y127203D01*
X85082Y128657D01*
X84329Y129961D01*
X83264Y131026D01*
X81960Y131779D01*
X80506Y132168D01*
D02*
G37*
G36*
X332140Y234349D02*
X331201D01*
X330293Y234106D01*
X329480Y233636D01*
X328815Y232972D01*
X328345Y232158D01*
X328102Y231250D01*
Y230311D01*
X328345Y229403D01*
X328664Y228851D01*
Y194110D01*
X328594Y193849D01*
Y192909D01*
X328664Y192648D01*
Y185105D01*
X328724Y184652D01*
X328783Y184200D01*
X328928Y183850D01*
X329133Y183356D01*
X329689Y182631D01*
X331446Y180874D01*
X332171Y180318D01*
X333015Y179969D01*
X333467Y179909D01*
X333920Y179849D01*
X339491D01*
Y158824D01*
X338991Y158440D01*
X338538Y158562D01*
X337598D01*
X336691Y158318D01*
X336195Y158032D01*
X323598D01*
X323535Y158095D01*
X322915Y158570D01*
X322193Y158870D01*
X321418Y158972D01*
X311189D01*
X310414Y158870D01*
X309692Y158570D01*
X309071Y158095D01*
X307900Y156923D01*
X307424Y156303D01*
X307125Y155581D01*
X307023Y154806D01*
Y147594D01*
X306692Y147020D01*
X306449Y146113D01*
Y145173D01*
X306692Y144265D01*
X307161Y143452D01*
X307826Y142787D01*
X308640Y142317D01*
X309547Y142074D01*
X310487D01*
X311395Y142317D01*
X312208Y142787D01*
X312873Y143452D01*
X313342Y144265D01*
X313586Y145173D01*
Y146113D01*
X313342Y147020D01*
X313011Y147594D01*
Y152983D01*
X320178D01*
X320240Y152921D01*
X320860Y152445D01*
X321583Y152146D01*
X322357Y152044D01*
X336039D01*
X336691Y151668D01*
X337598Y151425D01*
X338538D01*
X338991Y151546D01*
X339491Y151162D01*
Y113708D01*
X336339D01*
X336077Y113778D01*
X335138D01*
X334263Y113544D01*
X334169Y113540D01*
X333763Y113814D01*
Y114124D01*
X333520Y115032D01*
X333050Y115846D01*
X332385Y116510D01*
X331572Y116980D01*
X330664Y117223D01*
X329724D01*
X328817Y116980D01*
X328003Y116510D01*
X327339Y115846D01*
X326869Y115032D01*
X326626Y114124D01*
Y113185D01*
X326869Y112277D01*
X327200Y111704D01*
Y88539D01*
X326869Y87965D01*
X326626Y87058D01*
Y86118D01*
X326869Y85210D01*
X327339Y84397D01*
X328003Y83732D01*
X328817Y83262D01*
X329724Y83019D01*
X330664D01*
X331572Y83262D01*
X332385Y83732D01*
X333050Y84397D01*
X333520Y85210D01*
X333763Y86118D01*
Y87058D01*
X333520Y87965D01*
X333188Y88539D01*
Y106909D01*
X333688Y107197D01*
X334230Y106884D01*
X335138Y106641D01*
X336077D01*
X336339Y106711D01*
X339491D01*
Y50410D01*
X339421Y50148D01*
Y49208D01*
X339664Y48301D01*
X340134Y47487D01*
X340798Y46823D01*
X341612Y46353D01*
X342520Y46110D01*
X343459D01*
X344367Y46353D01*
X345181Y46823D01*
X345845Y47487D01*
X346315Y48301D01*
X346558Y49208D01*
Y50148D01*
X346488Y50410D01*
Y162814D01*
X347180D01*
X347441Y162744D01*
X348361D01*
Y123480D01*
X348030Y122906D01*
X347787Y121998D01*
Y121059D01*
X348030Y120151D01*
X348500Y119337D01*
X349165Y118673D01*
X349978Y118203D01*
X350886Y117960D01*
X351825D01*
X352733Y118203D01*
X353547Y118673D01*
X354211Y119337D01*
X354681Y120151D01*
X354924Y121059D01*
Y121998D01*
X354681Y122906D01*
X354350Y123480D01*
Y195365D01*
X354681Y195939D01*
X354924Y196846D01*
Y197786D01*
X354681Y198693D01*
X354350Y199267D01*
Y202729D01*
X354248Y203504D01*
X353949Y204226D01*
X353473Y204847D01*
X352853Y205322D01*
X352131Y205622D01*
X351356Y205724D01*
X350581Y205622D01*
X349859Y205322D01*
X349238Y204847D01*
X348763Y204226D01*
X348464Y203504D01*
X348361Y202729D01*
Y199267D01*
X348030Y198693D01*
X347787Y197786D01*
Y196846D01*
X348030Y195939D01*
X348361Y195365D01*
Y169881D01*
X347441D01*
X347180Y169810D01*
X346488D01*
Y183348D01*
X346369Y184253D01*
X346019Y185097D01*
X345463Y185822D01*
X344739Y186378D01*
X343895Y186727D01*
X342989Y186846D01*
X335661D01*
Y192648D01*
X335731Y192909D01*
Y193849D01*
X335661Y194110D01*
Y230234D01*
X335542Y231140D01*
X335192Y231984D01*
X334805Y232488D01*
X334526Y232972D01*
X333862Y233636D01*
X333048Y234106D01*
X332140Y234349D01*
D02*
G37*
G36*
X288833Y127558D02*
X287894D01*
X286986Y127315D01*
X286172Y126845D01*
X285508Y126180D01*
X285038Y125367D01*
X284795Y124459D01*
Y123520D01*
X285038Y122612D01*
X285508Y121798D01*
X286172Y121134D01*
X286986Y120664D01*
X287894Y120421D01*
X288833D01*
X289741Y120664D01*
X290315Y120995D01*
X307515D01*
Y117574D01*
X307184Y117000D01*
X306941Y116093D01*
Y115153D01*
X307184Y114246D01*
X307654Y113432D01*
X308318Y112768D01*
X309132Y112298D01*
X310039Y112055D01*
X310979D01*
X311887Y112298D01*
X312700Y112768D01*
X313365Y113432D01*
X313835Y114246D01*
X314078Y115153D01*
Y116093D01*
X313835Y117000D01*
X313503Y117574D01*
Y122818D01*
X313401Y123593D01*
X313102Y124315D01*
X312626Y124935D01*
X311455Y126106D01*
X310835Y126582D01*
X310113Y126881D01*
X309338Y126983D01*
X290315D01*
X289741Y127315D01*
X288833Y127558D01*
D02*
G37*
G36*
X180073Y99507D02*
X179134D01*
X178226Y99263D01*
X177413Y98794D01*
X176748Y98129D01*
X176278Y97316D01*
X176035Y96408D01*
Y95468D01*
X176278Y94561D01*
X176610Y93987D01*
Y91204D01*
X176712Y90429D01*
X177011Y89707D01*
X177487Y89087D01*
X178658Y87915D01*
X179278Y87440D01*
X180000Y87141D01*
X180775Y87038D01*
X213086D01*
X213659Y86707D01*
X214567Y86464D01*
X215507D01*
X216414Y86707D01*
X217228Y87177D01*
X217892Y87841D01*
X218362Y88655D01*
X218605Y89563D01*
Y90502D01*
X218362Y91410D01*
X217892Y92224D01*
X217228Y92888D01*
X216414Y93358D01*
X215507Y93601D01*
X214567D01*
X213659Y93358D01*
X213086Y93027D01*
X182598D01*
Y93987D01*
X182929Y94561D01*
X183172Y95468D01*
Y96408D01*
X182929Y97316D01*
X182459Y98129D01*
X181795Y98794D01*
X180981Y99263D01*
X180073Y99507D01*
D02*
G37*
G36*
X285881Y104920D02*
X284941D01*
X284033Y104677D01*
X283220Y104207D01*
X282555Y103543D01*
X282085Y102729D01*
X281842Y101821D01*
Y100882D01*
X281912Y100620D01*
Y80682D01*
X281978Y80183D01*
X281842Y79676D01*
Y78736D01*
X282085Y77828D01*
X282555Y77015D01*
X283220Y76350D01*
X284033Y75880D01*
X284941Y75637D01*
X285880D01*
X286788Y75880D01*
X287602Y76350D01*
X288266Y77015D01*
X288736Y77828D01*
X288979Y78736D01*
Y79676D01*
X288843Y80183D01*
X288909Y80682D01*
Y100620D01*
X288979Y100882D01*
Y101821D01*
X288736Y102729D01*
X288266Y103543D01*
X287602Y104207D01*
X286788Y104677D01*
X285881Y104920D01*
D02*
G37*
G36*
X297252Y82190D02*
X296207D01*
X295198Y81920D01*
X294293Y81397D01*
X293554Y80658D01*
X293032Y79753D01*
X292761Y78744D01*
Y77699D01*
X293032Y76690D01*
X293554Y75785D01*
X294293Y75046D01*
X295198Y74524D01*
X296207Y74253D01*
X297252D01*
X298261Y74524D01*
X299166Y75046D01*
X299905Y75785D01*
X300428Y76690D01*
X300698Y77699D01*
Y78744D01*
X300428Y79753D01*
X299905Y80658D01*
X299166Y81397D01*
X298261Y81920D01*
X297252Y82190D01*
D02*
G37*
G36*
X162849Y168404D02*
X161909D01*
X161002Y168161D01*
X160188Y167691D01*
X159524Y167027D01*
X159054Y166213D01*
X158811Y165305D01*
Y164366D01*
X159054Y163458D01*
X159373Y162906D01*
Y72555D01*
X159303Y72294D01*
Y71354D01*
X159546Y70446D01*
X160016Y69633D01*
X160680Y68968D01*
X161494Y68499D01*
X162402Y68255D01*
X163341D01*
X164249Y68499D01*
X165062Y68968D01*
X165727Y69633D01*
X166197Y70446D01*
X166440Y71354D01*
Y72294D01*
X166370Y72555D01*
Y164289D01*
X166310Y164742D01*
X166251Y165195D01*
X165901Y166039D01*
X165514Y166543D01*
X165235Y167027D01*
X164570Y167691D01*
X163757Y168161D01*
X162849Y168404D01*
D02*
G37*
G36*
X47714Y92706D02*
X33934D01*
Y61769D01*
X47714D01*
Y92706D01*
D02*
G37*
G36*
X252908Y98148D02*
X251969D01*
X251061Y97905D01*
X250247Y97435D01*
X249583Y96771D01*
X249113Y95957D01*
X248870Y95050D01*
Y94110D01*
X249113Y93202D01*
X249444Y92629D01*
Y60488D01*
X249113Y59914D01*
X248870Y59006D01*
Y58067D01*
X249113Y57159D01*
X249583Y56345D01*
X250247Y55681D01*
X251061Y55211D01*
X251969Y54968D01*
X252908D01*
X253816Y55211D01*
X254629Y55681D01*
X255294Y56345D01*
X255764Y57159D01*
X256007Y58067D01*
Y59006D01*
X255764Y59914D01*
X255432Y60488D01*
Y92629D01*
X255764Y93202D01*
X256007Y94110D01*
Y95050D01*
X255764Y95957D01*
X255294Y96771D01*
X254629Y97435D01*
X253816Y97905D01*
X252908Y98148D01*
D02*
G37*
G36*
X214522Y83266D02*
X213583D01*
X212675Y83023D01*
X211861Y82553D01*
X211197Y81889D01*
X210727Y81075D01*
X210484Y80168D01*
Y79228D01*
X210592Y78824D01*
Y58918D01*
X210484Y58514D01*
Y57575D01*
X210727Y56667D01*
X211197Y55853D01*
X211861Y55189D01*
X212675Y54719D01*
X213583Y54476D01*
X214522D01*
X215430Y54719D01*
X216244Y55189D01*
X216908Y55853D01*
X217378Y56667D01*
X217621Y57575D01*
Y58514D01*
X217589Y58633D01*
Y79109D01*
X217621Y79228D01*
Y80168D01*
X217378Y81075D01*
X216908Y81889D01*
X216244Y82553D01*
X215430Y83023D01*
X214522Y83266D01*
D02*
G37*
G36*
X56058Y99999D02*
X55118D01*
X54211Y99756D01*
X53397Y99286D01*
X52732Y98621D01*
X52263Y97808D01*
X52019Y96900D01*
Y95960D01*
X52090Y95699D01*
Y58776D01*
X52019Y58514D01*
Y57575D01*
X52263Y56667D01*
X52732Y55853D01*
X53397Y55189D01*
X54211Y54719D01*
X55118Y54476D01*
X56058D01*
X56965Y54719D01*
X57779Y55189D01*
X58443Y55853D01*
X58913Y56667D01*
X59156Y57575D01*
Y58514D01*
X59086Y58776D01*
Y95699D01*
X59156Y95960D01*
Y96900D01*
X58913Y97808D01*
X58443Y98621D01*
X57779Y99286D01*
X56965Y99756D01*
X56058Y99999D01*
D02*
G37*
G36*
X307534Y109841D02*
X306594D01*
X305687Y109598D01*
X304873Y109128D01*
X304209Y108464D01*
X303739Y107650D01*
X303496Y106743D01*
Y105803D01*
X303739Y104895D01*
X304070Y104322D01*
Y81445D01*
X303979Y81326D01*
X303680Y80604D01*
X303578Y79829D01*
Y56058D01*
X303247Y55485D01*
X303004Y54577D01*
Y53638D01*
X303247Y52730D01*
X303717Y51916D01*
X304381Y51252D01*
X305195Y50782D01*
X306102Y50539D01*
X307042D01*
X307950Y50782D01*
X308763Y51252D01*
X309428Y51916D01*
X309897Y52730D01*
X310141Y53638D01*
Y54577D01*
X309897Y55485D01*
X309566Y56058D01*
Y78706D01*
X309657Y78824D01*
X309781Y79123D01*
X309956Y79546D01*
X310058Y80321D01*
Y104322D01*
X310390Y104895D01*
X310633Y105803D01*
Y106743D01*
X310390Y107650D01*
X309920Y108464D01*
X309255Y109128D01*
X308442Y109598D01*
X307534Y109841D01*
D02*
G37*
G36*
X277514Y68010D02*
X276575D01*
X275667Y67767D01*
X274853Y67298D01*
X274189Y66633D01*
X273719Y65819D01*
X273476Y64912D01*
Y63972D01*
X273546Y63711D01*
Y52870D01*
X273476Y52609D01*
Y51669D01*
X273719Y50761D01*
X274189Y49948D01*
X274853Y49283D01*
X275667Y48814D01*
X276575Y48570D01*
X277514D01*
X278422Y48814D01*
X279236Y49283D01*
X279900Y49948D01*
X280370Y50761D01*
X280613Y51669D01*
Y52609D01*
X280543Y52870D01*
Y63711D01*
X280613Y63972D01*
Y64912D01*
X280370Y65819D01*
X279900Y66633D01*
X279236Y67298D01*
X278422Y67767D01*
X277514Y68010D01*
D02*
G37*
G36*
X174848Y34914D02*
Y27540D01*
X181287D01*
Y28025D01*
X181153Y29378D01*
X180759Y30680D01*
X180117Y31880D01*
X179254Y32931D01*
X178203Y33794D01*
X177003Y34435D01*
X175701Y34830D01*
X174848Y34914D01*
D02*
G37*
G36*
X173848D02*
X172994Y34830D01*
X171692Y34435D01*
X170493Y33794D01*
X169441Y32931D01*
X168578Y31880D01*
X167937Y30680D01*
X167542Y29378D01*
X167409Y28025D01*
Y27540D01*
X173848D01*
Y34914D01*
D02*
G37*
G36*
X181287Y26540D02*
X174848D01*
Y19166D01*
X175701Y19251D01*
X177003Y19646D01*
X178203Y20287D01*
X179254Y21150D01*
X180117Y22201D01*
X180759Y23401D01*
X181153Y24702D01*
X181287Y26056D01*
Y26540D01*
D02*
G37*
G36*
X173848D02*
X167409D01*
Y26056D01*
X167542Y24702D01*
X167937Y23401D01*
X168578Y22201D01*
X169441Y21150D01*
X170493Y20287D01*
X171692Y19646D01*
X172994Y19251D01*
X173848Y19166D01*
Y26540D01*
D02*
G37*
G36*
X154348Y35937D02*
X152804Y35785D01*
X151320Y35335D01*
X149952Y34603D01*
X148753Y33619D01*
X147769Y32420D01*
X147038Y31053D01*
X146588Y29568D01*
X146436Y28025D01*
Y26056D01*
X146588Y24513D01*
X147038Y23028D01*
X147769Y21660D01*
X148753Y20461D01*
X149952Y19478D01*
X151320Y18746D01*
X152804Y18296D01*
X154348Y18144D01*
X155891Y18296D01*
X157376Y18746D01*
X158744Y19478D01*
X159942Y20461D01*
X160926Y21660D01*
X161658Y23028D01*
X162108Y24513D01*
X162260Y26056D01*
Y28025D01*
X162108Y29568D01*
X161658Y31053D01*
X160926Y32420D01*
X159942Y33619D01*
X158744Y34603D01*
X157376Y35335D01*
X155891Y35785D01*
X154348Y35937D01*
D02*
G37*
G36*
X377430Y27056D02*
X377077D01*
X375392Y26789D01*
X373768Y26262D01*
X372248Y25487D01*
X370867Y24484D01*
X369660Y23277D01*
X368657Y21896D01*
X367882Y20376D01*
X367355Y18753D01*
X367088Y17067D01*
Y16714D01*
X377430D01*
Y27056D01*
D02*
G37*
G36*
X31343D02*
X30990D01*
Y16714D01*
X41332D01*
Y17067D01*
X41065Y18753D01*
X40538Y20376D01*
X39763Y21896D01*
X38760Y23277D01*
X37553Y24484D01*
X36172Y25487D01*
X34652Y26262D01*
X33028Y26789D01*
X31343Y27056D01*
D02*
G37*
G36*
X377430Y15714D02*
X367088D01*
Y15360D01*
X367355Y13675D01*
X367882Y12052D01*
X368657Y10531D01*
X369660Y9150D01*
X370867Y7943D01*
X372248Y6940D01*
X373768Y6165D01*
X375392Y5638D01*
X377077Y5371D01*
X377430D01*
Y15714D01*
D02*
G37*
G36*
X41332D02*
X30990D01*
Y5371D01*
X31343D01*
X33028Y5638D01*
X34652Y6165D01*
X36172Y6940D01*
X37553Y7943D01*
X38760Y9150D01*
X39763Y10531D01*
X40538Y12052D01*
X41065Y13675D01*
X41332Y15360D01*
Y15714D01*
D02*
G37*
%LPD*%
G36*
X358427Y259773D02*
X359548Y259433D01*
X360582Y258880D01*
X361488Y258137D01*
X362231Y257231D01*
X362783Y256198D01*
X363123Y255077D01*
X363238Y253910D01*
X363123Y252744D01*
X362783Y251623D01*
X362231Y250590D01*
X361488Y249684D01*
X360582Y248941D01*
X359548Y248388D01*
X358427Y248048D01*
X357261Y247933D01*
X356095Y248048D01*
X354974Y248388D01*
X353940Y248941D01*
X353035Y249684D01*
X352291Y250590D01*
X351739Y251623D01*
X351399Y252744D01*
X351284Y253910D01*
X351399Y255077D01*
X351739Y256198D01*
X352291Y257231D01*
X353035Y258137D01*
X353940Y258880D01*
X354974Y259433D01*
X356095Y259773D01*
X357261Y259888D01*
X358427Y259773D01*
D02*
G37*
%LPC*%
G36*
X357784Y257879D02*
X356739D01*
X355729Y257609D01*
X354824Y257086D01*
X354086Y256347D01*
X353563Y255442D01*
X353293Y254433D01*
Y253388D01*
X353563Y252379D01*
X354086Y251474D01*
X354824Y250735D01*
X355729Y250213D01*
X356739Y249942D01*
X357784D01*
X358793Y250213D01*
X359698Y250735D01*
X360437Y251474D01*
X360959Y252379D01*
X361230Y253388D01*
Y254433D01*
X360959Y255442D01*
X360437Y256347D01*
X359698Y257086D01*
X358793Y257609D01*
X357784Y257879D01*
D02*
G37*
%LPD*%
D35*
X717497Y208635D02*
X717497Y208635D01*
Y236686D01*
X725864Y185105D02*
Y230234D01*
X736690Y183348D02*
X729308D01*
X727621D01*
X725864Y185105D01*
X736690Y166804D02*
Y183348D01*
X725371Y230727D02*
Y230781D01*
X725864Y230234D02*
X725371Y230727D01*
X593974Y275032D02*
Y279501D01*
X571828Y194855D02*
Y256317D01*
Y194855D02*
X520994D01*
X583130D02*
X571828D01*
X661887Y206120D02*
Y206174D01*
X662871Y157946D02*
Y205136D01*
X661887Y206120D01*
X685509Y195840D02*
Y212572D01*
X520994Y25217D02*
Y194555D01*
X583676Y195347D02*
X583622D01*
X583130Y194855D02*
X583622Y195347D01*
X521139Y25072D02*
X520994Y25217D01*
X710115Y253910D02*
X709623Y254403D01*
X595905Y273101D02*
X593974Y275032D01*
X595905Y242099D02*
Y273101D01*
X654997Y190372D02*
X655489Y190864D01*
X654997Y157946D02*
Y190372D01*
X655489Y190864D02*
Y190918D01*
X598895Y185505D02*
Y219954D01*
X670745Y52139D02*
Y64442D01*
X556572Y71878D02*
Y164289D01*
X556080Y164782D02*
Y164836D01*
X556572Y164289D02*
X556080Y164782D01*
X607792Y58083D02*
Y79660D01*
X607753Y58044D02*
X607792Y58083D01*
Y79660D02*
X607753Y79698D01*
X679111Y80682D02*
Y101351D01*
X679111Y101351D01*
X760644Y236847D02*
X760312Y237178D01*
X760644Y138197D02*
Y236847D01*
X757402Y134955D02*
X760644Y138197D01*
X757402Y87853D02*
Y134955D01*
X759160Y86096D02*
X757402Y87853D01*
X766552Y86096D02*
X759160D01*
X467989Y198792D02*
X436001D01*
X736690Y110210D02*
X729308D01*
X736690D02*
Y166804D01*
X741611Y166312D02*
X737182D01*
X736690Y166804D01*
Y49678D02*
Y110210D01*
X449289Y58044D02*
Y96430D01*
X323797Y208635D02*
X323797Y208635D01*
Y236686D01*
X332163Y185105D02*
Y230234D01*
X342989Y183348D02*
X335608D01*
X333920D01*
X332163Y185105D01*
X342989Y166804D02*
Y183348D01*
X331671Y230727D02*
Y230781D01*
X332163Y230234D02*
X331671Y230727D01*
X200273Y275032D02*
Y279501D01*
X178127Y194855D02*
Y256317D01*
Y194855D02*
X127294D01*
X189429D02*
X178127D01*
X268186Y206120D02*
Y206174D01*
X269171Y157946D02*
Y205136D01*
X268186Y206120D01*
X291808Y195840D02*
Y212572D01*
X127294Y25217D02*
Y194555D01*
X189975Y195347D02*
X189921D01*
X189429Y194855D02*
X189921Y195347D01*
X127438Y25072D02*
X127294Y25217D01*
X316415Y253910D02*
X315923Y254403D01*
X202204Y273101D02*
X200273Y275032D01*
X202204Y242099D02*
Y273101D01*
X261297Y190372D02*
X261789Y190864D01*
X261297Y157946D02*
Y190372D01*
X261789Y190864D02*
Y190918D01*
X205194Y185505D02*
Y219954D01*
X277045Y52139D02*
Y64442D01*
X162871Y71878D02*
Y164289D01*
X162379Y164782D02*
Y164836D01*
X162871Y164289D02*
X162379Y164782D01*
X214091Y58083D02*
Y79660D01*
X214053Y58044D02*
X214091Y58083D01*
Y79660D02*
X214053Y79698D01*
X285411Y80682D02*
Y101351D01*
X285411Y101351D01*
X366943Y236847D02*
X366612Y237178D01*
X366943Y138197D02*
Y236847D01*
X363702Y134955D02*
X366943Y138197D01*
X363702Y87853D02*
Y134955D01*
X365459Y86096D02*
X363702Y87853D01*
X372852Y86096D02*
X365459D01*
X74289Y198792D02*
X42301D01*
X342989Y110210D02*
X335608D01*
X342989D02*
Y166804D01*
X347911Y166312D02*
X343482D01*
X342989Y166804D01*
Y49678D02*
Y110210D01*
X55588Y58044D02*
Y96430D01*
D40*
X745056Y121529D02*
Y202729D01*
X608245Y243743D02*
X609230Y244727D01*
X608245Y150564D02*
X608245Y243743D01*
X609230Y244727D02*
Y245052D01*
X704210Y115623D02*
Y122818D01*
X573305Y91204D02*
Y95938D01*
X574476Y90033D02*
X573305Y91204D01*
X608738Y90033D02*
X574476D01*
X646139Y94580D02*
X646139Y94580D01*
X646139Y58536D02*
Y94580D01*
X700273Y54107D02*
Y79829D01*
X731769Y154993D02*
X731724Y155038D01*
X716058D01*
X703718Y154806D02*
X704889Y155977D01*
X715119D02*
X704889D01*
X716058Y155038D02*
X715119Y155977D01*
X703718Y145643D02*
Y154806D01*
X723895Y86588D02*
Y113655D01*
X700273Y79829D02*
X700765Y80321D01*
Y106273D01*
X703038Y123989D02*
X682064D01*
X704210Y122818D02*
X703038Y123989D01*
X351356Y121529D02*
Y202729D01*
X214545Y243743D02*
X215529Y244727D01*
X214545Y150564D02*
X214545Y243743D01*
X215529Y244727D02*
Y245052D01*
X310509Y115623D02*
Y122818D01*
X179604Y91204D02*
Y95938D01*
X180775Y90033D02*
X179604Y91204D01*
X215037Y90033D02*
X180775D01*
X252438Y94580D02*
X252438Y94580D01*
X252438Y58536D02*
Y94580D01*
X306572Y54107D02*
Y79829D01*
X338068Y154993D02*
X338023Y155038D01*
X322357D01*
X310017Y154806D02*
X311189Y155977D01*
X321418D02*
X311189D01*
X322357Y155038D02*
X321418Y155977D01*
X310017Y145643D02*
Y154806D01*
X330194Y86588D02*
Y113655D01*
X306572Y79829D02*
X307064Y80321D01*
Y106273D01*
X309338Y123989D02*
X288364D01*
X310509Y122818D02*
X309338Y123989D01*
D43*
X745835Y-14764D02*
D03*
X19685D02*
D03*
D44*
X529454Y126450D02*
D03*
X473454D02*
D03*
X530931Y306568D02*
D03*
X474930D02*
D03*
X135753Y126450D02*
D03*
X79753D02*
D03*
X137230Y306568D02*
D03*
X81230D02*
D03*
D45*
X771631Y352828D02*
D03*
X424190D02*
D03*
Y16214D02*
D03*
X771631D02*
D03*
X377930Y352828D02*
D03*
X30490D02*
D03*
Y16214D02*
D03*
X377930D02*
D03*
D46*
X709623Y254403D02*
D03*
Y309029D02*
D03*
X315923Y254403D02*
D03*
Y309029D02*
D03*
D47*
X709623Y280977D02*
D03*
X315923D02*
D03*
D48*
X690430Y78221D02*
D03*
X750962Y253910D02*
D03*
X296730Y78221D02*
D03*
X357261Y253910D02*
D03*
D49*
X556415Y360702D02*
D03*
X576415D02*
D03*
X568049Y27040D02*
D03*
X548049D02*
D03*
X162714Y360702D02*
D03*
X182714D02*
D03*
X174348Y27040D02*
D03*
X154348D02*
D03*
D50*
X766218Y85938D02*
D03*
X372517D02*
D03*
D51*
X766218Y105938D02*
D03*
Y95938D02*
D03*
X372517Y105938D02*
D03*
Y95938D02*
D03*
D52*
X755391Y183123D02*
D03*
X361690D02*
D03*
D53*
X755391Y173123D02*
D03*
X361690D02*
D03*
D54*
X434033Y247848D02*
D03*
Y257847D02*
D03*
Y267847D02*
D03*
X434525Y67237D02*
D03*
Y77237D02*
D03*
Y87237D02*
D03*
Y136135D02*
D03*
Y146135D02*
D03*
Y156135D02*
D03*
X40332Y247848D02*
D03*
Y257847D02*
D03*
Y267847D02*
D03*
X40824Y67237D02*
D03*
Y77237D02*
D03*
Y87237D02*
D03*
Y136135D02*
D03*
Y146135D02*
D03*
Y156135D02*
D03*
D55*
X681572Y302631D02*
D03*
X725864Y193379D02*
D03*
X717497Y208635D02*
D03*
X745056Y197316D02*
D03*
X613167Y350859D02*
D03*
X609230D02*
D03*
X601356Y279993D02*
D03*
X593974Y279501D02*
D03*
X508836Y230289D02*
D03*
Y237178D02*
D03*
X489643Y230781D02*
D03*
Y237670D02*
D03*
X555096Y210603D02*
D03*
X592005D02*
D03*
X661887Y206174D02*
D03*
X685509Y195840D02*
D03*
X571828Y256371D02*
D03*
X587576Y279501D02*
D03*
X577734Y279009D02*
D03*
X559525Y299186D02*
D03*
X583676Y195347D02*
D03*
X577734Y225367D02*
D03*
X587576Y249481D02*
D03*
X685509Y212572D02*
D03*
X700694Y221851D02*
D03*
X717497Y236686D02*
D03*
X673698Y215353D02*
D03*
X595905Y242099D02*
D03*
X609230Y245052D02*
D03*
X655489Y190918D02*
D03*
X598895Y185505D02*
D03*
X662871Y157946D02*
D03*
X608245Y150564D02*
D03*
X624978Y149580D02*
D03*
X634820D02*
D03*
X644663D02*
D03*
X679111Y79206D02*
D03*
X670745Y64442D02*
D03*
X654997Y157946D02*
D03*
X613614Y217985D02*
D03*
X704210Y115623D02*
D03*
X552635Y123497D02*
D03*
X573305Y95938D02*
D03*
X608738Y90033D02*
D03*
X582163Y101844D02*
D03*
X556080Y164836D02*
D03*
X556572Y71824D02*
D03*
X563462Y98399D02*
D03*
X607753Y58044D02*
D03*
Y79698D02*
D03*
X670745Y52139D02*
D03*
X646139Y58536D02*
D03*
X700273Y54107D02*
D03*
X521139Y25072D02*
D03*
X760312Y237178D02*
D03*
X473403Y15229D02*
D03*
X455194Y37375D02*
D03*
X465037D02*
D03*
X731769Y245052D02*
D03*
X725371Y230781D02*
D03*
X436001Y198792D02*
D03*
X467989D02*
D03*
X598895Y219954D02*
D03*
X615627Y148596D02*
D03*
X731769Y154993D02*
D03*
X703718Y145643D02*
D03*
X724879Y158438D02*
D03*
X717005Y146135D02*
D03*
X745056Y121529D02*
D03*
X729308Y110210D02*
D03*
X723895Y86588D02*
D03*
X705686Y100859D02*
D03*
X715037D02*
D03*
X723895Y113655D02*
D03*
X699781Y115623D02*
D03*
X700765Y106273D02*
D03*
X679111Y101351D02*
D03*
X647123Y99383D02*
D03*
X638757Y22611D02*
D03*
X663856Y22119D02*
D03*
X682064Y123989D02*
D03*
X646139Y94580D02*
D03*
X763757Y126450D02*
D03*
X741611Y166312D02*
D03*
X612138Y99383D02*
D03*
X736690Y49678D02*
D03*
X621041Y38359D02*
D03*
Y41804D02*
D03*
X461592Y330682D02*
D03*
Y334619D02*
D03*
X748501Y70347D02*
D03*
X717989Y62966D02*
D03*
X736690Y23596D02*
D03*
X726848D02*
D03*
X717005D02*
D03*
X707163Y22611D02*
D03*
X697320Y22119D02*
D03*
X449289Y96430D02*
D03*
Y58044D02*
D03*
X287871Y302631D02*
D03*
X332163Y193379D02*
D03*
X323797Y208635D02*
D03*
X351356Y197316D02*
D03*
X219466Y350859D02*
D03*
X215529D02*
D03*
X207655Y279993D02*
D03*
X200273Y279501D02*
D03*
X115135Y230289D02*
D03*
Y237178D02*
D03*
X95942Y230781D02*
D03*
Y237670D02*
D03*
X161395Y210603D02*
D03*
X198304D02*
D03*
X268186Y206174D02*
D03*
X291808Y195840D02*
D03*
X178127Y256371D02*
D03*
X193875Y279501D02*
D03*
X184033Y279009D02*
D03*
X165824Y299186D02*
D03*
X189975Y195347D02*
D03*
X184033Y225367D02*
D03*
X193875Y249481D02*
D03*
X291808Y212572D02*
D03*
X306993Y221851D02*
D03*
X323797Y236686D02*
D03*
X279997Y215353D02*
D03*
X202204Y242099D02*
D03*
X215529Y245052D02*
D03*
X261789Y190918D02*
D03*
X205194Y185505D02*
D03*
X269171Y157946D02*
D03*
X214545Y150564D02*
D03*
X231277Y149580D02*
D03*
X241119D02*
D03*
X250962D02*
D03*
X285411Y79206D02*
D03*
X277045Y64442D02*
D03*
X261297Y157946D02*
D03*
X219913Y217985D02*
D03*
X310509Y115623D02*
D03*
X158934Y123497D02*
D03*
X179604Y95938D02*
D03*
X215037Y90033D02*
D03*
X188462Y101844D02*
D03*
X162379Y164836D02*
D03*
X162871Y71824D02*
D03*
X169761Y98399D02*
D03*
X214053Y58044D02*
D03*
Y79698D02*
D03*
X277045Y52139D02*
D03*
X252438Y58536D02*
D03*
X306572Y54107D02*
D03*
X127438Y25072D02*
D03*
X366612Y237178D02*
D03*
X79702Y15229D02*
D03*
X61493Y37375D02*
D03*
X71336D02*
D03*
X338068Y245052D02*
D03*
X331671Y230781D02*
D03*
X42301Y198792D02*
D03*
X74289D02*
D03*
X205194Y219954D02*
D03*
X221926Y148596D02*
D03*
X338068Y154993D02*
D03*
X310017Y145643D02*
D03*
X331178Y158438D02*
D03*
X323305Y146135D02*
D03*
X351356Y121529D02*
D03*
X335608Y110210D02*
D03*
X330194Y86588D02*
D03*
X311986Y100859D02*
D03*
X321336D02*
D03*
X330194Y113655D02*
D03*
X306080Y115623D02*
D03*
X307064Y106273D02*
D03*
X285411Y101351D02*
D03*
X253423Y99383D02*
D03*
X245056Y22611D02*
D03*
X270155Y22119D02*
D03*
X288364Y123989D02*
D03*
X252438Y94580D02*
D03*
X370056Y126450D02*
D03*
X347911Y166312D02*
D03*
X218437Y99383D02*
D03*
X342989Y49678D02*
D03*
X227340Y38359D02*
D03*
Y41804D02*
D03*
X67891Y330682D02*
D03*
Y334619D02*
D03*
X354801Y70347D02*
D03*
X324289Y62966D02*
D03*
X342989Y23596D02*
D03*
X333147D02*
D03*
X323305D02*
D03*
X313462Y22611D02*
D03*
X303619Y22119D02*
D03*
X55588Y96430D02*
D03*
Y58044D02*
D03*
D56*
X732167Y359127D02*
X742006D01*
X743974Y357159D01*
Y353223D01*
X742006Y351256D01*
X732167D01*
Y347320D02*
Y339448D01*
Y343384D01*
X743974D01*
Y335513D02*
X732167D01*
X743974Y327641D01*
X732167D01*
X743974Y323706D02*
X742006D01*
Y321738D01*
X743974D01*
Y323706D01*
X732167Y305995D02*
Y313866D01*
X738070D01*
Y309930D01*
Y313866D01*
X743974D01*
Y302059D02*
X732167D01*
Y296155D01*
X734134Y294187D01*
X738070D01*
X740038Y296155D01*
Y302059D01*
Y298123D02*
X743974Y294187D01*
X732167Y290252D02*
X743974D01*
Y284348D01*
X742006Y282380D01*
X740038D01*
X738070Y284348D01*
Y290252D01*
Y284348D01*
X736102Y282380D01*
X734134D01*
X732167Y284348D01*
Y290252D01*
X743974Y278445D02*
X736102D01*
X732167Y274509D01*
X736102Y270573D01*
X743974D01*
X738070D01*
Y278445D01*
X338466Y359127D02*
X348305D01*
X350273Y357159D01*
Y353223D01*
X348305Y351256D01*
X338466D01*
Y347320D02*
Y339448D01*
Y343384D01*
X350273D01*
Y335513D02*
X338466D01*
X350273Y327641D01*
X338466D01*
X350273Y323706D02*
X348305D01*
Y321738D01*
X350273D01*
Y323706D01*
X338466Y305995D02*
Y313866D01*
X344369D01*
Y309930D01*
Y313866D01*
X350273D01*
Y302059D02*
X338466D01*
Y296155D01*
X340434Y294187D01*
X344369D01*
X346337Y296155D01*
Y302059D01*
Y298123D02*
X350273Y294187D01*
X338466Y290252D02*
X350273D01*
Y284348D01*
X348305Y282380D01*
X346337D01*
X344369Y284348D01*
Y290252D01*
Y284348D01*
X342402Y282380D01*
X340434D01*
X338466Y284348D01*
Y290252D01*
X350273Y278445D02*
X342402D01*
X338466Y274509D01*
X342402Y270573D01*
X350273D01*
X344369D01*
Y278445D01*
M02*
