G04*
G04 #@! TF.GenerationSoftware,Altium Limited,Altium Designer,23.3.1 (30)*
G04*
G04 Layer_Color=8388736*
%FSLAX25Y25*%
%MOIN*%
G70*
G04*
G04 #@! TF.SameCoordinates,731DBA42-33AF-4731-BD85-8EC7A1DC1BC3*
G04*
G04*
G04 #@! TF.FilePolarity,Negative*
G04*
G01*
G75*
%ADD25R,0.05984X0.05906*%
%ADD26R,0.08661X0.12205*%
%ADD48C,0.04000*%
%ADD64R,0.13400X0.03300*%
%ADD65R,0.10052X0.17335*%
%ADD66R,0.17335X0.10052*%
%ADD67R,0.20091X0.10052*%
%ADD68R,0.06400X0.06800*%
%ADD69R,0.22060X0.12217*%
%ADD70R,0.07099X0.11036*%
%ADD71R,0.05524X0.04343*%
%ADD72R,0.04737X0.03950*%
%ADD73R,0.01902X0.07296*%
%ADD74R,0.02375X0.07296*%
%ADD75R,0.07296X0.02375*%
%ADD76R,0.07296X0.01902*%
%ADD77R,0.03162X0.09265*%
%ADD78R,0.09265X0.03162*%
%ADD79R,0.10249X0.13792*%
%ADD80R,0.10249X0.04737*%
%ADD81R,0.08280X0.05131*%
%ADD82R,0.07690X0.03162*%
%ADD83R,0.04343X0.07887*%
%ADD84R,0.07887X0.09068*%
%ADD85R,0.02572X0.04540*%
%ADD86R,0.03162X0.04540*%
%ADD87C,0.08300*%
%ADD88R,0.09855X0.09855*%
%ADD89R,0.09855X0.09855*%
%ADD90C,0.12000*%
%ADD91O,0.12611X0.14580*%
%ADD92R,0.10642X0.06706*%
%ADD93O,0.10642X0.06706*%
%ADD94C,0.06706*%
%ADD95R,0.06706X0.06706*%
%ADD96C,0.15000*%
%ADD97R,0.10642X0.07800*%
D25*
X554111Y280032D02*
D03*
X160411D02*
D03*
D26*
X554111Y267355D02*
D03*
X160411D02*
D03*
D48*
X681572Y302631D02*
D03*
X725864Y193379D02*
D03*
X717497Y208635D02*
D03*
X745056Y197316D02*
D03*
X613167Y350859D02*
D03*
X609230D02*
D03*
X601356Y279993D02*
D03*
X593974Y279501D02*
D03*
X508836Y230289D02*
D03*
Y237178D02*
D03*
X489643Y230781D02*
D03*
Y237670D02*
D03*
X555096Y210603D02*
D03*
X592005D02*
D03*
X661887Y206174D02*
D03*
X685509Y195840D02*
D03*
X571828Y256371D02*
D03*
X587576Y279501D02*
D03*
X577734Y279009D02*
D03*
X559525Y299186D02*
D03*
X583676Y195347D02*
D03*
X577734Y225367D02*
D03*
X587576Y249481D02*
D03*
X685509Y212572D02*
D03*
X700694Y221851D02*
D03*
X717497Y236686D02*
D03*
X673698Y215353D02*
D03*
X595905Y242099D02*
D03*
X609230Y245052D02*
D03*
X655489Y190918D02*
D03*
X598895Y185505D02*
D03*
X662871Y157946D02*
D03*
X608245Y150564D02*
D03*
X624978Y149580D02*
D03*
X634820D02*
D03*
X644663D02*
D03*
X679111Y79206D02*
D03*
X670745Y64442D02*
D03*
X654997Y157946D02*
D03*
X613614Y217985D02*
D03*
X704210Y115623D02*
D03*
X552635Y123497D02*
D03*
X573305Y95938D02*
D03*
X608738Y90033D02*
D03*
X582163Y101844D02*
D03*
X556080Y164836D02*
D03*
X556572Y71824D02*
D03*
X563462Y98399D02*
D03*
X607753Y58044D02*
D03*
Y79698D02*
D03*
X670745Y52139D02*
D03*
X646139Y58536D02*
D03*
X700273Y54107D02*
D03*
X521139Y25072D02*
D03*
X760312Y237178D02*
D03*
X473403Y15229D02*
D03*
X455194Y37375D02*
D03*
X465037D02*
D03*
X731769Y245052D02*
D03*
X725371Y230781D02*
D03*
X436001Y198792D02*
D03*
X467989D02*
D03*
X598895Y219954D02*
D03*
X615627Y148596D02*
D03*
X731769Y154993D02*
D03*
X703718Y145643D02*
D03*
X724879Y158438D02*
D03*
X717005Y146135D02*
D03*
X745056Y121529D02*
D03*
X729308Y110210D02*
D03*
X723895Y86588D02*
D03*
X705686Y100859D02*
D03*
X715037D02*
D03*
X723895Y113655D02*
D03*
X699781Y115623D02*
D03*
X700765Y106273D02*
D03*
X679111Y101351D02*
D03*
X647123Y99383D02*
D03*
X638757Y22611D02*
D03*
X663856Y22119D02*
D03*
X682064Y123989D02*
D03*
X646139Y94580D02*
D03*
X763757Y126450D02*
D03*
X741611Y166312D02*
D03*
X612138Y99383D02*
D03*
X736690Y49678D02*
D03*
X621041Y38359D02*
D03*
Y41804D02*
D03*
X461592Y330682D02*
D03*
Y334619D02*
D03*
X748501Y70347D02*
D03*
X717989Y62966D02*
D03*
X736690Y23596D02*
D03*
X726848D02*
D03*
X717005D02*
D03*
X707163Y22611D02*
D03*
X697320Y22119D02*
D03*
X449289Y96430D02*
D03*
Y58044D02*
D03*
X287871Y302631D02*
D03*
X332163Y193379D02*
D03*
X323797Y208635D02*
D03*
X351356Y197316D02*
D03*
X219466Y350859D02*
D03*
X215529D02*
D03*
X207655Y279993D02*
D03*
X200273Y279501D02*
D03*
X115135Y230289D02*
D03*
Y237178D02*
D03*
X95942Y230781D02*
D03*
Y237670D02*
D03*
X161395Y210603D02*
D03*
X198304D02*
D03*
X268186Y206174D02*
D03*
X291808Y195840D02*
D03*
X178127Y256371D02*
D03*
X193875Y279501D02*
D03*
X184033Y279009D02*
D03*
X165824Y299186D02*
D03*
X189975Y195347D02*
D03*
X184033Y225367D02*
D03*
X193875Y249481D02*
D03*
X291808Y212572D02*
D03*
X306993Y221851D02*
D03*
X323797Y236686D02*
D03*
X279997Y215353D02*
D03*
X202204Y242099D02*
D03*
X215529Y245052D02*
D03*
X261789Y190918D02*
D03*
X205194Y185505D02*
D03*
X269171Y157946D02*
D03*
X214545Y150564D02*
D03*
X231277Y149580D02*
D03*
X241119D02*
D03*
X250962D02*
D03*
X285411Y79206D02*
D03*
X277045Y64442D02*
D03*
X261297Y157946D02*
D03*
X219913Y217985D02*
D03*
X310509Y115623D02*
D03*
X158934Y123497D02*
D03*
X179604Y95938D02*
D03*
X215037Y90033D02*
D03*
X188462Y101844D02*
D03*
X162379Y164836D02*
D03*
X162871Y71824D02*
D03*
X169761Y98399D02*
D03*
X214053Y58044D02*
D03*
Y79698D02*
D03*
X277045Y52139D02*
D03*
X252438Y58536D02*
D03*
X306572Y54107D02*
D03*
X127438Y25072D02*
D03*
X366612Y237178D02*
D03*
X79702Y15229D02*
D03*
X61493Y37375D02*
D03*
X71336D02*
D03*
X338068Y245052D02*
D03*
X331671Y230781D02*
D03*
X42301Y198792D02*
D03*
X74289D02*
D03*
X205194Y219954D02*
D03*
X221926Y148596D02*
D03*
X338068Y154993D02*
D03*
X310017Y145643D02*
D03*
X331178Y158438D02*
D03*
X323305Y146135D02*
D03*
X351356Y121529D02*
D03*
X335608Y110210D02*
D03*
X330194Y86588D02*
D03*
X311986Y100859D02*
D03*
X321336D02*
D03*
X330194Y113655D02*
D03*
X306080Y115623D02*
D03*
X307064Y106273D02*
D03*
X285411Y101351D02*
D03*
X253423Y99383D02*
D03*
X245056Y22611D02*
D03*
X270155Y22119D02*
D03*
X288364Y123989D02*
D03*
X252438Y94580D02*
D03*
X370056Y126450D02*
D03*
X347911Y166312D02*
D03*
X218437Y99383D02*
D03*
X342989Y49678D02*
D03*
X227340Y38359D02*
D03*
Y41804D02*
D03*
X67891Y330682D02*
D03*
Y334619D02*
D03*
X354801Y70347D02*
D03*
X324289Y62966D02*
D03*
X342989Y23596D02*
D03*
X333147D02*
D03*
X323305D02*
D03*
X313462Y22611D02*
D03*
X303619Y22119D02*
D03*
X55588Y96430D02*
D03*
Y58044D02*
D03*
D64*
X749836Y155643D02*
D03*
X767836D02*
D03*
X749836Y150643D02*
D03*
X767836D02*
D03*
X749836Y145643D02*
D03*
X767836D02*
D03*
X749836Y140643D02*
D03*
X767836D02*
D03*
X749836Y135643D02*
D03*
X767836D02*
D03*
X356135Y155643D02*
D03*
X374135D02*
D03*
X356135Y150643D02*
D03*
X374135D02*
D03*
X356135Y145643D02*
D03*
X374135D02*
D03*
X356135Y140643D02*
D03*
X374135D02*
D03*
X356135Y135643D02*
D03*
X374135D02*
D03*
D65*
X634328Y324285D02*
D03*
Y350859D02*
D03*
Y245052D02*
D03*
Y218477D02*
D03*
X240627Y324285D02*
D03*
Y350859D02*
D03*
Y245052D02*
D03*
Y218477D02*
D03*
D66*
X508836Y215525D02*
D03*
X535411D02*
D03*
X594466Y30977D02*
D03*
X621041D02*
D03*
X115135Y215525D02*
D03*
X141710D02*
D03*
X200765Y30977D02*
D03*
X227340D02*
D03*
D67*
X489446Y215525D02*
D03*
X456375D02*
D03*
X95745D02*
D03*
X62674D02*
D03*
D68*
X601356Y296304D02*
D03*
Y287304D02*
D03*
X587576Y286812D02*
D03*
Y295812D02*
D03*
X693383Y280907D02*
D03*
Y289907D02*
D03*
Y221851D02*
D03*
Y230852D02*
D03*
X752438Y237249D02*
D03*
Y228249D02*
D03*
X734722Y205119D02*
D03*
Y214119D02*
D03*
X670253Y70277D02*
D03*
Y79277D02*
D03*
X670745Y131792D02*
D03*
Y140792D02*
D03*
X615135Y159351D02*
D03*
Y168351D02*
D03*
X644663Y168351D02*
D03*
Y159352D02*
D03*
X624978Y168351D02*
D03*
Y159351D02*
D03*
X566415Y290257D02*
D03*
Y299257D02*
D03*
X580194Y175100D02*
D03*
Y184099D02*
D03*
X455194Y27603D02*
D03*
Y18603D02*
D03*
X465037Y27603D02*
D03*
Y18603D02*
D03*
X587576Y257777D02*
D03*
Y266777D02*
D03*
X587576Y233170D02*
D03*
Y242170D02*
D03*
X670745Y116186D02*
D03*
Y107186D02*
D03*
X659426Y343056D02*
D03*
Y334056D02*
D03*
X638757Y29922D02*
D03*
Y38922D02*
D03*
X658934Y29922D02*
D03*
Y38922D02*
D03*
X649092D02*
D03*
Y29922D02*
D03*
X563462Y107186D02*
D03*
Y116186D02*
D03*
X573305Y107186D02*
D03*
Y116186D02*
D03*
X682064Y132284D02*
D03*
Y141285D02*
D03*
X717497Y70277D02*
D03*
Y79277D02*
D03*
X705194Y175241D02*
D03*
Y166241D02*
D03*
X695352D02*
D03*
Y175241D02*
D03*
X715037Y166241D02*
D03*
Y175241D02*
D03*
X724879D02*
D03*
Y166241D02*
D03*
X542793Y107186D02*
D03*
Y116186D02*
D03*
X736690Y30907D02*
D03*
Y39907D02*
D03*
X742104Y79277D02*
D03*
Y70277D02*
D03*
X734722Y175241D02*
D03*
Y166241D02*
D03*
X697320Y30907D02*
D03*
Y39907D02*
D03*
X717005Y30907D02*
D03*
Y39907D02*
D03*
X707163Y30907D02*
D03*
Y39907D02*
D03*
X726848D02*
D03*
Y30907D02*
D03*
X654997Y141285D02*
D03*
Y132284D02*
D03*
X615627D02*
D03*
Y141285D02*
D03*
X644663D02*
D03*
Y132284D02*
D03*
X624978Y141285D02*
D03*
Y132284D02*
D03*
X634820D02*
D03*
Y141285D02*
D03*
X687970Y39907D02*
D03*
Y30907D02*
D03*
X435509Y210533D02*
D03*
Y219533D02*
D03*
X579702Y146556D02*
D03*
Y155556D02*
D03*
X567399D02*
D03*
Y146556D02*
D03*
X552635Y116186D02*
D03*
Y107186D02*
D03*
X555096Y146556D02*
D03*
Y155556D02*
D03*
X572320Y71895D02*
D03*
Y62895D02*
D03*
X562478Y71895D02*
D03*
Y62895D02*
D03*
X545253Y155556D02*
D03*
Y146556D02*
D03*
X207655Y296304D02*
D03*
Y287304D02*
D03*
X193875Y286812D02*
D03*
Y295812D02*
D03*
X299682Y280907D02*
D03*
Y289907D02*
D03*
Y221851D02*
D03*
Y230852D02*
D03*
X358737Y237249D02*
D03*
Y228249D02*
D03*
X341021Y205119D02*
D03*
Y214119D02*
D03*
X276553Y70277D02*
D03*
Y79277D02*
D03*
X277045Y131792D02*
D03*
Y140792D02*
D03*
X221434Y159351D02*
D03*
Y168351D02*
D03*
X250962Y168351D02*
D03*
Y159352D02*
D03*
X231277Y168351D02*
D03*
Y159351D02*
D03*
X172714Y290257D02*
D03*
Y299257D02*
D03*
X186493Y175100D02*
D03*
Y184099D02*
D03*
X61493Y27603D02*
D03*
Y18603D02*
D03*
X71336Y27603D02*
D03*
Y18603D02*
D03*
X193875Y257777D02*
D03*
Y266777D02*
D03*
X193875Y233170D02*
D03*
Y242170D02*
D03*
X277045Y116186D02*
D03*
Y107186D02*
D03*
X265726Y343056D02*
D03*
Y334056D02*
D03*
X245056Y29922D02*
D03*
Y38922D02*
D03*
X265234Y29922D02*
D03*
Y38922D02*
D03*
X255391D02*
D03*
Y29922D02*
D03*
X169761Y107186D02*
D03*
Y116186D02*
D03*
X179604Y107186D02*
D03*
Y116186D02*
D03*
X288364Y132284D02*
D03*
Y141285D02*
D03*
X323797Y70277D02*
D03*
Y79277D02*
D03*
X311493Y175241D02*
D03*
Y166241D02*
D03*
X301651D02*
D03*
Y175241D02*
D03*
X321336Y166241D02*
D03*
Y175241D02*
D03*
X331178D02*
D03*
Y166241D02*
D03*
X149092Y107186D02*
D03*
Y116186D02*
D03*
X342989Y30907D02*
D03*
Y39907D02*
D03*
X348403Y79277D02*
D03*
Y70277D02*
D03*
X341021Y175241D02*
D03*
Y166241D02*
D03*
X303619Y30907D02*
D03*
Y39907D02*
D03*
X323304Y30907D02*
D03*
Y39907D02*
D03*
X313462Y30907D02*
D03*
Y39907D02*
D03*
X333147D02*
D03*
Y30907D02*
D03*
X261297Y141285D02*
D03*
Y132284D02*
D03*
X221926D02*
D03*
Y141285D02*
D03*
X250962D02*
D03*
Y132284D02*
D03*
X231277Y141285D02*
D03*
Y132284D02*
D03*
X241119D02*
D03*
Y141285D02*
D03*
X294269Y39907D02*
D03*
Y30907D02*
D03*
X41808Y210533D02*
D03*
Y219533D02*
D03*
X186001Y146556D02*
D03*
Y155556D02*
D03*
X173698D02*
D03*
Y146556D02*
D03*
X158934Y116186D02*
D03*
Y107186D02*
D03*
X161395Y146556D02*
D03*
Y155556D02*
D03*
X178619Y71895D02*
D03*
Y62895D02*
D03*
X168777Y71895D02*
D03*
Y62895D02*
D03*
X151552Y155556D02*
D03*
Y146556D02*
D03*
D69*
X632852Y260997D02*
D03*
Y299974D02*
D03*
X239151Y260997D02*
D03*
Y299974D02*
D03*
D70*
X673698Y277926D02*
D03*
Y292887D02*
D03*
Y233832D02*
D03*
Y218871D02*
D03*
X279997Y277926D02*
D03*
Y292887D02*
D03*
Y233832D02*
D03*
Y218871D02*
D03*
D71*
X634820Y157159D02*
D03*
Y170544D02*
D03*
X577734Y284619D02*
D03*
Y298005D02*
D03*
X668777Y27729D02*
D03*
Y41115D02*
D03*
X241119Y157159D02*
D03*
Y170544D02*
D03*
X184033Y284619D02*
D03*
Y298005D02*
D03*
X275076Y27729D02*
D03*
Y41115D02*
D03*
D72*
X558738Y187966D02*
D03*
X568186Y191706D02*
D03*
Y184225D02*
D03*
X568679Y206863D02*
D03*
Y214344D02*
D03*
X559230Y210603D02*
D03*
X575962Y206666D02*
D03*
X585411Y210407D02*
D03*
Y202926D02*
D03*
X165037Y187966D02*
D03*
X174486Y191706D02*
D03*
Y184225D02*
D03*
X174978Y206863D02*
D03*
Y214344D02*
D03*
X165529Y210603D02*
D03*
X182261Y206666D02*
D03*
X191710Y210407D02*
D03*
Y202926D02*
D03*
D73*
X711100Y139540D02*
D03*
X707163D02*
D03*
X701257D02*
D03*
X703226D02*
D03*
X705194D02*
D03*
X709131D02*
D03*
X713068D02*
D03*
X715037D02*
D03*
X717005D02*
D03*
X718974D02*
D03*
X720942D02*
D03*
X722911D02*
D03*
X724879D02*
D03*
X726848D02*
D03*
Y93674D02*
D03*
X724879D02*
D03*
X722911D02*
D03*
X720942D02*
D03*
X718974D02*
D03*
X717005D02*
D03*
X715037D02*
D03*
X713068D02*
D03*
X711100D02*
D03*
X709131D02*
D03*
X707163D02*
D03*
X705194D02*
D03*
X703226D02*
D03*
X701257D02*
D03*
X317399Y139540D02*
D03*
X313462D02*
D03*
X307556D02*
D03*
X309525D02*
D03*
X311493D02*
D03*
X315430D02*
D03*
X319368D02*
D03*
X321336D02*
D03*
X323305D02*
D03*
X325273D02*
D03*
X327241D02*
D03*
X329210D02*
D03*
X331178D02*
D03*
X333147D02*
D03*
Y93674D02*
D03*
X331178D02*
D03*
X329210D02*
D03*
X327241D02*
D03*
X325273D02*
D03*
X323305D02*
D03*
X321336D02*
D03*
X319368D02*
D03*
X317399D02*
D03*
X315430D02*
D03*
X313462D02*
D03*
X311493D02*
D03*
X309525D02*
D03*
X307556D02*
D03*
D74*
X699052Y139540D02*
D03*
X729052D02*
D03*
Y93674D02*
D03*
X699052D02*
D03*
X305352Y139540D02*
D03*
X335352D02*
D03*
Y93674D02*
D03*
X305352D02*
D03*
D75*
X736986Y131607D02*
D03*
Y101607D02*
D03*
X691119D02*
D03*
Y131607D02*
D03*
X343285D02*
D03*
Y101607D02*
D03*
X297419D02*
D03*
Y131607D02*
D03*
D76*
X736986Y129403D02*
D03*
Y127434D02*
D03*
Y125466D02*
D03*
Y123497D02*
D03*
Y121529D02*
D03*
Y119560D02*
D03*
Y117592D02*
D03*
Y115623D02*
D03*
Y113655D02*
D03*
Y111686D02*
D03*
Y109718D02*
D03*
Y107749D02*
D03*
Y105781D02*
D03*
Y103812D02*
D03*
X691119D02*
D03*
Y105781D02*
D03*
Y107749D02*
D03*
Y109718D02*
D03*
Y111686D02*
D03*
Y113655D02*
D03*
Y115623D02*
D03*
Y117592D02*
D03*
Y119560D02*
D03*
Y121529D02*
D03*
Y123497D02*
D03*
Y125466D02*
D03*
Y127434D02*
D03*
Y129403D02*
D03*
X343285D02*
D03*
Y127434D02*
D03*
Y125466D02*
D03*
Y123497D02*
D03*
Y121529D02*
D03*
Y119560D02*
D03*
Y117592D02*
D03*
Y115623D02*
D03*
Y113655D02*
D03*
Y111686D02*
D03*
Y109718D02*
D03*
Y107749D02*
D03*
Y105781D02*
D03*
Y103812D02*
D03*
X297419D02*
D03*
Y105781D02*
D03*
Y107749D02*
D03*
Y109718D02*
D03*
Y111686D02*
D03*
Y113655D02*
D03*
Y115623D02*
D03*
Y117592D02*
D03*
Y119560D02*
D03*
Y121529D02*
D03*
Y123497D02*
D03*
Y125466D02*
D03*
Y127434D02*
D03*
Y129403D02*
D03*
D77*
X493206Y14540D02*
D03*
Y33635D02*
D03*
X488206D02*
D03*
X483206D02*
D03*
X478206D02*
D03*
X488206Y14540D02*
D03*
X483206D02*
D03*
X478206D02*
D03*
X99505D02*
D03*
Y33635D02*
D03*
X94505D02*
D03*
X89505D02*
D03*
X84505D02*
D03*
X94505Y14540D02*
D03*
X89505D02*
D03*
X84505D02*
D03*
D78*
X551454Y244678D02*
D03*
Y239678D02*
D03*
Y234678D02*
D03*
Y229678D02*
D03*
X570549Y244678D02*
D03*
Y239678D02*
D03*
Y234678D02*
D03*
Y229678D02*
D03*
X157753Y244678D02*
D03*
Y239678D02*
D03*
Y234678D02*
D03*
Y229678D02*
D03*
X176848Y244678D02*
D03*
Y239678D02*
D03*
Y234678D02*
D03*
Y229678D02*
D03*
D79*
X663757Y255879D02*
D03*
X270056D02*
D03*
D80*
X686592Y264934D02*
D03*
Y255879D02*
D03*
Y246824D02*
D03*
X292891Y264934D02*
D03*
Y255879D02*
D03*
Y246824D02*
D03*
D81*
X729308Y69855D02*
D03*
Y79304D02*
D03*
X335608Y69855D02*
D03*
Y79304D02*
D03*
D82*
X618186Y104580D02*
D03*
Y99580D02*
D03*
Y94580D02*
D03*
Y89580D02*
D03*
Y84580D02*
D03*
Y79580D02*
D03*
Y74580D02*
D03*
Y69580D02*
D03*
X656375Y104580D02*
D03*
Y99580D02*
D03*
Y94580D02*
D03*
Y89580D02*
D03*
Y84580D02*
D03*
Y79580D02*
D03*
Y74580D02*
D03*
Y69580D02*
D03*
X224486Y104580D02*
D03*
Y99580D02*
D03*
Y94580D02*
D03*
Y89580D02*
D03*
Y84580D02*
D03*
Y79580D02*
D03*
Y74580D02*
D03*
Y69580D02*
D03*
X262674Y104580D02*
D03*
Y99580D02*
D03*
Y94580D02*
D03*
Y89580D02*
D03*
Y84580D02*
D03*
Y79580D02*
D03*
Y74580D02*
D03*
Y69580D02*
D03*
D83*
X713560Y200761D02*
D03*
X707655D02*
D03*
X713560Y188950D02*
D03*
X707655D02*
D03*
X319860Y200761D02*
D03*
X313954D02*
D03*
X319860Y188950D02*
D03*
X313954D02*
D03*
D84*
X602340Y104501D02*
D03*
Y121824D02*
D03*
X461592Y323103D02*
D03*
Y305781D02*
D03*
X208639Y104501D02*
D03*
Y121824D02*
D03*
X67891Y323103D02*
D03*
Y305781D02*
D03*
D85*
X582163Y107355D02*
D03*
Y116017D02*
D03*
X584623Y63064D02*
D03*
Y71725D02*
D03*
X188462Y107355D02*
D03*
Y116017D02*
D03*
X190923Y63064D02*
D03*
Y71725D02*
D03*
D86*
X739446Y237375D02*
D03*
X731966D02*
D03*
X735706Y227336D02*
D03*
X345745Y237375D02*
D03*
X338265D02*
D03*
X342005Y227336D02*
D03*
D87*
X529454Y126450D02*
D03*
X473454D02*
D03*
X530931Y306568D02*
D03*
X474930D02*
D03*
X135753Y126450D02*
D03*
X79753D02*
D03*
X137230Y306568D02*
D03*
X81230D02*
D03*
D88*
X709623Y254403D02*
D03*
Y309029D02*
D03*
X315923Y254403D02*
D03*
Y309029D02*
D03*
D89*
X709623Y280977D02*
D03*
X315923D02*
D03*
D90*
X690430Y78221D02*
D03*
X296730D02*
D03*
D91*
X556415Y360702D02*
D03*
X576415D02*
D03*
X568049Y27040D02*
D03*
X548049D02*
D03*
X162714Y360702D02*
D03*
X182714D02*
D03*
X174348Y27040D02*
D03*
X154348D02*
D03*
D92*
X766218Y85938D02*
D03*
X372517D02*
D03*
D93*
X766218Y105938D02*
D03*
Y95938D02*
D03*
X372517Y105938D02*
D03*
Y95938D02*
D03*
D94*
X755391Y183123D02*
D03*
X361690D02*
D03*
D95*
X755391Y173123D02*
D03*
X361690D02*
D03*
D96*
X750962Y253910D02*
D03*
X357261D02*
D03*
D97*
X434033Y247848D02*
D03*
Y257847D02*
D03*
Y267847D02*
D03*
X434525Y67237D02*
D03*
Y77237D02*
D03*
Y87237D02*
D03*
Y136135D02*
D03*
Y146135D02*
D03*
Y156135D02*
D03*
X40332Y247848D02*
D03*
Y257847D02*
D03*
Y267847D02*
D03*
X40824Y67237D02*
D03*
Y77237D02*
D03*
Y87237D02*
D03*
Y136135D02*
D03*
Y146135D02*
D03*
Y156135D02*
D03*
M02*
