M48
;Layer_Color=9474304
;FILE_FORMAT=2:5
INCH,LZ
;TYPE=PLATED
T1F00S00C0.01600
T2F00S00C0.03000
T3F00S00C0.04000
T4F00S00C0.05000
T5F00S00C0.05906
T6F00S00C0.12992
T7F00S00C0.15748
%
T01
X0748501Y0070347
X0745056Y0121529
X0763757Y012645
X0729308Y011021
X0723895Y0113655
X070421Y0115623
X0699781
X0700765Y0106273
X0705686Y0100859
X0715037
X0723895Y0086588
X0717989Y0062966
X0700273Y0054107
X0670745Y0052139
Y0064442
X0679111Y0079206
X0679111Y0101351
X0682064Y0123989
X0647123Y0099383
X0646139Y009458
X0646139Y0058536
X0607753Y0058044
Y0079698
X0608738Y0090033
X0612138Y0099383
X0621041Y0041804
Y0038359
X0638757Y0022611
X0663856Y0022119
X069732
X0707163Y0022611
X0717005Y0023596
X0726848
X073669
X073669Y0049678
X0556572Y0071824
X0563462Y0098399
X0573305Y0095938
X0582163Y0101844
X0552635Y0123497
X0521139Y0025072
X0473403Y0015229
X0465037Y0037375
X0455194
X0449289Y0058044
Y009643
X0370056Y012645
X0351356Y0121529
X0335608Y011021
X0330194Y0113655
X0310509Y0115623
X030608
X0307064Y0106273
X0311986Y0100859
X0321336
X0330194Y0086588
X0324289Y0062966
X0306572Y0054107
X0277045Y0052139
Y0064442
X0285411Y0079206
X0285411Y0101351
X0288364Y0123989
X0303619Y0022119
X0313462Y0022611
X0323305Y0023596
X0333147
X0342989
X0342989Y0049678
X0354801Y0070347
X0252438Y0058536
X0252438Y009458
X0253423Y0099383
X0218437
X0215037Y0090033
X0214053Y0079698
Y0058044
X022734Y0041804
Y0038359
X0245056Y0022611
X0270155Y0022119
X0127438Y0025072
X0162871Y0071824
X0169761Y0098399
X0179604Y0095938
X0188462Y0101844
X0158934Y0123497
X0055588Y009643
Y0058044
X0061493Y0037375
X0071336
X0079702Y0015229
X0074289Y0198792
X0042301
X0095942Y0230781
Y023767
X0115135Y0237178
Y0230289
X0161395Y0210603
X0198304
X0205194Y0219954
X0219913Y0217985
X0215529Y0245052
X0202204Y0242099
X0193875Y0249481
X0178127Y0256371
X0184033Y0279009
X0193875Y0279501
X0200273
X0207655Y0279993
X0184033Y0225367
X0189975Y0195347
X0205194Y0185505
X0214545Y0150564
X0221926Y0148596
X0231277Y014958
X0241119
X0250962
X0261297Y0157946
X0269171
X0261789Y0190918
X0268186Y0206174
X0162379Y0164836
X0291808Y019584
Y0212572
X0279997Y0215353
X0306993Y0221851
X0323797Y0208635
X0332163Y0193379
X0351356Y0197316
X0347911Y0166312
X0338068Y0154993
X0331178Y0158438
X0323305Y0146135
X0310017Y0145643
X0323797Y0236686
X0331671Y0230781
X0338068Y0245052
X0366612Y0237178
X0436001Y0198792
X0467989
X0489643Y0230781
Y023767
X0508836Y0237178
Y0230289
X0555096Y0210603
X0577734Y0225367
X0571828Y0256371
X0577734Y0279009
X055608Y0164836
X0583676Y0195347
X0592005Y0210603
X0598895Y0219954
X0613614Y0217985
X060923Y0245052
X0595905Y0242099
X0587576Y0249481
X0587576Y0279501
X0593974
X0601356Y0279993
X0598895Y0185505
X0608245Y0150564
X0615627Y0148596
X0624978Y014958
X063482
X0644663
X0654997Y0157946
X0662871
X0655489Y0190918
X0661887Y0206174
X0673698Y0215353
X0685509Y0212572
Y019584
X0700694Y0221851
X0717497Y0208635
X0725864Y0193379
X0724879Y0158438
X0731769Y0154993
X0717005Y0146135
X0703718Y0145643
X0717497Y0236686
X0725371Y0230781
X0731769Y0245052
X0760312Y0237178
X0745056Y0197316
X0741611Y0166312
X0681572Y0302631
X0613167Y0350859
X060923
X0559525Y0299186
X0461592Y0330682
Y0334619
X0287871Y0302631
X0219466Y0350859
X0215529
X0165824Y0299186
X0067891Y0330682
Y0334619
T02
X0357261Y025391
X0750962
T03
X0766218Y0085938
Y0095938
Y0105938
X0434525Y0087237
Y0077237
Y0067237
X0372517Y0085938
Y0095938
Y0105938
X0040824Y0087237
Y0077237
Y0067237
Y0136135
Y0146135
Y0156135
X0040332Y0247848
Y0257847
Y0267847
X0315923Y0280977
Y0254403
X036169Y0183123
Y0173123
X0434525Y0156135
Y0146135
Y0136135
X0434033Y0247848
Y0257847
Y0267847
X0709623Y0280977
Y0254403
X0755391Y0183123
Y0173123
X0709623Y0309029
X0315923
T04
X0473454Y012645
X0529454
X0135753
X0079753
X047493Y0306568
X0530931
X013723
X008123
T05
X0548049Y002704
X0568049
X0174348
X0154348
X0556415Y0360702
X0576415
X0182714
X0162714
T06
X0771631Y0016214
X042419
X037793
X003049
X0771631Y0352828
X042419
X037793
X003049
T07
X0745835Y-0014764
X0019685
M30
