G04*
G04 #@! TF.GenerationSoftware,Altium Limited,Altium Designer,23.3.1 (30)*
G04*
G04 Layer_Color=8421504*
%FSLAX25Y25*%
%MOIN*%
G70*
G04*
G04 #@! TF.SameCoordinates,731DBA42-33AF-4731-BD85-8EC7A1DC1BC3*
G04*
G04*
G04 #@! TF.FilePolarity,Positive*
G04*
G01*
G75*
%ADD10R,0.13000X0.02900*%
%ADD11R,0.09252X0.16535*%
%ADD12R,0.16535X0.09252*%
%ADD13R,0.19291X0.09252*%
%ADD14R,0.05600X0.06000*%
%ADD15R,0.21260X0.11417*%
%ADD16R,0.06299X0.10236*%
%ADD17R,0.04724X0.03543*%
%ADD18R,0.03937X0.03150*%
%ADD19R,0.01102X0.06496*%
%ADD20R,0.01575X0.06496*%
%ADD21R,0.06496X0.01575*%
%ADD22R,0.06496X0.01102*%
%ADD23R,0.02362X0.08465*%
%ADD24R,0.08465X0.02362*%
%ADD25R,0.05984X0.05906*%
%ADD26R,0.08661X0.12205*%
%ADD27R,0.09449X0.12992*%
%ADD28R,0.09449X0.03937*%
%ADD29R,0.07480X0.04331*%
%ADD30R,0.06890X0.02362*%
%ADD31R,0.03543X0.07087*%
%ADD32R,0.07087X0.08268*%
%ADD33R,0.01772X0.03740*%
%ADD34R,0.02362X0.03740*%
D10*
X749836Y155643D02*
D03*
X767836D02*
D03*
X749836Y150643D02*
D03*
X767836D02*
D03*
X749836Y145643D02*
D03*
X767836D02*
D03*
X749836Y140643D02*
D03*
X767836D02*
D03*
X749836Y135643D02*
D03*
X767836D02*
D03*
X356135Y155643D02*
D03*
X374135D02*
D03*
X356135Y150643D02*
D03*
X374135D02*
D03*
X356135Y145643D02*
D03*
X374135D02*
D03*
X356135Y140643D02*
D03*
X374135D02*
D03*
X356135Y135643D02*
D03*
X374135D02*
D03*
D11*
X634328Y324285D02*
D03*
Y350859D02*
D03*
Y245052D02*
D03*
Y218477D02*
D03*
X240627Y324285D02*
D03*
Y350859D02*
D03*
Y245052D02*
D03*
Y218477D02*
D03*
D12*
X508836Y215525D02*
D03*
X535411D02*
D03*
X594466Y30977D02*
D03*
X621041D02*
D03*
X115135Y215525D02*
D03*
X141710D02*
D03*
X200765Y30977D02*
D03*
X227340D02*
D03*
D13*
X489446Y215525D02*
D03*
X456375D02*
D03*
X95745D02*
D03*
X62674D02*
D03*
D14*
X601356Y296304D02*
D03*
Y287304D02*
D03*
X587576Y286812D02*
D03*
Y295812D02*
D03*
X693383Y280907D02*
D03*
Y289907D02*
D03*
Y221851D02*
D03*
Y230852D02*
D03*
X752438Y237249D02*
D03*
Y228249D02*
D03*
X734722Y205119D02*
D03*
Y214119D02*
D03*
X670253Y70277D02*
D03*
Y79277D02*
D03*
X670745Y131792D02*
D03*
Y140792D02*
D03*
X615135Y159351D02*
D03*
Y168351D02*
D03*
X644663Y168351D02*
D03*
Y159352D02*
D03*
X624978Y168351D02*
D03*
Y159351D02*
D03*
X566415Y290257D02*
D03*
Y299257D02*
D03*
X580194Y175100D02*
D03*
Y184099D02*
D03*
X455194Y27603D02*
D03*
Y18603D02*
D03*
X465037Y27603D02*
D03*
Y18603D02*
D03*
X587576Y257777D02*
D03*
Y266777D02*
D03*
X587576Y233170D02*
D03*
Y242170D02*
D03*
X670745Y116186D02*
D03*
Y107186D02*
D03*
X659426Y343056D02*
D03*
Y334056D02*
D03*
X638757Y29922D02*
D03*
Y38922D02*
D03*
X658934Y29922D02*
D03*
Y38922D02*
D03*
X649092D02*
D03*
Y29922D02*
D03*
X563462Y107186D02*
D03*
Y116186D02*
D03*
X573305Y107186D02*
D03*
Y116186D02*
D03*
X682064Y132284D02*
D03*
Y141285D02*
D03*
X717497Y70277D02*
D03*
Y79277D02*
D03*
X705194Y175241D02*
D03*
Y166241D02*
D03*
X695352D02*
D03*
Y175241D02*
D03*
X715037Y166241D02*
D03*
Y175241D02*
D03*
X724879D02*
D03*
Y166241D02*
D03*
X542793Y107186D02*
D03*
Y116186D02*
D03*
X736690Y30907D02*
D03*
Y39907D02*
D03*
X742104Y79277D02*
D03*
Y70277D02*
D03*
X734722Y175241D02*
D03*
Y166241D02*
D03*
X697320Y30907D02*
D03*
Y39907D02*
D03*
X717005Y30907D02*
D03*
Y39907D02*
D03*
X707163Y30907D02*
D03*
Y39907D02*
D03*
X726848D02*
D03*
Y30907D02*
D03*
X654997Y141285D02*
D03*
Y132284D02*
D03*
X615627D02*
D03*
Y141285D02*
D03*
X644663D02*
D03*
Y132284D02*
D03*
X624978Y141285D02*
D03*
Y132284D02*
D03*
X634820D02*
D03*
Y141285D02*
D03*
X687970Y39907D02*
D03*
Y30907D02*
D03*
X435509Y210533D02*
D03*
Y219533D02*
D03*
X579702Y146556D02*
D03*
Y155556D02*
D03*
X567399D02*
D03*
Y146556D02*
D03*
X552635Y116186D02*
D03*
Y107186D02*
D03*
X555096Y146556D02*
D03*
Y155556D02*
D03*
X572320Y71895D02*
D03*
Y62895D02*
D03*
X562478Y71895D02*
D03*
Y62895D02*
D03*
X545253Y155556D02*
D03*
Y146556D02*
D03*
X207655Y296304D02*
D03*
Y287304D02*
D03*
X193875Y286812D02*
D03*
Y295812D02*
D03*
X299682Y280907D02*
D03*
Y289907D02*
D03*
Y221851D02*
D03*
Y230852D02*
D03*
X358737Y237249D02*
D03*
Y228249D02*
D03*
X341021Y205119D02*
D03*
Y214119D02*
D03*
X276553Y70277D02*
D03*
Y79277D02*
D03*
X277045Y131792D02*
D03*
Y140792D02*
D03*
X221434Y159351D02*
D03*
Y168351D02*
D03*
X250962Y168351D02*
D03*
Y159352D02*
D03*
X231277Y168351D02*
D03*
Y159351D02*
D03*
X172714Y290257D02*
D03*
Y299257D02*
D03*
X186493Y175100D02*
D03*
Y184099D02*
D03*
X61493Y27603D02*
D03*
Y18603D02*
D03*
X71336Y27603D02*
D03*
Y18603D02*
D03*
X193875Y257777D02*
D03*
Y266777D02*
D03*
X193875Y233170D02*
D03*
Y242170D02*
D03*
X277045Y116186D02*
D03*
Y107186D02*
D03*
X265726Y343056D02*
D03*
Y334056D02*
D03*
X245056Y29922D02*
D03*
Y38922D02*
D03*
X265234Y29922D02*
D03*
Y38922D02*
D03*
X255391D02*
D03*
Y29922D02*
D03*
X169761Y107186D02*
D03*
Y116186D02*
D03*
X179604Y107186D02*
D03*
Y116186D02*
D03*
X288364Y132284D02*
D03*
Y141285D02*
D03*
X323797Y70277D02*
D03*
Y79277D02*
D03*
X311493Y175241D02*
D03*
Y166241D02*
D03*
X301651D02*
D03*
Y175241D02*
D03*
X321336Y166241D02*
D03*
Y175241D02*
D03*
X331178D02*
D03*
Y166241D02*
D03*
X149092Y107186D02*
D03*
Y116186D02*
D03*
X342989Y30907D02*
D03*
Y39907D02*
D03*
X348403Y79277D02*
D03*
Y70277D02*
D03*
X341021Y175241D02*
D03*
Y166241D02*
D03*
X303619Y30907D02*
D03*
Y39907D02*
D03*
X323304Y30907D02*
D03*
Y39907D02*
D03*
X313462Y30907D02*
D03*
Y39907D02*
D03*
X333147D02*
D03*
Y30907D02*
D03*
X261297Y141285D02*
D03*
Y132284D02*
D03*
X221926D02*
D03*
Y141285D02*
D03*
X250962D02*
D03*
Y132284D02*
D03*
X231277Y141285D02*
D03*
Y132284D02*
D03*
X241119D02*
D03*
Y141285D02*
D03*
X294269Y39907D02*
D03*
Y30907D02*
D03*
X41808Y210533D02*
D03*
Y219533D02*
D03*
X186001Y146556D02*
D03*
Y155556D02*
D03*
X173698D02*
D03*
Y146556D02*
D03*
X158934Y116186D02*
D03*
Y107186D02*
D03*
X161395Y146556D02*
D03*
Y155556D02*
D03*
X178619Y71895D02*
D03*
Y62895D02*
D03*
X168777Y71895D02*
D03*
Y62895D02*
D03*
X151552Y155556D02*
D03*
Y146556D02*
D03*
D15*
X632852Y260997D02*
D03*
Y299974D02*
D03*
X239151Y260997D02*
D03*
Y299974D02*
D03*
D16*
X673698Y277926D02*
D03*
Y292887D02*
D03*
Y233832D02*
D03*
Y218871D02*
D03*
X279997Y277926D02*
D03*
Y292887D02*
D03*
Y233832D02*
D03*
Y218871D02*
D03*
D17*
X634820Y157159D02*
D03*
Y170544D02*
D03*
X577734Y284619D02*
D03*
Y298005D02*
D03*
X668777Y27729D02*
D03*
Y41115D02*
D03*
X241119Y157159D02*
D03*
Y170544D02*
D03*
X184033Y284619D02*
D03*
Y298005D02*
D03*
X275076Y27729D02*
D03*
Y41115D02*
D03*
D18*
X558738Y187966D02*
D03*
X568186Y191706D02*
D03*
Y184225D02*
D03*
X568679Y206863D02*
D03*
Y214344D02*
D03*
X559230Y210603D02*
D03*
X575962Y206666D02*
D03*
X585411Y210407D02*
D03*
Y202926D02*
D03*
X165037Y187966D02*
D03*
X174486Y191706D02*
D03*
Y184225D02*
D03*
X174978Y206863D02*
D03*
Y214344D02*
D03*
X165529Y210603D02*
D03*
X182261Y206666D02*
D03*
X191710Y210407D02*
D03*
Y202926D02*
D03*
D19*
X711100Y139540D02*
D03*
X707163D02*
D03*
X701257D02*
D03*
X703226D02*
D03*
X705194D02*
D03*
X709131D02*
D03*
X713068D02*
D03*
X715037D02*
D03*
X717005D02*
D03*
X718974D02*
D03*
X720942D02*
D03*
X722911D02*
D03*
X724879D02*
D03*
X726848D02*
D03*
Y93674D02*
D03*
X724879D02*
D03*
X722911D02*
D03*
X720942D02*
D03*
X718974D02*
D03*
X717005D02*
D03*
X715037D02*
D03*
X713068D02*
D03*
X711100D02*
D03*
X709131D02*
D03*
X707163D02*
D03*
X705194D02*
D03*
X703226D02*
D03*
X701257D02*
D03*
X317399Y139540D02*
D03*
X313462D02*
D03*
X307556D02*
D03*
X309525D02*
D03*
X311493D02*
D03*
X315430D02*
D03*
X319368D02*
D03*
X321336D02*
D03*
X323305D02*
D03*
X325273D02*
D03*
X327241D02*
D03*
X329210D02*
D03*
X331178D02*
D03*
X333147D02*
D03*
Y93674D02*
D03*
X331178D02*
D03*
X329210D02*
D03*
X327241D02*
D03*
X325273D02*
D03*
X323305D02*
D03*
X321336D02*
D03*
X319368D02*
D03*
X317399D02*
D03*
X315430D02*
D03*
X313462D02*
D03*
X311493D02*
D03*
X309525D02*
D03*
X307556D02*
D03*
D20*
X699052Y139540D02*
D03*
X729052D02*
D03*
Y93674D02*
D03*
X699052D02*
D03*
X305352Y139540D02*
D03*
X335352D02*
D03*
Y93674D02*
D03*
X305352D02*
D03*
D21*
X736986Y131607D02*
D03*
Y101607D02*
D03*
X691119D02*
D03*
Y131607D02*
D03*
X343285D02*
D03*
Y101607D02*
D03*
X297419D02*
D03*
Y131607D02*
D03*
D22*
X736986Y129403D02*
D03*
Y127434D02*
D03*
Y125466D02*
D03*
Y123497D02*
D03*
Y121529D02*
D03*
Y119560D02*
D03*
Y117592D02*
D03*
Y115623D02*
D03*
Y113655D02*
D03*
Y111686D02*
D03*
Y109718D02*
D03*
Y107749D02*
D03*
Y105781D02*
D03*
Y103812D02*
D03*
X691119D02*
D03*
Y105781D02*
D03*
Y107749D02*
D03*
Y109718D02*
D03*
Y111686D02*
D03*
Y113655D02*
D03*
Y115623D02*
D03*
Y117592D02*
D03*
Y119560D02*
D03*
Y121529D02*
D03*
Y123497D02*
D03*
Y125466D02*
D03*
Y127434D02*
D03*
Y129403D02*
D03*
X343285D02*
D03*
Y127434D02*
D03*
Y125466D02*
D03*
Y123497D02*
D03*
Y121529D02*
D03*
Y119560D02*
D03*
Y117592D02*
D03*
Y115623D02*
D03*
Y113655D02*
D03*
Y111686D02*
D03*
Y109718D02*
D03*
Y107749D02*
D03*
Y105781D02*
D03*
Y103812D02*
D03*
X297419D02*
D03*
Y105781D02*
D03*
Y107749D02*
D03*
Y109718D02*
D03*
Y111686D02*
D03*
Y113655D02*
D03*
Y115623D02*
D03*
Y117592D02*
D03*
Y119560D02*
D03*
Y121529D02*
D03*
Y123497D02*
D03*
Y125466D02*
D03*
Y127434D02*
D03*
Y129403D02*
D03*
D23*
X493206Y14540D02*
D03*
Y33635D02*
D03*
X488206D02*
D03*
X483206D02*
D03*
X478206D02*
D03*
X488206Y14540D02*
D03*
X483206D02*
D03*
X478206D02*
D03*
X99505D02*
D03*
Y33635D02*
D03*
X94505D02*
D03*
X89505D02*
D03*
X84505D02*
D03*
X94505Y14540D02*
D03*
X89505D02*
D03*
X84505D02*
D03*
D24*
X551454Y244678D02*
D03*
Y239678D02*
D03*
Y234678D02*
D03*
Y229678D02*
D03*
X570549Y244678D02*
D03*
Y239678D02*
D03*
Y234678D02*
D03*
Y229678D02*
D03*
X157753Y244678D02*
D03*
Y239678D02*
D03*
Y234678D02*
D03*
Y229678D02*
D03*
X176848Y244678D02*
D03*
Y239678D02*
D03*
Y234678D02*
D03*
Y229678D02*
D03*
D25*
X554111Y280032D02*
D03*
X160411D02*
D03*
D26*
X554111Y267355D02*
D03*
X160411D02*
D03*
D27*
X663757Y255879D02*
D03*
X270056D02*
D03*
D28*
X686592Y264934D02*
D03*
Y255879D02*
D03*
Y246824D02*
D03*
X292891Y264934D02*
D03*
Y255879D02*
D03*
Y246824D02*
D03*
D29*
X729308Y69855D02*
D03*
Y79304D02*
D03*
X335608Y69855D02*
D03*
Y79304D02*
D03*
D30*
X618186Y104580D02*
D03*
Y99580D02*
D03*
Y94580D02*
D03*
Y89580D02*
D03*
Y84580D02*
D03*
Y79580D02*
D03*
Y74580D02*
D03*
Y69580D02*
D03*
X656375Y104580D02*
D03*
Y99580D02*
D03*
Y94580D02*
D03*
Y89580D02*
D03*
Y84580D02*
D03*
Y79580D02*
D03*
Y74580D02*
D03*
Y69580D02*
D03*
X224486Y104580D02*
D03*
Y99580D02*
D03*
Y94580D02*
D03*
Y89580D02*
D03*
Y84580D02*
D03*
Y79580D02*
D03*
Y74580D02*
D03*
Y69580D02*
D03*
X262674Y104580D02*
D03*
Y99580D02*
D03*
Y94580D02*
D03*
Y89580D02*
D03*
Y84580D02*
D03*
Y79580D02*
D03*
Y74580D02*
D03*
Y69580D02*
D03*
D31*
X713560Y200761D02*
D03*
X707655D02*
D03*
X713560Y188950D02*
D03*
X707655D02*
D03*
X319860Y200761D02*
D03*
X313954D02*
D03*
X319860Y188950D02*
D03*
X313954D02*
D03*
D32*
X602340Y104501D02*
D03*
Y121824D02*
D03*
X461592Y323103D02*
D03*
Y305781D02*
D03*
X208639Y104501D02*
D03*
Y121824D02*
D03*
X67891Y323103D02*
D03*
Y305781D02*
D03*
D33*
X582163Y107355D02*
D03*
Y116017D02*
D03*
X584623Y63064D02*
D03*
Y71725D02*
D03*
X188462Y107355D02*
D03*
Y116017D02*
D03*
X190923Y63064D02*
D03*
Y71725D02*
D03*
D34*
X739446Y237375D02*
D03*
X731966D02*
D03*
X735706Y227336D02*
D03*
X345745Y237375D02*
D03*
X338265D02*
D03*
X342005Y227336D02*
D03*
M02*
